<svg width="195" height="99" viewBox="0 0 195 99" fill="none" xmlns="http://www.w3.org/2000/svg">
<path d="M4.69126 98.0038C7.58038 95.8467 7.20721 88.8567 7.10059 86.8595L14.5171 94.475C13.8958 95.3426 12.1806 97.604 4.69126 98.0038Z" fill="#F8F8F8"/>
<rect width="187" height="88" rx="10" transform="matrix(-0.998578 0.0533096 0.0533096 0.998578 189.73 0)" fill="#F8F8F8"/>
<path d="M21.8521 19.0764L22.2999 27.4645L21.4371 27.5105L21.2516 24.0355C20.3618 24.4755 19.4895 24.7184 18.6347 24.764C17.6521 24.8165 16.8724 24.6178 16.2956 24.1679C15.7268 23.7176 15.4193 23.061 15.3733 22.1982L15.2255 19.4302L16.1003 19.3835L16.2429 22.0557C16.2775 22.7028 16.508 23.1952 16.9347 23.5329C17.3613 23.8706 17.942 24.0199 18.677 23.9807C19.5158 23.9359 20.3599 23.6905 21.2094 23.2446L20.9893 19.1225L21.8521 19.0764ZM29.079 21.5387L26.6943 21.666L26.9905 27.2141L26.1397 27.2595L25.8436 21.7114L23.459 21.8387L23.4187 21.0838L29.0386 20.7837L29.079 21.5387ZM32.9162 26.9578C32.3091 26.9902 31.7546 26.8836 31.2528 26.638C30.7506 26.3844 30.3466 26.0215 30.041 25.5491C29.7354 25.0767 29.5662 24.5329 29.5333 23.9178C29.5005 23.3027 29.6109 22.744 29.8645 22.2418C30.118 21.7396 30.4812 21.3396 30.954 21.042C31.4269 20.7444 31.9668 20.5793 32.574 20.5469C33.1811 20.5145 33.7356 20.6211 34.2374 20.8667C34.7392 21.1123 35.1389 21.4715 35.4365 21.9443C35.7421 22.4167 35.9114 22.9605 35.9442 23.5756C35.977 24.1907 35.8667 24.7494 35.6131 25.2516C35.3675 25.7534 35.0085 26.1571 34.5361 26.4627C34.0633 26.7604 33.5233 26.9254 32.9162 26.9578ZM32.8759 26.2029C33.3233 26.179 33.7174 26.0578 34.0582 25.8393C34.4066 25.6124 34.6706 25.3059 34.8503 24.9198C35.03 24.5337 35.107 24.101 35.0814 23.6216C35.0558 23.1423 34.9332 22.7203 34.7134 22.3555C34.4937 21.9906 34.1987 21.718 33.8285 21.5375C33.466 21.3485 33.061 21.266 32.6136 21.2899C32.1663 21.3138 31.7684 21.4391 31.42 21.666C31.0791 21.8845 30.8149 22.187 30.6272 22.5736C30.4476 22.9597 30.3705 23.3924 30.3961 23.8718C30.4217 24.3511 30.5444 24.7731 30.7641 25.1379C30.9919 25.5023 31.287 25.779 31.6496 25.9679C32.0198 26.1484 32.4285 26.2268 32.8759 26.2029ZM47.1745 25.3915L47.2954 27.6562L46.4926 27.6991L46.4113 26.1773L40.7674 26.4786L40.8486 28.0004L40.0457 28.0433L39.9248 25.7785L40.2843 25.7593C40.7064 25.7127 40.9774 25.3858 41.0972 24.7786C41.217 24.1713 41.2761 23.327 41.2744 22.2455L41.2457 20.1321L45.8951 19.8838L46.1919 25.4439L47.1745 25.3915ZM42.0559 22.2519C42.0637 23.1487 42.0272 23.8917 41.9465 24.4809C41.8654 25.062 41.6868 25.4681 41.4107 25.6992L45.3411 25.4893L45.0846 20.6842L42.0529 20.846L42.0559 22.2519ZM54.2302 22.8637L48.9577 23.1452C49.0406 23.7977 49.3206 24.3155 49.7977 24.6986C50.2744 25.0738 50.8602 25.2428 51.5552 25.2057C51.9467 25.1848 52.3025 25.0977 52.6228 24.9444C52.9427 24.7831 53.2152 24.5603 53.4404 24.2759L53.9491 24.8015C53.6874 25.1519 53.3496 25.4263 52.9355 25.6247C52.5295 25.8226 52.0749 25.935 51.5716 25.9619C50.9245 25.9964 50.3421 25.8913 49.8243 25.6466C49.3141 25.3934 48.9061 25.0306 48.6005 24.5583C48.2949 24.0859 48.1257 23.5421 48.0928 22.927C48.06 22.3119 48.1624 21.7536 48.4 21.2523C48.6456 20.7505 48.9928 20.3514 49.4417 20.055C49.8985 19.7582 50.4185 19.5943 51.0017 19.5632C51.5848 19.532 52.1153 19.6399 52.5932 19.8868C53.071 20.1337 53.4548 20.4937 53.7444 20.9669C54.0336 21.4322 54.1948 21.9764 54.2281 22.5995L54.2302 22.8637ZM51.0407 20.2941C50.4335 20.3265 49.9327 20.5495 49.5382 20.9632C49.1513 21.3684 48.9465 21.884 48.9238 22.5101L53.3934 22.2715C53.3043 21.6514 53.0417 21.1607 52.6058 20.7994C52.1775 20.4297 51.6558 20.2613 51.0407 20.2941ZM60.9671 19.0792L61.3036 25.3822L60.4528 25.4277L60.1566 19.8796L57.1369 20.0408L57.1362 21.603C57.1422 22.9166 57.0442 23.9312 56.842 24.647C56.6399 25.3628 56.2313 25.7372 55.6162 25.77C55.4484 25.7789 55.243 25.7579 54.9999 25.7068L55.0208 24.9726C55.1663 24.9969 55.267 25.0075 55.3229 25.0045C55.6505 24.987 55.89 24.822 56.0416 24.5095C56.1931 24.197 56.2849 23.8156 56.317 23.3652C56.349 22.9149 56.3654 22.3211 56.3661 21.5841L56.3537 19.3255L60.9671 19.0792ZM65.552 18.7864C66.3749 18.7425 67.017 18.9165 67.4786 19.3084C67.9397 19.6924 68.1918 20.2878 68.2349 21.0946L68.4434 25.0011L67.6286 25.0446L67.5761 24.062C67.4019 24.3997 67.132 24.6705 66.7663 24.8743C66.4086 25.0777 65.9742 25.193 65.4629 25.2203C64.7599 25.2578 64.1917 25.1199 63.7584 24.8066C63.3251 24.4932 63.0937 24.0609 63.0643 23.5097C63.0357 22.9745 63.2044 22.5329 63.5704 22.1849C63.9443 21.8364 64.5547 21.6396 65.4015 21.5944L67.4027 21.4876L67.3822 21.1041C67.3532 20.5609 67.1794 20.1576 66.8609 19.8942C66.542 19.6228 66.091 19.5027 65.5078 19.5338C65.1084 19.5551 64.7286 19.6435 64.3683 19.7989C64.0077 19.9464 63.7017 20.143 63.4505 20.3887L63.0331 19.7741C63.3381 19.4854 63.7105 19.2572 64.1502 19.0895C64.5895 18.9139 65.0567 18.8128 65.552 18.7864ZM65.5589 24.5422C66.0382 24.5166 66.4439 24.3868 66.7758 24.1528C67.1074 23.9108 67.346 23.5776 67.4916 23.1532L67.4366 22.1227L65.4594 22.2282C64.3809 22.2858 63.8617 22.69 63.9018 23.441C63.9214 23.8085 64.0768 24.0926 64.3679 24.2933C64.6586 24.4861 65.0556 24.5691 65.5589 24.5422ZM74.8458 19.0954L72.4612 19.2227L72.7574 24.7708L71.9066 24.8162L71.6104 19.2681L69.2258 19.3954L69.1855 18.6405L74.8055 18.3405L74.8458 19.0954ZM78.8628 20.359C79.6541 20.3248 80.2626 20.4686 80.6883 20.7903C81.1221 21.1117 81.3562 21.5959 81.3908 22.2429C81.4266 22.914 81.2304 23.4412 80.8023 23.8246C80.3821 24.2075 79.7524 24.4174 78.9131 24.4542L76.3721 24.5778L76.0356 18.2748L76.8864 18.2294L77.0041 20.4342L78.8628 20.359ZM78.8307 23.8096C79.4143 23.7865 79.8475 23.6472 80.1302 23.3918C80.4206 23.1279 80.5532 22.7603 80.528 22.289C80.5033 21.8257 80.3372 21.49 80.0296 21.2821C79.7221 21.0742 79.2726 20.9821 78.681 21.0056L77.038 21.0693L77.1877 23.8733L78.8307 23.8096ZM83.036 22.9723C83.2197 22.9625 83.3749 23.0183 83.5016 23.1397C83.6278 23.2531 83.6958 23.4017 83.7056 23.5854C83.7107 23.6813 83.7003 23.786 83.6743 23.8996C83.6563 24.0127 83.6232 24.1426 83.575 24.2894L83.16 25.9699L82.5848 26.0006L82.8994 24.2414C82.7695 24.2082 82.6618 24.1419 82.5764 24.0423C82.4905 23.9347 82.4435 23.805 82.4354 23.6533C82.4256 23.4695 82.4774 23.3145 82.5909 23.1883C82.7039 23.0541 82.8522 22.9821 83.036 22.9723ZM94.0641 20.7372L88.7916 21.0187C88.8745 21.6712 89.1545 22.189 89.6316 22.5721C90.1083 22.9472 90.6941 23.1162 91.3891 23.0791C91.7806 23.0582 92.1364 22.9711 92.4567 22.8178C92.7766 22.6566 93.0491 22.4337 93.2743 22.1493L93.783 22.6749C93.5213 23.0254 93.1835 23.2998 92.7694 23.4981C92.3634 23.6961 91.9088 23.8085 91.4055 23.8353C90.7584 23.8699 90.176 23.7648 89.6582 23.52C89.148 23.2669 88.74 22.9041 88.4344 22.4317C88.1288 21.9593 87.9596 21.4156 87.9267 20.8005C87.8939 20.1853 87.9963 19.6271 88.2339 19.1257C88.4795 18.6239 88.8267 18.2248 89.2756 17.9285C89.7324 17.6317 90.2524 17.4677 90.8356 17.4366C91.4187 17.4055 91.9492 17.5134 92.4271 17.7602C92.9049 18.0071 93.2887 18.3672 93.5783 18.8404C93.8675 19.3056 94.0287 19.8498 94.062 20.4729L94.0641 20.7372ZM90.8746 18.1676C90.2674 18.2 89.7666 18.423 89.3721 18.8366C88.9852 19.2418 88.7804 19.7575 88.7577 20.3836L93.2273 20.145C93.1382 19.5248 92.8756 19.0341 92.4397 18.6729C92.0114 18.3032 91.4897 18.1347 90.8746 18.1676ZM98.753 23.4431C98.1299 23.4763 97.5634 23.3704 97.0536 23.1252C96.5518 22.8796 96.1481 22.5206 95.8425 22.0483C95.5364 21.5679 95.367 21.0201 95.3342 20.405C95.3013 19.7899 95.4117 19.2312 95.6653 18.729C95.9189 18.2267 96.2821 17.8268 96.7549 17.5292C97.2357 17.2311 97.7876 17.0655 98.4107 17.0322C98.954 17.0032 99.443 17.0853 99.8779 17.2783C100.32 17.463 100.676 17.7525 100.946 18.1466L100.334 18.6119C100.109 18.3115 99.8334 18.0939 99.5057 17.9592C99.1776 17.8164 98.8259 17.7551 98.4504 17.7751C97.995 17.7995 97.5892 17.9253 97.2328 18.1526C96.884 18.3715 96.6157 18.6742 96.4281 19.0608C96.2484 19.4469 96.1713 19.8796 96.1969 20.359C96.223 20.8463 96.3458 21.2723 96.5656 21.6371C96.7929 21.9935 97.0919 22.266 97.4624 22.4545C97.8406 22.6346 98.2573 22.7125 98.7127 22.6882C99.0881 22.6681 99.4316 22.5737 99.743 22.4048C100.054 22.236 100.306 21.9902 100.497 21.6676L101.155 22.0651C100.929 22.4857 100.606 22.8154 100.186 23.0541C99.766 23.2848 99.2882 23.4145 98.753 23.4431ZM107.471 16.5966L107.808 22.8996L106.957 22.945L106.661 17.3969L103.641 17.5581L103.64 19.1204C103.646 20.4339 103.548 21.4486 103.346 22.1644C103.144 22.8802 102.735 23.2545 102.12 23.2873C101.952 23.2963 101.747 23.2752 101.504 23.2241L101.525 22.49C101.67 22.5142 101.771 22.5249 101.827 22.5219C102.155 22.5044 102.394 22.3394 102.546 22.0269C102.697 21.7144 102.789 21.3329 102.821 20.8826C102.853 20.4322 102.869 19.8385 102.87 19.1014L102.858 16.8429L107.471 16.5966ZM109.89 16.4675L110.741 16.422L111.008 21.4309L114.947 16.1975L115.701 16.1572L116.038 22.4602L115.187 22.5056L114.92 17.4968L110.993 22.7295L110.226 22.7705L109.89 16.4675ZM19.6157 42.6892C18.9926 42.7225 18.4261 42.6165 17.9163 42.3714C17.4145 42.1258 17.0108 41.7668 16.7052 41.2944C16.3991 40.814 16.2297 40.2663 16.1969 39.6512C16.164 39.036 16.2744 38.4774 16.528 37.9751C16.7816 37.4729 17.1448 37.073 17.6176 36.7753C18.0984 36.4773 18.6503 36.3116 19.2734 36.2783C19.8167 36.2493 20.3057 36.3314 20.7406 36.5245C21.1831 36.7092 21.539 36.9986 21.8084 37.3928L21.1964 37.8581C20.972 37.5576 20.6961 37.34 20.3684 37.2053C20.0403 37.0626 19.6886 37.0012 19.3131 37.0213C18.8577 37.0456 18.4519 37.1714 18.0955 37.3987C17.7467 37.6176 17.4784 37.9204 17.2908 38.3069C17.1111 38.6931 17.034 39.1258 17.0596 39.6051C17.0856 40.0924 17.2085 40.5185 17.4283 40.8833C17.6556 41.2396 17.9546 41.5121 18.3251 41.7006C18.7033 41.8807 19.12 41.9586 19.5754 41.9343C19.9508 41.9143 20.2943 41.8198 20.6057 41.651C20.9172 41.4821 21.1684 41.2364 21.3595 40.9137L22.0176 41.3112C21.7917 41.7319 21.4689 42.0615 21.049 42.3003C20.6287 42.531 20.1509 42.6606 19.6157 42.6892ZM26.2265 42.3363C25.6194 42.3687 25.0649 42.2621 24.5631 42.0165C24.0609 41.7629 23.6569 41.3999 23.3513 40.9276C23.0457 40.4552 22.8765 39.9114 22.8436 39.2963C22.8108 38.6812 22.9212 38.1225 23.1748 37.6203C23.4284 37.118 23.7915 36.7181 24.2644 36.4205C24.7372 36.1229 25.2771 35.9578 25.8843 35.9254C26.4914 35.893 27.0459 35.9996 27.5477 36.2452C28.0495 36.4908 28.4492 36.85 28.7468 37.3228C29.0524 37.7952 29.2217 38.3389 29.2545 38.9541C29.2874 39.5692 29.177 40.1279 28.9234 40.6301C28.6778 41.1319 28.3188 41.5356 27.8464 41.8412C27.3736 42.1389 26.8337 42.3039 26.2265 42.3363ZM26.1862 41.5814C26.6336 41.5575 27.0277 41.4363 27.3685 41.2178C27.7169 40.9909 27.9809 40.6844 28.1606 40.2983C28.3403 39.9122 28.4173 39.4794 28.3917 39.0001C28.3662 38.5208 28.2435 38.0987 28.0237 37.7339C27.804 37.3691 27.509 37.0965 27.1389 36.916C26.7763 36.727 26.3713 36.6445 25.9239 36.6684C25.4766 36.6923 25.0787 36.8176 24.7303 37.0445C24.3894 37.263 24.1252 37.5655 23.9375 37.9521C23.7579 38.3382 23.6808 38.7709 23.7064 39.2503C23.732 39.7296 23.8547 40.1516 24.0744 40.5164C24.3022 40.8808 24.5974 41.1575 24.9599 41.3464C25.3301 41.5269 25.7388 41.6053 26.1862 41.5814ZM35.1445 36.2362L32.7599 36.3635L33.0561 41.9116L32.2053 41.957L31.9091 36.4089L29.5245 36.5362L29.4842 35.7813L35.1042 35.4813L35.1445 36.2362ZM39.5792 35.1943C40.1703 35.1628 40.7128 35.27 41.2066 35.516C41.7 35.7541 42.0955 36.1095 42.3932 36.5823C42.6908 37.0551 42.8562 37.603 42.8895 38.2262C42.9232 38.8573 42.8172 39.4237 42.5716 39.9255C42.326 40.4273 41.9708 40.8268 41.506 41.124C41.0488 41.4128 40.5206 41.5732 39.9214 41.6052C39.4101 41.6325 38.9413 41.5534 38.5148 41.3678C38.0958 41.1739 37.7437 40.8803 37.4583 40.4869L37.6457 43.9979L36.7949 44.0433L36.3344 35.4156L37.1492 35.3721L37.2157 36.6183C37.4492 36.1893 37.7676 35.8518 38.1711 35.606C38.5826 35.3597 39.0519 35.2225 39.5792 35.1943ZM39.8212 40.8535C40.2606 40.83 40.6547 40.7088 41.0035 40.4899C41.3519 40.263 41.6159 39.9565 41.7956 39.5704C41.9833 39.1838 42.0643 38.7509 42.0387 38.2716C42.0131 37.7923 41.8867 37.3744 41.6594 37.018C41.4396 36.6532 41.1444 36.3766 40.7738 36.188C40.4033 35.9995 39.9983 35.917 39.5589 35.9405C39.1116 35.9643 38.7137 36.0897 38.3653 36.3166C38.0249 36.5431 37.7608 36.8496 37.5732 37.2362C37.3931 37.6143 37.3158 38.043 37.3414 38.5223C37.367 39.0017 37.4897 39.4237 37.7094 39.7885C37.9372 40.1529 38.2323 40.4296 38.5949 40.6185C38.9651 40.799 39.3738 40.8773 39.8212 40.8535ZM49.7301 34.7005L46.9553 41.9267C46.7313 42.5315 46.4581 42.9667 46.1358 43.2322C45.8135 43.4978 45.4167 43.6431 44.9453 43.6683C44.6418 43.6845 44.3556 43.6517 44.0869 43.5699C43.8181 43.4881 43.5828 43.3565 43.3808 43.175L43.7423 42.5188C44.0789 42.8213 44.4709 42.9606 44.9183 42.9367C45.2059 42.9213 45.4453 42.8285 45.6365 42.658C45.8356 42.4872 46.0129 42.2053 46.1681 41.8125L46.4111 41.1866L43.2593 35.0459L44.146 34.9986L46.8046 40.2283L48.8913 34.7453L49.7301 34.7005ZM57.2188 39.8766L57.3397 42.1414L56.5369 42.1842L56.4556 40.6624L50.8116 40.9637L50.8929 42.4856L50.09 42.5284L49.9691 40.2636L50.3286 40.2444C50.7507 40.1979 51.0217 39.871 51.1415 39.2637C51.2613 38.6565 51.3204 37.8121 51.3187 36.7307L51.29 34.6172L55.9394 34.369L56.2362 39.9291L57.2188 39.8766ZM52.1002 36.737C52.108 37.6339 52.0715 38.3769 51.9908 38.966C51.9097 39.5472 51.7311 39.9533 51.455 40.1843L55.3854 39.9745L55.1289 35.1693L52.0972 35.3312L52.1002 36.737ZM58.58 34.228L59.4308 34.1826L59.5799 36.9746L63.5462 36.7629L63.3972 33.9709L64.2479 33.9254L64.5844 40.2285L63.7337 40.2739L63.5852 37.4938L59.6189 37.7056L59.7673 40.4856L58.9165 40.531L58.58 34.228ZM66.6662 33.7963L67.517 33.7509L67.7844 38.7598L71.723 33.5264L72.4779 33.4861L72.8144 39.7891L71.9636 39.8345L71.6962 34.8256L67.7696 40.0584L67.0027 40.0994L66.6662 33.7963ZM77.3917 36.7327L75.9537 36.8095L76.1034 39.6135L75.2526 39.6589L74.9161 33.3559L75.7669 33.3105L75.9147 36.0785L77.3646 36.0011L79.4337 33.1147L80.3564 33.0655L78.039 36.2535L80.8726 39.3589L79.8661 39.4126L77.3917 36.7327ZM90.4808 31.2031L86.0111 31.4417L86.43 39.0622L85.5552 39.1089L85.1074 30.7209L90.4398 30.4362L90.4808 31.2031ZM91.9649 30.3548L92.8396 30.3081L93.2106 37.2582L98.208 30.0215L99.0108 29.9786L99.4586 38.3667L98.5839 38.4134L98.2135 31.4753L93.2155 38.7L92.4127 38.7428L91.9649 30.3548ZM101.841 29.8275L107.977 29.5L108.017 30.2549L102.756 30.5357L102.903 33.2798L105.647 33.1333C106.638 33.0805 107.399 33.2441 107.932 33.6242C108.473 34.0039 108.765 34.5812 108.806 35.3561C108.849 36.1629 108.603 36.797 108.066 37.2582C107.538 37.719 106.755 37.9772 105.716 38.0326L102.289 38.2156L101.841 29.8275ZM105.667 37.3263C106.442 37.2849 107.017 37.106 107.392 36.7895C107.776 36.4726 107.952 36.0225 107.921 35.4394C107.891 34.8642 107.672 34.4473 107.266 34.1886C106.867 33.9214 106.272 33.809 105.481 33.8512L102.941 33.9868L103.126 37.4619L105.667 37.3263ZM118.437 36.5844L118.579 39.2326L117.752 39.2768L117.651 37.3954L110.33 37.7863L110.418 39.6683L109.591 39.7124L109.462 37.0635L109.881 37.0412C110.431 36.9798 110.791 36.5239 110.962 35.6736C111.133 34.8153 111.2 33.61 111.166 32.0576L111.116 29.3324L116.772 29.0304L117.179 36.6516L118.437 36.5844ZM111.961 32.0993C111.989 33.3796 111.946 34.4394 111.83 35.2788C111.722 36.1097 111.492 36.6748 111.14 36.974L116.304 36.6983L115.938 29.844L111.924 30.0583L111.961 32.0993ZM127.951 36.0765L128.092 38.7247L127.266 38.7689L127.165 36.8875L119.844 37.2784L119.932 39.1604L119.105 39.2045L118.976 36.5556L119.395 36.5333C119.945 36.4719 120.305 36.016 120.476 35.1657C120.646 34.3074 120.714 33.1021 120.679 31.5497L120.63 28.8245L126.286 28.5225L126.693 36.1437L127.951 36.0765ZM121.475 31.5914C121.503 32.8717 121.46 33.9315 121.344 34.7709C121.236 35.6018 121.006 36.1669 120.654 36.4661L125.818 36.1904L125.452 29.3361L121.438 29.5504L121.475 31.5914ZM138.053 29.9853L138.389 36.2884L137.538 36.3338L137.242 30.7857L133.288 30.9968L133.584 36.5449L132.733 36.5903L132.397 30.2873L138.053 29.9853ZM143.716 29.6349C144.307 29.6034 144.85 29.7106 145.343 29.9566C145.837 30.1947 146.232 30.5501 146.53 31.0229C146.828 31.4957 146.993 32.0436 147.026 32.6668C147.06 33.2979 146.954 33.8643 146.709 34.3661C146.463 34.8679 146.108 35.2674 145.643 35.5646C145.186 35.8534 144.657 36.0138 144.058 36.0458C143.547 36.0731 143.078 35.994 142.652 35.8084C142.233 35.6145 141.881 35.3209 141.595 34.9275L141.783 38.4385L140.932 38.4839L140.471 29.8562L141.286 29.8127L141.353 31.0589C141.586 30.6299 141.905 30.2924 142.308 30.0466C142.719 29.8003 143.189 29.6631 143.716 29.6349ZM143.958 35.2941C144.397 35.2706 144.792 35.1494 145.14 34.9305C145.489 34.7036 145.753 34.3971 145.932 34.011C146.12 33.6244 146.201 33.1915 146.176 32.7122C146.15 32.2329 146.024 31.815 145.796 31.4586C145.576 31.0938 145.281 30.8172 144.911 30.6286C144.54 30.4401 144.135 30.3576 143.696 30.3811C143.248 30.4049 142.851 30.5303 142.502 30.7572C142.162 30.9837 141.898 31.2902 141.71 31.6768C141.53 32.0549 141.453 32.4836 141.478 32.9629C141.504 33.4423 141.627 33.8643 141.846 34.2291C142.074 34.5935 142.369 34.8702 142.732 35.0591C143.102 35.2396 143.511 35.3179 143.958 35.2941ZM151.626 35.6418C151.019 35.6742 150.464 35.5676 149.963 35.322C149.46 35.0684 149.056 34.7054 148.751 34.2331C148.445 33.7607 148.276 33.2169 148.243 32.6018C148.21 31.9867 148.321 31.428 148.574 30.9258C148.828 30.4235 149.191 30.0236 149.664 29.726C150.137 29.4283 150.677 29.2633 151.284 29.2309C151.891 29.1985 152.445 29.3051 152.947 29.5507C153.449 29.7963 153.849 30.1555 154.146 30.6283C154.452 31.1007 154.621 31.6444 154.654 32.2596C154.687 32.8747 154.577 33.4334 154.323 33.9356C154.077 34.4374 153.718 34.8411 153.246 35.1467C152.773 35.4443 152.233 35.6094 151.626 35.6418ZM151.586 34.8869C152.033 34.863 152.427 34.7418 152.768 34.5233C153.116 34.2964 153.381 33.9899 153.56 33.6038C153.74 33.2177 153.817 32.7849 153.791 32.3056C153.766 31.8263 153.643 31.4042 153.423 31.0394C153.204 30.6746 152.909 30.402 152.538 30.2214C152.176 30.0325 151.771 29.95 151.323 29.9739C150.876 29.9977 150.478 30.1231 150.13 30.35C149.789 30.5685 149.525 30.871 149.337 31.2576C149.157 31.6437 149.08 32.0764 149.106 32.5557C149.132 33.0351 149.254 33.4571 149.474 33.8219C149.702 34.1863 149.997 34.463 150.359 34.6519C150.73 34.8324 151.138 34.9107 151.586 34.8869ZM159.28 35.2332C158.657 35.2664 158.091 35.1605 157.581 34.9153C157.079 34.6697 156.675 34.3107 156.37 33.8383C156.064 33.358 155.894 32.8102 155.861 32.1951C155.828 31.58 155.939 31.0213 156.192 30.5191C156.446 30.0168 156.809 29.6169 157.282 29.3193C157.763 29.0212 158.315 28.8556 158.938 28.8223C159.481 28.7933 159.97 28.8753 160.405 29.0684C160.848 29.2531 161.203 29.5425 161.473 29.9367L160.861 30.402C160.636 30.1016 160.36 29.884 160.033 29.7492C159.705 29.6065 159.353 29.5452 158.977 29.5652C158.522 29.5895 158.116 29.7154 157.76 29.9427C157.411 30.1616 157.143 30.4643 156.955 30.8509C156.775 31.237 156.698 31.6697 156.724 32.149C156.75 32.6364 156.873 33.0624 157.093 33.4272C157.32 33.7836 157.619 34.056 157.99 34.2446C158.368 34.4247 158.784 34.5026 159.24 34.4782C159.615 34.4582 159.959 34.3638 160.27 34.1949C160.582 34.0261 160.833 33.7803 161.024 33.4577L161.682 33.8552C161.456 34.2758 161.133 34.6055 160.713 34.8442C160.293 35.0749 159.815 35.2046 159.28 35.2332ZM163.056 28.6505L163.907 28.6051L164.174 33.614L168.113 28.3805L168.868 28.3402L169.204 34.6433L168.354 34.6887L168.086 29.6798L164.16 34.9126L163.393 34.9535L163.056 28.6505ZM175.78 28.7283L173.396 28.8556L173.692 34.4037L172.841 34.4491L172.545 28.901L170.16 29.0283L170.12 28.2734L175.74 27.9734L175.78 28.7283ZM21.6162 54.275C22.4816 54.4291 22.9365 54.9216 22.9809 55.7524C23.0103 56.3036 22.8292 56.7379 22.4375 57.0552C22.0459 57.3725 21.4467 57.5527 20.6398 57.5958L17.7759 57.7487L17.4394 51.4457L20.2194 51.2973C20.9384 51.2589 21.5091 51.3686 21.9314 51.6265C22.3538 51.8843 22.5788 52.2729 22.6065 52.7921C22.6249 53.1357 22.5448 53.4364 22.3663 53.6942C22.1953 53.9437 21.9453 54.1373 21.6162 54.275ZM18.4159 54.2056L20.3092 54.1045C20.7965 54.0785 21.1631 53.9668 21.4089 53.7694C21.6627 53.5716 21.7802 53.2969 21.7615 52.9454C21.7427 52.5939 21.5968 52.3373 21.3238 52.1756C21.0588 52.0135 20.6826 51.9455 20.1953 51.9715L18.302 52.0726L18.4159 54.2056ZM20.568 56.9267C21.1113 56.8977 21.514 56.7881 21.7762 56.5978C22.0384 56.4076 22.1595 56.1247 22.1395 55.7492C22.1194 55.3738 21.9809 55.1048 21.7239 54.9423C21.4664 54.7717 21.0701 54.7008 20.5348 54.7293L18.4498 54.8407L18.5669 57.0335L20.568 56.9267ZM27.497 53.1439C28.2883 53.1097 28.9008 53.2533 29.3346 53.5746C29.7683 53.8959 30.0025 54.3801 30.037 55.0272C30.0728 55.6983 29.8767 56.2255 29.4485 56.6088C29.0203 56.9922 28.3906 57.2021 27.5594 57.2384L25.0663 57.3595L24.7298 51.0565L25.5806 51.0111L25.6983 53.2159L27.497 53.1439ZM30.8651 50.729L31.7158 50.6835L32.0523 56.9866L31.2015 57.032L30.8651 50.729ZM27.4769 56.5939C28.0605 56.5708 28.4937 56.4315 28.7765 56.176C29.0668 55.9122 29.1994 55.5446 29.1742 55.0733C29.1495 54.6099 28.9834 54.2743 28.6759 54.0664C28.3683 53.8585 27.9188 53.7663 27.3272 53.7899L25.7322 53.851L25.8819 56.655L27.4769 56.5939ZM34.1383 50.5542L34.9891 50.5088L35.2565 55.5177L39.1951 50.2843L39.95 50.2439L40.2865 56.547L39.4357 56.5924L39.1683 51.5835L35.2417 56.8163L34.4748 56.8572L34.1383 50.5542ZM36.9536 49.4906C36.4103 49.5196 35.9717 49.4068 35.6377 49.1523C35.3036 48.8977 35.1194 48.523 35.0849 48.0282L35.6961 47.9955C35.7207 48.3067 35.846 48.5523 36.0719 48.7325C36.2974 48.9048 36.5819 48.9817 36.9254 48.9634C37.2689 48.945 37.5436 48.8382 37.7495 48.643C37.963 48.4393 38.0654 48.1815 38.0567 47.8695L38.6678 47.8369C38.6863 48.3326 38.539 48.725 38.226 49.0141C37.9209 49.3028 37.4968 49.4616 36.9536 49.4906ZM46.8622 50.632L44.4776 50.7593L44.7738 56.3074L43.923 56.3528L43.6268 50.8047L41.2422 50.932L41.2019 50.1771L46.8219 49.8771L46.8622 50.632ZM48.052 49.8114L48.9028 49.766L49.1702 54.7749L53.1088 49.5415L53.8638 49.5012L54.2003 55.8042L53.3495 55.8496L53.0821 50.8407L49.1554 56.0735L48.3885 56.1144L48.052 49.8114ZM59.4382 49.2036L60.289 49.1581L60.5564 54.167L64.495 48.9336L65.2499 48.8933L65.5864 55.1963L64.7356 55.2417L64.4682 50.2329L60.5416 55.4656L59.7747 55.5066L59.4382 49.2036ZM70.7883 51.6259C71.2412 51.7059 71.5943 51.8673 71.8476 52.1102C72.1089 52.3526 72.2493 52.6575 72.269 53.025C72.2886 53.3925 72.1782 53.7268 71.938 54.0281C71.7057 54.3289 71.3781 54.5707 70.9552 54.7535C70.5319 54.9283 70.0607 55.0296 69.5414 55.0573C69.0861 55.0816 68.6353 55.0416 68.1891 54.9372C67.7425 54.8249 67.3486 54.6496 67.0074 54.4115L67.2611 53.761C67.5602 53.9613 67.9046 54.1112 68.2945 54.2106C68.6844 54.3099 69.075 54.3491 69.4664 54.3282C70.0496 54.2971 70.5192 54.1639 70.8751 53.9286C71.2387 53.6849 71.4104 53.3753 71.3904 52.9998C71.3724 52.6643 71.2068 52.4127 70.8934 52.2452C70.5796 52.0697 70.1591 51.996 69.6318 52.0242L68.5534 52.0817L68.5201 51.4586L69.5506 51.4036C70.022 51.3784 70.3967 51.2703 70.675 51.0792C70.9527 50.8801 71.0835 50.6288 71.0673 50.3252C71.0494 49.9897 70.8716 49.7348 70.5338 49.5606C70.204 49.3859 69.7795 49.3124 69.2602 49.3401C68.5812 49.3764 67.9193 49.584 67.2746 49.9629L66.9998 49.3166C67.7298 48.8851 68.4982 48.6478 69.3051 48.6047C69.7844 48.5791 70.2196 48.628 70.6108 48.7513C71.0095 48.8662 71.3235 49.0457 71.5528 49.2899C71.7901 49.5336 71.9178 49.8232 71.9357 50.1587C71.9527 50.4782 71.856 50.7678 71.6456 51.0274C71.4431 51.2865 71.1573 51.4861 70.7883 51.6259ZM79.263 48.0971C80.0858 48.0532 80.728 48.2272 81.1895 48.6192C81.6507 49.0031 81.9028 49.5985 81.9458 50.4054L82.1544 54.3118L81.3395 54.3553L81.2871 53.3727C81.1129 53.7105 80.8429 53.9813 80.4772 54.1851C80.1196 54.3884 79.6851 54.5037 79.1738 54.531C78.4708 54.5686 77.9027 54.4307 77.4694 54.1173C77.036 53.804 76.8047 53.3717 76.7752 52.8205C76.7467 52.2852 76.9154 51.8436 77.2813 51.4956C77.6553 51.1472 78.2657 50.9504 79.1125 50.9052L81.1136 50.7983L81.0931 50.4149C81.0641 49.8716 80.8904 49.4683 80.5719 49.2049C80.253 48.9336 79.8019 48.8134 79.2188 48.8446C78.8193 48.8659 78.4395 48.9543 78.0793 49.1097C77.7186 49.2571 77.4127 49.4537 77.1614 49.6994L76.744 49.0848C77.0491 48.7962 77.4215 48.568 77.8611 48.4003C78.3004 48.2246 78.7677 48.1236 79.263 48.0971ZM79.2698 53.853C79.7491 53.8274 80.1548 53.6976 80.4868 53.4635C80.8184 53.2215 81.0569 52.8883 81.2025 52.464L81.1475 51.4334L79.1703 51.539C78.0919 51.5965 77.5727 52.0008 77.6128 52.7517C77.6324 53.1192 77.7877 53.4033 78.0789 53.6041C78.3696 53.7969 78.7665 53.8798 79.2698 53.853ZM88.2595 50.7173C89.125 50.8713 89.5799 51.3638 89.6242 52.1946C89.6537 52.7458 89.4726 53.1801 89.0809 53.4974C88.6893 53.8148 88.09 53.995 87.2832 54.038L84.4193 54.1909L84.0828 47.8879L86.8628 47.7395C87.5818 47.7011 88.1524 47.8108 88.5748 48.0687C88.9971 48.3265 89.2222 48.7151 89.2499 49.2344C89.2682 49.5779 89.1881 49.8786 89.0096 50.1364C88.8387 50.3859 88.5887 50.5795 88.2595 50.7173ZM85.0593 50.6478L86.9526 50.5467C87.4399 50.5207 87.8065 50.409 88.0523 50.2116C88.3061 50.0138 88.4236 49.7391 88.4049 49.3876C88.3861 49.0361 88.2402 48.7795 87.9672 48.6179C87.7022 48.4558 87.326 48.3877 86.8387 48.4137L84.9454 48.5148L85.0593 50.6478ZM87.2114 53.3689C87.7546 53.3399 88.1574 53.2303 88.4196 53.04C88.6818 52.8498 88.8029 52.5669 88.7829 52.1915C88.7628 51.816 88.6243 51.547 88.3673 51.3845C88.1098 51.2139 87.7135 51.143 87.1782 51.1716L85.0932 51.2829L85.2103 53.4757L87.2114 53.3689ZM95.8472 48.0169L93.4626 48.1442L93.7587 53.6923L92.908 53.7378L92.6118 48.1897L90.2272 48.317L90.1869 47.562L95.8069 47.262L95.8472 48.0169ZM99.6844 53.4361C99.0773 53.4685 98.5228 53.3619 98.021 53.1163C97.5188 52.8627 97.1148 52.4997 96.8092 52.0273C96.5036 51.555 96.3344 51.0112 96.3015 50.3961C96.2687 49.781 96.3791 49.2223 96.6327 48.7201C96.8862 48.2178 97.2494 47.8179 97.7223 47.5203C98.1951 47.2226 98.735 47.0576 99.3422 47.0252C99.9493 46.9928 100.504 47.0994 101.006 47.345C101.507 47.5906 101.907 47.9498 102.205 48.4226C102.51 48.895 102.68 49.4387 102.712 50.0538C102.745 50.669 102.635 51.2276 102.381 51.7299C102.136 52.2317 101.777 52.6354 101.304 52.941C100.832 53.2386 100.292 53.4037 99.6844 53.4361ZM99.6441 52.6811C100.091 52.6573 100.486 52.5361 100.826 52.3176C101.175 52.0907 101.439 51.7842 101.619 51.3981C101.798 51.0119 101.875 50.5792 101.85 50.0999C101.824 49.6206 101.701 49.1985 101.482 48.8337C101.262 48.4689 100.967 48.1963 100.597 48.0157C100.234 47.8268 99.8292 47.7443 99.3818 47.7681C98.9345 47.792 98.5366 47.9174 98.1882 48.1443C97.8473 48.3628 97.5831 48.6653 97.3954 49.0519C97.2158 49.438 97.1387 49.8707 97.1643 50.35C97.1899 50.8293 97.3126 51.2514 97.5323 51.6162C97.7601 51.9806 98.0553 52.2572 98.4178 52.4462C98.788 52.6267 99.1967 52.705 99.6441 52.6811ZM105.597 50.5368C105.579 50.2092 105.616 49.9189 105.707 49.6657C105.805 49.412 105.93 49.1931 106.08 49.0088C106.231 48.8245 106.428 48.6137 106.671 48.3764C106.999 48.0545 107.236 47.7774 107.384 47.5452C107.539 47.3046 107.608 47.0205 107.591 46.693C107.567 46.2536 107.377 45.9113 107.019 45.666C106.661 45.4127 106.183 45.3021 105.584 45.3341C104.593 45.387 103.847 45.7512 103.347 46.4269L102.686 45.9815C103.321 45.1144 104.293 44.6459 105.603 44.5759C106.442 44.5312 107.119 44.6833 107.634 45.0323C108.158 45.3809 108.436 45.8748 108.471 46.5138C108.488 46.8414 108.448 47.1359 108.35 47.3976C108.259 47.6507 108.138 47.8695 107.988 48.0538C107.846 48.2376 107.653 48.4522 107.409 48.6975C107.083 49.0274 106.842 49.3207 106.687 49.5773C106.532 49.8259 106.464 50.1299 106.484 50.4894L105.597 50.5368ZM106.178 53.0894C106.002 53.0988 105.851 53.0468 105.725 52.9333C105.598 52.8119 105.53 52.6673 105.521 52.4996C105.512 52.3238 105.564 52.1768 105.678 52.0586C105.792 51.9324 105.936 51.8646 106.112 51.8552C106.296 51.8454 106.451 51.8972 106.577 52.0106C106.703 52.1161 106.77 52.2566 106.78 52.4324C106.789 52.6002 106.733 52.7514 106.612 52.886C106.498 53.0122 106.354 53.08 106.178 53.0894ZM119.76 43.8923L120.208 52.2803L119.333 52.327L119.198 49.7866L116.693 49.9203C116.581 49.9263 116.421 49.9269 116.212 49.922L114.588 52.5804L113.641 52.6309L115.401 49.8091C114.776 49.6582 114.288 49.3598 113.936 48.9139C113.583 48.4601 113.388 47.8936 113.352 47.2146C113.302 46.2719 113.558 45.5252 114.122 44.9744C114.693 44.4231 115.486 44.1204 116.501 44.0663L119.76 43.8923ZM114.238 47.1433C114.274 47.8303 114.502 48.3509 114.922 48.705C115.349 49.0508 115.95 49.203 116.725 49.1616L119.157 49.0317L118.926 44.7059L116.578 44.8313C115.795 44.8731 115.198 45.0932 114.786 45.4917C114.383 45.8818 114.2 46.4323 114.238 47.1433ZM130.135 46.1865L126.528 46.379L126.824 51.9271L125.973 51.9725L125.637 45.6695L130.095 45.4315L130.135 46.1865ZM137.382 50.6184L137.503 52.8832L136.7 52.9261L136.619 51.4042L130.975 51.7055L131.056 53.2274L130.253 53.2702L130.132 51.0055L130.492 50.9863C130.914 50.9397 131.185 50.6128 131.305 50.0055C131.424 49.3983 131.484 48.5539 131.482 47.4725L131.453 45.359L136.103 45.1108L136.399 50.6709L137.382 50.6184ZM132.263 47.4788C132.271 48.3757 132.235 49.1187 132.154 49.7078C132.073 50.289 131.894 50.6951 131.618 50.9261L135.549 50.7163L135.292 45.9111L132.26 46.073L132.263 47.4788ZM144.438 48.0907L139.165 48.3722C139.248 49.0247 139.528 49.5425 140.005 49.9256C140.482 50.3007 141.068 50.4697 141.763 50.4326C142.154 50.4117 142.51 50.3246 142.83 50.1713C143.15 50.0101 143.423 49.7872 143.648 49.5028L144.157 50.0284C143.895 50.3789 143.557 50.6533 143.143 50.8516C142.737 51.0496 142.282 51.162 141.779 51.1888C141.132 51.2234 140.55 51.1183 140.032 50.8735C139.522 50.6204 139.114 50.2576 138.808 49.7852C138.502 49.3128 138.333 48.7691 138.3 48.154C138.267 47.5388 138.37 46.9806 138.607 46.4792C138.853 45.9774 139.2 45.5783 139.649 45.282C140.106 44.9852 140.626 44.8212 141.209 44.7901C141.792 44.759 142.323 44.8669 142.801 45.1137C143.278 45.3606 143.662 45.7207 143.952 46.1939C144.241 46.6591 144.402 47.2033 144.436 47.8264L144.438 48.0907ZM141.248 45.5211C140.641 45.5535 140.14 45.7765 139.746 46.1901C139.359 46.5953 139.154 47.111 139.131 47.7371L143.601 47.4985C143.512 46.8783 143.249 46.3876 142.813 46.0264C142.385 45.6567 141.863 45.4882 141.248 45.5211ZM145.92 47.2785L149.059 47.1109L149.099 47.8539L145.959 48.0215L145.92 47.2785ZM155.036 44.8571L152.652 44.9844L152.948 50.5325L152.097 50.5779L151.801 45.0298L149.416 45.1571L149.376 44.4022L154.996 44.1022L155.036 44.8571ZM158.874 50.2762C158.266 50.3086 157.712 50.202 157.21 49.9565C156.708 49.7029 156.304 49.3399 155.998 48.8675C155.693 48.3951 155.524 47.8514 155.491 47.2362C155.458 46.6211 155.568 46.0624 155.822 45.5602C156.075 45.058 156.439 44.658 156.911 44.3604C157.384 44.0628 157.924 43.8978 158.531 43.8654C159.138 43.8329 159.693 43.9395 160.195 44.1851C160.697 44.4307 161.096 44.7899 161.394 45.2627C161.699 45.7351 161.869 46.2789 161.902 46.894C161.934 47.5091 161.824 48.0678 161.57 48.57C161.325 49.0718 160.966 49.4756 160.493 49.7812C160.021 50.0788 159.481 50.2438 158.874 50.2762ZM158.833 49.5213C159.281 49.4974 159.675 49.3762 160.016 49.1578C160.364 48.9309 160.628 48.6244 160.808 48.2382C160.987 47.8521 161.064 47.4194 161.039 46.9401C161.013 46.4607 160.891 46.0387 160.671 45.6739C160.451 45.3091 160.156 45.0364 159.786 44.8559C159.423 44.6669 159.018 44.5844 158.571 44.6083C158.124 44.6322 157.726 44.7576 157.377 44.9845C157.036 45.2029 156.772 45.5055 156.585 45.892C156.405 46.2781 156.328 46.7109 156.353 47.1902C156.379 47.6695 156.502 48.0916 156.721 48.4564C156.949 48.8207 157.244 49.0974 157.607 49.2863C157.977 49.4669 158.386 49.5452 158.833 49.5213ZM21.215 72.6466C20.5919 72.6798 20.0254 72.5739 19.5156 72.3287C19.0138 72.0831 18.6101 71.7241 18.3045 71.2517C17.9984 70.7714 17.829 70.2236 17.7961 69.6085C17.7633 68.9934 17.8737 68.4347 18.1273 67.9325C18.3809 67.4302 18.7441 67.0303 19.2169 66.7327C19.6977 66.4346 20.2496 66.269 20.8727 66.2357C21.4159 66.2067 21.905 66.2887 22.3399 66.4818C22.7824 66.6665 23.1383 66.9559 23.4077 67.3501L22.7957 67.8154C22.5713 67.515 22.2953 67.2974 21.9677 67.1626C21.6396 67.0199 21.2878 66.9586 20.9124 66.9786C20.457 67.0029 20.0512 67.1288 19.6948 67.3561C19.3459 67.575 19.0777 67.8777 18.89 68.2643C18.7104 68.6504 18.6333 69.0831 18.6589 69.5624C18.6849 70.0497 18.8078 70.4758 19.0276 70.8406C19.2549 71.197 19.5539 71.4694 19.9244 71.658C20.3026 71.838 20.7193 71.9159 21.1747 71.8916C21.5501 71.8716 21.8936 71.7771 22.205 71.6083C22.5165 71.4395 22.7677 71.1937 22.9588 70.8711L23.6169 71.2686C23.391 71.6892 23.0681 72.0189 22.6483 72.2576C22.228 72.4883 21.7502 72.618 21.215 72.6466ZM29.9332 65.8001L30.2696 72.1031L29.4189 72.1485L29.1227 66.6004L26.103 66.7616L26.1023 68.3239C26.1083 69.6374 26.0102 70.6521 25.8081 71.3679C25.606 72.0837 25.1974 72.458 24.5822 72.4908C24.4145 72.4998 24.2091 72.4787 23.966 72.4276L23.9869 71.6934C24.1324 71.7177 24.2331 71.7284 24.289 71.7254C24.6165 71.7079 24.8561 71.5429 25.0076 71.2304C25.1592 70.9178 25.251 70.5364 25.283 70.0861C25.3151 69.6357 25.3314 69.042 25.3321 68.3049L25.3197 66.0464L29.9332 65.8001ZM35.119 67.7584C35.9103 67.7242 36.5228 67.8677 36.9565 68.189C37.3903 68.5104 37.6244 68.9946 37.659 69.6417C37.6948 70.3127 37.4986 70.8399 37.0704 71.2233C36.6423 71.6067 36.0126 71.8165 35.1813 71.8529L32.6882 71.974L32.3517 65.6709L33.2025 65.6255L33.3202 67.8304L35.119 67.7584ZM38.487 65.3434L39.3378 65.298L39.6743 71.601L38.8235 71.6464L38.487 65.3434ZM35.0989 71.2084C35.6824 71.1852 36.1156 71.0459 36.3984 70.7905C36.6888 70.5266 36.8214 70.1591 36.7962 69.6877C36.7715 69.2244 36.6053 68.8888 36.2978 68.6809C35.9903 68.473 35.5407 68.3808 34.9492 68.4044L33.3541 68.4655L33.5038 71.2695L35.0989 71.2084ZM50.4598 64.7042L50.7963 71.0073L42.0967 71.4717L41.7602 65.1687L42.611 65.1232L42.9078 70.6833L45.9994 70.5183L45.7026 64.9582L46.5534 64.9128L46.8502 70.4729L49.9059 70.3097L49.609 64.7497L50.4598 64.7042ZM55.0553 64.4108C55.8781 64.3669 56.5203 64.5409 56.9818 64.9329C57.443 65.3168 57.6951 65.9122 57.7381 66.7191L57.9467 70.6255L57.1318 70.669L57.0794 69.6864C56.9051 70.0242 56.6352 70.295 56.2695 70.4988C55.9119 70.7021 55.4774 70.8174 54.9661 70.8447C54.2631 70.8823 53.695 70.7444 53.2616 70.431C52.8283 70.1177 52.5969 69.6854 52.5675 69.1342C52.5389 68.5989 52.7076 68.1573 53.0736 67.8093C53.4476 67.4609 54.0579 67.2641 54.9047 67.2189L56.9059 67.112L56.8854 66.7286C56.8564 66.1853 56.6827 65.782 56.3642 65.5186C56.0453 65.2473 55.5942 65.1271 55.011 65.1583C54.6116 65.1796 54.2318 65.268 53.8716 65.4234C53.5109 65.5708 53.2049 65.7674 52.9537 66.0131L52.5363 65.3985C52.8414 65.1099 53.2137 64.8817 53.6534 64.714C54.0927 64.5383 54.56 64.4373 55.0553 64.4108ZM55.0621 70.1667C55.5414 70.1411 55.9471 70.0113 56.2791 69.7772C56.6107 69.5352 56.8492 69.202 56.9948 68.7777L56.9398 67.7471L54.9626 67.8527C53.8841 67.9102 53.365 68.3145 53.405 69.0654C53.4247 69.4329 53.58 69.717 53.8712 69.9178C54.1618 70.1106 54.5588 70.1935 55.0621 70.1667ZM65.0277 63.9265L65.3642 70.2295L64.5134 70.275L64.2172 64.7269L61.1975 64.8881L61.1968 66.4503C61.2028 67.7639 61.1048 68.7785 60.9027 69.4943C60.7005 70.2101 60.2919 70.5845 59.6768 70.6173C59.509 70.6262 59.3036 70.6052 59.0605 70.5541L59.0814 69.8199C59.2269 69.8442 59.3276 69.8548 59.3836 69.8518C59.7111 69.8343 59.9506 69.6693 60.1022 69.3568C60.2538 69.0443 60.3456 68.6629 60.3776 68.2125C60.4096 67.7622 60.426 67.1684 60.4267 66.4314L60.4143 64.1728L65.0277 63.9265ZM69.6127 63.6337C70.4355 63.5898 71.0777 63.7638 71.5392 64.1557C72.0003 64.5397 72.2524 65.1351 72.2955 65.9419L72.5041 69.8484L71.6892 69.8919L71.6368 68.9093C71.4625 69.247 71.1926 69.5178 70.8269 69.7216C70.4693 69.925 70.0348 70.0403 69.5235 70.0676C68.8205 70.1051 68.2524 69.9672 67.819 69.6539C67.3857 69.3405 67.1543 68.9082 67.1249 68.357C67.0963 67.8218 67.265 67.3802 67.631 67.0322C68.005 66.6837 68.6153 66.4869 69.4621 66.4417L71.4633 66.3349L71.4428 65.9514C71.4138 65.4082 71.2401 65.0049 70.9216 64.7415C70.6027 64.4701 70.1516 64.35 69.5684 64.3811C69.169 64.4024 68.7892 64.4908 68.429 64.6462C68.0683 64.7937 67.7623 64.9903 67.5111 65.236L67.0937 64.6214C67.3988 64.3327 67.7711 64.1045 68.2108 63.9368C68.6501 63.7612 69.1174 63.6601 69.6127 63.6337ZM69.6195 69.3895C70.0988 69.3639 70.5045 69.2341 70.8365 69.0001C71.168 68.7581 71.4066 68.4249 71.5522 68.0005L71.4972 66.97L69.52 67.0755C68.4415 67.1331 67.9224 67.5373 67.9624 68.2883C67.9821 68.6558 68.1374 68.9399 68.4285 69.1406C68.7192 69.3334 69.1162 69.4164 69.6195 69.3895ZM74.7743 68.4774C74.958 68.4676 75.1132 68.5234 75.2399 68.6448C75.3661 68.7583 75.4341 68.9068 75.4439 69.0906C75.4491 69.1864 75.4386 69.2911 75.4126 69.4047C75.3947 69.5178 75.3615 69.6478 75.3133 69.7945L74.8983 71.4751L74.3231 71.5058L74.6378 69.7465C74.5078 69.7134 74.4001 69.647 74.3147 69.5474C74.2288 69.4399 74.1819 69.3102 74.1738 69.1584C74.1639 68.9747 74.2158 68.8197 74.3292 68.6934C74.4422 68.5592 74.5906 68.4872 74.7743 68.4774ZM84.8652 62.8675L85.2017 69.1705L84.3509 69.2159L84.2108 66.5917C83.5009 66.95 82.7944 67.148 82.0914 67.1855C81.3325 67.226 80.7322 67.0858 80.2905 66.7649C79.8483 66.436 79.6087 65.9241 79.5716 65.229L79.4609 63.156L80.3117 63.1106L80.4198 65.1357C80.4449 65.607 80.6159 65.9584 80.9327 66.1899C81.2491 66.4133 81.6749 66.5107 82.2101 66.4822C82.8013 66.4506 83.456 66.2594 84.1743 65.9086L84.0144 62.9129L84.8652 62.8675ZM91.7553 63.2567L89.3707 63.384L89.6669 68.9321L88.8161 68.9776L88.5199 63.4295L86.1353 63.5568L86.095 62.8018L91.715 62.5018L91.7553 63.2567ZM95.5926 68.6759C94.9854 68.7083 94.431 68.6017 93.9292 68.3561C93.4269 68.1279 93.023 67.7395 92.7174 67.2671C92.4118 66.7948 92.2426 66.251 92.2097 65.6359C92.1769 65.0208 92.2872 64.4621 92.5408 63.9599C92.7944 63.4576 93.1576 63.0577 93.6304 62.7601C94.1032 62.4624 94.6432 62.2974 95.2503 62.265C95.8575 62.2326 96.4119 62.3392 96.9137 62.5848C97.4156 62.8304 97.8153 63.1896 98.1129 63.6624C98.4185 64.1348 98.5877 64.6785 98.6206 65.2936C98.6534 65.9088 98.543 66.4674 98.2895 66.9697C98.0439 67.4715 97.6849 67.8752 97.2125 68.1808C96.7397 68.4784 96.1997 68.6435 95.5926 68.6759ZM95.5523 67.921C95.9996 67.8971 96.3937 67.7759 96.7346 67.5574C97.083 67.3305 97.347 67.024 97.5267 66.6379C97.7064 66.2517 97.7834 65.819 97.7578 65.3397C97.7322 64.8604 97.6095 64.4383 97.3898 64.0735C97.17 63.7087 96.8751 63.4361 96.5049 63.2555C96.1423 63.0666 95.7374 62.9841 95.29 63.0079C94.8426 63.0318 94.4448 63.1572 94.0964 63.3841C93.7555 63.6026 93.4913 63.9051 93.3036 64.2917C93.1239 64.6778 93.0469 65.1105 93.0725 65.5898C93.0981 66.0691 93.2207 66.4912 93.4405 66.856C93.6683 67.2204 93.9634 67.497 94.326 67.686C94.6962 67.8665 95.1049 67.9448 95.5523 67.921ZM105.118 61.7382C105.749 61.7045 106.324 61.8141 106.842 62.0668C107.368 62.3111 107.787 62.6692 108.101 63.1412C108.422 63.6127 108.599 64.1521 108.632 64.7592C108.664 65.3663 108.546 65.9254 108.277 66.4365C108.015 66.9392 107.636 67.3439 107.14 67.6508C106.652 67.9573 106.092 68.1274 105.461 68.1611C104.933 68.1892 104.446 68.1351 103.998 67.9988C103.55 67.8545 103.165 67.6347 102.845 67.3393L103.322 66.8092C103.884 67.2839 104.572 67.4995 105.387 67.456C105.842 67.4317 106.249 67.3139 106.606 67.1279C106.971 66.8908 107.26 66.6069 107.474 66.251C107.695 65.8947 107.814 65.5038 107.832 65.0783L104.465 65.2581L104.43 64.611L107.785 64.4319C107.664 63.8054 107.357 63.3091 106.865 62.9428C106.372 62.5686 105.79 62.3993 105.119 62.4352C104.304 62.4787 103.643 62.7663 103.134 63.2982L102.605 62.8338C102.892 62.506 103.25 62.2505 103.681 62.0673C104.112 61.8761 104.591 61.7664 105.118 61.7382ZM114.492 62.0429L112.108 62.1702L112.404 67.7183L111.553 67.7637L111.257 62.2156L108.872 62.3429L108.832 61.588L114.452 61.288L114.492 62.0429ZM118.33 67.462C117.723 67.4945 117.168 67.3879 116.666 67.1423C116.164 66.8887 115.76 66.5257 115.455 66.0533C115.149 65.5809 114.98 65.0372 114.947 64.4221C114.914 63.8069 115.024 63.2483 115.278 62.746C115.532 62.2438 115.895 61.8439 116.368 61.5462C116.84 61.2486 117.38 61.0836 117.987 61.0512C118.595 61.0188 119.149 61.1254 119.651 61.3709C120.153 61.6165 120.552 61.9757 120.85 62.4486C121.156 62.9209 121.325 63.4647 121.358 64.0798C121.391 64.6949 121.28 65.2536 121.027 65.7558C120.781 66.2577 120.422 66.6614 119.95 66.967C119.477 67.2646 118.937 67.4296 118.33 67.462ZM118.289 66.7071C118.737 66.6832 119.131 66.5621 119.472 66.3436C119.82 66.1167 120.084 65.8102 120.264 65.424C120.444 65.0379 120.521 64.6052 120.495 64.1259C120.469 63.6466 120.347 63.2245 120.127 62.8597C119.907 62.4949 119.612 62.2222 119.242 62.0417C118.879 61.8528 118.475 61.7702 118.027 61.7941C117.58 61.818 117.182 61.9434 116.834 62.1703C116.493 62.3888 116.228 62.6913 116.041 63.0778C115.861 63.464 115.784 63.8967 115.81 64.376C115.835 64.8553 115.958 65.2774 116.178 65.6422C116.405 66.0066 116.701 66.2832 117.063 66.4722C117.433 66.6527 117.842 66.731 118.289 66.7071ZM126.144 60.6638L126.995 60.6184L127.144 63.4104L131.11 63.1987L130.961 60.4066L131.812 60.3612L132.148 66.6642L131.298 66.7097L131.149 63.9296L127.183 64.1414L127.331 66.9214L126.48 66.9668L126.144 60.6638ZM139.925 63.353L134.652 63.6345C134.735 64.287 135.015 64.8048 135.492 65.1879C135.969 65.563 136.555 65.732 137.25 65.6949C137.641 65.674 137.997 65.5869 138.317 65.4336C138.637 65.2724 138.91 65.0495 139.135 64.7651L139.643 65.2907C139.382 65.6412 139.044 65.9156 138.63 66.1139C138.224 66.3119 137.769 66.4243 137.266 66.4511C136.619 66.4857 136.036 66.3806 135.519 66.1358C135.008 65.8827 134.601 65.5199 134.295 65.0475C133.989 64.5751 133.82 64.0314 133.787 63.4163C133.754 62.8011 133.857 62.2429 134.094 61.7415C134.34 61.2397 134.687 60.8406 135.136 60.5443C135.593 60.2475 136.113 60.0835 136.696 60.0524C137.279 60.0213 137.81 60.1291 138.288 60.376C138.765 60.6229 139.149 60.983 139.439 61.4562C139.728 61.9214 139.889 62.4656 139.922 63.0887L139.925 63.353ZM136.735 60.7834C136.128 60.8158 135.627 61.0388 135.233 61.4524C134.846 61.8576 134.641 62.3733 134.618 62.9994L139.088 62.7608C138.999 62.1406 138.736 61.6499 138.3 61.2886C137.872 60.919 137.35 60.7505 136.735 60.7834ZM21.9787 87.6271C21.3715 87.6596 20.8171 87.553 20.3152 87.3074C19.813 87.0538 19.4091 86.6908 19.1035 86.2184C18.7979 85.746 18.6286 85.2023 18.5958 84.5872C18.563 83.972 18.6733 83.4134 18.9269 82.9111C19.1805 82.4089 19.5437 82.009 20.0165 81.7113C20.4893 81.4137 21.0293 81.2487 21.6364 81.2163C22.2435 81.1839 22.798 81.2905 23.2998 81.5361C23.8016 81.7817 24.2013 82.1409 24.499 82.6137C24.8046 83.086 24.9738 83.6298 25.0067 84.2449C25.0395 84.86 24.9291 85.4187 24.6755 85.921C24.4299 86.4228 24.071 86.8265 23.5986 87.1321C23.1258 87.4297 22.5858 87.5947 21.9787 87.6271ZM21.9384 86.8722C22.3857 86.8483 22.7798 86.7272 23.1207 86.5087C23.4691 86.2818 23.7331 85.9753 23.9128 85.5891C24.0924 85.203 24.1695 84.7703 24.1439 84.291C24.1183 83.8117 23.9956 83.3896 23.7759 83.0248C23.5561 82.66 23.2612 82.3873 22.891 82.2068C22.5284 82.0179 22.1234 81.9353 21.6761 81.9592C21.2287 81.9831 20.8308 82.1085 20.4824 82.3354C20.1416 82.5539 19.8773 82.8564 19.6897 83.2429C19.51 83.6291 19.433 84.0618 19.4586 84.5411C19.4841 85.0204 19.6068 85.4425 19.8266 85.8073C20.0543 86.1717 20.3495 86.4483 20.7121 86.6373C21.0822 86.8178 21.491 86.8961 21.9384 86.8722ZM29.7207 80.989C30.3039 80.9579 30.8302 81.0619 31.2996 81.3013C31.7766 81.5322 32.1555 81.8765 32.4363 82.3341C32.7166 82.7838 32.8728 83.3082 32.9048 83.9074C32.9376 84.5225 32.831 85.077 32.585 85.5708C32.3466 86.0562 31.9947 86.4435 31.5295 86.7327C31.0642 87.0219 30.52 87.1832 29.8969 87.2164C28.8504 87.2723 28.02 86.9481 27.4055 86.2439C26.7911 85.5396 26.4494 84.5404 26.3803 83.2463C26.3082 81.8962 26.5086 80.848 26.9815 80.1017C27.4624 79.3551 28.2432 78.8247 29.324 78.5106L32.1174 77.7126L32.3028 78.4838L29.6752 79.2369C28.7832 79.4848 28.1391 79.8757 27.743 80.4096C27.3465 80.9355 27.1547 81.6948 27.1676 82.6875C27.3972 82.1866 27.7325 81.7881 28.1733 81.4922C28.6137 81.1883 29.1295 81.0205 29.7207 80.989ZM29.8832 86.5082C30.3225 86.4847 30.7086 86.364 31.0415 86.1459C31.3819 85.9194 31.6382 85.6173 31.8103 85.2396C31.9904 84.8615 32.068 84.4408 32.0433 83.9774C32.0186 83.5141 31.901 83.1118 31.6905 82.7705C31.48 82.4292 31.1939 82.1721 30.8321 81.9992C30.478 81.8178 30.0772 81.739 29.6298 81.7629C29.1825 81.7868 28.7884 81.908 28.4475 82.1265C28.1143 82.3365 27.8571 82.6227 27.6762 82.9848C27.5032 83.3466 27.4291 83.7591 27.4538 84.2224C27.4786 84.6858 27.5966 85.0961 27.808 85.4533C28.0273 85.8101 28.3183 86.083 28.6809 86.2719C29.043 86.4529 29.4438 86.5316 29.8832 86.5082ZM39.1744 80.3281L39.5109 86.6311L38.732 86.6727L38.6207 84.5876L36.6435 84.6932L36.4039 84.706L35.0532 86.8691L34.1306 86.9183L35.5826 84.6297C35.0881 84.5199 34.7002 84.3082 34.4191 83.9948C34.138 83.6813 33.984 83.273 33.9571 82.7697C33.9196 82.0667 34.1307 81.5186 34.5904 81.1256C35.0501 80.7325 35.6954 80.5138 36.5262 80.4694L39.1744 80.3281ZM34.8212 82.7476C34.8711 83.6822 35.4912 84.1178 36.6815 84.0543L38.5868 83.9526L38.4358 81.1246L36.5904 81.2231C35.3602 81.2888 34.7704 81.7969 34.8212 82.7476ZM44.7004 83.0614C45.1533 83.1413 45.5064 83.3027 45.7597 83.5456C46.021 83.788 46.1615 84.0929 46.1811 84.4604C46.2007 84.8279 46.0904 85.1623 45.8501 85.4635C45.6178 85.7643 45.2902 86.0061 44.8674 86.1889C44.4441 86.3637 43.9728 86.465 43.4536 86.4927C42.9982 86.517 42.5474 86.477 42.1012 86.3726C41.6546 86.2603 41.2607 86.085 40.9195 85.8469L41.1732 85.1964C41.4723 85.3968 41.8168 85.5466 42.2067 85.646C42.5965 85.7453 42.9871 85.7846 43.3786 85.7637C43.9618 85.7325 44.4313 85.5993 44.7873 85.364C45.1508 85.1203 45.3226 84.8107 45.3025 84.4352C45.2846 84.0997 45.119 83.8482 44.8056 83.6806C44.4918 83.5051 44.0712 83.4314 43.544 83.4596L42.4655 83.5172L42.4323 82.894L43.4628 82.839C43.9341 82.8139 44.3089 82.7057 44.5871 82.5146C44.8649 82.3155 44.9957 82.0642 44.9795 81.7606C44.9616 81.4251 44.7837 81.1702 44.4459 80.996C44.1162 80.8213 43.6916 80.7479 43.1724 80.7756C42.4934 80.8118 41.8315 81.0194 41.1868 81.3983L40.9119 80.752C41.642 80.3205 42.4104 80.0832 43.2172 80.0401C43.6966 80.0146 44.1318 80.0634 44.5229 80.1867C44.9216 80.3017 45.2356 80.4812 45.465 80.7253C45.7023 80.969 45.8299 81.2586 45.8478 81.5941C45.8649 81.9137 45.7682 82.2032 45.5577 82.4628C45.3553 82.722 45.0695 82.9215 44.7004 83.0614ZM50.039 79.7C50.8618 79.6561 51.504 79.8301 51.9655 80.222C52.4267 80.606 52.6788 81.2014 52.7218 82.0083L52.9304 85.9147L52.1155 85.9582L52.0631 84.9756C51.8888 85.3134 51.6189 85.5841 51.2532 85.7879C50.8956 85.9913 50.4611 86.1066 49.9498 86.1339C49.2468 86.1714 48.6787 86.0335 48.2453 85.7202C47.812 85.4068 47.5807 84.9745 47.5512 84.4233C47.5227 83.8881 47.6914 83.4465 48.0573 83.0985C48.4313 82.75 49.0417 82.5532 49.8884 82.508L51.8896 82.4012L51.8691 82.0177C51.8401 81.4745 51.6664 81.0712 51.3479 80.8078C51.029 80.5364 50.5779 80.4163 49.9947 80.4474C49.5953 80.4687 49.2155 80.5571 48.8553 80.7125C48.4946 80.86 48.1887 81.0566 47.9374 81.3023L47.52 80.6877C47.8251 80.399 48.1974 80.1708 48.6371 80.0032C49.0764 79.8275 49.5437 79.7264 50.039 79.7ZM50.0458 85.4558C50.5251 85.4302 50.9308 85.3004 51.2628 85.0664C51.5944 84.8244 51.8329 84.4912 51.9785 84.0668L51.9235 83.0363L49.9463 83.1418C48.8679 83.1994 48.3487 83.6037 48.3888 84.3546C48.4084 84.7221 48.5637 85.0062 48.8549 85.2069C49.1455 85.3997 49.5425 85.4827 50.0458 85.4558ZM59.3327 80.009L56.9481 80.1363L57.2443 85.6844L56.3935 85.7298L56.0974 80.1817L53.7128 80.309L53.6724 79.5541L59.2924 79.2541L59.3327 80.009ZM65.9245 82.3249L60.652 82.6064C60.7349 83.2589 61.0149 83.7767 61.492 84.1598C61.9687 84.5349 62.5545 84.7039 63.2495 84.6668C63.641 84.6459 63.9968 84.5588 64.3171 84.4055C64.637 84.2442 64.9095 84.0214 65.1346 83.737L65.6434 84.2626C65.3817 84.6131 65.0438 84.8875 64.6298 85.0858C64.2238 85.2837 63.7692 85.3961 63.2659 85.423C62.6188 85.4576 62.0364 85.3525 61.5186 85.1077C61.0084 84.8546 60.6004 84.4918 60.2948 84.0194C59.9892 83.547 59.82 83.0033 59.7871 82.3881C59.7543 81.773 59.8567 81.2148 60.0943 80.7134C60.3399 80.2116 60.6871 79.8125 61.1359 79.5162C61.5928 79.2194 62.1128 79.0554 62.6959 79.0243C63.2791 78.9932 63.8096 79.101 64.2875 79.3479C64.7653 79.5948 65.149 79.9548 65.4387 80.4281C65.7279 80.8933 65.8891 81.4375 65.9224 82.0606L65.9245 82.3249ZM62.735 79.7553C62.1278 79.7877 61.627 80.0107 61.2325 80.4243C60.8455 80.8295 60.6407 81.3452 60.6181 81.9713L65.0877 81.7326C64.9985 81.1125 64.736 80.6218 64.3001 80.2605C63.8718 79.8908 63.3501 79.7224 62.735 79.7553ZM72.6614 78.5404L72.9979 84.8434L72.1471 84.8888L71.8509 79.3407L68.8312 79.5019L68.8305 81.0642C68.8365 82.3777 68.7385 83.3924 68.5363 84.1082C68.3342 84.824 67.9256 85.1983 67.3105 85.2311C67.1427 85.2401 66.9373 85.219 66.6942 85.1679L66.7151 84.4337C66.8606 84.458 66.9613 84.4687 67.0172 84.4657C67.3448 84.4482 67.5843 84.2832 67.7359 83.9707C67.8874 83.6581 67.9792 83.2767 68.0112 82.8263C68.0433 82.376 68.0597 81.7823 68.0604 81.0452L68.0479 78.7866L72.6614 78.5404ZM77.9071 80.4955C78.6984 80.4613 79.3069 80.605 79.7327 80.9268C80.1664 81.2481 80.4006 81.7323 80.4351 82.3794C80.4709 83.0504 80.2748 83.5777 79.8466 83.961C79.4264 84.344 78.7967 84.5538 77.9575 84.5906L75.4165 84.7143L75.08 78.4112L75.9308 78.3658L76.0485 80.5707L77.9071 80.4955ZM77.875 83.9461C78.4586 83.923 78.8918 83.7837 79.1746 83.5282C79.4649 83.2644 79.5975 82.8968 79.5723 82.4255C79.5476 81.9621 79.3815 81.6265 79.074 81.4186C78.7664 81.2107 78.3169 81.1185 77.7253 81.1421L76.0824 81.2058L76.2321 84.0098L77.875 83.9461ZM81.8321 78.0508L82.6829 78.0054L82.8319 80.7974L86.7983 80.5856L86.6492 77.7936L87.5 77.7482L87.8365 84.0512L86.9857 84.0966L86.8373 81.3166L82.8709 81.5283L83.0193 84.3084L82.1686 84.3538L81.8321 78.0508ZM92.8582 83.8432C92.2511 83.8756 91.6966 83.769 91.1948 83.5234C90.6926 83.2698 90.2886 82.9069 89.983 82.4345C89.6774 81.9621 89.5082 81.4184 89.4753 80.8032C89.4425 80.1881 89.5529 79.6294 89.8064 79.1272C90.06 78.625 90.4232 78.225 90.896 77.9274C91.3688 77.6298 91.9088 77.4648 92.5159 77.4323C93.1231 77.3999 93.6776 77.5065 94.1794 77.7521C94.6812 77.9977 95.0809 78.3569 95.3785 78.8297C95.6841 79.3021 95.8534 79.8459 95.8862 80.461C95.919 81.0761 95.8087 81.6348 95.5551 82.137C95.3095 82.6388 94.9505 83.0425 94.4781 83.3482C94.0053 83.6458 93.4653 83.8108 92.8582 83.8432ZM92.8179 83.0883C93.2653 83.0644 93.6594 82.9432 94.0002 82.7247C94.3486 82.4978 94.6126 82.1913 94.7923 81.8052C94.972 81.4191 95.049 80.9864 95.0234 80.507C94.9978 80.0277 94.8752 79.6057 94.6554 79.2409C94.4356 78.8761 94.1407 78.6034 93.7705 78.4229C93.4079 78.2339 93.003 78.1514 92.5556 78.1753C92.1082 78.1992 91.7104 78.3246 91.362 78.5514C91.0211 78.7699 90.7569 79.0724 90.5692 79.459C90.3895 79.8451 90.3125 80.2779 90.3381 80.7572C90.3637 81.2365 90.4864 81.6585 90.7061 82.0233C90.9339 82.3877 91.229 82.6644 91.5916 82.8533C91.9618 83.0338 92.3705 83.1122 92.8179 83.0883ZM97.7026 82.2747C97.8863 82.2649 98.0415 82.3207 98.1682 82.4421C98.2944 82.5556 98.3624 82.7042 98.3722 82.8879C98.3774 82.9838 98.3669 83.0885 98.3409 83.202C98.3229 83.3151 98.2898 83.4451 98.2416 83.5919L97.8266 85.2724L97.2514 85.3031L97.5661 83.5438C97.4361 83.5107 97.3284 83.4443 97.243 83.3448C97.1571 83.2372 97.1101 83.1075 97.102 82.9557C97.0922 82.772 97.144 82.617 97.2575 82.4908C97.3705 82.3565 97.5189 82.2845 97.7026 82.2747ZM104.747 76.7794C105.378 76.7457 105.953 76.8552 106.471 77.1079C106.997 77.3522 107.417 77.7104 107.73 78.1823C108.052 78.6539 108.229 79.1932 108.261 79.8003C108.294 80.4075 108.175 80.9666 107.906 81.4776C107.645 81.9803 107.266 82.3851 106.769 82.692C106.281 82.9984 105.721 83.1685 105.09 83.2022C104.563 83.2304 104.075 83.1763 103.627 83.04C103.179 82.8957 102.795 82.6758 102.475 82.3805L102.951 81.8503C103.513 82.325 104.202 82.5406 105.016 82.4971C105.472 82.4728 105.878 82.355 106.235 82.1437C106.601 81.9319 106.89 81.6481 107.103 81.2922C107.324 80.9359 107.444 80.545 107.461 80.1194L104.094 80.2992L104.059 79.6521L107.415 79.473C107.293 78.8466 106.986 78.3502 106.494 77.984C106.001 77.6097 105.419 77.4405 104.748 77.4763C103.934 77.5198 103.272 77.8075 102.764 78.3393L102.234 77.8749C102.521 77.5471 102.88 77.2916 103.311 77.1084C103.741 76.9172 104.22 76.8075 104.747 76.7794ZM114.122 77.084L111.737 77.2113L112.033 82.7594L111.183 82.8049L110.887 77.2568L108.502 77.3841L108.462 76.6291L114.082 76.3291L114.122 77.084ZM117.959 82.5032C117.352 82.5356 116.798 82.429 116.296 82.1834C115.794 81.9298 115.39 81.5668 115.084 81.0945C114.778 80.6221 114.609 80.0783 114.576 79.4632C114.543 78.8481 114.654 78.2894 114.907 77.7872C115.161 77.2849 115.524 76.885 115.997 76.5874C116.47 76.2897 117.01 76.1247 117.617 76.0923C118.224 76.0599 118.779 76.1665 119.28 76.4121C119.782 76.6577 120.182 77.0169 120.479 77.4897C120.785 77.9621 120.954 78.5058 120.987 79.121C121.02 79.7361 120.91 80.2948 120.656 80.797C120.41 81.2988 120.051 81.7025 119.579 82.0081C119.106 82.3058 118.566 82.4708 117.959 82.5032ZM117.919 81.7483C118.366 81.7244 118.76 81.6032 119.101 81.3847C119.45 81.1578 119.714 80.8513 119.893 80.4652C120.073 80.0791 120.15 79.6463 120.124 79.167C120.099 78.6877 119.976 78.2656 119.756 77.9008C119.537 77.536 119.242 77.2634 118.872 77.0828C118.509 76.8939 118.104 76.8114 117.657 76.8353C117.209 76.8591 116.811 76.9845 116.463 77.2114C116.122 77.4299 115.858 77.7324 115.67 78.119C115.491 78.5051 115.413 78.9378 115.439 79.4171C115.465 79.8965 115.587 80.3185 115.807 80.6833C116.035 81.0477 116.33 81.3244 116.693 81.5133C117.063 81.6938 117.472 81.7721 117.919 81.7483ZM130.247 76.2232L127.863 76.3505L128.159 81.8986L127.308 81.944L127.012 76.3959L124.627 76.5232L124.587 75.7683L130.207 75.4682L130.247 76.2232ZM133.604 75.2389C134.426 75.1949 135.069 75.3689 135.53 75.7609C135.991 76.1449 136.243 76.7403 136.286 77.5471L136.495 81.4536L135.68 81.4971L135.628 80.5145C135.453 80.8522 135.183 81.123 134.818 81.3268C134.46 81.5301 134.026 81.6455 133.514 81.6728C132.811 81.7103 132.243 81.5724 131.81 81.259C131.377 80.9457 131.145 80.5134 131.116 79.9622C131.087 79.427 131.256 78.9853 131.622 78.6373C131.996 78.2889 132.606 78.0921 133.453 78.0469L135.454 77.94L135.434 77.5566C135.405 77.0134 135.231 76.6101 134.912 76.3467C134.594 76.0753 134.143 75.9551 133.559 75.9863C133.16 76.0076 132.78 76.096 132.42 76.2514C132.059 76.3988 131.753 76.5954 131.502 76.8412L131.085 76.2265C131.39 75.9379 131.762 75.7097 132.202 75.542C132.641 75.3664 133.108 75.2653 133.604 75.2389ZM133.61 80.9947C134.09 80.9691 134.495 80.8393 134.827 80.6052C135.159 80.3632 135.398 80.03 135.543 79.6057L135.488 78.5751L133.511 78.6807C132.432 78.7383 131.913 79.1425 131.953 79.8934C131.973 80.2609 132.128 80.545 132.419 80.7458C132.71 80.9386 133.107 81.0215 133.61 80.9947ZM140.899 78.4065L139.461 78.4832L139.611 81.2872L138.76 81.3326L138.423 75.0296L139.274 74.9842L139.422 77.7523L140.872 77.6749L142.941 74.7884L143.864 74.7392L141.546 77.9273L144.38 81.0326L143.373 81.0864L140.899 78.4065ZM147.276 78.3544C147.258 78.0269 147.295 77.7365 147.386 77.4833C147.484 77.2297 147.609 77.0108 147.759 76.8265C147.909 76.6422 148.107 76.4314 148.35 76.1941C148.678 75.8722 148.915 75.5951 149.063 75.3629C149.218 75.1223 149.287 74.8382 149.27 74.5107C149.246 74.0713 149.056 73.729 148.698 73.4837C148.34 73.2304 147.862 73.1198 147.263 73.1517C146.272 73.2046 145.526 73.5689 145.026 74.2445L144.365 73.7991C145 72.9321 145.972 72.4636 147.282 72.3936C148.121 72.3488 148.798 72.501 149.313 72.85C149.837 73.1986 150.115 73.6924 150.15 74.3315C150.167 74.659 150.127 74.9536 150.028 75.2152C149.938 75.4684 149.817 75.6871 149.667 75.8714C149.525 76.0553 149.332 76.2699 149.088 76.5152C148.762 76.8451 148.521 77.1383 148.366 77.3949C148.211 77.6435 148.143 77.9476 148.163 78.3071L147.276 78.3544ZM147.857 80.9071C147.681 80.9165 147.53 80.8644 147.404 80.751C147.277 80.6296 147.209 80.485 147.2 80.3172C147.191 80.1415 147.243 79.9945 147.357 79.8763C147.471 79.75 147.615 79.6822 147.791 79.6728C147.975 79.663 148.13 79.7148 148.256 79.8283C148.382 79.9337 148.449 80.0743 148.459 80.2501C148.468 80.4178 148.412 80.569 148.291 80.7037C148.177 80.8299 148.033 80.8977 147.857 80.9071Z" fill="#181818"/>
</svg>
