<svg width="39" height="23" viewBox="0 0 39 23" fill="none" xmlns="http://www.w3.org/2000/svg">
<path d="M29.6358 3.89458C20.637 -1.81391 8.70466 0.881761 2.99617 9.88056C-2.71232 18.8794 -0.0166486 30.8117 8.98215 36.5202C17.9809 42.2287 29.9133 39.533 35.6218 30.5342C41.2906 21.5354 38.6346 9.56342 29.6358 3.89458ZM26.8212 8.33451C32.6486 12.0212 34.8289 19.3551 32.2522 25.5393L24.6012 19.8308C24.4823 18.2054 23.6498 16.6197 22.1434 15.6683C20.637 14.7169 18.8927 14.6376 17.3467 15.2323L8.94251 10.713C13.4221 5.7974 20.9938 4.60814 26.8212 8.33451ZM6.04863 15.5494L13.9771 19.7515C13.8978 20.7425 14.096 21.7732 14.5717 22.6454L9.65608 30.3756C5.65221 26.6096 4.22509 20.7425 6.04863 15.5494ZM14.1356 33.2299L19.0513 25.4996C20.0423 25.5393 21.0334 25.3014 21.9452 24.8257L29.1601 30.2171C25.1958 34.0624 19.2891 35.2516 14.1356 33.2299Z" fill="#F8F8F8"/>
</svg>
