<svg width="46" height="46" viewBox="0 0 46 46" fill="none" xmlns="http://www.w3.org/2000/svg">
<path d="M22.8197 45.4804C21.6272 45.4804 20.5108 45.0237 19.6734 44.1864L1.75981 26.2727C0.922484 25.4354 0.465754 24.319 0.465754 23.1264C0.465755 21.9339 0.922484 20.8175 1.75981 19.9801L19.6734 2.0665C20.5108 1.22918 21.6272 0.77246 22.8197 0.77246C24.0123 0.77246 25.1287 1.22918 25.966 2.0665L43.8797 19.9801C44.717 20.8175 45.1737 21.9339 45.1737 23.1264C45.1737 24.319 44.717 25.4354 43.8797 26.2727L25.966 44.1864C25.1287 44.9983 24.0123 45.4804 22.8197 45.4804ZM6.30165 23.1264L22.7944 39.6192L39.2871 23.1264L22.7944 6.63372L6.30165 23.1264Z" fill="#F8F8F8"/>
</svg>
