<svg width="89" height="25" viewBox="0 0 89 25" fill="none" xmlns="http://www.w3.org/2000/svg">
<path d="M89 25C86 23 86 16 86 14L79 22C79.6667 22.8333 81.5 25 89 25Z" fill="#F8F8F8"/>
<rect width="86" height="25" rx="10" transform="matrix(-1 0 0 1 86 0)" fill="#F8F8F8"/>
<path d="M10.2 13.148H8.28V17H7.416V8.6H8.28V12.368H10.2L13.044 8.6H14.004L10.884 12.68L14.184 17H13.164L10.2 13.148ZM20.6971 10.688L17.5411 17.756C17.2851 18.348 16.9891 18.768 16.6531 19.016C16.3171 19.264 15.9131 19.388 15.4411 19.388C15.1371 19.388 14.8531 19.34 14.5891 19.244C14.3251 19.148 14.0971 19.004 13.9051 18.812L14.3011 18.176C14.6211 18.496 15.0051 18.656 15.4531 18.656C15.7411 18.656 15.9851 18.576 16.1851 18.416C16.3931 18.256 16.5851 17.984 16.7611 17.6L17.0371 16.988L14.2171 10.688H15.1051L17.4811 16.052L19.8571 10.688H20.6971ZM27.8993 16.256V18.524H27.0953V17H21.4433V18.524H20.6393V16.256H20.9993C21.4233 16.232 21.7113 15.92 21.8633 15.32C22.0153 14.72 22.1193 13.88 22.1753 12.8L22.2593 10.688H26.9153V16.256H27.8993ZM22.9553 12.848C22.9153 13.744 22.8393 14.484 22.7273 15.068C22.6153 15.644 22.4153 16.04 22.1273 16.256H26.0633V11.444H23.0273L22.9553 12.848ZM31.7317 10.64C32.5557 10.64 33.1877 10.848 33.6277 11.264C34.0677 11.672 34.2877 12.28 34.2877 13.088V17H33.4717V16.016C33.2797 16.344 32.9957 16.6 32.6197 16.784C32.2517 16.968 31.8117 17.06 31.2997 17.06C30.5957 17.06 30.0357 16.892 29.6197 16.556C29.2037 16.22 28.9957 15.776 28.9957 15.224C28.9957 14.688 29.1877 14.256 29.5717 13.928C29.9637 13.6 30.5837 13.436 31.4317 13.436H33.4357V13.052C33.4357 12.508 33.2837 12.096 32.9797 11.816C32.6757 11.528 32.2317 11.384 31.6477 11.384C31.2477 11.384 30.8637 11.452 30.4957 11.588C30.1277 11.716 29.8117 11.896 29.5477 12.128L29.1637 11.492C29.4837 11.22 29.8677 11.012 30.3157 10.868C30.7637 10.716 31.2357 10.64 31.7317 10.64ZM31.4317 16.388C31.9117 16.388 32.3237 16.28 32.6677 16.064C33.0117 15.84 33.2677 15.52 33.4357 15.104V14.072H31.4557C30.3757 14.072 29.8357 14.448 29.8357 15.2C29.8357 15.568 29.9757 15.86 30.2557 16.076C30.5357 16.284 30.9277 16.388 31.4317 16.388ZM45.2164 14.108H39.9364C39.9844 14.764 40.2364 15.296 40.6924 15.704C41.1484 16.104 41.7244 16.304 42.4204 16.304C42.8124 16.304 43.1724 16.236 43.5004 16.1C43.8284 15.956 44.1124 15.748 44.3524 15.476L44.8324 16.028C44.5524 16.364 44.2004 16.62 43.7764 16.796C43.3604 16.972 42.9004 17.06 42.3964 17.06C41.7484 17.06 41.1724 16.924 40.6684 16.652C40.1724 16.372 39.7844 15.988 39.5044 15.5C39.2244 15.012 39.0844 14.46 39.0844 13.844C39.0844 13.228 39.2164 12.676 39.4804 12.188C39.7524 11.7 40.1204 11.32 40.5844 11.048C41.0564 10.776 41.5844 10.64 42.1684 10.64C42.7524 10.64 43.2764 10.776 43.7404 11.048C44.2044 11.32 44.5684 11.7 44.8324 12.188C45.0964 12.668 45.2284 13.22 45.2284 13.844L45.2164 14.108ZM42.1684 11.372C41.5604 11.372 41.0484 11.568 40.6324 11.96C40.2244 12.344 39.9924 12.848 39.9364 13.472H44.4124C44.3564 12.848 44.1204 12.344 43.7044 11.96C43.2964 11.568 42.7844 11.372 42.1684 11.372ZM50.8866 17L48.8826 14.36L46.8666 17H45.9066L48.4026 13.76L46.0266 10.688H46.9866L48.8826 13.16L50.7786 10.688H51.7146L49.3386 13.76L51.8586 17H50.8866ZM55.3098 10.64C56.1338 10.64 56.7658 10.848 57.2058 11.264C57.6458 11.672 57.8658 12.28 57.8658 13.088V17H57.0498V16.016C56.8578 16.344 56.5738 16.6 56.1978 16.784C55.8298 16.968 55.3898 17.06 54.8778 17.06C54.1738 17.06 53.6138 16.892 53.1978 16.556C52.7818 16.22 52.5738 15.776 52.5738 15.224C52.5738 14.688 52.7658 14.256 53.1498 13.928C53.5418 13.6 54.1618 13.436 55.0098 13.436H57.0138V13.052C57.0138 12.508 56.8618 12.096 56.5578 11.816C56.2538 11.528 55.8098 11.384 55.2258 11.384C54.8258 11.384 54.4418 11.452 54.0738 11.588C53.7058 11.716 53.3898 11.896 53.1258 12.128L52.7418 11.492C53.0618 11.22 53.4458 11.012 53.8938 10.868C54.3418 10.716 54.8138 10.64 55.3098 10.64ZM55.0098 16.388C55.4898 16.388 55.9018 16.28 56.2458 16.064C56.5898 15.84 56.8458 15.52 57.0138 15.104V14.072H55.0338C53.9538 14.072 53.4138 14.448 53.4138 15.2C53.4138 15.568 53.5538 15.86 53.8338 16.076C54.1138 16.284 54.5058 16.388 55.0098 16.388ZM64.5739 11.444H62.1859V17H61.3339V11.444H58.9459V10.688H64.5739V11.444ZM68.5178 12.92C69.3098 12.928 69.9098 13.104 70.3178 13.448C70.7338 13.792 70.9418 14.288 70.9418 14.936C70.9418 15.608 70.7178 16.124 70.2698 16.484C69.8298 16.844 69.1898 17.02 68.3498 17.012L65.8058 17V10.688H66.6578V12.896L68.5178 12.92ZM68.3018 16.364C68.8858 16.372 69.3258 16.256 69.6218 16.016C69.9258 15.768 70.0778 15.408 70.0778 14.936C70.0778 14.472 69.9298 14.128 69.6338 13.904C69.3378 13.68 68.8938 13.564 68.3018 13.556L66.6578 13.532V16.34L68.3018 16.364ZM73.6716 14.48C73.6716 14.152 73.7236 13.864 73.8276 13.616C73.9396 13.368 74.0756 13.156 74.2356 12.98C74.3956 12.804 74.6036 12.604 74.8596 12.38C75.2036 12.076 75.4556 11.812 75.6156 11.588C75.7836 11.356 75.8676 11.076 75.8676 10.748C75.8676 10.308 75.6956 9.956 75.3516 9.692C75.0076 9.42 74.5356 9.284 73.9356 9.284C72.9436 9.284 72.1796 9.608 71.6436 10.256L71.0076 9.776C71.6876 8.944 72.6836 8.528 73.9956 8.528C74.8356 8.528 75.5036 8.716 75.9996 9.092C76.5036 9.468 76.7556 9.976 76.7556 10.616C76.7556 10.944 76.6996 11.236 76.5876 11.492C76.4836 11.74 76.3516 11.952 76.1916 12.128C76.0396 12.304 75.8356 12.508 75.5796 12.74C75.2356 13.052 74.9796 13.332 74.8116 13.58C74.6436 13.82 74.5596 14.12 74.5596 14.48H73.6716ZM74.1156 17.06C73.9396 17.06 73.7916 17 73.6716 16.88C73.5516 16.752 73.4916 16.604 73.4916 16.436C73.4916 16.26 73.5516 16.116 73.6716 16.004C73.7916 15.884 73.9396 15.824 74.1156 15.824C74.2996 15.824 74.4516 15.884 74.5716 16.004C74.6916 16.116 74.7516 16.26 74.7516 16.436C74.7516 16.604 74.6876 16.752 74.5596 16.88C74.4396 17 74.2916 17.06 74.1156 17.06Z" fill="#181818"/>
</svg>
