<svg width="32" height="32" viewBox="0 0 32 32" fill="none" xmlns="http://www.w3.org/2000/svg">
<path d="M24.5747 2.48656C17.1211 -2.24011 7.21324 -0.0282714 2.48656 7.42533C-2.24011 14.8789 -0.02827 24.7868 7.42533 29.5134C14.8789 34.2401 24.7868 32.0283 29.5134 24.5747C34.2401 17.1211 32.0283 7.21324 24.5747 2.48656ZM5.03169 12.152L11.6066 15.6364C11.546 16.4848 11.7278 17.3332 12.1217 18.0603L8.03131 24.4838C4.6984 21.3327 3.51674 16.4848 5.03169 12.152ZM11.7278 26.8168L15.7879 20.3934C16.6363 20.454 17.4544 20.2419 18.1815 19.8177L24.1505 24.2717C20.8782 27.4834 16 28.5136 11.7278 26.8168ZM26.7562 20.4237L20.4237 15.697C20.3328 14.3335 19.6359 13.0307 18.3936 12.2429C17.1514 11.4551 15.697 11.3642 14.4244 11.8793L7.42533 8.15251C11.1521 4.06212 17.4241 3.09255 22.2416 6.15276C27.0895 9.24328 28.8772 15.3031 26.7562 20.4237Z" fill="url(#paint0_linear)"/>
<defs>
<linearGradient id="paint0_linear" x1="3.85154" y1="-6.22476" x2="92.7291" y2="156.269" gradientUnits="userSpaceOnUse">
<stop stop-color="#F4C245"/>
<stop offset="0.1137" stop-color="#F0C14A"/>
<stop offset="0.2624" stop-color="#E3BD55"/>
<stop offset="0.4306" stop-color="#CEB766"/>
<stop offset="0.613" stop-color="#ADAE7A"/>
<stop offset="0.8064" stop-color="#7BA18F"/>
<stop offset="1" stop-color="#1492A1"/>
</linearGradient>
</defs>
</svg>
