<svg width="2547" height="230" viewBox="0 0 2547 230" fill="none" xmlns="http://www.w3.org/2000/svg">
<line x1="2547" y1="85" x2="-6.99382e-07" y2="84.9998" stroke="#D01222" stroke-width="16"/>
<line x1="623" y1="65" x2="623" y2="85" stroke="#D01222" stroke-width="16"/>
<line x1="243" y1="65" x2="243" y2="85" stroke="#D01222" stroke-width="16"/>
<line x1="813" y1="85" x2="813" y2="105" stroke="#D01222" stroke-width="16"/>
<line x1="1219" y1="85" x2="1219" y2="105" stroke="#D01222" stroke-width="16"/>
<line x1="433" y1="85" x2="433" y2="105" stroke="#D01222" stroke-width="16"/>
<line x1="1219" y1="85" x2="1219" y2="105" stroke="#D01222" stroke-width="16"/>
<line x1="1625" y1="85" x2="1625" y2="105" stroke="#D01222" stroke-width="16"/>
<line x1="2031" y1="85" x2="2031" y2="105" stroke="#D01222" stroke-width="16"/>
<line x1="2221" y1="65" x2="2221" y2="85" stroke="#D01222" stroke-width="16"/>
<path d="M1560.5 228C1481.25 228 1417 163.753 1417 84.5" stroke="#D01222" stroke-width="4"/>
<path d="M1560 218C1486.55 218 1427 158.454 1427 85" stroke="#D01222" stroke-width="4"/>
<path d="M1961 218C1887.55 218 1828 158.454 1828 85" stroke="#8E5237" stroke-width="16"/>
<circle cx="1017" cy="85" r="18" fill="white" stroke="#D01222" stroke-width="16"/>
<circle cx="1422" cy="85" r="18" fill="white" stroke="#D01222" stroke-width="16"/>
<circle cx="1828" cy="85" r="18" fill="white" stroke="url(#paint0_linear)" stroke-width="16"/>
<path d="M1021.88 19.8L1011.16 39.744C1010.12 41.664 1008.88 43.116 1007.41 44.1C1005.97 45.084 1004.4 45.576 1002.7 45.576C1001.38 45.576 1000.01 45.288 998.592 44.712L999.996 40.284C1001 40.596 1001.84 40.752 1002.52 40.752C1003.24 40.752 1003.88 40.584 1004.46 40.248C1005.04 39.888 1005.56 39.336 1006.04 38.592L1006.26 38.304L996.324 19.8H1002.55L1009.25 33.336L1016.16 19.8H1021.88ZM1023.49 25.632H1029.07V33.192H1037.49V25.632H1043.11V45H1037.49V37.764H1029.07V45H1023.49V25.632ZM1048.48 25.632H1054.06V37.152L1063.49 25.632H1068.64V45H1063.06V33.48L1053.67 45H1048.48V25.632ZM1088.84 34.884C1091.12 35.652 1092.26 37.188 1092.26 39.492C1092.26 41.244 1091.6 42.6 1090.28 43.56C1088.96 44.52 1086.99 45 1084.37 45H1074.04V25.632H1083.94C1086.36 25.632 1088.26 26.076 1089.63 26.964C1091 27.828 1091.68 29.052 1091.68 30.636C1091.68 31.596 1091.43 32.448 1090.92 33.192C1090.44 33.912 1089.75 34.476 1088.84 34.884ZM1079.19 33.588H1083.44C1085.4 33.588 1086.39 32.892 1086.39 31.5C1086.39 30.132 1085.4 29.448 1083.44 29.448H1079.19V33.588ZM1083.9 41.184C1085.97 41.184 1087 40.476 1087 39.06C1087 38.316 1086.76 37.776 1086.28 37.44C1085.8 37.08 1085.04 36.9 1084.01 36.9H1079.19V41.184H1083.9ZM1115.26 35.388C1115.26 35.46 1115.23 35.964 1115.15 36.9H1100.5C1100.77 38.1 1101.39 39.048 1102.37 39.744C1103.36 40.44 1104.58 40.788 1106.05 40.788C1107.05 40.788 1107.94 40.644 1108.71 40.356C1109.5 40.044 1110.23 39.564 1110.91 38.916L1113.89 42.156C1112.07 44.244 1109.41 45.288 1105.9 45.288C1103.72 45.288 1101.79 44.868 1100.11 44.028C1098.43 43.164 1097.13 41.976 1096.22 40.464C1095.31 38.952 1094.85 37.236 1094.85 35.316C1094.85 33.42 1095.29 31.716 1096.18 30.204C1097.09 28.668 1098.33 27.48 1099.89 26.64C1101.47 25.776 1103.24 25.344 1105.18 25.344C1107.08 25.344 1108.79 25.752 1110.33 26.568C1111.87 27.384 1113.07 28.56 1113.93 30.096C1114.82 31.608 1115.26 33.372 1115.26 35.388ZM1105.22 29.592C1103.95 29.592 1102.88 29.952 1102.01 30.672C1101.15 31.392 1100.62 32.376 1100.43 33.624H1109.97C1109.78 32.4 1109.25 31.428 1108.39 30.708C1107.52 29.964 1106.47 29.592 1105.22 29.592ZM1130.98 25.344C1132.78 25.344 1134.41 25.764 1135.88 26.604C1137.36 27.42 1138.53 28.584 1139.37 30.096C1140.21 31.584 1140.63 33.324 1140.63 35.316C1140.63 37.308 1140.21 39.06 1139.37 40.572C1138.53 42.06 1137.36 43.224 1135.88 44.064C1134.41 44.88 1132.78 45.288 1130.98 45.288C1128.51 45.288 1126.56 44.508 1125.15 42.948V51.984H1119.53V25.632H1124.9V27.864C1126.29 26.184 1128.32 25.344 1130.98 25.344ZM1130.01 40.68C1131.45 40.68 1132.62 40.2 1133.54 39.24C1134.47 38.256 1134.94 36.948 1134.94 35.316C1134.94 33.684 1134.47 32.388 1133.54 31.428C1132.62 30.444 1131.45 29.952 1130.01 29.952C1128.57 29.952 1127.38 30.444 1126.44 31.428C1125.53 32.388 1125.08 33.684 1125.08 35.316C1125.08 36.948 1125.53 38.256 1126.44 39.24C1127.38 40.2 1128.57 40.68 1130.01 40.68ZM1153.78 45.288C1151.72 45.288 1149.86 44.868 1148.2 44.028C1146.57 43.164 1145.28 41.976 1144.35 40.464C1143.44 38.952 1142.98 37.236 1142.98 35.316C1142.98 33.396 1143.44 31.68 1144.35 30.168C1145.28 28.656 1146.57 27.48 1148.2 26.64C1149.86 25.776 1151.72 25.344 1153.78 25.344C1155.82 25.344 1157.6 25.776 1159.11 26.64C1160.64 27.48 1161.76 28.692 1162.46 30.276L1158.1 32.616C1157.09 30.84 1155.64 29.952 1153.74 29.952C1152.28 29.952 1151.07 30.432 1150.11 31.392C1149.15 32.352 1148.67 33.66 1148.67 35.316C1148.67 36.972 1149.15 38.28 1150.11 39.24C1151.07 40.2 1152.28 40.68 1153.74 40.68C1155.66 40.68 1157.12 39.792 1158.1 38.016L1162.46 40.392C1161.76 41.928 1160.64 43.128 1159.11 43.992C1157.6 44.856 1155.82 45.288 1153.78 45.288ZM1165.87 25.632H1171.45V37.152L1180.88 25.632H1186.03V45H1180.45V33.48L1171.05 45H1165.87V25.632ZM1207.7 30.24H1201.15V45H1195.57V30.24H1189.01V25.632H1207.7V30.24ZM1228.71 35.388C1228.71 35.46 1228.68 35.964 1228.6 36.9H1213.95C1214.22 38.1 1214.84 39.048 1215.82 39.744C1216.81 40.44 1218.03 40.788 1219.5 40.788C1220.5 40.788 1221.39 40.644 1222.16 40.356C1222.95 40.044 1223.68 39.564 1224.36 38.916L1227.34 42.156C1225.52 44.244 1222.86 45.288 1219.35 45.288C1217.17 45.288 1215.24 44.868 1213.56 44.028C1211.88 43.164 1210.58 41.976 1209.67 40.464C1208.76 38.952 1208.3 37.236 1208.3 35.316C1208.3 33.42 1208.74 31.716 1209.63 30.204C1210.54 28.668 1211.78 27.48 1213.34 26.64C1214.92 25.776 1216.69 25.344 1218.63 25.344C1220.53 25.344 1222.24 25.752 1223.78 26.568C1225.32 27.384 1226.52 28.56 1227.38 30.096C1228.27 31.608 1228.71 33.372 1228.71 35.388ZM1218.67 29.592C1217.4 29.592 1216.33 29.952 1215.46 30.672C1214.6 31.392 1214.07 32.376 1213.88 33.624H1223.42C1223.23 32.4 1222.7 31.428 1221.84 30.708C1220.97 29.964 1219.92 29.592 1218.67 29.592ZM1248.62 30.24H1242.07V45H1236.49V30.24H1229.94V25.632H1248.62V30.24Z" fill="#181818"/>
<path d="M817.924 120.4V133H815.62V122.38H809.086V133H806.782V120.4H817.924ZM826.553 123.28C827.489 123.28 828.323 123.484 829.055 123.892C829.799 124.3 830.381 124.876 830.801 125.62C831.221 126.364 831.431 127.222 831.431 128.194C831.431 129.166 831.221 130.03 830.801 130.786C830.381 131.53 829.799 132.106 829.055 132.514C828.323 132.922 827.489 133.126 826.553 133.126C825.257 133.126 824.231 132.694 823.475 131.83V136.492H821.225V123.388H823.367V124.648C823.739 124.192 824.195 123.85 824.735 123.622C825.287 123.394 825.893 123.28 826.553 123.28ZM826.301 131.2C827.129 131.2 827.807 130.924 828.335 130.372C828.875 129.82 829.145 129.094 829.145 128.194C829.145 127.294 828.875 126.568 828.335 126.016C827.807 125.464 827.129 125.188 826.301 125.188C825.761 125.188 825.275 125.314 824.843 125.566C824.411 125.806 824.069 126.154 823.817 126.61C823.565 127.066 823.439 127.594 823.439 128.194C823.439 128.794 823.565 129.322 823.817 129.778C824.069 130.234 824.411 130.588 824.843 130.84C825.275 131.08 825.761 131.2 826.301 131.2ZM837.954 133.126C836.982 133.126 836.106 132.916 835.326 132.496C834.546 132.076 833.934 131.494 833.49 130.75C833.058 129.994 832.842 129.142 832.842 128.194C832.842 127.246 833.058 126.4 833.49 125.656C833.934 124.912 834.546 124.33 835.326 123.91C836.106 123.49 836.982 123.28 837.954 123.28C838.938 123.28 839.82 123.49 840.6 123.91C841.38 124.33 841.986 124.912 842.418 125.656C842.862 126.4 843.084 127.246 843.084 128.194C843.084 129.142 842.862 129.994 842.418 130.75C841.986 131.494 841.38 132.076 840.6 132.496C839.82 132.916 838.938 133.126 837.954 133.126ZM837.954 131.2C838.782 131.2 839.466 130.924 840.006 130.372C840.546 129.82 840.816 129.094 840.816 128.194C840.816 127.294 840.546 126.568 840.006 126.016C839.466 125.464 838.782 125.188 837.954 125.188C837.126 125.188 836.442 125.464 835.902 126.016C835.374 126.568 835.11 127.294 835.11 128.194C835.11 129.094 835.374 129.82 835.902 130.372C836.442 130.924 837.126 131.2 837.954 131.2ZM849.681 133.126C848.685 133.126 847.791 132.916 846.999 132.496C846.207 132.076 845.589 131.494 845.145 130.75C844.701 129.994 844.479 129.142 844.479 128.194C844.479 127.246 844.701 126.4 845.145 125.656C845.589 124.912 846.201 124.33 846.981 123.91C847.773 123.49 848.673 123.28 849.681 123.28C850.629 123.28 851.457 123.472 852.165 123.856C852.885 124.24 853.425 124.792 853.785 125.512L852.057 126.52C851.781 126.076 851.433 125.746 851.013 125.53C850.605 125.302 850.155 125.188 849.663 125.188C848.823 125.188 848.127 125.464 847.575 126.016C847.023 126.556 846.747 127.282 846.747 128.194C846.747 129.106 847.017 129.838 847.557 130.39C848.109 130.93 848.811 131.2 849.663 131.2C850.155 131.2 850.605 131.092 851.013 130.876C851.433 130.648 851.781 130.312 852.057 129.868L853.785 130.876C853.413 131.596 852.867 132.154 852.147 132.55C851.439 132.934 850.617 133.126 849.681 133.126ZM864.982 123.388V133H862.75V125.296H858.016V133H855.766V123.388H864.982ZM877.018 128.248C877.018 128.404 877.006 128.626 876.982 128.914H869.44C869.572 129.622 869.914 130.186 870.466 130.606C871.03 131.014 871.726 131.218 872.554 131.218C873.61 131.218 874.48 130.87 875.164 130.174L876.37 131.56C875.938 132.076 875.392 132.466 874.732 132.73C874.072 132.994 873.328 133.126 872.5 133.126C871.444 133.126 870.514 132.916 869.71 132.496C868.906 132.076 868.282 131.494 867.838 130.75C867.406 129.994 867.19 129.142 867.19 128.194C867.19 127.258 867.4 126.418 867.82 125.674C868.252 124.918 868.846 124.33 869.602 123.91C870.358 123.49 871.21 123.28 872.158 123.28C873.094 123.28 873.928 123.49 874.66 123.91C875.404 124.318 875.98 124.9 876.388 125.656C876.808 126.4 877.018 127.264 877.018 128.248ZM872.158 125.08C871.438 125.08 870.826 125.296 870.322 125.728C869.83 126.148 869.53 126.712 869.422 127.42H874.876C874.78 126.724 874.486 126.16 873.994 125.728C873.502 125.296 872.89 125.08 872.158 125.08ZM883.475 129.148H881.729V133H879.479V123.388H881.729V127.276H883.529L886.373 123.388H888.785L885.293 128.014L889.019 133H886.373L883.475 129.148ZM898.097 125.296H894.731V133H892.481V125.296H889.097V123.388H898.097V125.296ZM913.253 126.448C914.057 126.664 914.669 127.036 915.089 127.564C915.509 128.08 915.719 128.728 915.719 129.508C915.719 130.612 915.311 131.47 914.495 132.082C913.679 132.694 912.497 133 910.949 133H904.973V120.4H910.607C912.023 120.4 913.127 120.682 913.919 121.246C914.711 121.81 915.107 122.608 915.107 123.64C915.107 124.3 914.945 124.87 914.621 125.35C914.309 125.83 913.853 126.196 913.253 126.448ZM907.277 125.782H910.409C911.165 125.782 911.741 125.632 912.137 125.332C912.533 125.032 912.731 124.588 912.731 124C912.731 123.412 912.533 122.968 912.137 122.668C911.741 122.356 911.165 122.2 910.409 122.2H907.277V125.782ZM910.877 131.2C912.533 131.2 913.361 130.576 913.361 129.328C913.361 128.104 912.533 127.492 910.877 127.492H907.277V131.2H910.877ZM927.133 128.248C927.133 128.404 927.121 128.626 927.097 128.914H919.555C919.687 129.622 920.029 130.186 920.581 130.606C921.145 131.014 921.841 131.218 922.669 131.218C923.725 131.218 924.595 130.87 925.279 130.174L926.485 131.56C926.053 132.076 925.507 132.466 924.847 132.73C924.187 132.994 923.443 133.126 922.615 133.126C921.559 133.126 920.629 132.916 919.825 132.496C919.021 132.076 918.397 131.494 917.953 130.75C917.521 129.994 917.305 129.142 917.305 128.194C917.305 127.258 917.515 126.418 917.935 125.674C918.367 124.918 918.961 124.33 919.717 123.91C920.473 123.49 921.325 123.28 922.273 123.28C923.209 123.28 924.043 123.49 924.775 123.91C925.519 124.318 926.095 124.9 926.503 125.656C926.923 126.4 927.133 127.264 927.133 128.248ZM922.273 125.08C921.553 125.08 920.941 125.296 920.437 125.728C919.945 126.148 919.645 126.712 919.537 127.42H924.991C924.895 126.724 924.601 126.16 924.109 125.728C923.617 125.296 923.005 125.08 922.273 125.08ZM934.922 123.28C935.858 123.28 936.692 123.484 937.424 123.892C938.168 124.3 938.75 124.876 939.17 125.62C939.59 126.364 939.8 127.222 939.8 128.194C939.8 129.166 939.59 130.03 939.17 130.786C938.75 131.53 938.168 132.106 937.424 132.514C936.692 132.922 935.858 133.126 934.922 133.126C933.626 133.126 932.6 132.694 931.844 131.83V136.492H929.594V123.388H931.736V124.648C932.108 124.192 932.564 123.85 933.104 123.622C933.656 123.394 934.262 123.28 934.922 123.28ZM934.67 131.2C935.498 131.2 936.176 130.924 936.704 130.372C937.244 129.82 937.514 129.094 937.514 128.194C937.514 127.294 937.244 126.568 936.704 126.016C936.176 125.464 935.498 125.188 934.67 125.188C934.13 125.188 933.644 125.314 933.212 125.566C932.78 125.806 932.438 126.154 932.186 126.61C931.934 127.066 931.808 127.594 931.808 128.194C931.808 128.794 931.934 129.322 932.186 129.778C932.438 130.234 932.78 130.588 933.212 130.84C933.644 131.08 934.13 131.2 934.67 131.2ZM942.039 123.388H944.289V127.294H949.131V123.388H951.381V133H949.131V129.202H944.289V133H942.039V123.388ZM957.979 123.28C959.395 123.28 960.475 123.622 961.219 124.306C961.975 124.978 962.353 125.998 962.353 127.366V133H960.229V131.83C959.953 132.25 959.557 132.574 959.041 132.802C958.537 133.018 957.925 133.126 957.205 133.126C956.485 133.126 955.855 133.006 955.315 132.766C954.775 132.514 954.355 132.172 954.055 131.74C953.767 131.296 953.623 130.798 953.623 130.246C953.623 129.382 953.941 128.692 954.577 128.176C955.225 127.648 956.239 127.384 957.619 127.384H960.103V127.24C960.103 126.568 959.899 126.052 959.491 125.692C959.095 125.332 958.501 125.152 957.709 125.152C957.169 125.152 956.635 125.236 956.107 125.404C955.591 125.572 955.153 125.806 954.793 126.106L953.911 124.468C954.415 124.084 955.021 123.79 955.729 123.586C956.437 123.382 957.187 123.28 957.979 123.28ZM957.673 131.488C958.237 131.488 958.735 131.362 959.167 131.11C959.611 130.846 959.923 130.474 960.103 129.994V128.878H957.781C956.485 128.878 955.837 129.304 955.837 130.156C955.837 130.564 955.999 130.888 956.323 131.128C956.647 131.368 957.097 131.488 957.673 131.488ZM975.397 131.092V135.142H973.291V133H965.875V135.142H963.787V131.092H964.237C964.849 131.068 965.263 130.678 965.479 129.922C965.707 129.154 965.857 128.074 965.929 126.682L966.055 123.388H973.975V131.092H975.397ZM967.981 126.844C967.933 127.948 967.843 128.848 967.711 129.544C967.579 130.24 967.339 130.756 966.991 131.092H971.725V125.296H968.035L967.981 126.844ZM981.781 133.126C980.785 133.126 979.891 132.916 979.099 132.496C978.307 132.076 977.689 131.494 977.245 130.75C976.801 129.994 976.579 129.142 976.579 128.194C976.579 127.246 976.801 126.4 977.245 125.656C977.689 124.912 978.301 124.33 979.081 123.91C979.873 123.49 980.773 123.28 981.781 123.28C982.729 123.28 983.557 123.472 984.265 123.856C984.985 124.24 985.525 124.792 985.885 125.512L984.157 126.52C983.881 126.076 983.533 125.746 983.113 125.53C982.705 125.302 982.255 125.188 981.763 125.188C980.923 125.188 980.227 125.464 979.675 126.016C979.123 126.556 978.847 127.282 978.847 128.194C978.847 129.106 979.117 129.838 979.657 130.39C980.209 130.93 980.911 131.2 981.763 131.2C982.255 131.2 982.705 131.092 983.113 130.876C983.533 130.648 983.881 130.312 984.157 129.868L985.885 130.876C985.513 131.596 984.967 132.154 984.247 132.55C983.539 132.934 982.717 133.126 981.781 133.126ZM991.862 129.148H990.116V133H987.866V123.388H990.116V127.276H991.916L994.76 123.388H997.172L993.68 128.014L997.406 133H994.76L991.862 129.148ZM1002.96 133.126C1001.99 133.126 1001.11 132.916 1000.33 132.496C999.552 132.076 998.94 131.494 998.496 130.75C998.064 129.994 997.848 129.142 997.848 128.194C997.848 127.246 998.064 126.4 998.496 125.656C998.94 124.912 999.552 124.33 1000.33 123.91C1001.11 123.49 1001.99 123.28 1002.96 123.28C1003.94 123.28 1004.83 123.49 1005.61 123.91C1006.39 124.33 1006.99 124.912 1007.42 125.656C1007.87 126.4 1008.09 127.246 1008.09 128.194C1008.09 129.142 1007.87 129.994 1007.42 130.75C1006.99 131.494 1006.39 132.076 1005.61 132.496C1004.83 132.916 1003.94 133.126 1002.96 133.126ZM1002.96 131.2C1003.79 131.2 1004.47 130.924 1005.01 130.372C1005.55 129.82 1005.82 129.094 1005.82 128.194C1005.82 127.294 1005.55 126.568 1005.01 126.016C1004.47 125.464 1003.79 125.188 1002.96 125.188C1002.13 125.188 1001.45 125.464 1000.91 126.016C1000.38 126.568 1000.12 127.294 1000.12 128.194C1000.12 129.094 1000.38 129.82 1000.91 130.372C1001.45 130.924 1002.13 131.2 1002.96 131.2ZM1017.69 125.296H1012.56V133H1010.31V123.388H1017.69V125.296ZM1023.19 133.126C1022.22 133.126 1021.34 132.916 1020.56 132.496C1019.78 132.076 1019.17 131.494 1018.73 130.75C1018.3 129.994 1018.08 129.142 1018.08 128.194C1018.08 127.246 1018.3 126.4 1018.73 125.656C1019.17 124.912 1019.78 124.33 1020.56 123.91C1021.34 123.49 1022.22 123.28 1023.19 123.28C1024.18 123.28 1025.06 123.49 1025.84 123.91C1026.62 124.33 1027.22 124.912 1027.66 125.656C1028.1 126.4 1028.32 127.246 1028.32 128.194C1028.32 129.142 1028.1 129.994 1027.66 130.75C1027.22 131.494 1026.62 132.076 1025.84 132.496C1025.06 132.916 1024.18 133.126 1023.19 133.126ZM1023.19 131.2C1024.02 131.2 1024.7 130.924 1025.24 130.372C1025.78 129.82 1026.05 129.094 1026.05 128.194C1026.05 127.294 1025.78 126.568 1025.24 126.016C1024.7 125.464 1024.02 125.188 1023.19 125.188C1022.36 125.188 1021.68 125.464 1021.14 126.016C1020.61 126.568 1020.35 127.294 1020.35 128.194C1020.35 129.094 1020.61 129.82 1021.14 130.372C1021.68 130.924 1022.36 131.2 1023.19 131.2Z" fill="#A0A0A0"/>
<path d="M627.546 32.22C628.782 32.22 629.892 32.502 630.876 33.066C631.872 33.618 632.652 34.386 633.216 35.37C633.78 36.354 634.062 37.464 634.062 38.7C634.062 39.936 633.78 41.046 633.216 42.03C632.652 43.014 631.872 43.788 630.876 44.352C629.892 44.904 628.782 45.18 627.546 45.18C626.418 45.18 625.386 44.946 624.45 44.478C623.526 44.01 622.764 43.356 622.164 42.516C621.576 41.676 621.21 40.722 621.066 39.654H619.086V45H616.782V32.4H619.086V37.566H621.102C621.27 36.522 621.648 35.598 622.236 34.794C622.836 33.978 623.592 33.348 624.504 32.904C625.428 32.448 626.442 32.22 627.546 32.22ZM627.546 43.128C628.326 43.128 629.034 42.942 629.67 42.57C630.306 42.198 630.804 41.676 631.164 41.004C631.524 40.332 631.704 39.564 631.704 38.7C631.704 37.836 631.524 37.068 631.164 36.396C630.804 35.724 630.306 35.202 629.67 34.83C629.034 34.458 628.326 34.272 627.546 34.272C626.766 34.272 626.058 34.458 625.422 34.83C624.798 35.202 624.3 35.724 623.928 36.396C623.568 37.068 623.388 37.836 623.388 38.7C623.388 39.564 623.568 40.332 623.928 41.004C624.3 41.676 624.798 42.198 625.422 42.57C626.058 42.942 626.766 43.128 627.546 43.128ZM643.808 37.296H638.678V45H636.428V35.388H643.808V37.296ZM649.308 45.126C648.336 45.126 647.46 44.916 646.68 44.496C645.9 44.076 645.288 43.494 644.844 42.75C644.412 41.994 644.196 41.142 644.196 40.194C644.196 39.246 644.412 38.4 644.844 37.656C645.288 36.912 645.9 36.33 646.68 35.91C647.46 35.49 648.336 35.28 649.308 35.28C650.292 35.28 651.174 35.49 651.954 35.91C652.734 36.33 653.34 36.912 653.772 37.656C654.216 38.4 654.438 39.246 654.438 40.194C654.438 41.142 654.216 41.994 653.772 42.75C653.34 43.494 652.734 44.076 651.954 44.496C651.174 44.916 650.292 45.126 649.308 45.126ZM649.308 43.2C650.136 43.2 650.82 42.924 651.36 42.372C651.9 41.82 652.17 41.094 652.17 40.194C652.17 39.294 651.9 38.568 651.36 38.016C650.82 37.464 650.136 37.188 649.308 37.188C648.48 37.188 647.796 37.464 647.256 38.016C646.728 38.568 646.464 39.294 646.464 40.194C646.464 41.094 646.728 41.82 647.256 42.372C647.796 42.924 648.48 43.2 649.308 43.2ZM656.314 39.06H661.264V40.932H656.314V39.06ZM670.462 38.43C671.218 38.67 671.806 39.06 672.226 39.6C672.658 40.128 672.874 40.752 672.874 41.472C672.874 42.228 672.628 42.888 672.136 43.452C671.644 44.004 670.984 44.43 670.156 44.73C669.34 45.03 668.446 45.18 667.474 45.18C666.634 45.18 665.788 45.066 664.936 44.838C664.096 44.598 663.316 44.244 662.596 43.776L663.352 42.066C663.904 42.438 664.516 42.726 665.188 42.93C665.86 43.122 666.526 43.218 667.186 43.218C668.134 43.218 668.92 43.032 669.544 42.66C670.18 42.288 670.498 41.778 670.498 41.13C670.498 40.578 670.27 40.158 669.814 39.87C669.358 39.582 668.728 39.438 667.924 39.438H664.99V37.602H667.744C668.44 37.602 668.986 37.458 669.382 37.17C669.778 36.882 669.976 36.492 669.976 36C669.976 35.412 669.706 34.956 669.166 34.632C668.638 34.308 667.96 34.146 667.132 34.146C666.568 34.146 665.986 34.23 665.386 34.398C664.786 34.554 664.222 34.788 663.694 35.1L662.956 33.21C663.604 32.862 664.288 32.604 665.008 32.436C665.74 32.256 666.466 32.166 667.186 32.166C668.122 32.166 668.98 32.31 669.76 32.598C670.552 32.886 671.182 33.3 671.65 33.84C672.118 34.368 672.352 34.992 672.352 35.712C672.352 36.336 672.184 36.882 671.848 37.35C671.512 37.818 671.05 38.178 670.462 38.43ZM678.858 35.28C680.274 35.28 681.354 35.622 682.098 36.306C682.854 36.978 683.232 37.998 683.232 39.366V45H681.108V43.83C680.832 44.25 680.436 44.574 679.92 44.802C679.416 45.018 678.804 45.126 678.084 45.126C677.364 45.126 676.734 45.006 676.194 44.766C675.654 44.514 675.234 44.172 674.934 43.74C674.646 43.296 674.502 42.798 674.502 42.246C674.502 41.382 674.82 40.692 675.456 40.176C676.104 39.648 677.118 39.384 678.498 39.384H680.982V39.24C680.982 38.568 680.778 38.052 680.37 37.692C679.974 37.332 679.38 37.152 678.588 37.152C678.048 37.152 677.514 37.236 676.986 37.404C676.47 37.572 676.032 37.806 675.672 38.106L674.79 36.468C675.294 36.084 675.9 35.79 676.608 35.586C677.316 35.382 678.066 35.28 678.858 35.28ZM678.552 43.488C679.116 43.488 679.614 43.362 680.046 43.11C680.49 42.846 680.802 42.474 680.982 41.994V40.878H678.66C677.364 40.878 676.716 41.304 676.716 42.156C676.716 42.564 676.878 42.888 677.202 43.128C677.526 43.368 677.976 43.488 678.552 43.488ZM695.232 35.388V45H693V37.296H688.266V45H686.016V35.388H695.232ZM701.85 35.28C703.266 35.28 704.346 35.622 705.09 36.306C705.846 36.978 706.224 37.998 706.224 39.366V45H704.1V43.83C703.824 44.25 703.428 44.574 702.912 44.802C702.408 45.018 701.796 45.126 701.076 45.126C700.356 45.126 699.726 45.006 699.186 44.766C698.646 44.514 698.226 44.172 697.926 43.74C697.638 43.296 697.494 42.798 697.494 42.246C697.494 41.382 697.812 40.692 698.448 40.176C699.096 39.648 700.11 39.384 701.49 39.384H703.974V39.24C703.974 38.568 703.77 38.052 703.362 37.692C702.966 37.332 702.372 37.152 701.58 37.152C701.04 37.152 700.506 37.236 699.978 37.404C699.462 37.572 699.024 37.806 698.664 38.106L697.782 36.468C698.286 36.084 698.892 35.79 699.6 35.586C700.308 35.382 701.058 35.28 701.85 35.28ZM701.544 43.488C702.108 43.488 702.606 43.362 703.038 43.11C703.482 42.846 703.794 42.474 703.974 41.994V40.878H701.652C700.356 40.878 699.708 41.304 699.708 42.156C699.708 42.564 699.87 42.888 700.194 43.128C700.518 43.368 700.968 43.488 701.544 43.488ZM719.268 43.092V47.142H717.162V45H709.746V47.142H707.658V43.092H708.108C708.72 43.068 709.134 42.678 709.35 41.922C709.578 41.154 709.728 40.074 709.8 38.682L709.926 35.388H717.846V43.092H719.268ZM711.852 38.844C711.804 39.948 711.714 40.848 711.582 41.544C711.45 42.24 711.21 42.756 710.862 43.092H715.596V37.296H711.906L711.852 38.844ZM721.278 35.388H723.528V39.294H728.37V35.388H730.62V45H728.37V41.202H723.528V45H721.278V35.388ZM737.217 35.28C738.633 35.28 739.713 35.622 740.457 36.306C741.213 36.978 741.591 37.998 741.591 39.366V45H739.467V43.83C739.191 44.25 738.795 44.574 738.279 44.802C737.775 45.018 737.163 45.126 736.443 45.126C735.723 45.126 735.093 45.006 734.553 44.766C734.013 44.514 733.593 44.172 733.293 43.74C733.005 43.296 732.861 42.798 732.861 42.246C732.861 41.382 733.179 40.692 733.815 40.176C734.463 39.648 735.477 39.384 736.857 39.384H739.341V39.24C739.341 38.568 739.137 38.052 738.729 37.692C738.333 37.332 737.739 37.152 736.947 37.152C736.407 37.152 735.873 37.236 735.345 37.404C734.829 37.572 734.391 37.806 734.031 38.106L733.149 36.468C733.653 36.084 734.259 35.79 734.967 35.586C735.675 35.382 736.425 35.28 737.217 35.28ZM736.911 43.488C737.475 43.488 737.973 43.362 738.405 43.11C738.849 42.846 739.161 42.474 739.341 41.994V40.878H737.019C735.723 40.878 735.075 41.304 735.075 42.156C735.075 42.564 735.237 42.888 735.561 43.128C735.885 43.368 736.335 43.488 736.911 43.488ZM752.493 35.388V45H750.477V42.102H747.939L745.977 45H743.565L745.833 41.796C745.137 41.556 744.603 41.19 744.231 40.698C743.871 40.194 743.691 39.576 743.691 38.844C743.691 37.74 744.081 36.888 744.861 36.288C745.641 35.688 746.715 35.388 748.083 35.388H752.493ZM748.155 37.278C746.703 37.278 745.977 37.824 745.977 38.916C745.977 39.996 746.679 40.536 748.083 40.536H750.477V37.278H748.155Z" fill="#A0A0A0"/>
<path d="M2214.78 32.4H2224.59V34.326H2217.09V37.422H2220.81C2222.32 37.422 2223.47 37.74 2224.25 38.376C2225.04 39 2225.44 39.906 2225.44 41.094C2225.44 42.342 2225.01 43.308 2224.14 43.992C2223.28 44.664 2222.05 45 2220.45 45H2214.78V32.4ZM2220.33 43.2C2221.23 43.2 2221.91 43.026 2222.38 42.678C2222.85 42.33 2223.08 41.826 2223.08 41.166C2223.08 39.87 2222.16 39.222 2220.33 39.222H2217.09V43.2H2220.33ZM2227.75 35.388H2230V41.724L2235.31 35.388H2237.36V45H2235.11V38.664L2229.82 45H2227.75V35.388ZM2245.59 35.856C2246.5 35.856 2247.31 36.054 2248 36.45C2248.7 36.834 2249.24 37.374 2249.62 38.07C2250.02 38.766 2250.22 39.564 2250.22 40.464C2250.22 41.388 2250 42.21 2249.57 42.93C2249.14 43.638 2248.53 44.19 2247.75 44.586C2246.97 44.982 2246.08 45.18 2245.09 45.18C2243.42 45.18 2242.13 44.628 2241.22 43.524C2240.3 42.42 2239.85 40.83 2239.85 38.754C2239.85 36.822 2240.26 35.292 2241.09 34.164C2241.92 33.036 2243.18 32.292 2244.89 31.932L2249.35 30.978L2249.68 32.994L2245.63 33.822C2244.46 34.062 2243.59 34.47 2243.02 35.046C2242.44 35.622 2242.1 36.432 2242.01 37.476C2242.44 36.96 2242.96 36.564 2243.57 36.288C2244.19 36 2244.86 35.856 2245.59 35.856ZM2245.14 43.362C2245.97 43.362 2246.63 43.098 2247.14 42.57C2247.65 42.03 2247.91 41.346 2247.91 40.518C2247.91 39.69 2247.65 39.024 2247.14 38.52C2246.63 38.016 2245.97 37.764 2245.14 37.764C2244.3 37.764 2243.62 38.016 2243.11 38.52C2242.59 39.024 2242.33 39.69 2242.33 40.518C2242.33 41.358 2242.59 42.042 2243.11 42.57C2243.63 43.098 2244.31 43.362 2245.14 43.362ZM2261 35.388V45H2258.75V37.296H2255.15L2255.06 39.204C2255 40.476 2254.88 41.544 2254.7 42.408C2254.53 43.26 2254.24 43.938 2253.82 44.442C2253.41 44.934 2252.85 45.18 2252.13 45.18C2251.79 45.18 2251.38 45.114 2250.88 44.982L2250.99 43.092C2251.16 43.128 2251.3 43.146 2251.42 43.146C2251.88 43.146 2252.22 42.966 2252.45 42.606C2252.68 42.234 2252.82 41.796 2252.88 41.292C2252.95 40.776 2253.01 40.044 2253.06 39.096L2253.22 35.388H2261ZM2264.03 35.388H2266.28V41.724L2271.59 35.388H2273.64V45H2271.39V38.664L2266.1 45H2264.03V35.388ZM2280.95 45.126C2279.98 45.126 2279.1 44.916 2278.32 44.496C2277.54 44.076 2276.93 43.494 2276.49 42.75C2276.06 41.994 2275.84 41.142 2275.84 40.194C2275.84 39.246 2276.06 38.4 2276.49 37.656C2276.93 36.912 2277.54 36.33 2278.32 35.91C2279.1 35.49 2279.98 35.28 2280.95 35.28C2281.94 35.28 2282.82 35.49 2283.6 35.91C2284.38 36.33 2284.98 36.912 2285.42 37.656C2285.86 38.4 2286.08 39.246 2286.08 40.194C2286.08 41.142 2285.86 41.994 2285.42 42.75C2284.98 43.494 2284.38 44.076 2283.6 44.496C2282.82 44.916 2281.94 45.126 2280.95 45.126ZM2280.95 43.2C2281.78 43.2 2282.46 42.924 2283 42.372C2283.54 41.82 2283.81 41.094 2283.81 40.194C2283.81 39.294 2283.54 38.568 2283 38.016C2282.46 37.464 2281.78 37.188 2280.95 37.188C2280.12 37.188 2279.44 37.464 2278.9 38.016C2278.37 38.568 2278.11 39.294 2278.11 40.194C2278.11 41.094 2278.37 41.82 2278.9 42.372C2279.44 42.924 2280.12 43.2 2280.95 43.2ZM2295.57 37.296H2292.2V45H2289.95V37.296H2286.57V35.388H2295.57V37.296ZM2305.78 40.248C2305.78 40.404 2305.77 40.626 2305.74 40.914H2298.2C2298.33 41.622 2298.67 42.186 2299.23 42.606C2299.79 43.014 2300.49 43.218 2301.31 43.218C2302.37 43.218 2303.24 42.87 2303.92 42.174L2305.13 43.56C2304.7 44.076 2304.15 44.466 2303.49 44.73C2302.83 44.994 2302.09 45.126 2301.26 45.126C2300.2 45.126 2299.27 44.916 2298.47 44.496C2297.67 44.076 2297.04 43.494 2296.6 42.75C2296.17 41.994 2295.95 41.142 2295.95 40.194C2295.95 39.258 2296.16 38.418 2296.58 37.674C2297.01 36.918 2297.61 36.33 2298.36 35.91C2299.12 35.49 2299.97 35.28 2300.92 35.28C2301.85 35.28 2302.69 35.49 2303.42 35.91C2304.16 36.318 2304.74 36.9 2305.15 37.656C2305.57 38.4 2305.78 39.264 2305.78 40.248ZM2300.92 37.08C2300.2 37.08 2299.59 37.296 2299.08 37.728C2298.59 38.148 2298.29 38.712 2298.18 39.42H2303.64C2303.54 38.724 2303.25 38.16 2302.75 37.728C2302.26 37.296 2301.65 37.08 2300.92 37.08ZM2312.23 41.148H2310.49V45H2308.24V35.388H2310.49V39.276H2312.29L2315.13 35.388H2317.54L2314.05 40.014L2317.78 45H2315.13L2312.23 41.148ZM2322.77 35.28C2324.19 35.28 2325.27 35.622 2326.01 36.306C2326.77 36.978 2327.15 37.998 2327.15 39.366V45H2325.02V43.83C2324.75 44.25 2324.35 44.574 2323.83 44.802C2323.33 45.018 2322.72 45.126 2322 45.126C2321.28 45.126 2320.65 45.006 2320.11 44.766C2319.57 44.514 2319.15 44.172 2318.85 43.74C2318.56 43.296 2318.42 42.798 2318.42 42.246C2318.42 41.382 2318.73 40.692 2319.37 40.176C2320.02 39.648 2321.03 39.384 2322.41 39.384H2324.9V39.24C2324.9 38.568 2324.69 38.052 2324.28 37.692C2323.89 37.332 2323.29 37.152 2322.5 37.152C2321.96 37.152 2321.43 37.236 2320.9 37.404C2320.38 37.572 2319.95 37.806 2319.59 38.106L2318.7 36.468C2319.21 36.084 2319.81 35.79 2320.52 35.586C2321.23 35.382 2321.98 35.28 2322.77 35.28ZM2322.47 43.488C2323.03 43.488 2323.53 43.362 2323.96 43.11C2324.4 42.846 2324.72 42.474 2324.9 41.994V40.878H2322.57C2321.28 40.878 2320.63 41.304 2320.63 42.156C2320.63 42.564 2320.79 42.888 2321.12 43.128C2321.44 43.368 2321.89 43.488 2322.47 43.488ZM2334.9 35.388H2337.15V41.724L2342.46 35.388H2344.52V45H2342.27V38.664L2336.97 45H2334.9V35.388ZM2356.99 45V38.628L2353.75 43.992H2352.78L2349.6 38.61V45H2347.54V35.388H2349.9L2353.32 41.4L2356.9 35.388H2359.01L2359.03 45H2356.99ZM2371.05 40.248C2371.05 40.404 2371.03 40.626 2371.01 40.914H2363.47C2363.6 41.622 2363.94 42.186 2364.49 42.606C2365.06 43.014 2365.75 43.218 2366.58 43.218C2367.64 43.218 2368.51 42.87 2369.19 42.174L2370.4 43.56C2369.97 44.076 2369.42 44.466 2368.76 44.73C2368.1 44.994 2367.36 45.126 2366.53 45.126C2365.47 45.126 2364.54 44.916 2363.74 44.496C2362.93 44.076 2362.31 43.494 2361.87 42.75C2361.43 41.994 2361.22 41.142 2361.22 40.194C2361.22 39.258 2361.43 38.418 2361.85 37.674C2362.28 36.918 2362.87 36.33 2363.63 35.91C2364.39 35.49 2365.24 35.28 2366.19 35.28C2367.12 35.28 2367.96 35.49 2368.69 35.91C2369.43 36.318 2370.01 36.9 2370.42 37.656C2370.84 38.4 2371.05 39.264 2371.05 40.248ZM2366.19 37.08C2365.47 37.08 2364.85 37.296 2364.35 37.728C2363.86 38.148 2363.56 38.712 2363.45 39.42H2368.9C2368.81 38.724 2368.51 38.16 2368.02 37.728C2367.53 37.296 2366.92 37.08 2366.19 37.08ZM2373.51 35.388H2375.76V39.294H2380.6V35.388H2382.85V45H2380.6V41.202H2375.76V45H2373.51V35.388ZM2385.86 35.388H2388.11V41.724L2393.42 35.388H2395.48V45H2393.23V38.664L2387.93 45H2385.86V35.388ZM2414.49 32.4V45H2412.19V34.38H2407.22L2407.11 37.53C2407.05 39.294 2406.91 40.728 2406.68 41.832C2406.45 42.924 2406.09 43.758 2405.58 44.334C2405.08 44.898 2404.38 45.18 2403.49 45.18C2403.18 45.18 2402.76 45.12 2402.22 45L2402.38 42.966C2402.53 43.014 2402.71 43.038 2402.92 43.038C2403.65 43.038 2404.17 42.606 2404.47 41.742C2404.78 40.866 2404.97 39.492 2405.04 37.62L2405.22 32.4H2414.49ZM2426.79 40.248C2426.79 40.404 2426.77 40.626 2426.75 40.914H2419.21C2419.34 41.622 2419.68 42.186 2420.23 42.606C2420.8 43.014 2421.49 43.218 2422.32 43.218C2423.38 43.218 2424.25 42.87 2424.93 42.174L2426.14 43.56C2425.71 44.076 2425.16 44.466 2424.5 44.73C2423.84 44.994 2423.1 45.126 2422.27 45.126C2421.21 45.126 2420.28 44.916 2419.48 44.496C2418.67 44.076 2418.05 43.494 2417.61 42.75C2417.17 41.994 2416.96 41.142 2416.96 40.194C2416.96 39.258 2417.17 38.418 2417.59 37.674C2418.02 36.918 2418.61 36.33 2419.37 35.91C2420.13 35.49 2420.98 35.28 2421.93 35.28C2422.86 35.28 2423.7 35.49 2424.43 35.91C2425.17 36.318 2425.75 36.9 2426.16 37.656C2426.58 38.4 2426.79 39.264 2426.79 40.248ZM2421.93 37.08C2421.21 37.08 2420.59 37.296 2420.09 37.728C2419.6 38.148 2419.3 38.712 2419.19 39.42H2424.64C2424.55 38.724 2424.25 38.16 2423.76 37.728C2423.27 37.296 2422.66 37.08 2421.93 37.08ZM2429.25 35.388H2431.5V39.294H2436.34V35.388H2438.59V45H2436.34V41.202H2431.5V45H2429.25V35.388ZM2441.6 35.388H2443.85V41.724L2449.16 35.388H2451.22V45H2448.97V38.664L2443.67 45H2441.6V35.388ZM2454.24 35.388H2456.49V39.294H2461.33V35.388H2463.58V45H2461.33V41.202H2456.49V45H2454.24V35.388ZM2470.18 35.28C2471.6 35.28 2472.68 35.622 2473.42 36.306C2474.18 36.978 2474.56 37.998 2474.56 39.366V45H2472.43V43.83C2472.16 44.25 2471.76 44.574 2471.24 44.802C2470.74 45.018 2470.13 45.126 2469.41 45.126C2468.69 45.126 2468.06 45.006 2467.52 44.766C2466.98 44.514 2466.56 44.172 2466.26 43.74C2465.97 43.296 2465.83 42.798 2465.83 42.246C2465.83 41.382 2466.14 40.692 2466.78 40.176C2467.43 39.648 2468.44 39.384 2469.82 39.384H2472.31V39.24C2472.31 38.568 2472.1 38.052 2471.69 37.692C2471.3 37.332 2470.7 37.152 2469.91 37.152C2469.37 37.152 2468.84 37.236 2468.31 37.404C2467.79 37.572 2467.36 37.806 2467 38.106L2466.11 36.468C2466.62 36.084 2467.22 35.79 2467.93 35.586C2468.64 35.382 2469.39 35.28 2470.18 35.28ZM2469.88 43.488C2470.44 43.488 2470.94 43.362 2471.37 43.11C2471.81 42.846 2472.13 42.474 2472.31 41.994V40.878H2469.98C2468.69 40.878 2468.04 41.304 2468.04 42.156C2468.04 42.564 2468.2 42.888 2468.53 43.128C2468.85 43.368 2469.3 43.488 2469.88 43.488Z" fill="#A0A0A0"/>
<path d="M1828.92 32.4V45H1826.62V34.38H1820.09V45H1817.78V32.4H1828.92ZM1835.81 35.28C1837.22 35.28 1838.3 35.622 1839.05 36.306C1839.8 36.978 1840.18 37.998 1840.18 39.366V45H1838.06V43.83C1837.78 44.25 1837.38 44.574 1836.87 44.802C1836.36 45.018 1835.75 45.126 1835.03 45.126C1834.31 45.126 1833.68 45.006 1833.14 44.766C1832.6 44.514 1832.18 44.172 1831.88 43.74C1831.59 43.296 1831.45 42.798 1831.45 42.246C1831.45 41.382 1831.77 40.692 1832.4 40.176C1833.05 39.648 1834.07 39.384 1835.45 39.384H1837.93V39.24C1837.93 38.568 1837.73 38.052 1837.32 37.692C1836.92 37.332 1836.33 37.152 1835.54 37.152C1835 37.152 1834.46 37.236 1833.93 37.404C1833.42 37.572 1832.98 37.806 1832.62 38.106L1831.74 36.468C1832.24 36.084 1832.85 35.79 1833.56 35.586C1834.26 35.382 1835.01 35.28 1835.81 35.28ZM1835.5 43.488C1836.06 43.488 1836.56 43.362 1836.99 43.11C1837.44 42.846 1837.75 42.474 1837.93 41.994V40.878H1835.61C1834.31 40.878 1833.66 41.304 1833.66 42.156C1833.66 42.564 1833.83 42.888 1834.15 43.128C1834.47 43.368 1834.92 43.488 1835.5 43.488ZM1848.29 35.28C1849.23 35.28 1850.06 35.484 1850.8 35.892C1851.54 36.3 1852.12 36.876 1852.54 37.62C1852.96 38.364 1853.17 39.222 1853.17 40.194C1853.17 41.166 1852.96 42.03 1852.54 42.786C1852.12 43.53 1851.54 44.106 1850.8 44.514C1850.06 44.922 1849.23 45.126 1848.29 45.126C1847 45.126 1845.97 44.694 1845.22 43.83V48.492H1842.97V35.388H1845.11V36.648C1845.48 36.192 1845.94 35.85 1846.48 35.622C1847.03 35.394 1847.63 35.28 1848.29 35.28ZM1848.04 43.2C1848.87 43.2 1849.55 42.924 1850.08 42.372C1850.62 41.82 1850.89 41.094 1850.89 40.194C1850.89 39.294 1850.62 38.568 1850.08 38.016C1849.55 37.464 1848.87 37.188 1848.04 37.188C1847.5 37.188 1847.02 37.314 1846.58 37.566C1846.15 37.806 1845.81 38.154 1845.56 38.61C1845.31 39.066 1845.18 39.594 1845.18 40.194C1845.18 40.794 1845.31 41.322 1845.56 41.778C1845.81 42.234 1846.15 42.588 1846.58 42.84C1847.02 43.08 1847.5 43.2 1848.04 43.2ZM1859.41 41.148H1857.66V45H1855.41V35.388H1857.66V39.276H1859.46L1862.3 35.388H1864.72L1861.22 40.014L1864.95 45H1862.3L1859.41 41.148ZM1876.41 39.69H1874.07V45H1871.76V32.4H1874.07V37.674H1876.48L1880.1 32.4H1882.58L1878.28 38.502L1882.74 45H1880.1L1876.41 39.69ZM1893.03 35.388L1888.53 45.774C1888.11 46.818 1887.6 47.55 1887 47.97C1886.4 48.402 1885.67 48.618 1884.82 48.618C1884.34 48.618 1883.87 48.54 1883.4 48.384C1882.93 48.228 1882.55 48.012 1882.25 47.736L1883.15 46.08C1883.36 46.284 1883.62 46.446 1883.9 46.566C1884.2 46.686 1884.5 46.746 1884.8 46.746C1885.2 46.746 1885.52 46.644 1885.78 46.44C1886.04 46.236 1886.28 45.894 1886.5 45.414L1886.66 45.036L1882.46 35.388H1884.8L1887.83 42.498L1890.87 35.388H1893.03ZM1902.71 35.388V45H1900.46V37.296H1896.86L1896.77 39.204C1896.71 40.476 1896.59 41.544 1896.41 42.408C1896.24 43.26 1895.94 43.938 1895.52 44.442C1895.12 44.934 1894.55 45.18 1893.83 45.18C1893.5 45.18 1893.08 45.114 1892.59 44.982L1892.7 43.092C1892.87 43.128 1893.01 43.146 1893.13 43.146C1893.59 43.146 1893.93 42.966 1894.16 42.606C1894.38 42.234 1894.53 41.796 1894.59 41.292C1894.66 40.776 1894.72 40.044 1894.77 39.096L1894.93 35.388H1902.71ZM1910.56 38.556C1911.78 38.556 1912.72 38.832 1913.37 39.384C1914.03 39.936 1914.36 40.716 1914.36 41.724C1914.36 42.78 1914 43.596 1913.28 44.172C1912.56 44.748 1911.54 45.03 1910.24 45.018L1905.74 45V35.388H1907.99V38.538L1910.56 38.556ZM1910.04 43.362C1910.7 43.374 1911.2 43.236 1911.55 42.948C1911.9 42.66 1912.07 42.24 1912.07 41.688C1912.07 41.148 1911.9 40.752 1911.57 40.5C1911.23 40.248 1910.72 40.116 1910.04 40.104L1907.99 40.086V43.344L1910.04 43.362ZM1923.05 37.296H1919.69V45H1917.44V37.296H1914.05V35.388H1923.05V37.296ZM1933.83 35.388L1929.33 45.774C1928.91 46.818 1928.4 47.55 1927.8 47.97C1927.2 48.402 1926.47 48.618 1925.62 48.618C1925.14 48.618 1924.67 48.54 1924.2 48.384C1923.73 48.228 1923.35 48.012 1923.05 47.736L1923.95 46.08C1924.16 46.284 1924.41 46.446 1924.7 46.566C1925 46.686 1925.3 46.746 1925.6 46.746C1926 46.746 1926.32 46.644 1926.57 46.44C1926.84 46.236 1927.08 45.894 1927.29 45.414L1927.46 45.036L1923.26 35.388H1925.6L1928.63 42.498L1931.67 35.388H1933.83ZM1940.72 35.28C1941.65 35.28 1942.49 35.484 1943.22 35.892C1943.96 36.3 1944.55 36.876 1944.97 37.62C1945.39 38.364 1945.6 39.222 1945.6 40.194C1945.6 41.166 1945.39 42.03 1944.97 42.786C1944.55 43.53 1943.96 44.106 1943.22 44.514C1942.49 44.922 1941.65 45.126 1940.72 45.126C1939.42 45.126 1938.4 44.694 1937.64 43.83V48.492H1935.39V35.388H1937.53V36.648C1937.9 36.192 1938.36 35.85 1938.9 35.622C1939.45 35.394 1940.06 35.28 1940.72 35.28ZM1940.47 43.2C1941.29 43.2 1941.97 42.924 1942.5 42.372C1943.04 41.82 1943.31 41.094 1943.31 40.194C1943.31 39.294 1943.04 38.568 1942.5 38.016C1941.97 37.464 1941.29 37.188 1940.47 37.188C1939.93 37.188 1939.44 37.314 1939.01 37.566C1938.58 37.806 1938.23 38.154 1937.98 38.61C1937.73 39.066 1937.6 39.594 1937.6 40.194C1937.6 40.794 1937.73 41.322 1937.98 41.778C1938.23 42.234 1938.58 42.588 1939.01 42.84C1939.44 43.08 1939.93 43.2 1940.47 43.2ZM1952.52 38.556C1953.74 38.556 1954.68 38.832 1955.32 39.384C1955.97 39.936 1956.3 40.716 1956.3 41.724C1956.3 42.78 1955.94 43.596 1955.22 44.172C1954.51 44.748 1953.5 45.03 1952.19 45.018L1947.84 45V35.388H1950.09V38.538L1952.52 38.556ZM1957.54 35.388H1959.79V45H1957.54V35.388ZM1951.99 43.362C1952.65 43.374 1953.16 43.236 1953.51 42.948C1953.85 42.66 1954.03 42.24 1954.03 41.688C1954.03 41.148 1953.86 40.752 1953.52 40.5C1953.19 40.248 1952.68 40.116 1951.99 40.104L1950.09 40.086V43.344L1951.99 43.362Z" fill="#A0A0A0"/>
<path d="M1418.56 45.18C1417.29 45.18 1416.14 44.904 1415.1 44.352C1414.08 43.788 1413.28 43.014 1412.69 42.03C1412.12 41.046 1411.83 39.936 1411.83 38.7C1411.83 37.464 1412.12 36.354 1412.71 35.37C1413.3 34.386 1414.1 33.618 1415.12 33.066C1416.15 32.502 1417.31 32.22 1418.58 32.22C1419.61 32.22 1420.55 32.4 1421.4 32.76C1422.26 33.12 1422.98 33.642 1423.56 34.326L1422.05 35.748C1421.14 34.764 1420.02 34.272 1418.69 34.272C1417.82 34.272 1417.05 34.464 1416.36 34.848C1415.68 35.22 1415.15 35.742 1414.76 36.414C1414.38 37.086 1414.19 37.848 1414.19 38.7C1414.19 39.552 1414.38 40.314 1414.76 40.986C1415.15 41.658 1415.68 42.186 1416.36 42.57C1417.05 42.942 1417.82 43.128 1418.69 43.128C1420.02 43.128 1421.14 42.63 1422.05 41.634L1423.56 43.074C1422.98 43.758 1422.25 44.28 1421.39 44.64C1420.53 45 1419.59 45.18 1418.56 45.18ZM1434.7 35.388V45H1432.47V37.296H1427.73V45H1425.48V35.388H1434.7ZM1442.02 45.126C1441.05 45.126 1440.17 44.916 1439.39 44.496C1438.61 44.076 1438 43.494 1437.56 42.75C1437.12 41.994 1436.91 41.142 1436.91 40.194C1436.91 39.246 1437.12 38.4 1437.56 37.656C1438 36.912 1438.61 36.33 1439.39 35.91C1440.17 35.49 1441.05 35.28 1442.02 35.28C1443 35.28 1443.89 35.49 1444.67 35.91C1445.45 36.33 1446.05 36.912 1446.48 37.656C1446.93 38.4 1447.15 39.246 1447.15 40.194C1447.15 41.142 1446.93 41.994 1446.48 42.75C1446.05 43.494 1445.45 44.076 1444.67 44.496C1443.89 44.916 1443 45.126 1442.02 45.126ZM1442.02 43.2C1442.85 43.2 1443.53 42.924 1444.07 42.372C1444.61 41.82 1444.88 41.094 1444.88 40.194C1444.88 39.294 1444.61 38.568 1444.07 38.016C1443.53 37.464 1442.85 37.188 1442.02 37.188C1441.19 37.188 1440.51 37.464 1439.97 38.016C1439.44 38.568 1439.18 39.294 1439.18 40.194C1439.18 41.094 1439.44 41.82 1439.97 42.372C1440.51 42.924 1441.19 43.2 1442.02 43.2ZM1454.7 35.28C1455.64 35.28 1456.47 35.484 1457.2 35.892C1457.95 36.3 1458.53 36.876 1458.95 37.62C1459.37 38.364 1459.58 39.222 1459.58 40.194C1459.58 41.166 1459.37 42.03 1458.95 42.786C1458.53 43.53 1457.95 44.106 1457.2 44.514C1456.47 44.922 1455.64 45.126 1454.7 45.126C1453.41 45.126 1452.38 44.694 1451.62 43.83V48.492H1449.37V35.388H1451.52V36.648C1451.89 36.192 1452.34 35.85 1452.88 35.622C1453.44 35.394 1454.04 35.28 1454.7 35.28ZM1454.45 43.2C1455.28 43.2 1455.96 42.924 1456.48 42.372C1457.02 41.82 1457.29 41.094 1457.29 40.194C1457.29 39.294 1457.02 38.568 1456.48 38.016C1455.96 37.464 1455.28 37.188 1454.45 37.188C1453.91 37.188 1453.42 37.314 1452.99 37.566C1452.56 37.806 1452.22 38.154 1451.97 38.61C1451.71 39.066 1451.59 39.594 1451.59 40.194C1451.59 40.794 1451.71 41.322 1451.97 41.778C1452.22 42.234 1452.56 42.588 1452.99 42.84C1453.42 43.08 1453.91 43.2 1454.45 43.2ZM1469.08 37.296H1465.72V45H1463.47V37.296H1460.08V35.388H1469.08V37.296ZM1470.71 35.388H1472.96V41.724L1478.27 35.388H1480.33V45H1478.08V38.664L1472.78 45H1470.71V35.388ZM1490.32 39.996C1491.51 40.356 1492.1 41.124 1492.1 42.3C1492.1 43.164 1491.78 43.83 1491.13 44.298C1490.48 44.766 1489.52 45 1488.25 45H1483.35V35.388H1488.05C1489.23 35.388 1490.14 35.604 1490.8 36.036C1491.46 36.468 1491.79 37.08 1491.79 37.872C1491.79 38.364 1491.66 38.79 1491.4 39.15C1491.15 39.51 1490.79 39.792 1490.32 39.996ZM1485.49 39.402H1487.85C1489.02 39.402 1489.6 39 1489.6 38.196C1489.6 37.416 1489.02 37.026 1487.85 37.026H1485.49V39.402ZM1488.07 43.362C1489.3 43.362 1489.92 42.96 1489.92 42.156C1489.92 41.736 1489.78 41.424 1489.49 41.22C1489.2 41.004 1488.75 40.896 1488.14 40.896H1485.49V43.362H1488.07ZM1494.5 35.388H1496.75V39.294H1501.59V35.388H1503.84V45H1501.59V41.202H1496.75V45H1494.5V35.388ZM1510.44 35.28C1511.85 35.28 1512.93 35.622 1513.68 36.306C1514.43 36.978 1514.81 37.998 1514.81 39.366V45H1512.69V43.83C1512.41 44.25 1512.01 44.574 1511.5 44.802C1510.99 45.018 1510.38 45.126 1509.66 45.126C1508.94 45.126 1508.31 45.006 1507.77 44.766C1507.23 44.514 1506.81 44.172 1506.51 43.74C1506.22 43.296 1506.08 42.798 1506.08 42.246C1506.08 41.382 1506.4 40.692 1507.03 40.176C1507.68 39.648 1508.7 39.384 1510.08 39.384H1512.56V39.24C1512.56 38.568 1512.36 38.052 1511.95 37.692C1511.55 37.332 1510.96 37.152 1510.17 37.152C1509.63 37.152 1509.09 37.236 1508.56 37.404C1508.05 37.572 1507.61 37.806 1507.25 38.106L1506.37 36.468C1506.87 36.084 1507.48 35.79 1508.19 35.586C1508.89 35.382 1509.64 35.28 1510.44 35.28ZM1510.13 43.488C1510.69 43.488 1511.19 43.362 1511.62 43.11C1512.07 42.846 1512.38 42.474 1512.56 41.994V40.878H1510.24C1508.94 40.878 1508.29 41.304 1508.29 42.156C1508.29 42.564 1508.46 42.888 1508.78 43.128C1509.1 43.368 1509.55 43.488 1510.13 43.488ZM1525.71 35.388V45H1523.7V42.102H1521.16L1519.2 45H1516.78L1519.05 41.796C1518.36 41.556 1517.82 41.19 1517.45 40.698C1517.09 40.194 1516.91 39.576 1516.91 38.844C1516.91 37.74 1517.3 36.888 1518.08 36.288C1518.86 35.688 1519.93 35.388 1521.3 35.388H1525.71ZM1521.37 37.278C1519.92 37.278 1519.2 37.824 1519.2 38.916C1519.2 39.996 1519.9 40.536 1521.3 40.536H1523.7V37.278H1521.37Z" fill="#A0A0A0"/>
<path d="M1633.16 126.682C1633.16 128.338 1632.59 129.646 1631.44 130.606C1630.28 131.566 1628.65 132.088 1626.52 132.172V133.504H1624.36V132.172C1622.24 132.064 1620.59 131.536 1619.43 130.588C1618.28 129.64 1617.7 128.338 1617.7 126.682C1617.7 125.026 1618.28 123.724 1619.43 122.776C1620.59 121.816 1622.24 121.282 1624.36 121.174V119.896H1626.52V121.174C1628.65 121.282 1630.28 121.816 1631.44 122.776C1632.59 123.724 1633.16 125.026 1633.16 126.682ZM1626.52 130.336C1627.96 130.228 1629.05 129.868 1629.8 129.256C1630.54 128.632 1630.91 127.768 1630.91 126.664C1630.91 125.56 1630.54 124.702 1629.78 124.09C1629.04 123.478 1627.95 123.124 1626.52 123.028V130.336ZM1619.99 126.682C1619.99 127.774 1620.36 128.626 1621.1 129.238C1621.86 129.85 1622.95 130.216 1624.36 130.336V123.028C1621.45 123.244 1619.99 124.462 1619.99 126.682ZM1640.7 123.28C1641.63 123.28 1642.47 123.484 1643.2 123.892C1643.94 124.3 1644.53 124.876 1644.95 125.62C1645.37 126.364 1645.58 127.222 1645.58 128.194C1645.58 129.166 1645.37 130.03 1644.95 130.786C1644.53 131.53 1643.94 132.106 1643.2 132.514C1642.47 132.922 1641.63 133.126 1640.7 133.126C1639.4 133.126 1638.38 132.694 1637.62 131.83V136.492H1635.37V123.388H1637.51V124.648C1637.88 124.192 1638.34 123.85 1638.88 123.622C1639.43 123.394 1640.04 123.28 1640.7 123.28ZM1640.45 131.2C1641.27 131.2 1641.95 130.924 1642.48 130.372C1643.02 129.82 1643.29 129.094 1643.29 128.194C1643.29 127.294 1643.02 126.568 1642.48 126.016C1641.95 125.464 1641.27 125.188 1640.45 125.188C1639.91 125.188 1639.42 125.314 1638.99 125.566C1638.56 125.806 1638.21 126.154 1637.96 126.61C1637.71 127.066 1637.58 127.594 1637.58 128.194C1637.58 128.794 1637.71 129.322 1637.96 129.778C1638.21 130.234 1638.56 130.588 1638.99 130.84C1639.42 131.08 1639.91 131.2 1640.45 131.2ZM1656.62 123.388L1652.12 133.774C1651.7 134.818 1651.19 135.55 1650.59 135.97C1649.99 136.402 1649.27 136.618 1648.42 136.618C1647.94 136.618 1647.46 136.54 1646.99 136.384C1646.53 136.228 1646.14 136.012 1645.84 135.736L1646.74 134.08C1646.96 134.284 1647.21 134.446 1647.5 134.566C1647.8 134.686 1648.1 134.746 1648.4 134.746C1648.79 134.746 1649.12 134.644 1649.37 134.44C1649.63 134.236 1649.87 133.894 1650.09 133.414L1650.25 133.036L1646.06 123.388H1648.4L1651.42 130.498L1654.46 123.388H1656.62ZM1658.19 123.388H1660.44V127.294H1665.28V123.388H1667.53V133H1665.28V129.202H1660.44V133H1658.19V123.388ZM1676.16 127.996C1676.76 128.164 1677.22 128.44 1677.55 128.824C1677.88 129.196 1678.05 129.646 1678.05 130.174C1678.05 130.762 1677.85 131.284 1677.46 131.74C1677.06 132.184 1676.52 132.532 1675.82 132.784C1675.12 133.036 1674.33 133.162 1673.44 133.162C1672.7 133.162 1671.97 133.078 1671.27 132.91C1670.56 132.73 1669.92 132.478 1669.34 132.154L1669.99 130.48C1670.46 130.744 1670.98 130.948 1671.57 131.092C1672.16 131.236 1672.75 131.308 1673.34 131.308C1674.09 131.308 1674.68 131.194 1675.1 130.966C1675.53 130.726 1675.75 130.402 1675.75 129.994C1675.75 129.622 1675.58 129.334 1675.24 129.13C1674.92 128.926 1674.46 128.824 1673.86 128.824H1671.99V127.312H1673.68C1674.24 127.312 1674.68 127.216 1674.99 127.024C1675.32 126.832 1675.48 126.562 1675.48 126.214C1675.48 125.866 1675.29 125.59 1674.9 125.386C1674.52 125.182 1673.99 125.08 1673.32 125.08C1672.36 125.08 1671.34 125.314 1670.28 125.782L1669.7 124.126C1670.96 123.538 1672.23 123.244 1673.52 123.244C1674.33 123.244 1675.06 123.358 1675.71 123.586C1676.36 123.802 1676.86 124.114 1677.22 124.522C1677.6 124.918 1677.78 125.374 1677.78 125.89C1677.78 126.358 1677.64 126.778 1677.35 127.15C1677.06 127.51 1676.67 127.792 1676.16 127.996ZM1689.39 128.248C1689.39 128.404 1689.38 128.626 1689.35 128.914H1681.81C1681.94 129.622 1682.28 130.186 1682.84 130.606C1683.4 131.014 1684.1 131.218 1684.92 131.218C1685.98 131.218 1686.85 130.87 1687.53 130.174L1688.74 131.56C1688.31 132.076 1687.76 132.466 1687.1 132.73C1686.44 132.994 1685.7 133.126 1684.87 133.126C1683.81 133.126 1682.88 132.916 1682.08 132.496C1681.28 132.076 1680.65 131.494 1680.21 130.75C1679.78 129.994 1679.56 129.142 1679.56 128.194C1679.56 127.258 1679.77 126.418 1680.19 125.674C1680.62 124.918 1681.22 124.33 1681.97 123.91C1682.73 123.49 1683.58 123.28 1684.53 123.28C1685.46 123.28 1686.3 123.49 1687.03 123.91C1687.77 124.318 1688.35 124.9 1688.76 125.656C1689.18 126.4 1689.39 127.264 1689.39 128.248ZM1684.53 125.08C1683.81 125.08 1683.2 125.296 1682.69 125.728C1682.2 126.148 1681.9 126.712 1681.79 127.42H1687.25C1687.15 126.724 1686.86 126.16 1686.36 125.728C1685.87 125.296 1685.26 125.08 1684.53 125.08ZM1691.85 123.388H1694.1V127.294H1698.94V123.388H1701.19V133H1698.94V129.202H1694.1V133H1691.85V123.388ZM1708.58 133.126C1707.58 133.126 1706.69 132.916 1705.9 132.496C1705.11 132.076 1704.49 131.494 1704.04 130.75C1703.6 129.994 1703.38 129.142 1703.38 128.194C1703.38 127.246 1703.6 126.4 1704.04 125.656C1704.49 124.912 1705.1 124.33 1705.88 123.91C1706.67 123.49 1707.57 123.28 1708.58 123.28C1709.53 123.28 1710.36 123.472 1711.06 123.856C1711.78 124.24 1712.32 124.792 1712.68 125.512L1710.96 126.52C1710.68 126.076 1710.33 125.746 1709.91 125.53C1709.5 125.302 1709.05 125.188 1708.56 125.188C1707.72 125.188 1707.03 125.464 1706.47 126.016C1705.92 126.556 1705.65 127.282 1705.65 128.194C1705.65 129.106 1705.92 129.838 1706.46 130.39C1707.01 130.93 1707.71 131.2 1708.56 131.2C1709.05 131.2 1709.5 131.092 1709.91 130.876C1710.33 130.648 1710.68 130.312 1710.96 129.868L1712.68 130.876C1712.31 131.596 1711.77 132.154 1711.05 132.55C1710.34 132.934 1709.52 133.126 1708.58 133.126ZM1718.66 129.148H1716.91V133H1714.66V123.388H1716.91V127.276H1718.71L1721.56 123.388H1723.97L1720.48 128.014L1724.2 133H1721.56L1718.66 129.148ZM1729.2 123.28C1730.61 123.28 1731.69 123.622 1732.44 124.306C1733.19 124.978 1733.57 125.998 1733.57 127.366V133H1731.45V131.83C1731.17 132.25 1730.78 132.574 1730.26 132.802C1729.76 133.018 1729.14 133.126 1728.42 133.126C1727.7 133.126 1727.07 133.006 1726.53 132.766C1725.99 132.514 1725.57 132.172 1725.27 131.74C1724.99 131.296 1724.84 130.798 1724.84 130.246C1724.84 129.382 1725.16 128.692 1725.8 128.176C1726.44 127.648 1727.46 127.384 1728.84 127.384H1731.32V127.24C1731.32 126.568 1731.12 126.052 1730.71 125.692C1730.31 125.332 1729.72 125.152 1728.93 125.152C1728.39 125.152 1727.85 125.236 1727.33 125.404C1726.81 125.572 1726.37 125.806 1726.01 126.106L1725.13 124.468C1725.63 124.084 1726.24 123.79 1726.95 123.586C1727.66 123.382 1728.41 123.28 1729.2 123.28ZM1728.89 131.488C1729.46 131.488 1729.95 131.362 1730.39 131.11C1730.83 130.846 1731.14 130.474 1731.32 129.994V128.878H1729C1727.7 128.878 1727.06 129.304 1727.06 130.156C1727.06 130.564 1727.22 130.888 1727.54 131.128C1727.87 131.368 1728.32 131.488 1728.89 131.488ZM1744.47 123.388V133H1742.46V130.102H1739.92L1737.96 133H1735.55L1737.81 129.796C1737.12 129.556 1736.58 129.19 1736.21 128.698C1735.85 128.194 1735.67 127.576 1735.67 126.844C1735.67 125.74 1736.06 124.888 1736.84 124.288C1737.62 123.688 1738.7 123.388 1740.06 123.388H1744.47ZM1740.14 125.278C1738.68 125.278 1737.96 125.824 1737.96 126.916C1737.96 127.996 1738.66 128.536 1740.06 128.536H1742.46V125.278H1740.14Z" fill="#A0A0A0"/>
<path d="M1455.74 122.2V132H1453.95V123.74H1450.09L1450 126.19C1449.96 127.562 1449.85 128.677 1449.67 129.536C1449.49 130.385 1449.21 131.034 1448.81 131.482C1448.42 131.921 1447.88 132.14 1447.19 132.14C1446.95 132.14 1446.62 132.093 1446.2 132L1446.32 130.418C1446.44 130.455 1446.58 130.474 1446.74 130.474C1447.31 130.474 1447.71 130.138 1447.95 129.466C1448.19 128.785 1448.34 127.716 1448.39 126.26L1448.53 122.2H1455.74ZM1465.36 124.524L1461.86 132.602C1461.53 133.414 1461.14 133.983 1460.67 134.31C1460.2 134.646 1459.64 134.814 1458.98 134.814C1458.6 134.814 1458.23 134.753 1457.87 134.632C1457.51 134.511 1457.21 134.343 1456.97 134.128L1457.67 132.84C1457.84 132.999 1458.04 133.125 1458.26 133.218C1458.5 133.311 1458.73 133.358 1458.96 133.358C1459.27 133.358 1459.52 133.279 1459.72 133.12C1459.92 132.961 1460.11 132.695 1460.28 132.322L1460.4 132.028L1457.14 124.524H1458.96L1461.31 130.054L1463.68 124.524H1465.36ZM1473.25 129.004H1471.99V132H1470.25V129.004H1468.99L1467.17 132H1465.1L1467.55 128.136L1465.28 124.524H1467.15L1468.97 127.548H1470.25V124.524H1471.99V127.548H1473.26L1475.1 124.524H1476.96L1474.69 128.136L1477.16 132H1475.07L1473.25 129.004ZM1478.46 124.524H1480.21V127.562H1483.97V124.524H1485.72V132H1483.97V129.046H1480.21V132H1478.46V124.524ZM1488.07 124.524H1489.82V129.452L1493.95 124.524H1495.54V132H1493.79V127.072L1489.68 132H1488.07V124.524ZM1501.01 129.004H1499.65V132H1497.9V124.524H1499.65V127.548H1501.05L1503.26 124.524H1505.14L1502.42 128.122L1505.32 132H1503.26L1501.01 129.004ZM1506.55 124.524H1508.3V129.452L1512.43 124.524H1514.03V132H1512.28V127.072L1508.16 132H1506.55V124.524Z" fill="#A0A0A0"/>
<path d="M1221.06 126.448C1221.87 126.664 1222.48 127.036 1222.9 127.564C1223.32 128.08 1223.53 128.728 1223.53 129.508C1223.53 130.612 1223.12 131.47 1222.3 132.082C1221.49 132.694 1220.31 133 1218.76 133H1212.78V120.4H1218.42C1219.83 120.4 1220.94 120.682 1221.73 121.246C1222.52 121.81 1222.92 122.608 1222.92 123.64C1222.92 124.3 1222.75 124.87 1222.43 125.35C1222.12 125.83 1221.66 126.196 1221.06 126.448ZM1215.09 125.782H1218.22C1218.97 125.782 1219.55 125.632 1219.95 125.332C1220.34 125.032 1220.54 124.588 1220.54 124C1220.54 123.412 1220.34 122.968 1219.95 122.668C1219.55 122.356 1218.97 122.2 1218.22 122.2H1215.09V125.782ZM1218.69 131.2C1220.34 131.2 1221.17 130.576 1221.17 129.328C1221.17 128.104 1220.34 127.492 1218.69 127.492H1215.09V131.2H1218.69ZM1230.23 133.126C1229.25 133.126 1228.38 132.916 1227.6 132.496C1226.82 132.076 1226.21 131.494 1225.76 130.75C1225.33 129.994 1225.11 129.142 1225.11 128.194C1225.11 127.246 1225.33 126.4 1225.76 125.656C1226.21 124.912 1226.82 124.33 1227.6 123.91C1228.38 123.49 1229.25 123.28 1230.23 123.28C1231.21 123.28 1232.09 123.49 1232.87 123.91C1233.65 124.33 1234.26 124.912 1234.69 125.656C1235.13 126.4 1235.36 127.246 1235.36 128.194C1235.36 129.142 1235.13 129.994 1234.69 130.75C1234.26 131.494 1233.65 132.076 1232.87 132.496C1232.09 132.916 1231.21 133.126 1230.23 133.126ZM1230.23 131.2C1231.05 131.2 1231.74 130.924 1232.28 130.372C1232.82 129.82 1233.09 129.094 1233.09 128.194C1233.09 127.294 1232.82 126.568 1232.28 126.016C1231.74 125.464 1231.05 125.188 1230.23 125.188C1229.4 125.188 1228.71 125.464 1228.17 126.016C1227.65 126.568 1227.38 127.294 1227.38 128.194C1227.38 129.094 1227.65 129.82 1228.17 130.372C1228.71 130.924 1229.4 131.2 1230.23 131.2ZM1242.91 123.28C1243.84 123.28 1244.68 123.484 1245.41 123.892C1246.15 124.3 1246.73 124.876 1247.15 125.62C1247.57 126.364 1247.78 127.222 1247.78 128.194C1247.78 129.166 1247.57 130.03 1247.15 130.786C1246.73 131.53 1246.15 132.106 1245.41 132.514C1244.68 132.922 1243.84 133.126 1242.91 133.126C1241.61 133.126 1240.58 132.694 1239.83 131.83V136.492H1237.58V123.388H1239.72V124.648C1240.09 124.192 1240.55 123.85 1241.09 123.622C1241.64 123.394 1242.25 123.28 1242.91 123.28ZM1242.65 131.2C1243.48 131.2 1244.16 130.924 1244.69 130.372C1245.23 129.82 1245.5 129.094 1245.5 128.194C1245.5 127.294 1245.23 126.568 1244.69 126.016C1244.16 125.464 1243.48 125.188 1242.65 125.188C1242.11 125.188 1241.63 125.314 1241.2 125.566C1240.76 125.806 1240.42 126.154 1240.17 126.61C1239.92 127.066 1239.79 127.594 1239.79 128.194C1239.79 128.794 1239.92 129.322 1240.17 129.778C1240.42 130.234 1240.76 130.588 1241.2 130.84C1241.63 131.08 1242.11 131.2 1242.65 131.2ZM1254.31 133.126C1253.34 133.126 1252.46 132.916 1251.68 132.496C1250.9 132.076 1250.29 131.494 1249.84 130.75C1249.41 129.994 1249.2 129.142 1249.2 128.194C1249.2 127.246 1249.41 126.4 1249.84 125.656C1250.29 124.912 1250.9 124.33 1251.68 123.91C1252.46 123.49 1253.34 123.28 1254.31 123.28C1255.29 123.28 1256.17 123.49 1256.95 123.91C1257.73 124.33 1258.34 124.912 1258.77 125.656C1259.22 126.4 1259.44 127.246 1259.44 128.194C1259.44 129.142 1259.22 129.994 1258.77 130.75C1258.34 131.494 1257.73 132.076 1256.95 132.496C1256.17 132.916 1255.29 133.126 1254.31 133.126ZM1254.31 131.2C1255.14 131.2 1255.82 130.924 1256.36 130.372C1256.9 129.82 1257.17 129.094 1257.17 128.194C1257.17 127.294 1256.9 126.568 1256.36 126.016C1255.82 125.464 1255.14 125.188 1254.31 125.188C1253.48 125.188 1252.8 125.464 1252.26 126.016C1251.73 126.568 1251.46 127.294 1251.46 128.194C1251.46 129.094 1251.73 129.82 1252.26 130.372C1252.8 130.924 1253.48 131.2 1254.31 131.2ZM1266.86 123.856C1267.77 123.856 1268.58 124.054 1269.27 124.45C1269.97 124.834 1270.51 125.374 1270.89 126.07C1271.29 126.766 1271.49 127.564 1271.49 128.464C1271.49 129.388 1271.27 130.21 1270.84 130.93C1270.41 131.638 1269.8 132.19 1269.02 132.586C1268.24 132.982 1267.35 133.18 1266.36 133.18C1264.69 133.18 1263.4 132.628 1262.49 131.524C1261.58 130.42 1261.12 128.83 1261.12 126.754C1261.12 124.822 1261.53 123.292 1262.36 122.164C1263.19 121.036 1264.46 120.292 1266.16 119.932L1270.62 118.978L1270.95 120.994L1266.9 121.822C1265.73 122.062 1264.86 122.47 1264.29 123.046C1263.71 123.622 1263.38 124.432 1263.28 125.476C1263.71 124.96 1264.23 124.564 1264.85 124.288C1265.46 124 1266.13 123.856 1266.86 123.856ZM1266.41 131.362C1267.24 131.362 1267.91 131.098 1268.41 130.57C1268.93 130.03 1269.18 129.346 1269.18 128.518C1269.18 127.69 1268.93 127.024 1268.41 126.52C1267.91 126.016 1267.24 125.764 1266.41 125.764C1265.57 125.764 1264.89 126.016 1264.38 126.52C1263.86 127.024 1263.6 127.69 1263.6 128.518C1263.6 129.358 1263.86 130.042 1264.38 130.57C1264.91 131.098 1265.58 131.362 1266.41 131.362ZM1278.49 126.556C1279.71 126.556 1280.65 126.832 1281.3 127.384C1281.96 127.936 1282.29 128.716 1282.29 129.724C1282.29 130.78 1281.93 131.596 1281.21 132.172C1280.49 132.748 1279.47 133.03 1278.17 133.018L1273.67 133V123.388H1275.92V126.538L1278.49 126.556ZM1277.97 131.362C1278.63 131.374 1279.13 131.236 1279.48 130.948C1279.83 130.66 1280 130.24 1280 129.688C1280 129.148 1279.83 128.752 1279.5 128.5C1279.16 128.248 1278.65 128.116 1277.97 128.104L1275.92 128.086V131.344L1277.97 131.362ZM1293.27 128.248C1293.27 128.404 1293.25 128.626 1293.23 128.914H1285.69C1285.82 129.622 1286.16 130.186 1286.71 130.606C1287.28 131.014 1287.97 131.218 1288.8 131.218C1289.86 131.218 1290.73 130.87 1291.41 130.174L1292.62 131.56C1292.19 132.076 1291.64 132.466 1290.98 132.73C1290.32 132.994 1289.58 133.126 1288.75 133.126C1287.69 133.126 1286.76 132.916 1285.96 132.496C1285.15 132.076 1284.53 131.494 1284.09 130.75C1283.65 129.994 1283.44 129.142 1283.44 128.194C1283.44 127.258 1283.65 126.418 1284.07 125.674C1284.5 124.918 1285.09 124.33 1285.85 123.91C1286.61 123.49 1287.46 123.28 1288.41 123.28C1289.34 123.28 1290.18 123.49 1290.91 123.91C1291.65 124.318 1292.23 124.9 1292.64 125.656C1293.06 126.4 1293.27 127.264 1293.27 128.248ZM1288.41 125.08C1287.69 125.08 1287.07 125.296 1286.57 125.728C1286.08 126.148 1285.78 126.712 1285.67 127.42H1291.12C1291.03 126.724 1290.73 126.16 1290.24 125.728C1289.75 125.296 1289.14 125.08 1288.41 125.08ZM1286.61 121.876C1286.29 121.876 1286.04 121.774 1285.83 121.57C1285.63 121.366 1285.53 121.108 1285.53 120.796C1285.53 120.472 1285.63 120.208 1285.83 120.004C1286.04 119.8 1286.29 119.698 1286.61 119.698C1286.92 119.698 1287.18 119.8 1287.38 120.004C1287.58 120.208 1287.69 120.472 1287.69 120.796C1287.69 121.108 1287.58 121.366 1287.38 121.57C1287.18 121.774 1286.92 121.876 1286.61 121.876ZM1290.1 121.876C1289.79 121.876 1289.53 121.774 1289.32 121.57C1289.12 121.366 1289.02 121.108 1289.02 120.796C1289.02 120.472 1289.12 120.208 1289.32 120.004C1289.53 119.8 1289.79 119.698 1290.1 119.698C1290.41 119.698 1290.67 119.8 1290.87 120.004C1291.08 120.208 1291.18 120.472 1291.18 120.796C1291.18 121.108 1291.08 121.366 1290.87 121.57C1290.67 121.774 1290.41 121.876 1290.1 121.876ZM1302.69 127.996C1303.88 128.356 1304.47 129.124 1304.47 130.3C1304.47 131.164 1304.15 131.83 1303.5 132.298C1302.85 132.766 1301.89 133 1300.62 133H1295.73V123.388H1300.42C1301.6 123.388 1302.52 123.604 1303.18 124.036C1303.84 124.468 1304.17 125.08 1304.17 125.872C1304.17 126.364 1304.04 126.79 1303.77 127.15C1303.52 127.51 1303.16 127.792 1302.69 127.996ZM1297.87 127.402H1300.23C1301.39 127.402 1301.97 127 1301.97 126.196C1301.97 125.416 1301.39 125.026 1300.23 125.026H1297.87V127.402ZM1300.44 131.362C1301.68 131.362 1302.3 130.96 1302.3 130.156C1302.3 129.736 1302.15 129.424 1301.86 129.22C1301.58 129.004 1301.13 128.896 1300.51 128.896H1297.87V131.362H1300.44ZM1311.55 126.556C1312.78 126.556 1313.71 126.832 1314.36 127.384C1315.01 127.936 1315.33 128.716 1315.33 129.724C1315.33 130.78 1314.97 131.596 1314.25 132.172C1313.54 132.748 1312.54 133.03 1311.23 133.018L1306.87 133V123.388H1309.12V126.538L1311.55 126.556ZM1316.57 123.388H1318.82V133H1316.57V123.388ZM1311.03 131.362C1311.69 131.374 1312.19 131.236 1312.54 130.948C1312.89 130.66 1313.06 130.24 1313.06 129.688C1313.06 129.148 1312.9 128.752 1312.56 128.5C1312.22 128.248 1311.71 128.116 1311.03 128.104L1309.12 128.086V131.344L1311.03 131.362ZM1334.2 125.296H1329.07V133H1326.82V123.388H1334.2V125.296ZM1339.7 133.126C1338.73 133.126 1337.85 132.916 1337.07 132.496C1336.29 132.076 1335.68 131.494 1335.24 130.75C1334.81 129.994 1334.59 129.142 1334.59 128.194C1334.59 127.246 1334.81 126.4 1335.24 125.656C1335.68 124.912 1336.29 124.33 1337.07 123.91C1337.85 123.49 1338.73 123.28 1339.7 123.28C1340.69 123.28 1341.57 123.49 1342.35 123.91C1343.13 124.33 1343.73 124.912 1344.17 125.656C1344.61 126.4 1344.83 127.246 1344.83 128.194C1344.83 129.142 1344.61 129.994 1344.17 130.75C1343.73 131.494 1343.13 132.076 1342.35 132.496C1341.57 132.916 1340.69 133.126 1339.7 133.126ZM1339.7 131.2C1340.53 131.2 1341.21 130.924 1341.75 130.372C1342.29 129.82 1342.56 129.094 1342.56 128.194C1342.56 127.294 1342.29 126.568 1341.75 126.016C1341.21 125.464 1340.53 125.188 1339.7 125.188C1338.87 125.188 1338.19 125.464 1337.65 126.016C1337.12 126.568 1336.86 127.294 1336.86 128.194C1336.86 129.094 1337.12 129.82 1337.65 130.372C1338.19 130.924 1338.87 131.2 1339.7 131.2ZM1352.38 123.28C1353.32 123.28 1354.15 123.484 1354.88 123.892C1355.63 124.3 1356.21 124.876 1356.63 125.62C1357.05 126.364 1357.26 127.222 1357.26 128.194C1357.26 129.166 1357.05 130.03 1356.63 130.786C1356.21 131.53 1355.63 132.106 1354.88 132.514C1354.15 132.922 1353.32 133.126 1352.38 133.126C1351.09 133.126 1350.06 132.694 1349.3 131.83V136.492H1347.05V123.388H1349.2V124.648C1349.57 124.192 1350.02 123.85 1350.56 123.622C1351.12 123.394 1351.72 123.28 1352.38 123.28ZM1352.13 131.2C1352.96 131.2 1353.64 130.924 1354.16 130.372C1354.7 129.82 1354.97 129.094 1354.97 128.194C1354.97 127.294 1354.7 126.568 1354.16 126.016C1353.64 125.464 1352.96 125.188 1352.13 125.188C1351.59 125.188 1351.1 125.314 1350.67 125.566C1350.24 125.806 1349.9 126.154 1349.65 126.61C1349.39 127.066 1349.27 127.594 1349.27 128.194C1349.27 128.794 1349.39 129.322 1349.65 129.778C1349.9 130.234 1350.24 130.588 1350.67 130.84C1351.1 131.08 1351.59 131.2 1352.13 131.2ZM1364.18 126.556C1365.4 126.556 1366.34 126.832 1366.99 127.384C1367.64 127.936 1367.96 128.716 1367.96 129.724C1367.96 130.78 1367.6 131.596 1366.88 132.172C1366.17 132.748 1365.16 133.03 1363.86 133.018L1359.5 133V123.388H1361.75V126.538L1364.18 126.556ZM1369.2 123.388H1371.45V133H1369.2V123.388ZM1363.66 131.362C1364.32 131.374 1364.82 131.236 1365.17 130.948C1365.52 130.66 1365.69 130.24 1365.69 129.688C1365.69 129.148 1365.52 128.752 1365.19 128.5C1364.85 128.248 1364.34 128.116 1363.66 128.104L1361.75 128.086V131.344L1363.66 131.362Z" fill="#A0A0A0"/>
<path d="M2029.41 127.69H2027.07V133H2024.76V120.4H2027.07V125.674H2029.48L2033.1 120.4H2035.58L2031.28 126.502L2035.74 133H2033.1L2029.41 127.69ZM2042.65 123.28C2043.59 123.28 2044.42 123.484 2045.16 123.892C2045.9 124.3 2046.48 124.876 2046.9 125.62C2047.32 126.364 2047.53 127.222 2047.53 128.194C2047.53 129.166 2047.32 130.03 2046.9 130.786C2046.48 131.53 2045.9 132.106 2045.16 132.514C2044.42 132.922 2043.59 133.126 2042.65 133.126C2041.36 133.126 2040.33 132.694 2039.58 131.83V136.492H2037.33V123.388H2039.47V124.648C2039.84 124.192 2040.3 123.85 2040.84 123.622C2041.39 123.394 2041.99 123.28 2042.65 123.28ZM2042.4 131.2C2043.23 131.2 2043.91 130.924 2044.44 130.372C2044.98 129.82 2045.25 129.094 2045.25 128.194C2045.25 127.294 2044.98 126.568 2044.44 126.016C2043.91 125.464 2043.23 125.188 2042.4 125.188C2041.86 125.188 2041.38 125.314 2040.94 125.566C2040.51 125.806 2040.17 126.154 2039.92 126.61C2039.67 127.066 2039.54 127.594 2039.54 128.194C2039.54 128.794 2039.67 129.322 2039.92 129.778C2040.17 130.234 2040.51 130.588 2040.94 130.84C2041.38 131.08 2041.86 131.2 2042.4 131.2ZM2054.06 133.126C2053.08 133.126 2052.21 132.916 2051.43 132.496C2050.65 132.076 2050.04 131.494 2049.59 130.75C2049.16 129.994 2048.94 129.142 2048.94 128.194C2048.94 127.246 2049.16 126.4 2049.59 125.656C2050.04 124.912 2050.65 124.33 2051.43 123.91C2052.21 123.49 2053.08 123.28 2054.06 123.28C2055.04 123.28 2055.92 123.49 2056.7 123.91C2057.48 124.33 2058.09 124.912 2058.52 125.656C2058.96 126.4 2059.19 127.246 2059.19 128.194C2059.19 129.142 2058.96 129.994 2058.52 130.75C2058.09 131.494 2057.48 132.076 2056.7 132.496C2055.92 132.916 2055.04 133.126 2054.06 133.126ZM2054.06 131.2C2054.88 131.2 2055.57 130.924 2056.11 130.372C2056.65 129.82 2056.92 129.094 2056.92 128.194C2056.92 127.294 2056.65 126.568 2056.11 126.016C2055.57 125.464 2054.88 125.188 2054.06 125.188C2053.23 125.188 2052.54 125.464 2052 126.016C2051.48 126.568 2051.21 127.294 2051.21 128.194C2051.21 129.094 2051.48 129.82 2052 130.372C2052.54 130.924 2053.23 131.2 2054.06 131.2ZM2070.62 123.388V133H2068.39V125.296H2063.66V133H2061.41V123.388H2070.62ZM2077.94 133.126C2076.97 133.126 2076.1 132.916 2075.32 132.496C2074.54 132.076 2073.92 131.494 2073.48 130.75C2073.05 129.994 2072.83 129.142 2072.83 128.194C2072.83 127.246 2073.05 126.4 2073.48 125.656C2073.92 124.912 2074.54 124.33 2075.32 123.91C2076.1 123.49 2076.97 123.28 2077.94 123.28C2078.93 123.28 2079.81 123.49 2080.59 123.91C2081.37 124.33 2081.98 124.912 2082.41 125.656C2082.85 126.4 2083.07 127.246 2083.07 128.194C2083.07 129.142 2082.85 129.994 2082.41 130.75C2081.98 131.494 2081.37 132.076 2080.59 132.496C2079.81 132.916 2078.93 133.126 2077.94 133.126ZM2077.94 131.2C2078.77 131.2 2079.46 130.924 2080 130.372C2080.54 129.82 2080.81 129.094 2080.81 128.194C2080.81 127.294 2080.54 126.568 2080 126.016C2079.46 125.464 2078.77 125.188 2077.94 125.188C2077.12 125.188 2076.43 125.464 2075.89 126.016C2075.36 126.568 2075.1 127.294 2075.1 128.194C2075.1 129.094 2075.36 129.82 2075.89 130.372C2076.43 130.924 2077.12 131.2 2077.94 131.2ZM2092.56 125.296H2089.19V133H2086.94V125.296H2083.56V123.388H2092.56V125.296ZM2098.19 129.148H2096.44V133H2094.19V123.388H2096.44V127.276H2098.24L2101.09 123.388H2103.5L2100.01 128.014L2103.73 133H2101.09L2098.19 129.148ZM2105.32 123.388H2107.57V129.724L2112.88 123.388H2114.93V133H2112.68V126.664L2107.39 133H2105.32V123.388ZM2117.96 123.388H2120.21V127.294H2125.05V123.388H2127.3V133H2125.05V129.202H2120.21V133H2117.96V123.388ZM2134.69 133.126C2133.69 133.126 2132.8 132.916 2132.01 132.496C2131.21 132.076 2130.6 131.494 2130.15 130.75C2129.71 129.994 2129.49 129.142 2129.49 128.194C2129.49 127.246 2129.71 126.4 2130.15 125.656C2130.6 124.912 2131.21 124.33 2131.99 123.91C2132.78 123.49 2133.68 123.28 2134.69 123.28C2135.64 123.28 2136.46 123.472 2137.17 123.856C2137.89 124.24 2138.43 124.792 2138.79 125.512L2137.06 126.52C2136.79 126.076 2136.44 125.746 2136.02 125.53C2135.61 125.302 2135.16 125.188 2134.67 125.188C2133.83 125.188 2133.13 125.464 2132.58 126.016C2132.03 126.556 2131.75 127.282 2131.75 128.194C2131.75 129.106 2132.02 129.838 2132.56 130.39C2133.12 130.93 2133.82 131.2 2134.67 131.2C2135.16 131.2 2135.61 131.092 2136.02 130.876C2136.44 130.648 2136.79 130.312 2137.06 129.868L2138.79 130.876C2138.42 131.596 2137.87 132.154 2137.15 132.55C2136.45 132.934 2135.62 133.126 2134.69 133.126ZM2144.77 129.148H2143.02V133H2140.77V123.388H2143.02V127.276H2144.82L2147.67 123.388H2150.08L2146.59 128.014L2150.31 133H2147.67L2144.77 129.148ZM2155.31 123.28C2156.72 123.28 2157.8 123.622 2158.55 124.306C2159.3 124.978 2159.68 125.998 2159.68 127.366V133H2157.56V131.83C2157.28 132.25 2156.88 132.574 2156.37 132.802C2155.86 133.018 2155.25 133.126 2154.53 133.126C2153.81 133.126 2153.18 133.006 2152.64 132.766C2152.1 132.514 2151.68 132.172 2151.38 131.74C2151.09 131.296 2150.95 130.798 2150.95 130.246C2150.95 129.382 2151.27 128.692 2151.9 128.176C2152.55 127.648 2153.57 127.384 2154.95 127.384H2157.43V127.24C2157.43 126.568 2157.23 126.052 2156.82 125.692C2156.42 125.332 2155.83 125.152 2155.04 125.152C2154.5 125.152 2153.96 125.236 2153.43 125.404C2152.92 125.572 2152.48 125.806 2152.12 126.106L2151.24 124.468C2151.74 124.084 2152.35 123.79 2153.06 123.586C2153.76 123.382 2154.51 123.28 2155.31 123.28ZM2155 131.488C2155.56 131.488 2156.06 131.362 2156.49 131.11C2156.94 130.846 2157.25 130.474 2157.43 129.994V128.878H2155.11C2153.81 128.878 2153.16 129.304 2153.16 130.156C2153.16 130.564 2153.33 130.888 2153.65 131.128C2153.97 131.368 2154.42 131.488 2155 131.488ZM2170.58 123.388V133H2168.57V130.102H2166.03L2164.07 133H2161.66L2163.92 129.796C2163.23 129.556 2162.69 129.19 2162.32 128.698C2161.96 128.194 2161.78 127.576 2161.78 126.844C2161.78 125.74 2162.17 124.888 2162.95 124.288C2163.73 123.688 2164.81 123.388 2166.17 123.388H2170.58ZM2166.25 125.278C2164.79 125.278 2164.07 125.824 2164.07 126.916C2164.07 127.996 2164.77 128.536 2166.17 128.536H2168.57V125.278H2166.25Z" fill="#A0A0A0"/>
<path d="M435.908 122.38H431.732V133H429.41V122.38H425.252V120.4H435.908V122.38ZM442.774 123.28C443.71 123.28 444.544 123.484 445.276 123.892C446.02 124.3 446.602 124.876 447.022 125.62C447.442 126.364 447.652 127.222 447.652 128.194C447.652 129.166 447.442 130.03 447.022 130.786C446.602 131.53 446.02 132.106 445.276 132.514C444.544 132.922 443.71 133.126 442.774 133.126C441.478 133.126 440.452 132.694 439.696 131.83V136.492H437.446V123.388H439.588V124.648C439.96 124.192 440.416 123.85 440.956 123.622C441.508 123.394 442.114 123.28 442.774 123.28ZM442.522 131.2C443.35 131.2 444.028 130.924 444.556 130.372C445.096 129.82 445.366 129.094 445.366 128.194C445.366 127.294 445.096 126.568 444.556 126.016C444.028 125.464 443.35 125.188 442.522 125.188C441.982 125.188 441.496 125.314 441.064 125.566C440.632 125.806 440.29 126.154 440.038 126.61C439.786 127.066 439.66 127.594 439.66 128.194C439.66 128.794 439.786 129.322 440.038 129.778C440.29 130.234 440.632 130.588 441.064 130.84C441.496 131.08 441.982 131.2 442.522 131.2ZM454.175 133.126C453.203 133.126 452.327 132.916 451.547 132.496C450.767 132.076 450.155 131.494 449.711 130.75C449.279 129.994 449.063 129.142 449.063 128.194C449.063 127.246 449.279 126.4 449.711 125.656C450.155 124.912 450.767 124.33 451.547 123.91C452.327 123.49 453.203 123.28 454.175 123.28C455.159 123.28 456.041 123.49 456.821 123.91C457.601 124.33 458.207 124.912 458.639 125.656C459.083 126.4 459.305 127.246 459.305 128.194C459.305 129.142 459.083 129.994 458.639 130.75C458.207 131.494 457.601 132.076 456.821 132.496C456.041 132.916 455.159 133.126 454.175 133.126ZM454.175 131.2C455.003 131.2 455.687 130.924 456.227 130.372C456.767 129.82 457.037 129.094 457.037 128.194C457.037 127.294 456.767 126.568 456.227 126.016C455.687 125.464 455.003 125.188 454.175 125.188C453.347 125.188 452.663 125.464 452.123 126.016C451.595 126.568 451.331 127.294 451.331 128.194C451.331 129.094 451.595 129.82 452.123 130.372C452.663 130.924 453.347 131.2 454.175 131.2ZM470.744 123.388V133H468.512V125.296H463.778V133H461.528V123.388H470.744ZM477.362 123.28C478.778 123.28 479.858 123.622 480.602 124.306C481.358 124.978 481.736 125.998 481.736 127.366V133H479.612V131.83C479.336 132.25 478.94 132.574 478.424 132.802C477.92 133.018 477.308 133.126 476.588 133.126C475.868 133.126 475.238 133.006 474.698 132.766C474.158 132.514 473.738 132.172 473.438 131.74C473.15 131.296 473.006 130.798 473.006 130.246C473.006 129.382 473.324 128.692 473.96 128.176C474.608 127.648 475.622 127.384 477.002 127.384H479.486V127.24C479.486 126.568 479.282 126.052 478.874 125.692C478.478 125.332 477.884 125.152 477.092 125.152C476.552 125.152 476.018 125.236 475.49 125.404C474.974 125.572 474.536 125.806 474.176 126.106L473.294 124.468C473.798 124.084 474.404 123.79 475.112 123.586C475.82 123.382 476.57 123.28 477.362 123.28ZM477.056 131.488C477.62 131.488 478.118 131.362 478.55 131.11C478.994 130.846 479.306 130.474 479.486 129.994V128.878H477.164C475.868 128.878 475.22 129.304 475.22 130.156C475.22 130.564 475.382 130.888 475.706 131.128C476.03 131.368 476.48 131.488 477.056 131.488ZM489.848 123.28C490.784 123.28 491.618 123.484 492.35 123.892C493.094 124.3 493.676 124.876 494.096 125.62C494.516 126.364 494.726 127.222 494.726 128.194C494.726 129.166 494.516 130.03 494.096 130.786C493.676 131.53 493.094 132.106 492.35 132.514C491.618 132.922 490.784 133.126 489.848 133.126C488.552 133.126 487.526 132.694 486.77 131.83V136.492H484.52V123.388H486.662V124.648C487.034 124.192 487.49 123.85 488.03 123.622C488.582 123.394 489.188 123.28 489.848 123.28ZM489.596 131.2C490.424 131.2 491.102 130.924 491.63 130.372C492.17 129.82 492.44 129.094 492.44 128.194C492.44 127.294 492.17 126.568 491.63 126.016C491.102 125.464 490.424 125.188 489.596 125.188C489.056 125.188 488.57 125.314 488.138 125.566C487.706 125.806 487.364 126.154 487.112 126.61C486.86 127.066 486.734 127.594 486.734 128.194C486.734 128.794 486.86 129.322 487.112 129.778C487.364 130.234 487.706 130.588 488.138 130.84C488.57 131.08 489.056 131.2 489.596 131.2ZM505.965 128.248C505.965 128.404 505.953 128.626 505.929 128.914H498.387C498.519 129.622 498.861 130.186 499.413 130.606C499.977 131.014 500.673 131.218 501.501 131.218C502.557 131.218 503.427 130.87 504.111 130.174L505.317 131.56C504.885 132.076 504.339 132.466 503.679 132.73C503.019 132.994 502.275 133.126 501.447 133.126C500.391 133.126 499.461 132.916 498.657 132.496C497.853 132.076 497.229 131.494 496.785 130.75C496.353 129.994 496.137 129.142 496.137 128.194C496.137 127.258 496.347 126.418 496.767 125.674C497.199 124.918 497.793 124.33 498.549 123.91C499.305 123.49 500.157 123.28 501.105 123.28C502.041 123.28 502.875 123.49 503.607 123.91C504.351 124.318 504.927 124.9 505.335 125.656C505.755 126.4 505.965 127.264 505.965 128.248ZM501.105 125.08C500.385 125.08 499.773 125.296 499.269 125.728C498.777 126.148 498.477 126.712 498.369 127.42H503.823C503.727 126.724 503.433 126.16 502.941 125.728C502.449 125.296 501.837 125.08 501.105 125.08ZM499.305 121.876C498.993 121.876 498.735 121.774 498.531 121.57C498.327 121.366 498.225 121.108 498.225 120.796C498.225 120.472 498.327 120.208 498.531 120.004C498.735 119.8 498.993 119.698 499.305 119.698C499.617 119.698 499.875 119.8 500.079 120.004C500.283 120.208 500.385 120.472 500.385 120.796C500.385 121.108 500.283 121.366 500.079 121.57C499.875 121.774 499.617 121.876 499.305 121.876ZM502.797 121.876C502.485 121.876 502.227 121.774 502.023 121.57C501.819 121.366 501.717 121.108 501.717 120.796C501.717 120.472 501.819 120.208 502.023 120.004C502.227 119.8 502.485 119.698 502.797 119.698C503.109 119.698 503.367 119.8 503.571 120.004C503.775 120.208 503.877 120.472 503.877 120.796C503.877 121.108 503.775 121.366 503.571 121.57C503.367 121.774 503.109 121.876 502.797 121.876ZM515.392 127.996C516.58 128.356 517.174 129.124 517.174 130.3C517.174 131.164 516.85 131.83 516.202 132.298C515.554 132.766 514.594 133 513.322 133H508.426V123.388H513.124C514.3 123.388 515.218 123.604 515.878 124.036C516.538 124.468 516.868 125.08 516.868 125.872C516.868 126.364 516.736 126.79 516.472 127.15C516.22 127.51 515.86 127.792 515.392 127.996ZM510.568 127.402H512.926C514.09 127.402 514.672 127 514.672 126.196C514.672 125.416 514.09 125.026 512.926 125.026H510.568V127.402ZM513.142 131.362C514.378 131.362 514.996 130.96 514.996 130.156C514.996 129.736 514.852 129.424 514.564 129.22C514.276 129.004 513.826 128.896 513.214 128.896H510.568V131.362H513.142ZM523.855 133.126C522.883 133.126 522.007 132.916 521.227 132.496C520.447 132.076 519.835 131.494 519.391 130.75C518.959 129.994 518.743 129.142 518.743 128.194C518.743 127.246 518.959 126.4 519.391 125.656C519.835 124.912 520.447 124.33 521.227 123.91C522.007 123.49 522.883 123.28 523.855 123.28C524.839 123.28 525.721 123.49 526.501 123.91C527.281 124.33 527.887 124.912 528.319 125.656C528.763 126.4 528.985 127.246 528.985 128.194C528.985 129.142 528.763 129.994 528.319 130.75C527.887 131.494 527.281 132.076 526.501 132.496C525.721 132.916 524.839 133.126 523.855 133.126ZM523.855 131.2C524.683 131.2 525.367 130.924 525.907 130.372C526.447 129.82 526.717 129.094 526.717 128.194C526.717 127.294 526.447 126.568 525.907 126.016C525.367 125.464 524.683 125.188 523.855 125.188C523.027 125.188 522.343 125.464 521.803 126.016C521.275 126.568 521.011 127.294 521.011 128.194C521.011 129.094 521.275 129.82 521.803 130.372C522.343 130.924 523.027 131.2 523.855 131.2Z" fill="#A0A0A0"/>
<path d="M241.948 32.4C243.04 32.4 243.988 32.58 244.792 32.94C245.608 33.3 246.232 33.816 246.664 34.488C247.096 35.16 247.312 35.958 247.312 36.882C247.312 37.794 247.096 38.592 246.664 39.276C246.232 39.948 245.608 40.464 244.792 40.824C243.988 41.184 243.04 41.364 241.948 41.364H239.104V45H236.764V32.4H241.948ZM241.84 39.384C242.86 39.384 243.634 39.168 244.162 38.736C244.69 38.304 244.954 37.686 244.954 36.882C244.954 36.078 244.69 35.46 244.162 35.028C243.634 34.596 242.86 34.38 241.84 34.38H239.104V39.384H241.84ZM258.434 35.388L253.934 45.774C253.514 46.818 253.004 47.55 252.404 47.97C251.804 48.402 251.078 48.618 250.226 48.618C249.746 48.618 249.272 48.54 248.804 48.384C248.336 48.228 247.952 48.012 247.652 47.736L248.552 46.08C248.768 46.284 249.02 46.446 249.308 46.566C249.608 46.686 249.908 46.746 250.208 46.746C250.604 46.746 250.928 46.644 251.18 46.44C251.444 46.236 251.684 45.894 251.9 45.414L252.062 45.036L247.868 35.388H250.208L253.232 42.498L256.274 35.388H258.434ZM269.446 45V38.628L266.206 43.992H265.234L262.048 38.61V45H259.996V35.388H262.354L265.774 41.4L269.356 35.388H271.462L271.48 45H269.446ZM282.616 35.388V45H280.6V42.102H278.062L276.1 45H273.688L275.956 41.796C275.26 41.556 274.726 41.19 274.354 40.698C273.994 40.194 273.814 39.576 273.814 38.844C273.814 37.74 274.204 36.888 274.984 36.288C275.764 35.688 276.838 35.388 278.206 35.388H282.616ZM278.278 37.278C276.826 37.278 276.1 37.824 276.1 38.916C276.1 39.996 276.802 40.536 278.206 40.536H280.6V37.278H278.278ZM285.643 35.388H287.893V39.294H292.735V35.388H294.985V45H292.735V41.202H287.893V45H285.643V35.388ZM308.548 43.092V47.214H306.442V45H298V35.388H300.25V43.092H304.84V35.388H307.09V43.092H308.548ZM319.551 40.248C319.551 40.404 319.539 40.626 319.515 40.914H311.973C312.105 41.622 312.447 42.186 312.999 42.606C313.563 43.014 314.259 43.218 315.087 43.218C316.143 43.218 317.013 42.87 317.697 42.174L318.903 43.56C318.471 44.076 317.925 44.466 317.265 44.73C316.605 44.994 315.861 45.126 315.033 45.126C313.977 45.126 313.047 44.916 312.243 44.496C311.439 44.076 310.815 43.494 310.371 42.75C309.939 41.994 309.723 41.142 309.723 40.194C309.723 39.258 309.933 38.418 310.353 37.674C310.785 36.918 311.379 36.33 312.135 35.91C312.891 35.49 313.743 35.28 314.691 35.28C315.627 35.28 316.461 35.49 317.193 35.91C317.937 36.318 318.513 36.9 318.921 37.656C319.341 38.4 319.551 39.264 319.551 40.248ZM314.691 37.08C313.971 37.08 313.359 37.296 312.855 37.728C312.363 38.148 312.063 38.712 311.955 39.42H317.409C317.313 38.724 317.019 38.16 316.527 37.728C316.035 37.296 315.423 37.08 314.691 37.08ZM328.978 39.996C330.166 40.356 330.76 41.124 330.76 42.3C330.76 43.164 330.436 43.83 329.788 44.298C329.14 44.766 328.18 45 326.908 45H322.012V35.388H326.71C327.886 35.388 328.804 35.604 329.464 36.036C330.124 36.468 330.454 37.08 330.454 37.872C330.454 38.364 330.322 38.79 330.058 39.15C329.806 39.51 329.446 39.792 328.978 39.996ZM324.154 39.402H326.512C327.676 39.402 328.258 39 328.258 38.196C328.258 37.416 327.676 37.026 326.512 37.026H324.154V39.402ZM326.728 43.362C327.964 43.362 328.582 42.96 328.582 42.156C328.582 41.736 328.438 41.424 328.15 41.22C327.862 41.004 327.412 40.896 326.8 40.896H324.154V43.362H326.728ZM337.441 45.126C336.469 45.126 335.593 44.916 334.813 44.496C334.033 44.076 333.421 43.494 332.977 42.75C332.545 41.994 332.329 41.142 332.329 40.194C332.329 39.246 332.545 38.4 332.977 37.656C333.421 36.912 334.033 36.33 334.813 35.91C335.593 35.49 336.469 35.28 337.441 35.28C338.425 35.28 339.307 35.49 340.087 35.91C340.867 36.33 341.473 36.912 341.905 37.656C342.349 38.4 342.571 39.246 342.571 40.194C342.571 41.142 342.349 41.994 341.905 42.75C341.473 43.494 340.867 44.076 340.087 44.496C339.307 44.916 338.425 45.126 337.441 45.126ZM337.441 43.2C338.269 43.2 338.953 42.924 339.493 42.372C340.033 41.82 340.303 41.094 340.303 40.194C340.303 39.294 340.033 38.568 339.493 38.016C338.953 37.464 338.269 37.188 337.441 37.188C336.613 37.188 335.929 37.464 335.389 38.016C334.861 38.568 334.597 39.294 334.597 40.194C334.597 41.094 334.861 41.82 335.389 42.372C335.929 42.924 336.613 43.2 337.441 43.2Z" fill="#A0A0A0"/>
<defs>
<linearGradient id="paint0_linear" x1="1828" y1="67" x2="1828" y2="109" gradientUnits="userSpaceOnUse">
<stop offset="0.640082" stop-color="#D01222"/>
<stop offset="1" stop-color="#8E5237"/>
</linearGradient>
</defs>
</svg>
