<svg width="118" height="65" viewBox="0 0 118 65" fill="none" xmlns="http://www.w3.org/2000/svg">
<path d="M99.7982 30.5529C92.7937 30.5529 87.8661 33.7905 85.1294 38.2299V34.5508C85.1294 33.8723 84.9258 33.2427 84.5756 32.7276H86.2208C87.2715 32.7276 88.257 32.2207 88.8679 31.3541C89.4787 30.4957 89.6416 29.3919 89.2995 28.3945L80.6009 2.9351C80.1529 1.61063 78.9149 0.727644 77.5222 0.727644H66.6489C65.2561 0.727644 64.0181 1.6188 63.5701 2.9351L58.6833 17.2427V3.99796C58.6833 2.19111 57.2253 0.727644 55.4253 0.727644H32.5955C30.7955 0.727644 29.3376 2.19111 29.3376 3.99796V4.7583C26.6824 1.98671 22.7158 0 17.2018 0C5.91312 0 0 8.41288 0 16.7276C0 22.9576 3.32308 29.2448 9.74118 32C3.32308 34.7634 0 41.0506 0 47.2805C0 55.5953 5.91312 64.0082 17.2018 64.0082C23.1719 64.0082 27.0081 61.8743 29.3376 59.9448V60.0102C29.3376 61.8171 30.7955 63.2805 32.5955 63.2805H36.2199C37.1647 63.2805 38.0688 62.8636 38.6878 62.1441L47.8181 51.5238V60.002C47.8181 61.8089 49.276 63.2724 51.076 63.2724H55.7837C56.6226 63.2724 57.3801 62.9453 57.9584 62.4221C58.5367 62.9453 59.2941 63.2724 60.133 63.2724H74.9891C80.2833 63.2724 83.867 60.6071 85.6425 57.0996C88.4606 61.1385 93.2172 64 99.8063 64C111.103 64 117.008 55.5871 117.008 47.2724C117 38.9658 111.087 30.5529 99.7982 30.5529ZM65.5412 31.2805C65.6959 31.0516 65.8262 30.8145 65.9158 30.5447L67.2679 26.7184L76.4145 25.1487L78.2389 30.512C78.3366 30.79 78.467 31.0434 78.6299 31.2805H65.5412ZM39.3312 32C40.0805 31.4032 40.5692 30.4875 40.5692 29.4492V11.626H47.4597V29.4492C47.4597 30.8636 48.3557 32.0572 49.61 32.5151L40.5692 43.0291V34.5508C40.5692 33.5125 40.0805 32.605 39.3312 32ZM29.3376 20.5539L27.2851 19.2376C26.7475 18.8942 26.1367 18.7225 25.5339 18.7225C24.6136 18.7225 23.7014 19.115 23.0579 19.8671C22.2027 20.8646 20.305 22.5406 17.2018 22.5406C13.6262 22.5406 11.2235 20.2024 11.2235 16.7195C11.2235 13.2938 13.6833 10.8983 17.2018 10.8983C19.9385 10.8983 21.543 11.953 22.2353 14.2259C22.6588 15.6076 23.9294 16.5314 25.3466 16.5314C25.4688 16.5314 25.5991 16.5233 25.7213 16.5069L29.3294 16.0899V20.5539H29.3376ZM27.2851 49.7905C26.7475 49.4471 26.1367 49.2754 25.5339 49.2754C24.6136 49.2754 23.7014 49.6679 23.0579 50.42C22.2027 51.4175 20.305 53.0935 17.2018 53.0935C13.6262 53.0935 11.2235 50.7552 11.2235 47.2724C11.2235 43.8467 13.6833 41.4512 17.2018 41.4512C19.9385 41.4512 21.543 42.5059 22.2353 44.7787C22.6588 46.1605 23.9294 47.0843 25.3466 47.0843C25.4688 47.0843 25.5991 47.0761 25.7213 47.0598L29.3294 46.6428V51.0904L27.2851 49.7905Z" fill="#F8F8F8"/>
<path d="M3.2579 16.7278C3.2579 9.81931 8.14478 3.27051 17.2018 3.27051C25.9004 3.27051 29.1584 8.90362 30.0624 12.7217L25.3547 13.2695C24.6298 10.9067 22.6344 7.63637 17.2018 7.63637C11.7692 7.63637 7.9656 11.6343 7.9656 16.7278C7.9656 21.8214 11.59 25.8193 17.2018 25.8193C21.7303 25.8193 24.4507 23.2766 25.5339 22.0012L29.5167 24.5439C28.4335 25.8193 25.1674 30.177 17.2018 30.177C8.14478 30.1852 3.2579 23.6364 3.2579 16.7278Z" fill="url(#paint0_linear)"/>
<path d="M32.5955 3.99805H55.4172V29.4574H50.7095V8.36391H37.3113V29.4574H32.6036V3.99805H32.5955Z" fill="url(#paint1_linear)"/>
<path d="M66.6489 3.99805H77.514L86.2045 29.4574H81.3176L78.5973 21.4533L64.8326 23.8161L62.8371 29.4492H57.9502L66.6489 3.99805ZM77.1556 17.4554L74.0769 8.36391H70.0941L66.2905 19.2704L77.1556 17.4554Z" fill="url(#paint2_linear)"/>
<path d="M3.2579 47.2806C3.2579 40.372 8.14478 33.8232 17.2018 33.8232C25.8923 33.8232 29.1584 39.4564 30.0624 43.2744L25.3547 43.8222C24.6298 41.4594 22.6344 38.1891 17.2018 38.1891C11.7692 38.1891 7.9656 42.1871 7.9656 47.2806C7.9656 52.3741 11.59 56.372 17.2018 56.372C21.7303 56.372 24.4507 53.8294 25.5339 52.5539L29.5167 55.0966C28.4335 56.372 25.1674 60.7297 17.2018 60.7297C8.14478 60.7297 3.2579 54.1891 3.2579 47.2806Z" fill="url(#paint3_linear)"/>
<path d="M32.5955 34.5513H37.3032V51.8267L52.1593 34.5513H55.7837V60.0106H51.076V42.7352L36.2199 60.0025H32.5955V34.5513Z" fill="url(#paint4_linear)"/>
<path d="M60.133 34.5513H81.8715V38.9171H64.8407V42.9151L74.981 43.8226C80.4136 44.2968 83.6796 47.4608 83.6796 51.6387C83.6796 55.8246 80.7801 60.0025 74.981 60.0025H60.133V34.5513ZM74.8018 55.6448C76.9765 55.6448 78.9638 54.5574 78.9638 51.8267C78.9638 49.096 76.7891 48.1885 74.8018 48.0086L64.8407 47.0929V55.6366H74.8018V55.6448Z" fill="url(#paint5_linear)"/>
<path d="M85.8461 47.2806C85.8461 40.372 90.733 33.8232 99.79 33.8232C108.847 33.8232 113.734 40.372 113.734 47.2806C113.734 54.1891 108.847 60.7379 99.79 60.7379C90.7412 60.7297 85.8461 54.1891 85.8461 47.2806ZM109.034 47.2806C109.034 42.1871 105.231 38.1891 99.7982 38.1891C94.3656 38.1891 90.562 42.1871 90.562 47.2806C90.562 52.3741 94.3656 56.372 99.7982 56.372C105.231 56.372 109.034 52.3659 109.034 47.2806Z" fill="url(#paint6_linear)"/>
<defs>
<linearGradient id="paint0_linear" x1="2.94058" y1="9.66282" x2="121.995" y2="68.1698" gradientUnits="userSpaceOnUse">
<stop stop-color="#EFBD4C"/>
<stop offset="1" stop-color="#1492A1"/>
</linearGradient>
<linearGradient id="paint1_linear" x1="8.18705" y1="-1.01321" x2="127.242" y2="57.4937" gradientUnits="userSpaceOnUse">
<stop stop-color="#EFBD4C"/>
<stop offset="1" stop-color="#1492A1"/>
</linearGradient>
<linearGradient id="paint2_linear" x1="12.8306" y1="-10.4624" x2="131.886" y2="48.0446" gradientUnits="userSpaceOnUse">
<stop stop-color="#EFBD4C"/>
<stop offset="1" stop-color="#1492A1"/>
</linearGradient>
<linearGradient id="paint3_linear" x1="-9.78159" y1="33.9156" x2="109.273" y2="92.4226" gradientUnits="userSpaceOnUse">
<stop stop-color="#EFBD4C"/>
<stop offset="1" stop-color="#1492A1"/>
</linearGradient>
<linearGradient id="paint4_linear" x1="-4.49961" y1="23.1678" x2="114.555" y2="81.6747" gradientUnits="userSpaceOnUse">
<stop stop-color="#EFBD4C"/>
<stop offset="1" stop-color="#1492A1"/>
</linearGradient>
<linearGradient id="paint5_linear" x1="0.746605" y1="12.4922" x2="119.801" y2="70.9992" gradientUnits="userSpaceOnUse">
<stop stop-color="#EFBD4C"/>
<stop offset="1" stop-color="#1492A1"/>
</linearGradient>
<linearGradient id="paint6_linear" x1="6.38265" y1="1.02308" x2="125.438" y2="59.53" gradientUnits="userSpaceOnUse">
<stop stop-color="#EFBD4C"/>
<stop offset="1" stop-color="#1492A1"/>
</linearGradient>
</defs>
</svg>
