<svg width="189" height="68" viewBox="0 0 189 68" fill="none" xmlns="http://www.w3.org/2000/svg">
<g opacity="0.8">
<path d="M0.749298 53.9048L3.44781 53.9048L3.44782 64.6857L6.03389 64.6857L6.03389 56.5334L8.73241 56.5334L8.73241 64.6857L13.8671 64.6857L13.8671 53.9048L16.5656 53.9048L16.5656 67.6952L0.749298 67.6952L0.749298 53.9048ZM0.449462 53.6L0.449462 53.9048L0.449463 67.6952L0.449463 68L0.749298 68L16.5656 68L16.8654 68L16.8654 67.6952L16.8654 53.9048L16.8654 53.6L16.5656 53.6L13.8671 53.6L13.5673 53.6L13.5673 53.9048L13.5673 64.381L9.10721 64.381L9.1072 56.5334L9.1072 56.2286L8.76989 56.2286L6.07137 56.2286L5.77154 56.2286L5.77154 56.5334L5.77154 64.381L3.78513 64.381L3.78513 53.9048L3.78513 53.6L3.48529 53.6L0.749297 53.6L0.449462 53.6Z" fill="#F8F8F8"/>
<path d="M0.749298 39.8856L16.5656 34.3618L16.5656 37.4856L11.6183 39.1999L13.08 47.9236L16.5656 49.1808L16.5656 52.3046L0.749298 46.7808L0.749298 39.8856ZM10.2316 47.0094L9.1072 40.1141L3.48529 42.057L3.48529 44.6094L10.2316 47.0094ZM0.449462 39.657L0.449462 39.8856L0.449463 46.7808L0.449463 47.0094L0.674339 47.0856L16.4906 52.5713L16.8654 52.7236L16.8654 52.2665L16.8654 49.1808L16.8654 48.9522L16.678 48.876L13.3424 47.657L11.9556 39.4284L16.678 37.7903L16.8654 37.7141L16.8654 37.4856L16.8654 34.3999L16.8654 33.9427L16.4906 34.0951L0.674339 39.5808L0.449462 39.657ZM3.78513 44.3808L3.78513 42.2856L8.88233 40.5332L9.85679 46.5522L3.78513 44.3808Z" fill="#F8F8F8"/>
<path d="M0.299835 26.3243C0.299835 22.4386 2.32372 20.0005 4.60997 19.0862L5.17216 22.0577C4.04777 22.6291 3.03583 24.1148 3.03583 26.4386C3.03583 28.8386 4.16021 29.9815 5.2846 29.9815C8.32043 29.9815 6.1841 18.7434 12.2932 18.7434C15.6664 18.7434 17.0531 21.7148 17.0531 25.6386C17.0531 30.7053 14.3546 32.7624 13.5675 33.4481L11.9934 30.9338C12.7805 30.2481 14.3546 28.5338 14.3546 25.6386C14.3546 23.5815 13.7924 21.7529 12.3307 21.7529C9.18245 21.7529 11.2063 32.991 5.32207 32.991C2.81096 32.991 0.299835 30.7053 0.299835 26.3243ZM-3.33038e-07 26.3243C-1.33215e-07 30.8957 2.66104 33.2957 5.2846 33.2957C8.9201 33.2957 9.74464 29.3338 10.3818 26.1339C10.8315 23.9243 11.2063 22.0577 12.2932 22.0577C13.9049 22.0577 14.0173 24.8005 14.0173 25.6386C14.0173 28.3053 12.5931 29.9434 11.7685 30.6672L11.5437 30.8577L11.6936 31.0862L13.2677 33.6386L13.4551 33.9434L13.7175 33.7148L13.8674 33.6005C14.8044 32.8005 17.353 30.6291 17.353 25.6767C17.353 21.1053 15.5165 18.4767 12.2932 18.4767C8.47034 18.4767 7.68328 22.5148 7.04613 25.791C6.63385 27.8862 6.29654 29.7148 5.2846 29.7148C4.34761 29.7148 3.33567 28.6862 3.33567 26.4767C3.33567 24.191 4.34761 22.8958 5.32207 22.4005L5.54695 22.2862L5.50947 22.0577L4.94728 19.0862L4.87232 18.7053L4.49753 18.8196C1.68657 19.9624 -4.87901e-07 22.7815 -3.33038e-07 26.3243Z" fill="#F8F8F8"/>
<path d="M13.6422 0.381304L16.5656 0.381304L16.5656 3.35272L13.6422 3.35272L13.6422 0.381304ZM13.3424 0.0384476L13.3424 0.343208L13.3424 3.31462L13.3424 3.61938L13.6422 3.61938L16.5656 3.61938L16.8655 3.61938L16.8655 3.31462L16.8655 0.343208L16.8655 0.0384475L16.5656 0.0384475L13.6422 0.0384476L13.3424 0.0384476Z" fill="#F8F8F8"/>
<path d="M0.749297 0.609774L10.8687 7.61929L15.1789 10.5907L16.6031 11.5812L16.6031 15.0478L10.5314 10.8193L0.786777 17.6002L0.786777 14.1717L8.0203 9.14309L0.786777 4.07643L0.786777 0.609774L0.749297 0.609774ZM0.449462 0.00025177L0.449462 0.609774L0.449462 4.03834L0.449462 4.19072L0.59938 4.26691L7.45811 9.0669L0.59938 13.8288L0.449463 13.905L0.449463 14.0574L0.449463 17.4859L0.449463 18.0955L0.936695 17.7526L10.4939 11.0859L16.4157 15.2002L16.9029 15.5431L16.9029 14.9336L16.9029 11.4669L16.9029 11.3145L16.753 11.2383L15.3288 10.2479L11.0187 7.27643L0.899215 0.266916L0.449462 0.00025177Z" fill="#F8F8F8"/>
</g>
<g opacity="0.7">
<g opacity="0.9">
<g opacity="0.9">
<path opacity="0.9" d="M22.1024 53.9048L24.801 53.9048L24.801 64.6857L27.387 64.6857L27.387 56.5334L30.123 56.5334L30.123 64.6857L35.2202 64.6857L35.2202 53.9048L37.9188 53.9048L37.9188 67.6952L22.1024 67.6952L22.1024 53.9048ZM21.8026 53.6L21.8026 53.9048L21.8026 67.6952L21.8026 68L22.1024 68L37.9188 68L38.2186 68L38.2186 67.6952L38.2186 53.9048L38.2186 53.6L37.9188 53.6L35.2202 53.6L34.9204 53.6L34.9204 53.9048L34.9204 64.381L30.4229 64.381L30.4229 56.5334L30.4229 56.2286L30.123 56.2286L27.4245 56.2286L27.1247 56.2286L27.1247 56.5334L27.1247 64.381L25.1383 64.381L25.1383 53.9048L25.1383 53.6L24.8384 53.6L22.1024 53.6L21.8026 53.6Z" fill="#F8F8F8"/>
</g>
<g opacity="0.9">
<path opacity="0.9" d="M22.1024 39.8856L37.9188 34.3618L37.9188 37.4856L32.934 39.1998L34.4332 47.9236L37.9188 49.1808L37.9188 52.3046L22.1024 46.7808L22.1024 39.8856ZM31.5847 47.0093L30.4604 40.1141L24.8384 42.057L24.8384 44.6094L31.5847 47.0093ZM21.8026 39.657L21.8026 39.8856L21.8026 46.7808L21.8026 47.0094L21.99 47.0855L37.8063 52.6093L38.2186 52.7617L38.2186 52.3046L38.2186 49.2189L38.2186 48.9522L38.0312 48.876L34.6955 47.657L33.3088 39.4284L38.0312 37.7903L38.2561 37.7141L38.2561 37.4856L38.2561 34.3999L38.2561 33.9427L37.8063 34.0951L21.99 39.5808L21.8026 39.657ZM25.1383 44.3808L25.1383 42.2856L30.2355 40.5332L31.2099 46.5522L25.1383 44.3808Z" fill="#F8F8F8"/>
</g>
<g opacity="0.9">
<path opacity="0.9" d="M21.6528 26.3238C21.6528 22.4381 23.6767 20 25.9629 19.0858L26.5251 22.0572C25.4007 22.6286 24.3888 24.1143 24.3888 26.4381C24.3888 28.8381 25.5132 29.981 26.6376 29.981C29.6734 29.981 27.5371 18.7429 33.6462 18.7429C37.0194 18.7429 38.4061 21.7143 38.4061 25.6381C38.4061 30.7048 35.7076 32.7619 34.9205 33.4476L33.3464 30.9334C34.1334 30.2476 35.7076 28.5334 35.7076 25.6381C35.7076 23.581 35.1454 21.7524 33.6837 21.7524C30.5354 21.7524 32.5593 32.9905 26.675 32.9905C24.1264 32.9905 21.6528 30.7048 21.6528 26.3238ZM21.353 26.3238C21.353 30.8953 24.014 33.2953 26.6376 33.2953C30.2731 33.2953 31.0976 29.3334 31.7348 26.1334C32.1845 23.9238 32.5593 22.0572 33.6462 22.0572C35.2578 22.0572 35.3703 24.8 35.3703 25.6381C35.3703 28.3048 33.946 29.9429 33.1215 30.6667L32.8966 30.8572L33.0465 31.0857L34.6207 33.6381L34.8081 33.9429L35.0704 33.7143L35.1829 33.6C36.1199 32.8 38.6685 30.6286 38.6685 25.6762C38.6685 21.1048 36.832 18.4762 33.6087 18.4762C29.7858 18.4762 28.9988 22.5143 28.3616 25.7905C27.9493 27.8857 27.612 29.7143 26.6001 29.7143C25.6631 29.7143 24.6512 28.6857 24.6512 26.4762C24.6512 24.1905 25.6631 22.8953 26.6376 22.4L26.8624 22.2858L26.825 22.0572L26.2628 19.0858L26.1878 18.7048L25.8505 18.8572C23.6767 19.6953 21.353 22.1334 21.353 26.3238Z" fill="#F8F8F8"/>
</g>
<g opacity="0.9">
<path opacity="0.9" d="M34.9952 0.381304L37.9186 0.381304L37.9186 3.35272L34.9952 3.35272L34.9952 0.381304ZM34.6579 0.0384476L34.6579 0.343208L34.6579 3.31462L34.6579 3.61938L34.9952 3.61938L37.9186 3.61938L38.2184 3.61938L38.2184 3.31462L38.2184 0.343208L38.2184 0.0384475L37.9186 0.0384475L34.9952 0.0384476L34.6579 0.0384476Z" fill="#F8F8F8"/>
</g>
<g opacity="0.9">
<path opacity="0.9" d="M22.1024 0.609774L32.2219 7.61929L36.532 10.5907L37.9562 11.5812L37.9562 15.0478L31.8846 10.8193L22.1399 17.6002L22.1399 14.1717L29.3735 9.14309L22.1399 4.07643L22.1399 0.609774L22.1024 0.609774ZM21.8026 0.00025177L21.8026 0.609774L21.8026 4.03834L21.8026 4.19072L21.9525 4.26691L28.8113 9.0669L21.9525 13.8288L21.8026 13.905L21.8026 14.0574L21.8026 17.4859L21.8026 18.0955L22.2898 17.7526L31.8471 11.0859L37.7688 15.2002L38.2561 15.5431L38.2561 14.9336L38.2561 11.4669L38.2561 11.3145L38.1061 11.2383L36.6819 10.2479L32.3718 7.27643L22.2524 0.266916L21.8026 0.00025177Z" fill="#F8F8F8"/>
</g>
</g>
</g>
<g opacity="0.6">
<g opacity="0.8">
<g opacity="0.8">
<path opacity="0.8" d="M43.4183 53.9048L46.1168 53.9048L46.1168 64.6857L48.7029 64.6857L48.7029 56.5334L51.4014 56.5334L51.4014 64.6857L56.4986 64.6857L56.4986 53.9048L59.1971 53.9048L59.1971 67.6952L43.3808 67.6952L43.3808 53.9048L43.4183 53.9048ZM43.1185 53.6L43.1185 53.9048L43.1185 67.6952L43.1185 68L43.4183 68L59.2346 68L59.5344 68L59.5344 67.6952L59.5344 53.9048L59.5344 53.6L59.2346 53.6L56.5361 53.6L56.2363 53.6L56.2363 53.9048L56.2363 64.381L51.7762 64.381L51.7762 56.5334L51.7762 56.2286L51.4764 56.2286L48.7779 56.2286L48.478 56.2286L48.478 56.5334L48.478 64.381L46.4916 64.381L46.4916 53.9048L46.4916 53.6L46.1918 53.6L43.4933 53.6L43.1185 53.6Z" fill="#F8F8F8"/>
</g>
<g opacity="0.8">
<path opacity="0.8" d="M43.4183 39.8856L59.2346 34.3618L59.2346 37.4856L54.2498 39.1999L55.7115 47.9236L59.1971 49.1808L59.1971 52.3046L43.3808 46.7808L43.3808 39.8856L43.4183 39.8856ZM52.9006 47.0094L51.7762 40.1141L46.1168 42.057L46.1168 44.6094L52.9006 47.0094ZM43.1185 39.657L43.1185 39.8856L43.1185 46.7808L43.1185 47.0094L43.3433 47.0855L59.1597 52.6093L59.5719 52.7617L59.5719 52.3046L59.5719 49.2189L59.5719 48.9522L59.3845 48.876L56.0489 47.657L54.6621 39.3903L59.3845 37.7522L59.6094 37.676L59.6094 37.4475L59.6094 34.3618L59.6094 33.9046L59.1222 34.0951L43.3059 39.6189L43.1185 39.657ZM46.4541 44.3808L46.4541 42.2856L51.5513 40.5332L52.5258 46.5522L46.4541 44.3808Z" fill="#F8F8F8"/>
</g>
<g opacity="0.8">
<path opacity="0.8" d="M42.9683 26.3241C42.9683 22.4384 44.9922 20.0003 47.2784 19.086L47.8406 22.0574C46.7162 22.6289 45.7043 24.1146 45.7043 26.4384C45.7043 28.8384 46.8287 29.9812 47.9531 29.9812C50.9889 29.9812 48.8526 18.7432 54.9617 18.7432C58.3349 18.7432 59.7216 21.7146 59.7216 25.6384C59.7216 30.705 57.0231 32.7622 56.236 33.4479L54.6619 30.9336C55.4489 30.2479 57.0231 28.5336 57.0231 25.6384C57.0231 23.5812 56.4609 21.7527 54.9992 21.7527C51.8509 21.7527 53.8748 32.9907 47.9905 32.9907C45.4419 32.9907 42.9683 30.705 42.9683 26.3241ZM42.6685 26.3241C42.6685 30.8955 45.3295 33.2955 47.9531 33.2955C51.5886 33.2955 52.4131 29.3336 53.0503 26.1336C53.5 23.9241 53.8748 22.0574 54.9617 22.0574C56.5733 22.0574 56.6858 24.8003 56.6858 25.6384C56.6858 28.305 55.2615 29.9431 54.437 30.6669L54.2121 30.8574L54.362 31.086L55.9362 33.6003L56.1236 33.905L56.3859 33.6765L56.4984 33.5622C57.4353 32.7622 59.9839 30.5908 59.9839 25.6384C59.9839 21.067 58.1475 18.4384 54.9242 18.4384C51.1013 18.4384 50.3143 22.4765 49.6771 25.7527C49.2648 27.8479 48.9275 29.6765 47.9156 29.6765C46.9786 29.6765 45.9666 28.6479 45.9666 26.4384C45.9666 24.1527 46.9786 22.8574 47.9531 22.3622L48.1779 22.2479L48.1404 22.0193L47.5783 19.0479L47.5033 18.667L47.166 18.8194C44.3176 19.9622 42.6685 22.7812 42.6685 26.3241Z" fill="#F8F8F8"/>
</g>
<g opacity="0.8">
<path opacity="0.8" d="M56.3108 0.381304L59.2342 0.381304L59.2342 3.35272L56.3108 3.35272L56.3108 0.381304ZM55.9735 0.0384476L55.9735 0.343208L55.9735 3.31462L55.9735 3.61938L56.2733 3.61938L59.1967 3.61938L59.4966 3.61938L59.4966 3.31462L59.4966 0.343208L59.4966 0.0384475L59.1967 0.0384475L56.2733 0.0384476L55.9735 0.0384476Z" fill="#F8F8F8"/>
</g>
<g opacity="0.8">
<path opacity="0.8" d="M43.4183 0.609774L53.5377 7.61929L57.8479 10.5907L59.2721 11.5812L59.2721 15.0478L53.2004 10.8193L43.4558 17.6002L43.4558 14.1717L50.6893 9.14309L43.4558 4.07643L43.4558 0.609774L43.4183 0.609774ZM43.1185 0.00025177L43.1185 0.609774L43.1185 4.03834L43.1185 4.19072L43.2684 4.26691L50.1271 9.0669L43.2684 13.8288L43.1185 13.905L43.1185 14.0574L43.1185 17.4859L43.1185 18.0955L43.6057 17.7526L53.1629 11.0859L59.0847 15.2002L59.5719 15.5431L59.5719 14.9336L59.5719 11.4669L59.5719 11.3145L59.422 11.2383L57.9978 10.2479L53.6877 7.27643L43.5682 0.266916L43.1185 0.00025177Z" fill="#F8F8F8"/>
</g>
</g>
</g>
<g opacity="0.5">
<g opacity="0.7">
<g opacity="0.7">
<path opacity="0.7" d="M64.7331 53.9048L67.4316 53.9048L67.4316 64.6857L70.0177 64.6857L70.0177 56.5334L72.7162 56.5334L72.7162 64.6857L77.8134 64.6857L77.8134 53.9048L80.512 53.9048L80.512 67.6952L64.6956 67.6952L64.6956 53.9048L64.7331 53.9048ZM64.4333 53.6L64.4333 53.9048L64.4333 67.6952L64.4333 68L64.7331 68L80.5494 68L80.8493 68L80.8493 67.6952L80.8493 53.9048L80.8493 53.6L80.5494 53.6L77.8509 53.6L77.5511 53.6L77.5511 53.9048L77.5511 64.381L73.0536 64.381L73.0536 56.5334L73.0536 56.2286L72.7537 56.2286L70.0552 56.2286L69.7554 56.2286L69.7554 56.5334L69.7554 64.381L67.769 64.381L67.769 53.9048L67.769 53.6L67.4316 53.6L64.7331 53.6L64.4333 53.6Z" fill="#F8F8F8"/>
</g>
<g opacity="0.7">
<path opacity="0.7" d="M64.7331 39.8856L80.5494 34.3618L80.5494 37.4856L75.5647 39.1999L77.0264 47.9236L80.5494 49.1808L80.5494 52.3046L64.7331 46.7808L64.7331 39.8856ZM74.2154 47.0094L73.091 40.1141L67.4316 42.057L67.4316 44.6094L74.2154 47.0094ZM64.4333 39.657L64.4333 39.8856L64.4333 46.7808L64.4333 47.0094L64.6582 47.0855L80.4745 52.6093L80.8868 52.7617L80.8868 52.3046L80.8868 49.2189L80.8868 48.9522L80.6994 48.876L77.3637 47.657L75.9769 39.3903L80.6994 37.7522L80.9242 37.676L80.9242 37.4475L80.9242 34.3618L80.9242 33.9046L80.437 34.0951L64.6207 39.6189L64.4333 39.657ZM67.7315 44.3808L67.7315 42.2856L72.8287 40.5332L73.8031 46.5522L67.7315 44.3808Z" fill="#F8F8F8"/>
</g>
<g opacity="0.7">
<path opacity="0.7" d="M64.2838 26.3241C64.2838 22.4384 66.3077 20.0003 68.5939 19.086L69.1561 22.0574C68.0317 22.6289 67.0198 24.1146 67.0198 26.4384C67.0198 28.8384 68.1442 29.9812 69.2685 29.9812C72.3044 29.9812 70.168 18.7432 76.2772 18.7432C79.6503 18.7432 81.0371 21.7146 81.0371 25.6384C81.0371 30.705 78.3386 32.7622 77.5515 33.4479L75.9774 30.9336C76.7644 30.2479 78.3386 28.5336 78.3386 25.6384C78.3386 23.5812 77.7764 21.7527 76.3147 21.7527C73.1664 21.7527 75.1903 32.9907 69.306 32.9907C66.7574 32.9907 64.2838 30.705 64.2838 26.3241ZM63.9839 26.3241C63.9839 30.8955 66.645 33.2955 69.2685 33.2955C72.904 33.2955 73.7286 29.3336 74.3657 26.1336C74.8155 23.9241 75.1903 22.0574 76.2772 22.0574C77.8888 22.0574 78.0012 24.8003 78.0012 25.6384C78.0012 28.305 76.577 29.9431 75.7525 30.6669L75.5651 30.8574L75.715 31.086L77.2891 33.6003L77.4765 33.905L77.7389 33.6765L77.8513 33.5622C78.7883 32.7622 81.3369 30.5908 81.3369 25.6384C81.3369 21.067 79.5004 18.4384 76.2772 18.4384C72.4543 18.4384 71.6672 22.4765 71.0301 25.7527C70.6178 27.8479 70.2805 29.6765 69.2685 29.6765C68.3316 29.6765 67.3196 28.6479 67.3196 26.4384C67.3196 24.1527 68.3316 22.8574 69.306 22.3622L69.5309 22.2479L69.4934 22.0193L68.9312 19.0479L68.8563 18.667L68.519 18.8194C65.633 19.9622 63.9839 22.7812 63.9839 26.3241Z" fill="#F8F8F8"/>
</g>
<g opacity="0.7">
<path opacity="0.7" d="M77.5888 0.381304L80.5122 0.381304L80.5122 3.35272L77.5888 3.35272L77.5888 0.381304ZM77.2889 0.0384476L77.2889 0.343208L77.2889 3.31462L77.2889 3.61938L77.5888 3.61938L80.5122 3.61938L80.812 3.61938L80.812 3.31462L80.812 0.343208L80.812 0.0384475L80.5496 0.0384475L77.6263 0.0384476L77.2889 0.0384476Z" fill="#F8F8F8"/>
</g>
<g opacity="0.7">
<path opacity="0.7" d="M64.7331 0.609774L74.8526 7.61929L79.1627 10.5907L80.5869 11.5812L80.5869 15.0478L74.5153 10.8193L64.7706 17.6002L64.7706 14.1717L72.0041 9.14309L64.7706 4.07643L64.7706 0.609774L64.7331 0.609774ZM64.4333 0.00025177L64.4333 0.609774L64.4333 4.03834L64.4333 4.19072L64.5832 4.26691L71.4419 9.0669L64.5832 13.8288L64.4333 13.905L64.4333 14.0574L64.4333 17.4859L64.4333 18.0955L64.9205 17.7526L74.4778 11.0859L80.3995 15.2002L80.8868 15.5431L80.8868 14.9336L80.8868 11.4669L80.8868 11.3145L80.7368 11.2383L79.3126 10.2479L75.0025 7.27643L64.883 0.266916L64.4333 0.00025177Z" fill="#F8F8F8"/>
</g>
</g>
</g>
<g opacity="0.4">
<g opacity="0.6">
<g opacity="0.6">
<path opacity="0.6" d="M86.1237 53.9048L88.8222 53.9048L88.8222 64.6857L91.4083 64.6857L91.4083 56.5334L94.1068 56.5334L94.1068 64.6857L99.204 64.6857L99.204 53.9048L101.903 53.9048L101.903 67.6952L86.0862 67.6952L86.0862 53.9048L86.1237 53.9048ZM85.7864 53.6L85.7864 53.9048L85.7864 67.6952L85.7864 68L86.0862 68L101.903 68L102.202 68L102.202 67.6952L102.202 53.9048L102.202 53.6L101.903 53.6L99.204 53.6L98.9042 53.6L98.9042 53.9048L98.9042 64.381L94.4441 64.381L94.4441 56.5334L94.4441 56.2286L94.1443 56.2286L91.4458 56.2286L91.1459 56.2286L91.1459 56.5334L91.1459 64.381L89.1595 64.381L89.1595 53.9048L89.1595 53.6L88.8597 53.6L86.1612 53.6L85.7864 53.6Z" fill="#F8F8F8"/>
</g>
<g opacity="0.6">
<path opacity="0.6" d="M86.1237 39.8856L101.94 34.3618L101.94 37.4856L96.9552 39.1999L98.4169 47.9236L101.903 49.1808L101.903 52.3046L86.0862 46.7808L86.0862 39.8856L86.1237 39.8856ZM95.606 47.0094L94.4816 40.1141L88.8222 42.057L88.8222 44.6094L95.606 47.0094ZM85.7864 39.657L85.7864 39.8856L85.7864 46.7808L85.7864 47.0094L86.0113 47.0855L101.828 52.6093L102.24 52.7617L102.24 52.3046L102.24 49.2189L102.24 48.9522L102.052 48.876L98.7168 47.657L97.33 39.3903L102.052 37.7522L102.277 37.676L102.277 37.4475L102.277 34.3618L102.277 33.9046L101.828 34.0951L86.0113 39.6189L85.7864 39.657ZM89.122 44.3808L89.122 42.2856L94.2192 40.5332L95.1937 46.5522L89.122 44.3808Z" fill="#F8F8F8"/>
</g>
<g opacity="0.6">
<path opacity="0.6" d="M85.6742 26.3241C85.6742 22.4384 87.6981 20.0003 89.9844 19.086L90.5465 22.0574C89.4222 22.6289 88.4102 24.1146 88.4102 26.4384C88.4102 28.8384 89.5346 29.9812 90.659 29.9812C93.6948 29.9812 91.5585 18.7432 97.6676 18.7432C101.041 18.7432 102.428 21.7146 102.428 25.6384C102.428 30.705 99.729 32.7622 98.9419 33.4479L97.3678 30.9336C98.1549 30.2479 99.729 28.5336 99.729 25.6384C99.729 23.5812 99.1668 21.7527 97.7051 21.7527C94.5568 21.7527 96.5807 32.9907 90.6965 32.9907C88.1479 32.9907 85.6742 30.705 85.6742 26.3241ZM85.3369 26.3241C85.3369 30.8955 87.998 33.2955 90.6215 33.2955C94.257 33.2955 95.0816 29.3336 95.7187 26.1336C96.1685 23.9241 96.5432 22.0574 97.6302 22.0574C99.2418 22.0574 99.3542 24.8003 99.3542 25.6384C99.3542 28.305 97.93 29.9431 97.1054 30.6669L96.918 30.8574L97.068 31.086L98.6421 33.6003L98.8295 33.905L99.0919 33.6765L99.2043 33.5622C100.141 32.7622 102.69 30.5908 102.69 25.6384C102.69 21.067 100.853 18.4384 97.6302 18.4384C93.8073 18.4384 93.0202 22.4765 92.383 25.7527C91.9708 27.8479 91.6335 29.6765 90.6215 29.6765C89.6845 29.6765 88.6726 28.6479 88.6726 26.4384C88.6726 24.1527 89.6845 22.8574 90.659 22.3622L90.8839 22.2479L90.8464 22.0193L90.2842 19.0479L90.2092 18.667L89.8719 18.8194C87.0235 19.9622 85.3369 22.7812 85.3369 26.3241Z" fill="#F8F8F8"/>
</g>
<g opacity="0.6">
<path opacity="0.6" d="M98.9792 0.38106L101.903 0.38106L101.903 3.35248L98.9792 3.35248L98.9792 0.38106ZM98.6793 0.0382035L98.6793 0.342964L98.6793 3.31438L98.6793 3.61914L98.9792 3.61914L101.903 3.61914L102.202 3.61914L102.202 3.31438L102.202 0.342964L102.202 0.0382033L101.903 0.0382033L98.9792 0.0382035L98.6793 0.0382035Z" fill="#F8F8F8"/>
</g>
<g opacity="0.6">
<path opacity="0.6" d="M86.1237 0.610018L96.2431 7.61953L100.553 10.591L101.977 11.5814L101.977 15.0481L95.9058 10.8195L86.1612 17.6005L86.1612 14.1719L93.3947 9.14334L86.1612 4.07668L86.1612 0.610018L86.1237 0.610018ZM85.7864 0.000495911L85.7864 0.610018L85.7864 4.03858L85.7864 4.19097L85.9363 4.26716L92.795 9.06715L85.9363 13.829L85.7864 13.9052L85.7864 14.0576L85.7864 17.4862L85.7864 18.0957L86.2736 17.7528L95.8309 11.0862L101.753 15.2005L102.24 15.5433L102.24 14.9338L102.24 11.4671L102.24 11.3148L102.09 11.2386L100.666 10.2481L96.3556 7.27668L86.2361 0.26716L85.7864 0.000495911Z" fill="#F8F8F8"/>
</g>
</g>
</g>
<g opacity="0.7">
<g opacity="0.3">
<g opacity="0.5">
<path opacity="0.5" d="M107.477 53.9048L110.175 53.9048L110.175 64.6857L112.761 64.6857L112.761 56.5334L115.46 56.5334L115.46 64.6857L120.557 64.6857L120.557 53.9048L123.256 53.9048L123.256 67.6952L107.477 67.6952L107.477 53.9048ZM107.139 53.6L107.139 53.9048L107.139 67.6952L107.139 68L107.477 68L123.293 68L123.593 68L123.593 67.6952L123.593 53.9048L123.593 53.6L123.293 53.6L120.595 53.6L120.295 53.6L120.295 53.9048L120.295 64.381L115.835 64.381L115.835 56.5334L115.835 56.2286L115.535 56.2286L112.836 56.2286L112.536 56.2286L112.536 56.5334L112.536 64.381L110.475 64.381L110.475 53.9048L110.475 53.6L110.175 53.6L107.477 53.6L107.139 53.6Z" fill="#F8F8F8"/>
</g>
<g opacity="0.5">
<path opacity="0.5" d="M107.477 39.8856L123.293 34.3618L123.293 37.4856L118.308 39.1999L119.77 47.9236L123.256 49.1808L123.256 52.3046L107.477 46.7808L107.477 39.8856ZM116.959 47.0094L115.835 40.1141L110.175 42.057L110.175 44.6094L116.959 47.0094ZM107.139 39.657L107.139 39.8856L107.139 46.7808L107.139 47.0094L107.364 47.0856L123.181 52.6093L123.593 52.7236L123.593 52.2665L123.593 49.1808L123.593 48.9522L123.405 48.876L120.07 47.657L118.683 39.3903L123.405 37.7522L123.63 37.676L123.63 37.4475L123.63 34.3618L123.63 33.9046L123.181 34.0951L107.364 39.6189L107.139 39.657ZM110.475 44.3808L110.475 42.2856L115.572 40.5332L116.547 46.5522L110.475 44.3808Z" fill="#F8F8F8"/>
</g>
<g opacity="0.5">
<path opacity="0.5" d="M107.027 26.3241C107.027 22.4384 109.051 20.0003 111.337 19.086L111.9 22.0574C110.775 22.6289 109.763 24.1146 109.763 26.4384C109.763 28.8384 110.888 29.9812 112.012 29.9812C115.048 29.9812 112.911 18.7432 119.021 18.7432C122.394 18.7432 123.78 21.7146 123.78 25.6384C123.78 30.705 121.082 32.7622 120.295 33.4479L118.721 30.9336C119.508 30.2479 121.082 28.5336 121.082 25.6384C121.082 23.5812 120.52 21.7527 119.058 21.7527C115.91 21.7527 117.934 32.9907 112.049 32.9907C109.501 32.9907 107.027 30.705 107.027 26.3241ZM106.69 26.3241C106.69 30.8955 109.351 33.2955 111.974 33.2955C115.61 33.2955 116.435 29.3336 117.072 26.1336C117.521 23.9241 117.896 22.0574 118.983 22.0574C120.595 22.0574 120.707 24.8003 120.707 25.6384C120.707 28.305 119.283 29.9431 118.458 30.6669L118.271 30.8574L118.421 31.086L119.995 33.6003L120.182 33.905L120.445 33.6765L120.557 33.5622C121.494 32.7622 124.043 30.5908 124.043 25.6384C124.043 21.067 122.206 18.4384 118.983 18.4384C115.16 18.4384 114.373 22.4765 113.736 25.7527C113.324 27.8479 112.986 29.6765 111.974 29.6765C111.037 29.6765 110.026 28.6479 110.026 26.4384C110.026 24.1527 111.037 22.8574 112.012 22.3622L112.237 22.2479L112.199 22.0193L111.637 19.0479L111.562 18.667L111.225 18.8194C109.014 19.6955 106.69 22.1336 106.69 26.3241Z" fill="#F8F8F8"/>
</g>
<g opacity="0.5">
<path opacity="0.5" d="M120.332 0.381304L123.256 0.381304L123.256 3.35272L120.332 3.35272L120.332 0.381304ZM120.032 0.0384476L120.032 0.343208L120.032 3.31462L120.032 3.61938L120.332 3.61938L123.256 3.61938L123.556 3.61938L123.556 3.31462L123.556 0.343208L123.556 0.0384475L123.256 0.0384475L120.332 0.0384476L120.032 0.0384476Z" fill="#F8F8F8"/>
</g>
<g opacity="0.5">
<path opacity="0.5" d="M107.439 0.609774L117.559 7.61929L121.869 10.5907L123.293 11.5812L123.293 15.0478L117.221 10.8193L107.477 17.6002L107.477 14.1717L114.71 9.14309L107.477 4.07643L107.477 0.609774L107.439 0.609774ZM107.139 0.00025177L107.139 0.609774L107.139 4.03834L107.139 4.19072L107.289 4.26691L114.148 9.0669L107.289 13.8288L107.139 13.905L107.139 14.0574L107.139 17.4859L107.139 18.0955L107.627 17.7526L117.184 11.0859L123.106 15.2002L123.593 15.5431L123.593 14.9336L123.593 11.4669L123.593 11.3145L123.443 11.2383L122.019 10.2479L117.709 7.27643L107.589 0.266916L107.139 0.00025177Z" fill="#F8F8F8"/>
</g>
</g>
</g>
<g opacity="0.7">
<g opacity="0.3">
<g opacity="0.5">
<path opacity="0.5" d="M128.83 53.9048L131.528 53.9048L131.528 64.6857L134.114 64.6857L134.114 56.5334L136.813 56.5334L136.813 64.6857L141.91 64.6857L141.91 53.9048L144.609 53.9048L144.609 67.6952L128.83 67.6952L128.83 53.9048ZM128.493 53.6L128.493 53.9048L128.493 67.6952L128.493 68L128.83 68L144.646 68L144.946 68L144.946 67.6952L144.946 53.9048L144.946 53.6L144.646 53.6L141.948 53.6L141.648 53.6L141.648 53.9048L141.648 64.381L137.188 64.381L137.188 56.5334L137.188 56.2286L136.888 56.2286L134.189 56.2286L133.89 56.2286L133.89 56.5334L133.89 64.381L131.828 64.381L131.828 53.9048L131.828 53.6L131.528 53.6L128.83 53.6L128.493 53.6Z" fill="#F8F8F8"/>
</g>
<g opacity="0.5">
<path opacity="0.5" d="M128.83 39.8856L144.646 34.3618L144.646 37.4856L139.661 39.1999L141.123 47.9236L144.609 49.1808L144.609 52.3046L128.83 46.7808L128.83 39.8856ZM138.312 47.0094L137.188 40.1141L131.528 42.057L131.528 44.6094L138.312 47.0094ZM128.493 39.657L128.493 39.8856L128.493 46.7808L128.493 47.0094L128.717 47.0856L144.534 52.6093L144.946 52.7236L144.946 52.2665L144.946 49.1808L144.946 48.9522L144.759 48.876L141.423 47.657L140.036 39.3903L144.759 37.7522L144.983 37.676L144.983 37.4475L144.983 34.3618L144.983 33.9046L144.534 34.0951L128.717 39.6189L128.493 39.657ZM131.828 44.3808L131.828 42.2856L136.925 40.5332L137.9 46.5522L131.828 44.3808Z" fill="#F8F8F8"/>
</g>
<g opacity="0.5">
<path opacity="0.5" d="M128.38 26.3241C128.38 22.4384 130.404 20.0003 132.69 19.086L133.252 22.0574C132.128 22.6289 131.116 24.1146 131.116 26.4384C131.116 28.8384 132.241 29.9812 133.365 29.9812C136.401 29.9812 134.264 18.7432 140.374 18.7432C143.747 18.7432 145.133 21.7146 145.133 25.6384C145.133 30.705 142.435 32.7622 141.648 33.4479L140.074 30.9336C140.861 30.2479 142.435 28.5336 142.435 25.6384C142.435 23.5812 141.873 21.7527 140.411 21.7527C137.263 21.7527 139.287 32.9907 133.402 32.9907C130.854 32.9907 128.38 30.705 128.38 26.3241ZM128.043 26.3241C128.043 30.8955 130.704 33.2955 133.327 33.2955C136.963 33.2955 137.787 29.3336 138.425 26.1336C138.874 23.9241 139.249 22.0574 140.336 22.0574C141.948 22.0574 142.06 24.8003 142.06 25.6384C142.06 28.305 140.636 29.9431 139.811 30.6669L139.624 30.8574L139.774 31.086L141.348 33.6003L141.535 33.905L141.798 33.6765L141.91 33.5622C142.847 32.7622 145.396 30.5908 145.396 25.6384C145.396 21.067 143.559 18.4384 140.336 18.4384C136.513 18.4384 135.726 22.4765 135.089 25.7527C134.677 27.8479 134.339 29.6765 133.327 29.6765C132.39 29.6765 131.379 28.6479 131.379 26.4384C131.379 24.1527 132.39 22.8574 133.365 22.3622L133.59 22.2479L133.552 22.0193L132.99 19.0479L132.915 18.667L132.578 18.8194C130.367 19.6955 128.043 22.1336 128.043 26.3241Z" fill="#F8F8F8"/>
</g>
<g opacity="0.5">
<path opacity="0.5" d="M141.685 0.38106L144.609 0.38106L144.609 3.35248L141.685 3.35248L141.685 0.38106ZM141.385 0.0382035L141.385 0.342964L141.385 3.31438L141.385 3.61914L141.685 3.61914L144.609 3.61914L144.908 3.61914L144.908 3.31438L144.908 0.342964L144.908 0.0382033L144.609 0.0382033L141.685 0.0382035L141.385 0.0382035Z" fill="#F8F8F8"/>
</g>
<g opacity="0.5">
<path opacity="0.5" d="M128.792 0.609774L138.912 7.61929L143.222 10.5907L144.646 11.5812L144.646 15.0478L138.575 10.8193L128.83 17.6002L128.83 14.1717L136.063 9.14309L128.83 4.07643L128.83 0.609774L128.792 0.609774ZM128.493 0.00025177L128.493 0.609774L128.493 4.03834L128.493 4.19072L128.642 4.26691L135.501 9.0669L128.642 13.8288L128.493 13.905L128.493 14.0574L128.493 17.4859L128.493 18.0955L128.98 17.7526L138.537 11.0859L144.459 15.2002L144.946 15.5431L144.946 14.9336L144.946 11.4669L144.946 11.3145L144.796 11.2383L143.372 10.2479L139.062 7.27643L128.942 0.266916L128.493 0.00025177Z" fill="#F8F8F8"/>
</g>
</g>
</g>
<g opacity="0.7">
<g opacity="0.3">
<g opacity="0.5">
<path opacity="0.5" d="M150.183 53.9048L152.881 53.9048L152.881 64.6857L155.467 64.6857L155.467 56.5334L158.166 56.5334L158.166 64.6857L163.263 64.6857L163.263 53.9048L165.962 53.9048L165.962 67.6952L150.183 67.6952L150.183 53.9048ZM149.846 53.6L149.846 53.9048L149.846 67.6952L149.846 68L150.183 68L165.999 68L166.299 68L166.299 67.6952L166.299 53.9048L166.299 53.6L165.999 53.6L163.301 53.6L163.001 53.6L163.001 53.9048L163.001 64.381L158.541 64.381L158.541 56.5334L158.541 56.2286L158.241 56.2286L155.542 56.2286L155.243 56.2286L155.243 56.5334L155.243 64.381L153.181 64.381L153.181 53.9048L153.181 53.6L152.881 53.6L150.183 53.6L149.846 53.6Z" fill="#F8F8F8"/>
</g>
<g opacity="0.5">
<path opacity="0.5" d="M150.183 39.8856L165.999 34.3618L165.999 37.4856L161.014 39.1999L162.476 47.9236L165.962 49.1808L165.962 52.3046L150.183 46.7808L150.183 39.8856ZM159.665 47.0094L158.541 40.1141L152.881 42.057L152.881 44.6094L159.665 47.0094ZM149.846 39.657L149.846 39.8856L149.846 46.7808L149.846 47.0094L150.07 47.0856L165.887 52.6093L166.299 52.7236L166.299 52.2665L166.299 49.1808L166.299 48.9522L166.112 48.876L162.776 47.657L161.389 39.3903L166.112 37.7522L166.337 37.676L166.337 37.4475L166.337 34.3618L166.337 33.9046L165.887 34.0951L150.07 39.6189L149.846 39.657ZM153.181 44.3808L153.181 42.2856L158.278 40.5332L159.253 46.5522L153.181 44.3808Z" fill="#F8F8F8"/>
</g>
<g opacity="0.5">
<path opacity="0.5" d="M149.733 26.3241C149.733 22.4384 151.757 20.0003 154.043 19.086L154.605 22.0574C153.481 22.6289 152.469 24.1146 152.469 26.4384C152.469 28.8384 153.593 29.9812 154.718 29.9812C157.754 29.9812 155.617 18.7432 161.726 18.7432C165.1 18.7432 166.486 21.7146 166.486 25.6384C166.486 30.705 163.788 32.7622 163.001 33.4479L161.427 30.9336C162.214 30.2479 163.788 28.5336 163.788 25.6384C163.788 23.5812 163.226 21.7527 161.764 21.7527C158.616 21.7527 160.64 32.9907 154.755 32.9907C152.207 32.9907 149.733 30.705 149.733 26.3241ZM149.396 26.3241C149.396 30.8955 152.057 33.2955 154.68 33.2955C158.316 33.2955 159.14 29.3336 159.778 26.1336C160.227 23.9241 160.602 22.0574 161.689 22.0574C163.301 22.0574 163.413 24.8003 163.413 25.6384C163.413 28.305 161.989 29.9431 161.164 30.6669L160.977 30.8574L161.127 31.086L162.701 33.6003L162.888 33.905L163.151 33.6765L163.263 33.5622C164.2 32.7622 166.749 30.5908 166.749 25.6384C166.749 21.067 164.912 18.4384 161.689 18.4384C157.866 18.4384 157.079 22.4765 156.442 25.7527C156.03 27.8479 155.692 29.6765 154.68 29.6765C153.743 29.6765 152.731 28.6479 152.731 26.4384C152.731 24.1527 153.743 22.8574 154.718 22.3622L154.943 22.2479L154.905 22.0193L154.343 19.0479L154.268 18.667L153.931 18.8194C151.719 19.6955 149.396 22.1336 149.396 26.3241Z" fill="#F8F8F8"/>
</g>
<g opacity="0.5">
<path opacity="0.5" d="M163.038 0.381304L165.961 0.381304L165.961 3.35272L163.038 3.35272L163.038 0.381304ZM162.738 0.0384476L162.738 0.343208L162.738 3.31462L162.738 3.61938L163.038 3.61938L165.961 3.61938L166.261 3.61938L166.261 3.31462L166.261 0.343208L166.261 0.0384475L165.961 0.0384475L163.038 0.0384476L162.738 0.0384476Z" fill="#F8F8F8"/>
</g>
<g opacity="0.5">
<path opacity="0.5" d="M150.145 0.609774L160.265 7.61929L164.575 10.5907L165.999 11.5812L165.999 15.0478L159.927 10.8193L150.183 17.6002L150.183 14.1717L157.416 9.14309L150.183 4.07643L150.183 0.609774L150.145 0.609774ZM149.846 0.00025177L149.846 0.609774L149.846 4.03834L149.846 4.19072L149.995 4.26691L156.854 9.0669L149.995 13.8288L149.846 13.905L149.846 14.0574L149.846 17.4859L149.846 18.0955L150.333 17.7526L159.89 11.0859L165.812 15.2002L166.299 15.5431L166.299 14.9336L166.299 11.4669L166.299 11.3145L166.149 11.2383L164.725 10.2479L160.415 7.27643L150.295 0.266916L149.846 0.00025177Z" fill="#F8F8F8"/>
</g>
</g>
</g>
<g opacity="0.7">
<g opacity="0.3">
<g opacity="0.5">
<path opacity="0.5" d="M171.536 53.9048L174.235 53.9048L174.235 64.6857L176.821 64.6857L176.821 56.5334L179.519 56.5334L179.519 64.6857L184.616 64.6857L184.616 53.9048L187.315 53.9048L187.315 67.6952L171.536 67.6952L171.536 53.9048ZM171.199 53.6L171.199 53.9048L171.199 67.6952L171.199 68L171.536 68L187.352 68L187.652 68L187.652 67.6952L187.652 53.9048L187.652 53.6L187.352 53.6L184.654 53.6L184.354 53.6L184.354 53.9048L184.354 64.381L179.894 64.381L179.894 56.5334L179.894 56.2286L179.594 56.2286L176.896 56.2286L176.596 56.2286L176.596 56.5334L176.596 64.381L174.534 64.381L174.534 53.9048L174.534 53.6L174.235 53.6L171.536 53.6L171.199 53.6Z" fill="#F8F8F8"/>
</g>
<g opacity="0.5">
<path opacity="0.5" d="M171.536 39.8856L187.352 34.3618L187.352 37.4856L182.368 39.1999L183.829 47.9236L187.315 49.1808L187.315 52.3046L171.536 46.7808L171.536 39.8856ZM181.018 47.0094L179.894 40.1141L174.235 42.057L174.235 44.6094L181.018 47.0094ZM171.199 39.657L171.199 39.8856L171.199 46.7808L171.199 47.0094L171.424 47.0856L187.24 52.6093L187.652 52.7236L187.652 52.2665L187.652 49.1808L187.652 48.9522L187.465 48.876L184.129 47.657L182.742 39.3903L187.465 37.7522L187.69 37.676L187.69 37.4475L187.69 34.3618L187.69 33.9046L187.24 34.0951L171.424 39.6189L171.199 39.657ZM174.534 44.3808L174.534 42.2856L179.632 40.5332L180.606 46.5522L174.534 44.3808Z" fill="#F8F8F8"/>
</g>
<g opacity="0.5">
<path opacity="0.5" d="M171.086 26.3241C171.086 22.4384 173.11 20.0003 175.396 19.086L175.958 22.0574C174.834 22.6289 173.822 24.1146 173.822 26.4384C173.822 28.8384 174.946 29.9812 176.071 29.9812C179.107 29.9812 176.97 18.7432 183.08 18.7432C186.453 18.7432 187.839 21.7146 187.839 25.6384C187.839 30.705 185.141 32.7622 184.354 33.4479L182.78 30.9336C183.567 30.2479 185.141 28.5336 185.141 25.6384C185.141 23.5812 184.579 21.7527 183.117 21.7527C179.969 21.7527 181.993 32.9907 176.108 32.9907C173.56 32.9907 171.086 30.705 171.086 26.3241ZM170.749 26.3241C170.749 30.8955 173.41 33.2955 176.033 33.2955C179.669 33.2955 180.493 29.3336 181.131 26.1336C181.58 23.9241 181.955 22.0574 183.042 22.0574C184.654 22.0574 184.766 24.8003 184.766 25.6384C184.766 28.305 183.342 29.9431 182.517 30.6669L182.33 30.8574L182.48 31.086L184.054 33.6003L184.241 33.905L184.504 33.6765L184.616 33.5622C185.553 32.7622 188.102 30.5908 188.102 25.6384C188.102 21.067 186.265 18.4384 183.042 18.4384C179.219 18.4384 178.432 22.4765 177.795 25.7527C177.383 27.8479 177.045 29.6765 176.033 29.6765C175.096 29.6765 174.084 28.6479 174.084 26.4384C174.084 24.1527 175.096 22.8574 176.071 22.3622L176.296 22.2479L176.258 22.0193L175.696 19.0479L175.621 18.667L175.284 18.8194C173.073 19.6955 170.749 22.1336 170.749 26.3241Z" fill="#F8F8F8"/>
</g>
<g opacity="0.5">
<path opacity="0.5" d="M184.391 0.381304L187.315 0.381304L187.315 3.35272L184.391 3.35272L184.391 0.381304ZM184.092 0.0384476L184.092 0.343208L184.092 3.31462L184.092 3.61938L184.391 3.61938L187.315 3.61938L187.615 3.61938L187.615 3.31462L187.615 0.343208L187.615 0.0384475L187.315 0.0384475L184.391 0.0384476L184.092 0.0384476Z" fill="#F8F8F8"/>
</g>
<g opacity="0.5">
<path opacity="0.5" d="M171.499 0.609774L181.618 7.61929L185.928 10.5907L187.352 11.5812L187.352 15.0478L181.281 10.8193L171.536 17.6002L171.536 14.1717L178.77 9.14309L171.536 4.07643L171.536 0.609774L171.499 0.609774ZM171.199 0.00025177L171.199 0.609774L171.199 4.03834L171.199 4.19072L171.349 4.26691L178.207 9.0669L171.349 13.8288L171.199 13.905L171.199 14.0574L171.199 17.4859L171.199 18.0955L171.686 17.7526L181.243 11.0859L187.165 15.2002L187.652 15.5431L187.652 14.9336L187.652 11.4669L187.652 11.3145L187.502 11.2383L186.078 10.2479L181.768 7.27643L171.648 0.266916L171.199 0.00025177Z" fill="#F8F8F8"/>
</g>
</g>
</g>
</svg>
