<svg width="137" height="41" viewBox="0 0 137 41" fill="none" xmlns="http://www.w3.org/2000/svg">
<path d="M132.176 25.7212H126.51C124.1 25.7212 122.141 27.6802 122.141 30.0906V35.7564C122.141 38.1668 124.1 40.1258 126.51 40.1258H132.176C134.586 40.1258 136.545 38.1668 136.545 35.7564V30.0906C136.545 27.6802 134.586 25.7212 132.176 25.7212Z" fill="#F8F8F8"/>
<path d="M135.613 3.1897C134.856 1.75506 133.37 0.859325 131.753 0.859325H125.214C123.772 0.859325 122.432 1.56572 121.616 2.75275L115.63 11.4625L109.659 2.76732C108.843 1.58028 107.496 0.866607 106.054 0.866607H99.5142C97.8902 0.866607 96.4046 1.76234 95.6473 3.19698C95.5089 3.45915 95.4069 3.73588 95.3268 4.01261C92.3046 1.66039 88.1901 0 82.8812 0C71.71 0 65.8695 7.02025 65.8695 13.9604C65.8695 18.643 68.1052 21.6142 71.1201 23.5805L68.6004 25.1826L61.267 3.82327C60.6625 2.06092 59.0021 0.87389 57.1378 0.87389H44.0586C42.1943 0.87389 40.5339 2.06092 39.9222 3.82327L32.1591 26.4716C31.6567 26.2677 31.1032 26.1512 30.5279 26.1512H14.4046V25.0806H25.5103C27.9208 25.0806 29.8798 23.1217 29.8798 20.7112V15.4824C29.8798 15.2639 29.8652 15.0528 29.8361 14.8416H30.5279C32.9384 14.8416 34.8973 12.8826 34.8973 10.4721V5.24334C34.8973 2.83286 32.9384 0.87389 30.5279 0.87389H4.36945C1.95897 0.87389 0 2.83286 0 5.24334V35.7567C0 38.1671 1.95897 40.1261 4.36945 40.1261H30.5279C31.0668 40.1261 31.5838 40.0242 32.0572 39.8421C32.5451 40.0242 33.0622 40.1261 33.5938 40.1261H39.478C41.3277 40.1261 42.9808 38.9609 43.5925 37.2204L45.1291 32.8801L55.4993 31.1032L57.5675 37.1694C58.1719 38.9391 59.8323 40.1261 61.7039 40.1261H67.5881C69.0009 40.1261 70.3263 39.4416 71.1419 38.2982C71.2876 38.087 71.4114 37.8686 71.5206 37.6428C74.4117 39.4416 78.5117 41 84.1702 41C88.9401 41 92.8581 40.0606 95.8148 38.2036C99.5579 35.8513 101.619 32.0426 101.619 27.4766C101.619 24.3888 100.585 20.1941 95.8148 17.252L97.4242 16.9462C98.7059 16.6986 99.8055 15.8975 100.432 14.7542C100.476 14.6741 100.512 14.594 100.548 14.5139L107.066 24.032L100.723 33.3025C99.8055 34.6425 99.7108 36.3757 100.461 37.8103C101.218 39.2449 102.704 40.1407 104.328 40.1407H110.904C112.353 40.1407 113.7 39.427 114.516 38.2254L116.373 35.5018L122.039 27.229L135.351 7.7048C136.276 6.35755 136.371 4.62433 135.613 3.1897Z" fill="#F8F8F8"/>
<path d="M4.36945 35.7565H30.5279V30.5277H10.0352V20.7183H25.5176V15.4822H10.0352V10.4719H30.5279V5.24316H4.36945V35.7565Z" fill="url(#paint0_linear)"/>
<path d="M44.0586 5.24316L33.6011 35.7565H39.4853L41.8812 28.9984L58.4487 26.1655L61.7185 35.7565H67.6027L57.1379 5.24316H44.0586ZM43.6217 23.5512L48.2023 10.4719H53.0014L56.7082 21.3664L43.6217 23.5512Z" fill="url(#paint1_linear)"/>
<path d="M75.9046 13.9601C75.9046 11.7826 78.0821 9.59792 82.6627 9.59792C87.0249 9.59792 89.8577 11.5642 90.9501 13.7416L96.6158 12.6492C94.868 8.29436 90.2874 4.36914 82.8812 4.36914C74.5938 4.36914 70.2389 9.16825 70.2389 13.9601C70.2389 25.2915 91.5982 21.3736 91.5982 27.4762C91.5982 30.3091 88.1099 31.4015 84.1847 31.4015C78.7375 31.4015 75.4677 28.3501 74.1568 26.8208L69.3577 29.8722C70.6686 31.4015 74.5865 36.6302 84.1847 36.6302C91.5982 36.6302 97.2639 34.0159 97.2639 27.4762C97.2639 15.7006 75.9046 19.8443 75.9046 13.9601Z" fill="url(#paint2_linear)"/>
<path d="M132.169 30.0903H126.503V35.7561H132.169V30.0903Z" fill="url(#paint3_linear)"/>
<path d="M125.207 5.23584L115.608 19.1889L106.054 5.23584H99.507L112.375 24.0245L104.342 35.7637H110.918L112.776 33.0401L118.449 24.7527L131.753 5.23584H125.207Z" fill="url(#paint4_linear)"/>
<defs>
<linearGradient id="paint0_linear" x1="-8.95569" y1="10.5087" x2="128.112" y2="62.3722" gradientUnits="userSpaceOnUse">
<stop stop-color="#EFBD4C"/>
<stop offset="1" stop-color="#1492A1"/>
</linearGradient>
<linearGradient id="paint1_linear" x1="-5.45911" y1="1.26769" x2="131.609" y2="53.1312" gradientUnits="userSpaceOnUse">
<stop stop-color="#EFBD4C"/>
<stop offset="1" stop-color="#1492A1"/>
</linearGradient>
<linearGradient id="paint2_linear" x1="-0.72533" y1="-11.243" x2="136.342" y2="40.6204" gradientUnits="userSpaceOnUse">
<stop stop-color="#EFBD4C"/>
<stop offset="1" stop-color="#1492A1"/>
</linearGradient>
<linearGradient id="paint3_linear" x1="0.944718" y1="-15.6571" x2="138.012" y2="36.2064" gradientUnits="userSpaceOnUse">
<stop stop-color="#EFBD4C"/>
<stop offset="1" stop-color="#1492A1"/>
</linearGradient>
<linearGradient id="paint4_linear" x1="3.64313" y1="-22.7882" x2="140.711" y2="29.0752" gradientUnits="userSpaceOnUse">
<stop stop-color="#EFBD4C"/>
<stop offset="1" stop-color="#1492A1"/>
</linearGradient>
</defs>
</svg>
