<svg width="160" height="30" viewBox="0 0 160 30" fill="none" xmlns="http://www.w3.org/2000/svg">
<path d="M122.936 16.8587H109.423C108.57 16.8587 107.872 16.1703 107.872 15.3289V1.98881C107.872 1.14741 108.57 0.458984 109.423 0.458984H122.936C123.789 0.458984 124.488 1.14741 124.488 1.98881V15.3136C124.488 16.1703 123.789 16.8587 122.936 16.8587Z" fill="#F8F8F8"/>
<path d="M114.636 0.458984V11.4737H117.708V0.458984H114.636ZM114.636 13.8144V16.8587H117.708V13.8144H114.636Z" fill="#181818"/>
<path d="M72.2971 16.8587V0.474274H88.1994V7.72566C88.1994 13.1106 86.772 16.8587 80.1319 16.8587H72.2971ZM85.112 7.72566V3.27386H75.3845V14.0438H80.1319C84.2897 14.0438 85.112 12.2845 85.112 7.72566Z" fill="#181818"/>
<path d="M91.054 0.474274H106.491V5.85927C106.491 8.03162 105.094 9.86741 102.674 10.6323L106.491 16.8587H102.922L99.3852 11.1219L94.1413 11.5961V16.8587H91.054V0.474274ZM100.673 8.1999C101.976 8.07752 103.403 7.49618 103.403 5.73688V3.27386H94.1413V8.78124L100.673 8.1999Z" fill="#181818"/>
<path d="M125.093 0.474274H128.304L133.176 13.8144H135.549L140.421 0.474274H143.632L137.69 16.8587H131.05L125.093 0.474274Z" fill="#181818"/>
<path d="M145.758 0.474274H160V3.28916H148.845V5.96635H157.27V8.78124H148.845V14.0438H160V16.8587H145.758V0.474274Z" fill="#181818"/>
<path d="M0.325806 0.474274H14.568V3.28916H3.41317V5.96635H11.8375V8.78124H3.41317V14.0438H14.568V16.8587H0.325806V0.474274Z" fill="#181818"/>
<path d="M21.9373 0.474274H29.0584L34.7522 16.8587H31.5407L29.7566 11.7032L20.7272 13.2177L19.424 16.8434H16.2125L21.9373 0.474274ZM28.8257 9.1331L26.8089 3.27386H24.2024L21.7046 10.2958L28.8257 9.1331Z" fill="#181818"/>
<path d="M35.7141 13.692L38.3205 12.055C39.0342 12.8811 40.8183 14.5181 43.7816 14.5181C45.9226 14.5181 47.8153 13.9367 47.8153 12.4069C47.8153 9.13307 36.1795 11.2289 36.1795 5.15552C36.1795 2.58541 38.5532 0 43.0679 0C47.1017 0 49.5995 2.11116 50.5459 4.4518L47.474 5.03313C46.8845 3.85517 45.333 2.81488 42.9593 2.81488C40.4615 2.81488 39.2824 3.99285 39.2824 5.15552C39.2824 8.32226 50.9182 6.08871 50.9182 12.4069C50.9182 15.9255 47.8309 17.3176 43.7971 17.3176C38.5688 17.3176 36.4278 14.5181 35.7141 13.692Z" fill="#181818"/>
<path d="M66.8361 13.8144H69.9234V16.8587H66.8361V13.8144Z" fill="#181818"/>
<path d="M66.1224 0.458984L60.8941 7.95514L55.6967 0.458984H52.1284L59.1409 10.5558L54.7659 16.8587H58.3497L59.3581 15.3901L62.4455 10.9383L69.6907 0.458984H66.1224Z" fill="#181818"/>
<path d="M55.3865 28.6536H56.5811L57.6826 23.0391H61.887V29.8162H60.6148V24.2018H58.8617L57.7602 29.8162H55.3865V28.6536Z" fill="#181818"/>
<path d="M2.35819 23.0391H5.30592L7.66411 29.8162H6.34539L5.6007 27.6898L1.86173 28.317L1.31872 29.8162H0L2.35819 23.0391ZM5.21284 26.6189L4.37506 24.2018H3.28905L2.24959 27.1084L5.21284 26.6189Z" fill="#181818"/>
<path d="M8.36219 23.0391H12.1477C13.3268 23.0391 14.2577 23.5287 14.2577 24.7831C14.2577 25.6092 13.7612 26.0376 13.7612 26.0376C13.7612 26.0376 14.7386 26.4812 14.7386 27.6898C14.7386 28.8984 13.9629 29.8162 12.3804 29.8162H8.34668V23.0391H8.36219ZM12.5821 25.701C12.5821 25.701 12.97 25.3644 12.97 24.8749C12.97 24.4313 12.6752 24.1406 11.9926 24.1406H9.63437V25.395L12.5821 25.701ZM12.3339 28.6536C12.8769 28.6536 13.4664 28.4547 13.4664 27.7357C13.4664 27.0014 13.032 26.8178 12.3339 26.7719L9.63437 26.5271V28.6536H12.3339Z" fill="#181818"/>
<path d="M17.7019 24.2018H15.2351V23.0391H21.4254V24.2018H18.9741V29.8162H17.7019V24.2018Z" fill="#181818"/>
<path d="M21.7202 26.4201C21.7202 24.5843 23.0545 22.8403 25.5057 22.8403C27.957 22.8403 29.2912 24.5843 29.2912 26.4201C29.2912 28.2559 27.957 29.9999 25.5057 29.9999C23.0545 30.0152 21.7202 28.2712 21.7202 26.4201ZM28.0191 26.4201C28.0191 25.0586 26.9796 24.003 25.5057 24.003C24.0319 24.003 22.9924 25.0739 22.9924 26.4201C22.9924 27.7816 24.0319 28.8372 25.5057 28.8372C26.9796 28.8525 28.0191 27.7816 28.0191 26.4201Z" fill="#181818"/>
<path d="M30.1756 23.0391H31.4477V28.6536H34.4886V23.0391H35.7607V28.6536H38.8016V23.0391H40.0737V29.8162H30.1445V23.0391H30.1756Z" fill="#181818"/>
<path d="M41.2838 23.0392H42.556V26.1754L45.9537 23.0239H47.6757L44.6815 25.8388L47.5827 29.8164H46.1088L43.7971 26.6649L42.5715 27.8276V29.8164H41.2993V23.0392H41.2838Z" fill="#181818"/>
<path d="M47.381 26.4201C47.381 24.5843 48.7152 22.8403 51.1665 22.8403C53.6178 22.8403 54.952 24.5843 54.952 26.4201C54.952 28.2559 53.6178 29.9999 51.1665 29.9999C48.7152 30.0152 47.381 28.2712 47.381 26.4201ZM53.6798 26.4201C53.6798 25.0586 52.6404 24.003 51.1665 24.003C49.6926 24.003 48.6532 25.0739 48.6532 26.4201C48.6532 27.7816 49.6926 28.8372 51.1665 28.8372C52.6404 28.8525 53.6798 27.7816 53.6798 26.4201Z" fill="#181818"/>
<path d="M64.9123 23.0391H67.86L70.2182 29.8162H68.884L68.1393 27.6898L64.4003 28.317L63.8573 29.8162H62.5231L64.9123 23.0391ZM67.7669 26.6189L66.9292 24.2018H65.8432L64.8037 27.1084L67.7669 26.6189Z" fill="#181818"/>
</svg>
