<svg width="44" height="42" viewBox="0 0 44 42" fill="none" xmlns="http://www.w3.org/2000/svg">
<path d="M42.0392 0H1.88235C0.862745 0 0 0.870057 0 1.89831V31.7966C0 32.8249 0.862745 33.6949 1.88235 33.6949H26.1176C28.3137 36.7006 33.4902 41.5254 40.2353 41.9209L41.4118 42L40.7843 41.0508C40.7843 41.0508 38.1961 37.6497 38.0392 33.6949H42.1176C43.1373 33.6949 44 32.8249 44 31.7966V1.89831C44 0.870057 43.1373 0 42.0392 0ZM42.8235 31.7966C42.8235 32.2712 42.4314 32.5876 42.0392 32.5876H36.8627V33.1412C36.8627 36.3842 38.3529 39.2316 39.2157 40.7345C33.2549 39.9435 28.7059 35.5141 26.902 32.904L26.7451 32.5876H1.88235C1.41176 32.5876 1.09804 32.1921 1.09804 31.7966V1.89831C1.09804 1.42373 1.4902 1.10734 1.88235 1.10734H42.0392C42.5098 1.10734 42.8235 1.50282 42.8235 1.89831V31.7966Z" fill="#F4C245"/>
<path d="M25.8039 14.1584C26.1176 14.1584 26.3529 13.9211 26.3529 13.6047C26.3529 13.2883 26.1176 13.051 25.8039 13.051H8.70585C8.39212 13.051 8.15683 13.2883 8.15683 13.6047C8.15683 13.9211 8.39212 14.1584 8.70585 14.1584H25.8039Z" fill="#F4C245"/>
<path d="M8.70585 17.2434C8.39212 17.2434 8.15683 17.4807 8.15683 17.7971C8.15683 18.1135 8.39212 18.3508 8.70585 18.3508H34.7451C35.0588 18.3508 35.2941 18.1135 35.2941 17.7971C35.2941 17.4807 34.9804 17.2434 34.6666 17.2434H8.70585Z" fill="#F4C245"/>
</svg>
