<svg width="81" height="81" viewBox="0 0 81 81" fill="none" xmlns="http://www.w3.org/2000/svg">
<path d="M76.0504 22.56C69.4104 8.86 55.2504 0 39.9804 0C33.9104 0 28.0604 1.35 22.5704 4.01C12.9704 8.66 5.75035 16.8 2.24035 26.91C-1.26965 37.02 -0.639647 47.88 4.02035 57.49C10.6604 71.2 24.8204 80.05 40.0904 80.05C46.1604 80.05 52.0104 78.7 57.5004 76.04C77.3504 66.41 85.6804 42.42 76.0504 22.56ZM35.8804 64.39C35.7704 64.37 35.6604 64.35 35.5504 64.33C35.6604 64.34 35.7704 64.37 35.8804 64.39ZM34.3004 64.06C34.1304 64.02 33.9704 63.98 33.8004 63.93C33.9704 63.97 34.1404 64.02 34.3004 64.06ZM32.7004 63.61C32.5404 63.56 32.3904 63.52 32.2304 63.46C32.3904 63.52 32.5404 63.56 32.7004 63.61ZM40.1204 30.62C39.9204 30.62 39.7204 30.63 39.5204 30.64C39.6704 30.63 39.8304 30.61 39.9804 30.61C40.0304 30.61 40.0704 30.62 40.1204 30.62ZM39.0704 30.66C38.8604 30.68 38.6504 30.72 38.4304 30.75C38.6504 30.72 38.8604 30.68 39.0704 30.66ZM38.0104 30.82C37.7804 30.87 37.5404 30.94 37.3104 31.01C37.5404 30.95 37.7804 30.88 38.0104 30.82ZM36.9604 31.12C36.6104 31.24 36.2704 31.38 35.9304 31.54C36.2704 31.38 36.6104 31.24 36.9604 31.12ZM36.8304 48.84C37.6604 49.14 38.5204 49.32 39.4104 49.38C38.5304 49.32 37.6604 49.14 36.8304 48.84ZM40.7704 30.66C40.9304 30.67 41.0904 30.68 41.2404 30.7C41.0804 30.68 40.9304 30.67 40.7704 30.66ZM41.9104 30.82C42.0504 30.85 42.2004 30.87 42.3404 30.91C42.2004 30.88 42.0504 30.85 41.9104 30.82ZM43.0504 31.14C43.1704 31.18 43.2904 31.21 43.4004 31.26C43.2904 31.21 43.1704 31.18 43.0504 31.14ZM57.6004 10.9C57.7604 11 57.9204 11.1 58.0904 11.2C57.9204 11.1 57.7604 11 57.6004 10.9ZM59.7104 12.27C59.7504 12.3 59.8004 12.33 59.8504 12.36C59.8004 12.33 59.7504 12.31 59.7104 12.27ZM58.8704 24.03C58.7604 23.9 58.6504 23.77 58.5404 23.65C58.6504 23.77 58.7604 23.9 58.8704 24.03ZM57.3504 22.39C57.3004 22.34 57.2504 22.28 57.2004 22.23C57.2504 22.28 57.3004 22.34 57.3504 22.39ZM50.0704 17.44C50.1904 17.49 50.3104 17.55 50.4304 17.61C50.3104 17.55 50.1904 17.49 50.0704 17.44ZM51.8304 18.31C51.9604 18.38 52.0904 18.45 52.2304 18.52C52.1004 18.45 51.9604 18.39 51.8304 18.31ZM53.8204 19.51C53.9104 19.57 54.0004 19.64 54.0904 19.7C54.0004 19.64 53.9204 19.57 53.8204 19.51ZM55.3904 20.66C55.5204 20.76 55.6404 20.86 55.7704 20.96C55.6504 20.87 55.5204 20.77 55.3904 20.66ZM41.8004 15.36C41.9604 15.37 42.1204 15.39 42.2804 15.4C42.1204 15.39 41.9604 15.37 41.8004 15.36ZM43.8704 15.6C43.9804 15.62 44.0904 15.63 44.1904 15.65C44.0904 15.63 43.9804 15.62 43.8704 15.6ZM46.0304 16.04C46.1804 16.08 46.3204 16.12 46.4604 16.16C46.3204 16.12 46.1704 16.08 46.0304 16.04ZM47.9604 16.62C48.0904 16.66 48.2104 16.7 48.3404 16.75C48.2104 16.7 48.0804 16.66 47.9604 16.62ZM39.7304 15.29C39.7904 15.29 39.8504 15.29 39.9104 15.29C39.8504 15.29 39.7904 15.29 39.7304 15.29ZM33.3504 16.2C33.4504 16.17 33.5404 16.15 33.6404 16.12C33.5504 16.15 33.4504 16.17 33.3504 16.2ZM35.3404 15.74C35.4604 15.72 35.5804 15.69 35.6904 15.67C35.5704 15.69 35.4604 15.71 35.3404 15.74ZM37.5604 15.41C37.6904 15.4 37.8304 15.39 37.9604 15.38C37.8304 15.39 37.6904 15.4 37.5604 15.41ZM28.6304 7.97C28.8504 7.89 29.0804 7.82 29.3104 7.74C29.0804 7.82 28.8504 7.89 28.6304 7.97ZM30.3704 7.4C30.6104 7.33 30.8504 7.26 31.0904 7.2C30.8504 7.27 30.6104 7.33 30.3704 7.4ZM32.1404 6.93C32.3804 6.87 32.6304 6.82 32.8704 6.76C32.6204 6.82 32.3804 6.87 32.1404 6.93ZM33.9304 6.56C34.1704 6.52 34.4104 6.47 34.6404 6.43C34.4004 6.47 34.1604 6.51 33.9304 6.56ZM35.7504 6.28C35.9704 6.25 36.1904 6.22 36.4204 6.2C36.1904 6.22 35.9704 6.25 35.7504 6.28ZM37.6704 6.09C37.8404 6.08 38.0104 6.06 38.1804 6.05C38.0204 6.06 37.8404 6.08 37.6704 6.09ZM31.5104 16.8C31.3704 16.85 31.2404 16.9 31.1004 16.96C31.2304 16.91 31.3704 16.85 31.5104 16.8ZM30.8004 62.94C30.7804 62.93 30.7604 62.92 30.7304 62.92C30.7504 62.93 30.7804 62.93 30.8004 62.94ZM29.2704 62.26C29.1304 62.19 28.9904 62.12 28.8504 62.05C28.9904 62.12 29.1304 62.19 29.2704 62.26ZM27.8304 61.5C27.6804 61.41 27.5304 61.33 27.3804 61.24C27.5304 61.33 27.6804 61.42 27.8304 61.5ZM26.3304 60.58C26.2304 60.51 26.1204 60.44 26.0104 60.37C26.1104 60.44 26.2204 60.51 26.3304 60.58ZM24.7104 59.42C24.6204 59.35 24.5304 59.27 24.4304 59.19C24.5304 59.26 24.6204 59.34 24.7104 59.42ZM23.4704 58.36C23.3404 58.24 23.2104 58.12 23.0804 58C23.2104 58.12 23.3404 58.24 23.4704 58.36ZM22.2504 57.18C22.1304 57.06 22.0204 56.94 21.9004 56.82C22.0204 56.94 22.1404 57.06 22.2504 57.18ZM22.4604 69.14C22.3004 69.05 22.1504 68.95 21.9904 68.85C22.1504 68.95 22.3104 69.04 22.4604 69.14ZM39.0804 64.72C39.2604 64.73 39.4404 64.73 39.6204 64.73C39.4404 64.73 39.2604 64.73 39.0804 64.72ZM38.0004 73.97C37.8104 73.96 37.6204 73.94 37.4304 73.93C37.6204 73.95 37.8104 73.96 38.0004 73.97ZM35.6004 73.74C35.5104 73.73 35.4204 73.72 35.3204 73.71C35.4204 73.72 35.5104 73.73 35.6004 73.74ZM33.2704 73.35C33.1004 73.31 32.9204 73.27 32.7504 73.24C32.9304 73.27 33.1004 73.31 33.2704 73.35ZM31.1004 72.83C30.9504 72.79 30.8104 72.75 30.6604 72.71C30.8004 72.75 30.9504 72.79 31.1004 72.83ZM28.6804 72.08C28.5404 72.03 28.4104 71.98 28.2704 71.93C28.4104 71.97 28.5504 72.03 28.6804 72.08ZM26.6704 71.29C26.5104 71.22 26.3504 71.15 26.1904 71.08C26.3504 71.15 26.5104 71.22 26.6704 71.29ZM24.3104 70.18C24.2404 70.14 24.1804 70.11 24.1104 70.07C24.1704 70.1 24.2404 70.14 24.3104 70.18ZM37.4604 64.6C37.6004 64.61 37.7304 64.62 37.8704 64.63C37.7304 64.63 37.6004 64.62 37.4604 64.6ZM44.7704 64.29C44.5804 64.33 44.3904 64.35 44.2104 64.38C44.3904 64.35 44.5804 64.33 44.7704 64.29ZM43.0704 64.56C42.8504 64.59 42.6204 64.6 42.4004 64.63C42.6304 64.6 42.8504 64.59 43.0704 64.56ZM41.3704 64.71C41.1404 64.72 40.9004 64.73 40.6704 64.73C40.9004 64.72 41.1304 64.72 41.3704 64.71ZM47.9404 73.11C47.6904 73.17 47.4504 73.23 47.2004 73.28C47.4504 73.23 47.6904 73.17 47.9404 73.11ZM53.1704 71.4C52.9804 71.48 52.7904 71.55 52.6004 71.63C52.7904 71.55 52.9804 71.48 53.1704 71.4ZM51.4504 72.07C51.2204 72.15 50.9904 72.22 50.7704 72.3C50.9904 72.23 51.2204 72.15 51.4504 72.07ZM49.7004 72.64C49.4604 72.71 49.2104 72.78 48.9704 72.84C49.2204 72.78 49.4604 72.71 49.7004 72.64ZM69.6003 23.21C69.5004 23.04 69.4004 22.87 69.3004 22.7C69.4104 22.86 69.5104 23.03 69.6003 23.21ZM68.3103 21.11C68.2403 21.01 68.1804 20.9 68.1104 20.8C68.1804 20.91 68.2504 21.01 68.3103 21.11ZM66.8403 19.07C66.7303 18.93 66.6104 18.79 66.5004 18.65C66.6104 18.79 66.7303 18.93 66.8403 19.07ZM65.3803 17.33C65.2703 17.21 65.1604 17.08 65.0404 16.95C65.1504 17.07 65.2603 17.2 65.3803 17.33ZM63.5604 15.44C63.4604 15.34 63.3504 15.25 63.2504 15.16C63.3604 15.26 63.4604 15.35 63.5604 15.44ZM61.5104 13.64C61.6504 13.76 61.8004 13.88 61.9404 14C61.8004 13.88 61.6504 13.76 61.5104 13.64ZM40.1004 6C40.0504 6 40.0004 6 39.9604 6C39.9704 6 39.9804 6 39.9904 6C40.0204 6 40.0604 6 40.1004 6ZM55.9904 9.99C55.9104 9.95 55.8404 9.9 55.7604 9.86C55.8404 9.9 55.9104 9.95 55.9904 9.99ZM53.8804 8.97C53.7204 8.9 53.5504 8.83 53.3804 8.76C53.5504 8.82 53.7204 8.89 53.8804 8.97ZM51.8104 8.13C51.6704 8.08 51.5304 8.02 51.3904 7.97C51.5304 8.02 51.6604 8.07 51.8104 8.13ZM49.4204 7.34C49.2704 7.3 49.1204 7.26 48.9704 7.22C49.1204 7.26 49.2704 7.29 49.4204 7.34ZM47.3204 6.81C47.1404 6.77 46.9704 6.73 46.7904 6.7C46.9704 6.73 47.1504 6.77 47.3204 6.81ZM44.7504 6.34C44.6604 6.33 44.5604 6.32 44.4704 6.31C44.5604 6.32 44.6504 6.32 44.7504 6.34ZM42.6404 6.11C42.4504 6.1 42.2604 6.08 42.0704 6.07C42.2604 6.08 42.4504 6.1 42.6404 6.11ZM27.4704 8.41C27.2804 8.49 27.0904 8.56 26.9004 8.63C27.0904 8.56 27.2804 8.49 27.4704 8.41ZM13.4004 18.86C14.0804 18 14.8104 17.16 15.5804 16.37C14.8104 17.16 14.0804 18 13.4004 18.86C12.7204 19.72 12.0804 20.62 11.4804 21.54C12.0704 20.62 12.7104 19.72 13.4004 18.86ZM15.0304 63.09C14.9204 62.97 14.8104 62.85 14.7004 62.73C14.8104 62.84 14.9204 62.97 15.0304 63.09ZM13.5704 61.39C13.4604 61.25 13.3504 61.12 13.2404 60.98C13.3404 61.12 13.4604 61.25 13.5704 61.39ZM11.9604 59.24C11.8904 59.14 11.8304 59.04 11.7604 58.94C11.8304 59.04 11.8904 59.14 11.9604 59.24ZM10.7604 57.35C10.6604 57.18 10.5604 57.01 10.4604 56.84C10.5604 57.01 10.6604 57.18 10.7604 57.35ZM8.48035 27.34C7.87035 28.86 7.37035 30.42 6.99035 32C7.37035 30.42 7.87035 28.86 8.48035 27.34ZM7.41035 49.68C6.65035 47.12 6.20035 44.51 6.06035 41.92C6.21035 44.51 6.65035 47.11 7.41035 49.68ZM6.17035 36.85C6.02035 38.47 5.98035 40.11 6.06035 41.75C5.97035 40.11 6.01035 38.47 6.17035 36.85ZM16.5104 64.6C16.6104 64.69 16.7104 64.78 16.8004 64.87C16.7104 64.78 16.6104 64.7 16.5104 64.6ZM20.3404 67.76C20.3004 67.73 20.2704 67.71 20.2304 67.69C20.2704 67.71 20.3004 67.73 20.3404 67.76ZM18.5504 66.4C18.4104 66.29 18.2704 66.17 18.1304 66.05C18.2804 66.17 18.4104 66.28 18.5504 66.4ZM39.9704 74.04C40.0204 74.04 40.0704 74.04 40.1204 74.04C40.1104 74.04 40.1004 74.04 40.0904 74.04C40.0504 74.04 40.0104 74.04 39.9704 74.04ZM46.1604 73.49C45.9204 73.53 45.6704 73.58 45.4304 73.62C45.6704 73.57 45.9104 73.53 46.1604 73.49ZM44.3304 73.77C44.1004 73.8 43.8804 73.83 43.6504 73.86C43.8804 73.83 44.1104 73.79 44.3304 73.77ZM42.4004 73.96C42.2304 73.97 42.0504 73.99 41.8804 74C42.0604 73.99 42.2304 73.97 42.4004 73.96Z" fill="#F8F8F8"/>
<path d="M25.1904 9.40989C8.31036 17.5899 1.23036 37.9799 9.42036 54.8599C17.6104 71.7399 38.0004 78.8199 54.8804 70.6399C71.7604 62.4599 78.8404 42.0599 70.6504 25.1799C62.4604 8.29989 42.0804 1.21989 25.1904 9.40989ZM29.2404 17.7599C40.2104 12.4399 53.1904 15.9999 60.0804 25.5599L44.4204 31.7199C41.8604 30.3699 38.7204 30.1899 35.9204 31.5499C33.1204 32.9099 31.3304 35.4699 30.8004 38.3099L16.2604 46.7999C13.0304 35.4599 18.2804 23.0699 29.2404 17.7599ZM20.8204 55.5799L34.5004 47.5999C35.9404 48.6499 37.6404 49.2699 39.4104 49.3899L46.4504 63.9099C37.0204 66.4399 26.9404 63.1299 20.8204 55.5799ZM54.8104 59.8599L47.7704 45.3399C48.7704 43.8799 49.3404 42.1699 49.4104 40.3899L64.1504 34.5899C66.2804 44.0599 62.6404 54.0299 54.8104 59.8599Z" fill="url(#paint0_linear)"/>
<defs>
<linearGradient id="paint0_linear" x1="6.01396" y1="40.0218" x2="74.0578" y2="40.0218" gradientUnits="userSpaceOnUse">
<stop stop-color="#EFBD4C"/>
<stop offset="1" stop-color="#1492A1"/>
</linearGradient>
</defs>
</svg>
