<svg width="77" height="77" viewBox="0 0 77 77" fill="none" xmlns="http://www.w3.org/2000/svg">
<mask id="mask0" mask-type="alpha" maskUnits="userSpaceOnUse" x="0" y="0" width="77" height="77">
<path d="M49.9873 1.40491H26.6773C24.281 1.40491 21.9572 2.34755 20.287 4.08778L3.80303 20.5474C2.13285 22.2151 1.11621 24.5354 1.11621 26.9282V50.2038C1.11621 52.5966 2.06023 54.9169 3.80303 56.5846L20.287 73.0443C21.9572 74.712 24.281 75.7271 26.6773 75.7271H49.9873C52.3837 75.7271 54.7074 74.7845 56.3776 73.0443L72.8616 56.5846C74.5318 54.9169 75.5484 52.5966 75.5484 50.2038V26.9282C75.5484 24.5354 74.6044 22.2151 72.8616 20.5474L56.3776 4.08778C54.7074 2.34755 52.4563 1.40491 49.9873 1.40491Z" stroke="#181818" stroke-width="2" stroke-miterlimit="10"/>
</mask>
<g mask="url(#mask0)">
<rect x="-8" y="-5" width="92" height="88" fill="#181818"/>
</g>
</svg>
