<svg width="83" height="218" viewBox="0 0 83 218" fill="none" xmlns="http://www.w3.org/2000/svg">
<path d="M92.4501 85.3536L92.4517 85.3525C97.0692 81.9511 99.0315 75.914 98.6453 68.8166C98.2676 61.8754 95.6455 53.838 90.9584 46.018C96.7515 44.339 102.812 43.4669 109.075 43.4669C115.699 43.4669 122.189 44.4774 128.217 46.3028C123.67 54.0163 121.153 61.9309 120.839 68.7663C120.517 75.7561 122.499 81.6998 127.078 85.0629C131.656 88.4251 137.895 88.5514 144.445 86.1907C150.85 83.8825 157.625 79.1761 163.627 72.631C170.146 82.2914 174.095 93.8798 174.563 106.295C165.653 104.393 157.185 104.517 150.485 106.412C143.635 108.349 138.549 112.167 136.846 117.647C135.142 123.091 137.133 129.101 141.619 134.6C146.008 139.978 152.832 144.937 161.154 148.532C153.528 158.487 143.154 166.261 131.079 170.554C130.174 161.579 127.502 153.65 123.697 147.911C119.807 142.043 114.68 138.397 109.002 138.397C103.324 138.397 98.1971 142.043 94.3072 147.911C90.5024 153.65 87.8311 161.578 86.9257 170.552C74.9217 166.263 64.5526 158.559 56.9283 148.611C65.3915 145.085 72.3222 140.144 76.7824 134.756C81.3419 129.249 83.3709 123.203 81.6678 117.722C79.9639 112.202 74.8211 108.366 67.8991 106.439C61.1265 104.553 52.5693 104.464 43.5866 106.436C44.0588 93.6668 48.2169 81.7909 55.0197 71.9122C61.0996 78.8156 68.0569 83.7907 74.6417 86.2698C81.3704 88.8031 87.7948 88.7549 92.4501 85.3536ZM0.794922 108.951C0.794922 49.1895 49.2962 0.75885 109.147 0.75885C168.999 0.75885 217.5 49.1895 217.5 108.951C217.5 168.712 168.999 217.142 109.147 217.142C49.2962 217.142 0.794922 168.712 0.794922 108.951ZM29.713 108.951C29.713 152.806 65.3022 188.268 109.147 188.268C152.993 188.268 188.582 152.806 188.582 108.951C188.582 65.0955 153.066 29.6327 109.147 29.6327C65.2293 29.6327 29.713 65.0955 29.713 108.951ZM88.6778 108.806C88.6778 120.104 97.8343 129.246 109.147 129.246C120.461 129.246 129.617 120.104 129.617 108.806C129.617 97.5072 120.461 88.3654 109.147 88.3654C97.8343 88.3654 88.6778 97.5072 88.6778 108.806Z" stroke="#181818"/>
</svg>
