<svg width="39" height="39" viewBox="0 0 39 39" fill="none" xmlns="http://www.w3.org/2000/svg">
<path d="M19.5595 39C18.5488 39 17.5381 38.5845 16.8247 37.8721L1.18902 22.2603C0.416159 21.4886 0 20.5388 0 19.4703C0 18.4612 0.416159 17.4521 1.12957 16.7397L16.7652 1.12785C17.4787 0.415523 18.4893 0 19.5 0C20.5107 0 21.5213 0.415523 22.2348 1.12785L37.8704 16.7397C38.5838 17.4521 39 18.4612 39 19.4703C39 20.4795 38.5838 21.4886 37.8704 22.2009L22.2348 37.8128C21.5808 38.5845 20.5701 39 19.5595 39ZM5.1128 19.4703L19.5595 33.895L34.0061 19.4703L19.5595 5.04566L5.1128 19.4703Z" fill="#181818"/>
</svg>
