<svg width="159" height="96" viewBox="0 0 159 96" fill="none" xmlns="http://www.w3.org/2000/svg">
<path d="M99.619 4.70382C83.3764 4.70382 68.6649 11.3759 58.014 22.1179L37.8439 1.90155C36.6124 0.667213 34.9482 0 33.1841 0C31.4201 0 29.7559 0.667213 28.5244 1.90155L1.93048 28.5565C0.69897 29.7908 0 31.4588 0 33.2269C0 34.995 0.69897 36.6631 1.93048 37.9307L28.5244 64.5523C29.7559 65.7867 31.4201 66.4872 33.1841 66.4872C34.9482 66.4872 36.6124 65.7867 37.8439 64.5523L41.139 61.2496C41.1057 61.9502 41.1057 62.6508 41.1057 63.3513C41.1057 75.0942 44.5673 86.0364 50.5584 95.2105H54.386C48.0288 86.2032 44.301 75.1943 44.301 63.3513C44.301 61.4832 44.4008 59.6483 44.6005 57.8135C44.6671 57.0796 44.8002 56.3457 44.9001 55.6117C45.2995 52.8095 45.8653 50.1073 46.6641 47.4718C47.1634 45.8372 47.6959 44.2025 48.3283 42.6346C50.0591 38.2977 52.3224 34.2611 55.0184 30.5581C55.2181 30.2912 55.4178 30.0577 55.6175 29.8242C56.7492 28.3563 57.9141 26.9885 59.1789 25.6541C59.5783 25.2538 59.9112 24.8201 60.3106 24.4198C70.2958 14.2115 84.2418 7.90641 99.619 7.90641C130.14 7.90641 154.937 32.7599 154.937 63.3513C154.937 75.1943 151.209 86.2032 144.852 95.2105H148.713C154.671 86.0364 158.132 75.0942 158.132 63.3513C158.132 30.9918 131.904 4.70382 99.619 4.70382ZM43.2359 47.7387L33.1841 57.8135L8.72041 33.2603L33.1841 8.74042L52.7218 28.323C48.4282 34.0609 45.1664 40.5996 43.2359 47.7387Z" fill="url(#paint0_linear)"/>
<path d="M99.7642 20.698C76.2605 20.698 57.1265 39.8992 57.1265 63.4854C57.1265 76.0426 62.5555 87.3706 71.1956 95.2106H76.1943C66.561 87.9686 60.3044 76.4412 60.3044 63.4854C60.3044 41.6598 78.015 23.8871 99.7642 23.8871C121.513 23.8871 139.224 41.6598 139.224 63.4854C139.224 76.4412 132.967 87.9686 123.334 95.2106H128.333C136.973 87.3706 142.402 76.0426 142.402 63.4854C142.402 39.8992 123.268 20.698 99.7642 20.698Z" fill="url(#paint1_linear)"/>
<path d="M128.622 84.9394L129.848 83.2775L127.959 82.5129C119.676 79.1225 114.541 73.1061 115.932 68.5522C117.357 64.0316 125.176 62.004 133.757 63.9319L135.778 64.364L135.712 62.3032C135.513 55.4558 133.36 48.7746 129.483 43.0906L128.357 41.3954L126.998 42.9244C121.2 49.4062 113.978 52.1983 110.234 49.4394C106.423 46.614 106.987 38.8692 111.459 31.3237L112.52 29.5953L110.598 28.9637C103.806 26.8364 96.3182 26.7699 89.493 28.7975L87.5051 29.3958L88.5985 31.1908C93.2038 38.6697 93.8333 46.7802 90.0231 49.5724C86.1798 52.3977 78.6258 49.3064 72.7945 42.5588L71.4693 41.0297L70.3096 42.6917C66.2675 48.4754 64.0146 55.2564 63.8158 62.3697L63.7495 64.4305L65.7374 63.9652C74.4511 61.9708 82.3034 63.9984 83.7612 68.5522C85.1527 73.0729 79.8185 79.2554 71.6349 82.5462L69.7133 83.3107L70.9723 85.0059C74.1529 89.2606 78.195 92.7508 82.8335 95.2105H90.1888C91.1496 86.8341 95.1917 80.6515 99.7639 80.6515C104.303 80.6515 108.345 86.8341 109.372 95.2105H116.727C121.366 92.7175 125.408 89.2274 128.622 84.9394ZM112.354 93.748C110.929 84.2082 105.827 77.4937 99.7639 77.4937C93.7008 77.4937 88.5985 84.2082 87.1407 93.748C82.3697 91.7536 78.1288 88.6623 74.7493 84.6403C83.6287 80.4521 88.5985 73.505 86.7762 67.5883C84.9208 61.6384 76.8366 58.7798 67.0958 60.4417C67.5597 55.3893 69.1832 50.5363 71.8337 46.1819C78.692 53.3284 86.9087 55.8547 91.9116 52.1318C96.8483 48.5087 96.9477 39.9993 92.3424 31.357C97.4116 30.1936 102.746 30.2268 107.749 31.4899C103.342 39.9993 103.508 48.409 108.345 51.9989C113.182 55.5555 121.167 53.262 127.959 46.5808C130.444 50.8022 131.968 55.489 132.399 60.4085C130.643 60.1094 128.953 59.9764 127.33 59.9764C120.074 59.9764 114.408 62.7685 112.917 67.5883C111.095 73.4385 116.032 80.3856 124.812 84.607C121.432 88.629 117.191 91.7536 112.354 93.748Z" fill="url(#paint2_linear)"/>
<path d="M99.7807 51.3309C93.1722 51.3309 87.7593 56.7107 87.7593 63.3523C87.7593 69.9608 93.1722 75.3405 99.7807 75.3405C106.422 75.3405 111.769 69.9608 111.769 63.3523C111.769 56.7107 106.422 51.3309 99.7807 51.3309ZM99.7807 72.1525C94.9323 72.1525 90.9805 68.2007 90.9805 63.3523C90.9805 58.4707 94.9323 54.5189 99.7807 54.5189C104.662 54.5189 108.614 58.4707 108.614 63.3523C108.614 68.2007 104.662 72.1525 99.7807 72.1525Z" fill="url(#paint3_linear)"/>
<defs>
<linearGradient id="paint0_linear" x1="2.65572" y1="-98.3904" x2="100.634" y2="80.3308" gradientUnits="userSpaceOnUse">
<stop stop-color="#F4C245"/>
<stop offset="0.1137" stop-color="#F0C14A"/>
<stop offset="0.2624" stop-color="#E3BD55"/>
<stop offset="0.4306" stop-color="#CEB766"/>
<stop offset="0.613" stop-color="#ADAE7A"/>
<stop offset="0.8064" stop-color="#7BA18F"/>
<stop offset="1" stop-color="#1492A1"/>
</linearGradient>
<linearGradient id="paint1_linear" x1="9.98363" y1="-101.231" x2="107.613" y2="76.6395" gradientUnits="userSpaceOnUse">
<stop stop-color="#F4C245"/>
<stop offset="0.1137" stop-color="#F0C14A"/>
<stop offset="0.2624" stop-color="#E3BD55"/>
<stop offset="0.4306" stop-color="#CEB766"/>
<stop offset="0.613" stop-color="#ADAE7A"/>
<stop offset="0.8064" stop-color="#7BA18F"/>
<stop offset="1" stop-color="#1492A1"/>
</linearGradient>
<linearGradient id="paint2_linear" x1="9.96745" y1="-101.38" x2="107.642" y2="76.6163" gradientUnits="userSpaceOnUse">
<stop stop-color="#F4C245"/>
<stop offset="0.1137" stop-color="#F0C14A"/>
<stop offset="0.2624" stop-color="#E3BD55"/>
<stop offset="0.4306" stop-color="#CEB766"/>
<stop offset="0.613" stop-color="#ADAE7A"/>
<stop offset="0.8064" stop-color="#7BA18F"/>
<stop offset="1" stop-color="#1492A1"/>
</linearGradient>
<linearGradient id="paint3_linear" x1="9.74102" y1="-101.252" x2="107.152" y2="76.8425" gradientUnits="userSpaceOnUse">
<stop stop-color="#F4C245"/>
<stop offset="0.1137" stop-color="#F0C14A"/>
<stop offset="0.2624" stop-color="#E3BD55"/>
<stop offset="0.4306" stop-color="#CEB766"/>
<stop offset="0.613" stop-color="#ADAE7A"/>
<stop offset="0.8064" stop-color="#7BA18F"/>
<stop offset="1" stop-color="#1492A1"/>
</linearGradient>
</defs>
</svg>
