<svg width="164" height="65" viewBox="0 0 164 65" fill="none" xmlns="http://www.w3.org/2000/svg">
<path d="M6.28418 64.3492C9.02152 62.0025 8.17861 55.0535 7.93778 53.068L15.8502 60.1669C15.2887 61.0744 13.7296 63.4461 6.28418 64.3492Z" fill="#F8F8F8"/>
<rect width="155" height="45" rx="10" transform="matrix(-0.992724 0.120416 0.120416 0.992724 157.716 0.650879)" fill="#F8F8F8"/>
<path d="M17.5893 28.8292L20.3602 31.8415L22.3187 28.2556L23.3551 28.1298L20.9935 32.4779L24.5929 36.4413L23.5565 36.567L20.5365 33.2948L18.3864 37.1941L17.3738 37.3169L19.9137 32.6451L16.5768 28.952L17.5893 28.8292ZM30.8338 32.7711L25.5922 33.4069C25.7188 34.0523 26.0331 34.5501 26.5349 34.9002C27.0357 35.2424 27.6316 35.3716 28.3226 35.2878C28.7117 35.2406 29.0609 35.1297 29.3701 34.9552C29.6784 34.7727 29.9353 34.5321 30.1408 34.2331L30.6838 34.7233C30.4463 35.0906 30.1277 35.3871 29.7279 35.6129C29.3361 35.8377 28.8901 35.9805 28.3898 36.0411C27.7465 36.1192 27.1583 36.0535 26.6252 35.8442C26.0991 35.626 25.6677 35.2915 25.331 34.8407C24.9942 34.39 24.7888 33.8589 24.7146 33.2474C24.6404 32.6358 24.705 32.072 24.9083 31.5557C25.1196 31.0385 25.4391 30.617 25.867 30.2911C26.3028 29.9642 26.8106 29.7656 27.3903 29.6953C27.9701 29.625 28.5067 29.6969 29 29.9111C29.4934 30.1252 29.9005 30.4586 30.2214 30.9113C30.5412 31.356 30.7388 31.8881 30.8139 32.5075L30.8338 32.7711ZM27.4785 30.422C26.8749 30.4952 26.3902 30.7514 26.0245 31.1907C25.6657 31.621 25.4961 32.1493 25.5156 32.7755L29.959 32.2365C29.8283 31.6238 29.5333 31.1519 29.0741 30.8208C28.6219 30.4807 28.09 30.3478 27.4785 30.422ZM32.3061 29.1474L33.1519 29.0448L33.7559 34.0243L37.3333 28.5376L38.0838 28.4466L38.8438 34.7126L37.998 34.8152L37.394 29.8357L33.8286 35.321L33.0662 35.4135L32.3061 29.1474ZM35.0434 27.8967C34.5034 27.9622 34.0581 27.8792 33.7077 27.6477C33.3573 27.4162 33.1482 27.0548 33.0806 26.5633L33.6881 26.4896C33.7336 26.7984 33.8752 27.0351 34.1127 27.1997C34.3493 27.3563 34.6383 27.4139 34.9798 27.3725C35.3213 27.3311 35.5882 27.206 35.7805 26.9974C35.9797 26.7798 36.0646 26.5157 36.0349 26.205L36.6425 26.1313C36.6943 26.6246 36.5737 27.0261 36.2809 27.3356C35.9959 27.6441 35.5835 27.8312 35.0434 27.8967ZM41.189 33.171C41.3716 33.1489 41.5302 33.1941 41.6648 33.3067C41.7984 33.4114 41.8762 33.5551 41.8984 33.7377C41.9099 33.833 41.9066 33.9382 41.8883 34.0532C41.878 34.1673 41.8537 34.2992 41.8154 34.4489L41.5145 36.1535L40.9427 36.2229L41.1382 34.4464C41.0063 34.4221 40.8944 34.3632 40.8024 34.2696C40.7095 34.168 40.6539 34.0418 40.6356 33.8909C40.6135 33.7082 40.6547 33.5501 40.7594 33.4165C40.8631 33.275 41.0063 33.1932 41.189 33.171ZM51.7727 26.7861L52.5328 33.0522L51.687 33.1548L51.018 27.6392L47.0868 28.1161L47.7558 33.6316L46.91 33.7342L46.1499 27.4682L51.7727 26.7861ZM57.5294 32.5065C56.9258 32.5798 56.3654 32.5107 55.8482 32.2995C55.3301 32.0803 54.9026 31.7453 54.5659 31.2946C54.2292 30.8438 54.0237 30.3127 53.9495 29.7012C53.8754 29.0897 53.9479 28.5248 54.1671 28.0067C54.3863 27.4885 54.7217 27.065 55.1734 26.7363C55.6251 26.4075 56.1527 26.2065 56.7563 26.1333C57.3599 26.06 57.9203 26.1291 58.4375 26.3403C58.9547 26.5516 59.3777 26.8831 59.7065 27.3348C60.0432 27.7855 60.2486 28.3166 60.3228 28.9281C60.397 29.5397 60.3245 30.1045 60.1053 30.6227C59.894 31.1399 59.563 31.5668 59.1123 31.9036C58.6606 32.2323 58.133 32.4333 57.5294 32.5065ZM57.4384 31.756C57.8831 31.7021 58.2681 31.5547 58.5935 31.3137C58.9258 31.0639 59.1686 30.7403 59.3219 30.343C59.4752 29.9456 59.5229 29.5087 59.4651 29.0322C59.4073 28.5557 59.2565 28.1428 59.0127 27.7936C58.7689 27.4445 58.4562 27.1923 58.0747 27.0371C57.7003 26.873 57.2906 26.8179 56.8459 26.8718C56.4012 26.9258 56.0126 27.0777 55.6803 27.3275C55.3549 27.5685 55.1117 27.8881 54.9504 28.2864C54.7972 28.6837 54.7494 29.1207 54.8072 29.5972C54.865 30.0737 55.0159 30.4865 55.2597 30.8357C55.5114 31.1839 55.8246 31.4401 56.1991 31.6042C56.5805 31.7594 56.9936 31.81 57.4384 31.756ZM68.4972 30.3663L68.7703 32.6178L67.9722 32.7146L67.7887 31.2017L62.1778 31.8823L62.3613 33.3952L61.5632 33.492L61.2901 31.2405L61.6474 31.1971C62.0655 31.1223 62.3138 30.7778 62.3924 30.1639C62.4711 29.55 62.4732 28.7036 62.3987 27.6247L62.2278 25.5179L66.8499 24.9573L67.5204 30.4848L68.4972 30.3663ZM63.1788 27.5784C63.247 28.4727 63.2607 29.2165 63.2198 29.8097C63.178 30.395 63.0271 30.8122 62.7672 31.0613L66.6746 30.5874L66.0951 25.8104L63.0812 26.1759L63.1788 27.5784ZM72.8632 30.6466C72.2437 30.7217 71.6714 30.6541 71.1462 30.4438C70.629 30.2326 70.2021 29.9016 69.8654 29.4509C69.5277 28.9922 69.3217 28.4571 69.2476 27.8456C69.1734 27.2341 69.2459 26.6692 69.4651 26.151C69.6843 25.6329 70.0197 25.2094 70.4714 24.8806C70.9311 24.5509 71.4706 24.3484 72.0901 24.2733C72.6301 24.2078 73.1236 24.2567 73.5705 24.4201C74.0244 24.5746 74.399 24.8394 74.6944 25.2145L74.115 25.72C73.871 25.4353 73.5809 25.2368 73.245 25.1244C72.908 25.0041 72.5529 24.9666 72.1797 25.0119C71.727 25.0668 71.3305 25.2196 70.9902 25.4704C70.6569 25.7123 70.4097 26.0324 70.2485 26.4308C70.0952 26.8281 70.0475 27.265 70.1053 27.7415C70.164 28.226 70.3153 28.6428 70.5591 28.992C70.8099 29.3323 71.1266 29.584 71.509 29.7471C71.8984 29.9013 72.3194 29.951 72.7721 29.8961C73.1454 29.8508 73.4817 29.7335 73.7811 29.544C74.0804 29.3546 74.3146 29.0925 74.4835 28.7577L75.1669 29.11C74.9698 29.5449 74.6699 29.8956 74.267 30.162C73.8632 30.4205 73.3953 30.582 72.8632 30.6466ZM78.8848 27.0271L77.4553 27.2005L77.7935 29.9881L76.9477 30.0907L76.1876 23.8246L77.0334 23.722L77.3672 26.4739L78.8086 26.299L80.6787 23.2799L81.5959 23.1686L79.4985 26.5054L82.5347 29.413L81.534 29.5344L78.8848 27.0271ZM85.1436 22.6899C85.9616 22.5907 86.614 22.7211 87.1009 23.0811C87.5869 23.4331 87.8785 24.0102 87.9758 24.8123L88.4468 28.6959L87.6368 28.7941L87.5183 27.8173C87.3672 28.166 87.1161 28.4543 86.765 28.6823C86.4218 28.9093 85.9961 29.0536 85.4878 29.1152C84.7889 29.2 84.2128 29.1007 83.7593 28.8172C83.3059 28.5337 83.046 28.118 82.9795 27.57C82.9149 27.0379 83.0535 26.5859 83.3952 26.2141C83.7449 25.8413 84.3406 25.6038 85.1825 25.5017L87.1719 25.2604L87.1256 24.8792C87.0601 24.3391 86.8596 23.9484 86.5241 23.7071C86.1877 23.4578 85.7295 23.3683 85.1498 23.4386C84.7527 23.4868 84.3797 23.6005 84.0307 23.7799C83.6808 23.9512 83.3888 24.168 83.1547 24.4301L82.6969 23.8449C82.9818 23.5364 83.3379 23.2837 83.7653 23.0868C84.1918 22.8819 84.6512 22.7496 85.1436 22.6899ZM85.5379 28.4322C86.0144 28.3744 86.4104 28.2176 86.7259 27.9617C87.0404 27.6979 87.256 27.3495 87.3727 26.9162L87.2485 25.8918L85.2829 26.1302C84.2107 26.2602 83.7199 26.6985 83.8105 27.445C83.8548 27.8104 84.0289 28.0834 84.3329 28.2641C84.6359 28.4369 85.0376 28.4929 85.5379 28.4322ZM95.852 24.969L94.494 25.1338L94.8321 27.9213L93.9863 28.0239L93.6482 25.2364L92.2902 25.4011L90.7103 28.4213L89.6978 28.5441L91.5577 25.0427L89.1164 22.2564L90.0337 22.1451L92.202 24.6744L93.5601 24.5097L93.2263 21.7579L94.0721 21.6553L94.4059 24.4071L95.7639 24.2424L97.2766 21.2666L98.1939 21.1553L96.491 24.4564L99.1326 27.3997L98.12 27.5225L95.852 24.969ZM99.7803 20.9629L100.626 20.8603L101.23 25.8398L104.807 20.3531L105.558 20.262L106.318 26.5281L105.472 26.6307L104.868 21.6512L101.303 27.1279L100.54 27.2289L99.7803 20.9629ZM112.481 20.1839L110.11 20.4714L110.779 25.987L109.933 26.0896L109.264 20.574L106.894 20.8616L106.803 20.1111L112.39 19.4334L112.481 20.1839ZM119.213 22.0507L113.972 22.6865C114.098 23.332 114.413 23.8298 114.914 24.1799C115.415 24.5221 116.011 24.6512 116.702 24.5674C117.091 24.5202 117.44 24.4094 117.75 24.2349C118.058 24.0524 118.315 23.8117 118.52 23.5128L119.063 24.003C118.826 24.3703 118.507 24.6668 118.107 24.8926C117.716 25.1174 117.27 25.2601 116.769 25.3208C116.126 25.3988 115.538 25.3332 115.005 25.1239C114.479 24.9056 114.047 24.5711 113.71 24.1204C113.374 23.6697 113.168 23.1386 113.094 22.527C113.02 21.9155 113.085 21.3516 113.288 20.8354C113.499 20.3182 113.819 19.8967 114.247 19.5708C114.682 19.2439 115.19 19.0453 115.77 18.975C116.35 18.9047 116.886 18.9766 117.38 19.1907C117.873 19.4049 118.28 19.7383 118.601 20.1909C118.921 20.6357 119.118 21.1677 119.193 21.7872L119.213 22.0507ZM115.858 19.7017C115.254 19.7749 114.77 20.0311 114.404 20.4703C114.045 20.9007 113.876 21.4289 113.895 22.0551L118.339 21.5162C118.208 20.9035 117.913 20.4315 117.454 20.1004C117.001 19.7604 116.47 19.6275 115.858 19.7017ZM126.501 21.2514L125.071 21.4248L125.409 24.2124L124.563 24.315L123.803 18.0489L124.649 17.9463L124.983 20.6981L126.424 20.5233L128.294 17.5041L129.212 17.3929L127.114 20.7297L130.151 23.6373L129.15 23.7586L126.501 21.2514ZM135.096 17.4406L132.725 17.7282L133.395 23.2438L132.549 23.3464L131.88 17.8308L129.509 18.1183L129.418 17.3678L135.005 16.6901L135.096 17.4406ZM139.289 22.5891C138.686 22.6624 138.126 22.5933 137.608 22.3821C137.09 22.1629 136.663 21.8279 136.326 21.3772C135.989 20.9265 135.784 20.3953 135.71 19.7838C135.635 19.1723 135.708 18.6074 135.927 18.0893C136.146 17.5711 136.482 17.1476 136.934 16.8189C137.385 16.4901 137.913 16.2891 138.516 16.2159C139.12 16.1426 139.68 16.2117 140.198 16.4229C140.715 16.6342 141.138 16.9657 141.467 17.4174C141.803 17.8681 142.009 18.3992 142.083 19.0107C142.157 19.6223 142.085 20.1871 141.865 20.7053C141.654 21.2225 141.323 21.6494 140.872 21.9862C140.421 22.3149 139.893 22.5159 139.289 22.5891ZM139.198 21.8386C139.643 21.7847 140.028 21.6373 140.354 21.3963C140.686 21.1465 140.929 20.8229 141.082 20.4256C141.235 20.0282 141.283 19.5913 141.225 19.1148C141.167 18.6383 141.017 18.2254 140.773 17.8762C140.529 17.5271 140.216 17.2749 139.835 17.1197C139.46 16.9556 139.051 16.9005 138.606 16.9544C138.161 17.0084 137.773 17.1603 137.44 17.4101C137.115 17.6511 136.872 17.9707 136.711 18.369C136.557 18.7663 136.51 19.2033 136.567 19.6798C136.625 20.1563 136.776 20.5691 137.02 20.9183C137.272 21.2665 137.585 21.5227 137.959 21.6868C138.341 21.842 138.754 21.8926 139.198 21.8386ZM28.0097 44.7785L28.7698 51.0446L20.1212 52.0936L19.3611 45.8276L20.2069 45.725L20.8774 51.2524L23.9508 50.8796L23.2804 45.3522L24.1262 45.2496L24.7966 50.777L27.8344 50.4086L27.1639 44.8811L28.0097 44.7785ZM32.575 44.1764C33.393 44.0772 34.0454 44.2075 34.5323 44.5675C35.0182 44.9196 35.3098 45.4967 35.4071 46.2988L35.8782 50.1823L35.0681 50.2806L34.9496 49.3037C34.7985 49.6525 34.5474 49.9408 34.1963 50.1687C33.8532 50.3957 33.4274 50.54 32.9192 50.6017C32.2203 50.6865 31.6441 50.5871 31.1907 50.3037C30.7373 50.0202 30.4773 49.6045 30.4108 49.0565C30.3463 48.5244 30.4849 48.0724 30.8266 47.7006C31.1762 47.3277 31.772 47.0903 32.6138 46.9882L34.6032 46.7468L34.557 46.3656C34.4915 45.8256 34.291 45.4349 33.9555 45.1935C33.619 44.9442 33.1609 44.8548 32.5812 44.9251C32.1841 44.9732 31.811 45.087 31.4621 45.2663C31.1122 45.4377 30.8202 45.6544 30.586 45.9165L30.1282 45.3314C30.4132 45.0229 30.7693 44.7701 31.1967 44.5732C31.6231 44.3684 32.0826 44.2361 32.575 44.1764ZM32.9693 49.9187C33.4458 49.8609 33.8418 49.7041 34.1573 49.4482C34.4718 49.1844 34.6874 48.8359 34.8041 48.4027L34.6798 47.3782L32.7142 47.6166C31.6421 47.7467 31.1513 48.185 31.2418 48.9315C31.2862 49.2968 31.4603 49.5698 31.7643 49.7506C32.0673 49.9233 32.469 49.9794 32.9693 49.9187ZM40.5923 43.2039C41.18 43.1326 41.7284 43.2031 42.2377 43.4153C42.746 43.6196 43.1645 43.9476 43.4933 44.3993C43.8221 44.8509 44.0241 45.3865 44.0992 46.006C44.1753 46.6334 44.1077 47.2057 43.8965 47.7229C43.6852 48.2401 43.3577 48.6626 42.914 48.9904C42.4772 49.3093 41.961 49.5049 41.3654 49.5772C40.8571 49.6388 40.3839 49.5915 39.9459 49.4351C39.5149 49.2698 39.1437 49.0005 38.8325 48.6273L39.2559 52.1177L38.4101 52.2203L37.3697 43.6431L38.1798 43.5449L38.3301 44.7838C38.5341 44.34 38.8291 43.9819 39.2151 43.7094C39.6091 43.436 40.0681 43.2675 40.5923 43.2039ZM41.2148 48.8339C41.6516 48.7809 42.0366 48.6335 42.3699 48.3916C42.7022 48.1417 42.945 47.8182 43.0983 47.4208C43.2595 47.0225 43.3112 46.5851 43.2534 46.1086C43.1956 45.6321 43.0413 45.2237 42.7905 44.8834C42.5467 44.5342 42.2336 44.2781 41.8511 44.1149C41.4687 43.9518 41.0591 43.8967 40.6223 43.9497C40.1776 44.0036 39.789 44.1555 39.4567 44.4054C39.1323 44.6542 38.8895 44.9778 38.7283 45.3761C38.5741 45.7656 38.5258 46.1985 38.5836 46.675C38.6414 47.1515 38.7923 47.5644 39.0361 47.9135C39.2878 48.2618 39.601 48.5179 39.9754 48.682C40.3569 48.8372 40.77 48.8878 41.2148 48.8339ZM45.5364 42.6525L46.3822 42.5499L46.9862 47.5294L50.5636 42.0427L51.3141 41.9517L52.0741 48.2178L51.2283 48.3204L50.6243 43.3409L47.0589 48.8261L46.2965 48.9186L45.5364 42.6525ZM58.2368 41.8735L55.8661 42.1611L56.5352 47.6767L55.6894 47.7792L55.0203 42.2637L52.6497 42.5512L52.5587 41.8007L58.1457 41.123L58.2368 41.8735ZM66.8442 43.1383C67.718 43.2337 68.2051 43.6944 68.3052 44.5204C68.3717 45.0684 68.2203 45.5138 67.8509 45.8568C67.4815 46.1998 66.8957 46.4199 66.0936 46.5172L63.2465 46.8626L62.4864 40.5965L65.2501 40.2613C65.9649 40.1746 66.5417 40.2456 66.9804 40.4745C67.4192 40.7033 67.6698 41.0758 67.7325 41.592C67.7739 41.9335 67.7142 42.2389 67.5535 42.5083C67.3997 42.7687 67.1633 42.9787 66.8442 43.1383ZM63.6465 43.2844L65.5287 43.0561C66.0132 42.9973 66.3714 42.8612 66.6034 42.6477C66.8433 42.4332 66.942 42.1513 66.8997 41.8019C66.8573 41.4524 66.6944 41.2062 66.4112 41.0633C66.1358 40.9194 65.756 40.8768 65.2715 40.9356L63.3893 41.1639L63.6465 43.2844ZM65.9769 45.8545C66.517 45.7889 66.9114 45.6525 67.1602 45.445C67.4091 45.2375 67.5109 44.9471 67.4656 44.5739C67.4203 44.2006 67.264 43.9416 66.9966 43.7967C66.7282 43.6439 66.328 43.5998 65.7959 43.6643L63.7231 43.9157L63.9875 46.0958L65.9769 45.8545ZM75.0022 39.03C75.8203 38.9308 76.4727 39.0612 76.9596 39.4212C77.4455 39.7732 77.7371 40.3503 77.8344 41.1524L78.3055 45.0359L77.4954 45.1342L77.3769 44.1574C77.2258 44.5061 76.9747 44.7944 76.6236 45.0224C76.2805 45.2493 75.8547 45.3937 75.3465 45.4553C74.6476 45.5401 74.0714 45.4407 73.618 45.1573C73.1646 44.8738 72.9046 44.4581 72.8381 43.9101C72.7736 43.378 72.9122 42.926 73.2539 42.5542C73.6035 42.1814 74.1993 41.9439 75.0411 41.8418L77.0305 41.6005L76.9843 41.2193C76.9188 40.6792 76.7183 40.2885 76.3828 40.0472C76.0463 39.7979 75.5882 39.7084 75.0085 39.7787C74.6114 39.8269 74.2383 39.9406 73.8894 40.1199C73.5395 40.2913 73.2475 40.5081 73.0133 40.7702L72.5555 40.185C72.8404 39.8765 73.1966 39.6237 73.624 39.4268C74.0504 39.222 74.5099 39.0897 75.0022 39.03ZM75.3966 44.7723C75.8731 44.7145 76.2691 44.5577 76.5846 44.3018C76.8991 44.038 77.1147 43.6895 77.2314 43.2563L77.1071 42.2318L75.1415 42.4703C74.0694 42.6003 73.5786 43.0386 73.6691 43.7851C73.7135 44.1505 73.8876 44.4235 74.1916 44.6042C74.4946 44.7769 74.8963 44.833 75.3966 44.7723ZM84.1548 41.0385C85.0287 41.134 85.5157 41.5947 85.6159 42.4206C85.6823 42.9686 85.5309 43.4141 85.1615 43.7571C84.7921 44.1 84.2063 44.3202 83.4042 44.4175L80.5571 44.7628L79.797 38.4968L82.5608 38.1615C83.2755 38.0748 83.8523 38.1459 84.291 38.3747C84.7298 38.6035 84.9805 38.9761 85.0431 39.4923C85.0845 39.8338 85.0248 40.1392 84.8641 40.4085C84.7103 40.6689 84.4739 40.8789 84.1548 41.0385ZM80.9571 41.1846L82.8393 40.9563C83.3238 40.8975 83.682 40.7614 83.914 40.5479C84.1539 40.3335 84.2527 40.0515 84.2103 39.7021C84.1679 39.3527 84.0051 39.1065 83.7218 38.9635C83.4465 38.8197 83.0666 38.7771 82.5821 38.8358L80.6999 39.0642L80.9571 41.1846ZM83.2876 43.7547C83.8276 43.6892 84.222 43.5527 84.4709 43.3452C84.7197 43.1378 84.8215 42.8474 84.7762 42.4741C84.7309 42.1009 84.5746 41.8418 84.3072 41.6969C84.0388 41.5441 83.6386 41.5 83.1065 41.5646L81.0337 41.816L81.2981 43.996L83.2876 43.7547ZM91.5434 37.8335L89.1728 38.121L89.8418 43.6366L88.996 43.7392L88.327 38.2236L85.9564 38.5112L85.8653 37.7607L91.4524 37.083L91.5434 37.8335ZM95.7368 42.982C95.1332 43.0552 94.5728 42.9862 94.0556 42.7749C93.5375 42.5557 93.11 42.2208 92.7733 41.77C92.4366 41.3193 92.2311 40.7882 92.1569 40.1766C92.0828 39.5651 92.1553 39.0003 92.3745 38.4821C92.5937 37.964 92.9291 37.5405 93.3808 37.2117C93.8325 36.8829 94.3601 36.6819 94.9637 36.6087C95.5673 36.5355 96.1277 36.6045 96.6449 36.8158C97.1621 37.027 97.5851 37.3585 97.9139 37.8102C98.2506 38.2609 98.456 38.7921 98.5302 39.4036C98.6044 40.0151 98.5319 40.5799 98.3127 41.0981C98.1014 41.6153 97.7704 42.0423 97.3197 42.379C96.868 42.7078 96.3404 42.9088 95.7368 42.982ZM95.6458 42.2315C96.0905 42.1775 96.4755 42.0301 96.8009 41.7892C97.1332 41.5393 97.376 41.2157 97.5293 40.8184C97.6826 40.421 97.7303 39.9841 97.6725 39.5076C97.6147 39.0311 97.4639 38.6183 97.2201 38.2691C96.9763 37.9199 96.6636 37.6677 96.2821 37.5125C95.9077 37.3484 95.498 37.2933 95.0533 37.3473C94.6086 37.4012 94.22 37.5531 93.8877 37.803C93.5623 38.0439 93.3191 38.3635 93.1578 38.7618C93.0046 39.1592 92.9568 39.5961 93.0146 40.0726C93.0724 40.5491 93.2233 40.962 93.4671 41.3111C93.7188 41.6594 94.032 41.9155 94.4064 42.0796C94.7879 42.2348 95.201 42.2854 95.6458 42.2315ZM101.441 39.6912C101.401 39.3656 101.418 39.0734 101.492 38.8147C101.573 38.555 101.682 38.3282 101.82 38.1342C101.958 37.9402 102.14 37.7166 102.367 37.4634C102.672 37.1202 102.89 36.8278 103.022 36.5861C103.161 36.3356 103.211 36.0475 103.171 35.7219C103.118 35.2851 102.905 34.9564 102.532 34.7357C102.158 34.5071 101.673 34.429 101.077 34.5012C100.092 34.6207 99.3729 35.0343 98.9188 35.7421L98.2297 35.3422C98.8045 34.4344 99.7432 33.9015 101.046 33.7435C101.88 33.6423 102.565 33.7485 103.103 34.0621C103.649 34.3746 103.96 34.8486 104.037 35.4839C104.076 35.8096 104.056 36.1062 103.976 36.3738C103.902 36.6325 103.797 36.8589 103.659 37.0529C103.529 37.2459 103.352 37.473 103.125 37.7341C102.821 38.0853 102.601 38.394 102.464 38.6605C102.326 38.919 102.279 39.2269 102.322 39.5843L101.441 39.6912ZM102.192 42.199C102.017 42.2201 101.863 42.1784 101.73 42.0737C101.595 41.9611 101.518 41.8214 101.498 41.6546C101.476 41.4799 101.519 41.3297 101.624 41.2041C101.729 41.0705 101.869 40.9931 102.043 40.9719C102.226 40.9498 102.384 40.9911 102.518 41.0957C102.65 41.1925 102.727 41.3282 102.748 41.5029C102.769 41.6697 102.723 41.8243 102.611 41.9668C102.507 42.1004 102.367 42.1778 102.192 42.199Z" fill="#181818"/>
</svg>
