<svg width="325" height="325" viewBox="0 0 325 325" fill="none" xmlns="http://www.w3.org/2000/svg">
<path d="M318.312 116.498C292.909 30.4743 202.574 -18.7211 116.585 6.692C30.4609 31.9692 -18.7141 122.342 6.68846 208.502C32.091 294.526 122.426 343.721 208.415 318.308C294.539 292.895 343.714 202.522 318.312 116.498ZM49.6147 195.863C31.1401 133.35 66.8668 67.8465 129.219 49.5001C191.57 31.0179 257.047 66.7593 275.521 129.137C293.996 191.514 258.269 257.018 195.917 275.5C133.43 293.846 67.9535 258.241 49.6147 195.863ZM161.821 206.599C178.258 206.871 191.57 228.343 193.336 256.066C211.811 250.087 227.297 238.943 238.844 224.81C214.392 213.122 199.585 193.553 205.019 178.332C210.588 163.112 234.632 157.404 261.122 164.335C261.258 154.55 260.035 144.493 257.047 134.573C254.33 125.196 250.254 116.498 245.228 108.752C226.618 129.409 202.845 138.106 189.804 128.186C176.628 118.129 178.801 92.716 194.015 69.0696C176.356 63.09 156.795 62.1387 137.505 67.167C151.225 91.6288 151.904 117.178 138.048 126.283C124.328 135.524 101.099 125.196 83.7113 103.316C72.0288 118.944 65.1008 137.834 64.1499 157.676C91.0468 152.24 114.955 159.306 119.574 174.935C124.192 190.563 107.891 209.453 82.3528 219.645C93.8995 235.817 110.065 248.048 128.403 254.843C131.392 227.256 145.384 206.327 161.821 206.599ZM134.109 170.858C129.49 155.094 138.456 138.514 154.214 133.893C169.971 129.273 186.544 138.242 191.163 154.006C195.781 169.771 186.816 186.35 171.058 190.971C155.3 195.591 138.863 186.622 134.109 170.858Z" fill="url(#paint0_linear)"/>
<defs>
<linearGradient id="paint0_linear" x1="324.936" y1="450.454" x2="57.8509" y2="-60.744" gradientUnits="userSpaceOnUse">
<stop stop-color="#1492A1"/>
<stop offset="0.476486" stop-color="#BBB272"/>
<stop offset="1" stop-color="#F4C245"/>
</linearGradient>
</defs>
</svg>
