<svg width="39" height="36" viewBox="0 0 39 36" fill="none" xmlns="http://www.w3.org/2000/svg">
<path d="M34.0403 35.0243H4.94216C3.1612 35.0243 1.55834 34.1076 0.66786 32.5616C-0.22262 31.0157 -0.22262 29.1687 0.66786 27.6227L15.2032 2.46265C16.1074 0.916651 17.7103 0 19.4912 0C21.2722 0 22.8751 0.916651 23.7792 2.46265L38.3283 27.6227C39.2188 29.1687 39.2188 31.0157 38.3283 32.5616C37.4241 34.1076 35.8213 35.0243 34.0403 35.0243ZM19.4912 0.738794C17.9706 0.738794 16.6143 1.51863 15.8471 2.83204L1.29805 27.9921C0.530863 29.3055 0.544563 30.8788 1.29805 32.1923C2.05153 33.5057 3.4215 34.2992 4.94216 34.2992H34.0266C35.5473 34.2992 36.9035 33.5193 37.6707 32.2059C38.4379 30.8925 38.4379 29.3192 37.6707 28.0058L23.1354 2.83204C22.3682 1.51863 21.0119 0.738794 19.4912 0.738794Z" fill="#181818"/>
<path d="M24.4498 15.0906L19.4768 22.3143L14.5176 15.0906H11.1337L17.8055 24.818L13.6408 30.9062H17.052L18.011 29.4834L20.9564 25.2011L27.8473 15.0906H24.4498Z" fill="#181818"/>
</svg>
