<svg width="160" height="30" viewBox="0 0 160 30" fill="none" xmlns="http://www.w3.org/2000/svg">
<path d="M122.936 16.8587H109.423C108.57 16.8587 107.872 16.1703 107.872 15.3289V1.98881C107.872 1.14741 108.57 0.458984 109.423 0.458984H122.936C123.789 0.458984 124.488 1.14741 124.488 1.98881V15.3136C124.488 16.1703 123.789 16.8587 122.936 16.8587Z" fill="#F4C245"/>
<path d="M114.636 0.458984V11.4737H117.708V0.458984H114.636ZM114.636 13.8144V16.8587H117.708V13.8144H114.636Z" fill="#F8F8F8"/>
<path d="M72.2971 16.8587V0.474274H88.1993V7.72566C88.1993 13.1106 86.772 16.8587 80.1318 16.8587H72.2971ZM85.1119 7.72566V3.27386H75.3844V14.0438H80.1318C84.2897 14.0438 85.1119 12.2845 85.1119 7.72566Z" fill="#F8F8F8"/>
<path d="M91.054 0.474274H106.491V5.85927C106.491 8.03162 105.095 9.86741 102.674 10.6323L106.491 16.8587H102.923L99.3852 11.1219L94.1414 11.5961V16.8587H91.054V0.474274ZM100.673 8.1999C101.976 8.07752 103.403 7.49618 103.403 5.73688V3.27386H94.1414V8.78124L100.673 8.1999Z" fill="#F8F8F8"/>
<path d="M125.093 0.474274H128.304L133.176 13.8144H135.549L140.421 0.474274H143.632L137.69 16.8587H131.05L125.093 0.474274Z" fill="#F8F8F8"/>
<path d="M145.758 0.474274H160V3.28916H148.845V5.96635H157.269V8.78124H148.845V14.0438H160V16.8587H145.758V0.474274Z" fill="#F8F8F8"/>
<path d="M0.325806 0.474274H14.568V3.28916H3.41317V5.96635H11.8375V8.78124H3.41317V14.0438H14.568V16.8587H0.325806V0.474274Z" fill="#F8F8F8"/>
<path d="M21.9374 0.474274H29.0585L34.7522 16.8587H31.5408L29.7566 11.7032L20.7272 13.2177L19.424 16.8434H16.2125L21.9374 0.474274ZM28.8257 9.1331L26.8089 3.27386H24.2025L21.7046 10.2958L28.8257 9.1331Z" fill="#F8F8F8"/>
<path d="M35.7142 13.692L38.3206 12.055C39.0342 12.8811 40.8184 14.5181 43.7816 14.5181C45.9226 14.5181 47.8154 13.9367 47.8154 12.4069C47.8154 9.13307 36.1796 11.2289 36.1796 5.15552C36.1796 2.58541 38.5533 0 43.068 0C47.1017 0 49.5995 2.11116 50.5459 4.4518L47.4741 5.03313C46.8845 3.85517 45.3331 2.81488 42.9594 2.81488C40.4616 2.81488 39.2825 3.99285 39.2825 5.15552C39.2825 8.32226 50.9183 6.08871 50.9183 12.4069C50.9183 15.9255 47.8309 17.3176 43.7972 17.3176C38.5688 17.3176 36.4278 14.5181 35.7142 13.692Z" fill="#F8F8F8"/>
<path d="M66.836 13.8144H69.9234V16.8587H66.836V13.8144Z" fill="#F8F8F8"/>
<path d="M66.1224 0.458984L60.894 7.95514L55.6967 0.458984H52.1284L59.1409 10.5558L54.7659 16.8587H58.3497L59.3581 15.3901L62.4455 10.9383L69.6907 0.458984H66.1224Z" fill="#F8F8F8"/>
<path d="M55.3864 28.6536H56.581L57.6825 23.0391H61.8869V29.8163H60.6148V24.2018H58.8616L57.7601 29.8163H55.3864V28.6536Z" fill="#F8F8F8"/>
<path d="M2.35819 23.0391H5.30592L7.66411 29.8163H6.34539L5.6007 27.6898L1.86173 28.317L1.31872 29.8163H0L2.35819 23.0391ZM5.21284 26.6189L4.37506 24.2018H3.28905L2.24959 27.1085L5.21284 26.6189Z" fill="#F8F8F8"/>
<path d="M8.36225 23.0391H12.1478C13.3269 23.0391 14.2577 23.5287 14.2577 24.7831C14.2577 25.6092 13.7613 26.0376 13.7613 26.0376C13.7613 26.0376 14.7387 26.4812 14.7387 27.6898C14.7387 28.8984 13.963 29.8163 12.3805 29.8163H8.34674V23.0391H8.36225ZM12.5822 25.701C12.5822 25.701 12.97 25.3645 12.97 24.8749C12.97 24.4313 12.6753 24.1406 11.9926 24.1406H9.63444V25.3951L12.5822 25.701ZM12.3339 28.6536C12.8769 28.6536 13.4665 28.4547 13.4665 27.7357C13.4665 27.0014 13.0321 26.8178 12.3339 26.7719L9.63444 26.5271V28.6536H12.3339Z" fill="#F8F8F8"/>
<path d="M17.7019 24.2018H15.2352V23.0391H21.4254V24.2018H18.9741V29.8163H17.7019V24.2018Z" fill="#F8F8F8"/>
<path d="M21.7202 26.4201C21.7202 24.5843 23.0544 22.8403 25.5057 22.8403C27.9569 22.8403 29.2912 24.5843 29.2912 26.4201C29.2912 28.2559 27.9569 29.9999 25.5057 29.9999C23.0544 30.0152 21.7202 28.2712 21.7202 26.4201ZM28.019 26.4201C28.019 25.0586 26.9795 24.003 25.5057 24.003C24.0318 24.003 22.9923 25.0739 22.9923 26.4201C22.9923 27.7816 24.0318 28.8372 25.5057 28.8372C26.9795 28.8525 28.019 27.7816 28.019 26.4201Z" fill="#F8F8F8"/>
<path d="M30.1755 23.0391H31.4477V28.6536H34.4885V23.0391H35.7607V28.6536H38.8015V23.0391H40.0737V29.8163H30.1445V23.0391H30.1755Z" fill="#F8F8F8"/>
<path d="M41.2838 23.0392H42.556V26.1754L45.9536 23.0239H47.6757L44.6815 25.8388L47.5826 29.8164H46.1088L43.7971 26.6649L42.5715 27.8276V29.8164H41.2993V23.0392H41.2838Z" fill="#F8F8F8"/>
<path d="M47.381 26.4201C47.381 24.5843 48.7152 22.8403 51.1665 22.8403C53.6177 22.8403 54.952 24.5843 54.952 26.4201C54.952 28.2559 53.6177 29.9999 51.1665 29.9999C48.7152 30.0152 47.381 28.2712 47.381 26.4201ZM53.6798 26.4201C53.6798 25.0586 52.6403 24.003 51.1665 24.003C49.6926 24.003 48.6531 25.0739 48.6531 26.4201C48.6531 27.7816 49.6926 28.8372 51.1665 28.8372C52.6403 28.8525 53.6798 27.7816 53.6798 26.4201Z" fill="#F8F8F8"/>
<path d="M64.9122 23.0391H67.86L70.2182 29.8163H68.8839L68.1392 27.6898L64.4003 28.317L63.8573 29.8163H62.523L64.9122 23.0391ZM67.7669 26.6189L66.9291 24.2018H65.8431L64.8036 27.1085L67.7669 26.6189Z" fill="#F8F8F8"/>
</svg>
