<svg width="6" height="6" viewBox="0 0 6 6" fill="none" xmlns="http://www.w3.org/2000/svg">
<path d="M2.99938 6C2.83994 6 2.69047 5.93772 2.57712 5.82437L0.174382 3.42163C0.0622794 3.30953 0 3.16006 0 2.99938C0 2.8387 0.0622794 2.69047 0.174382 2.57712L2.57837 0.174382C2.69047 0.0622794 2.83994 0 2.99938 0C3.15881 0 3.30828 0.0622794 3.42163 0.174382L5.82562 2.57837C5.93897 2.69172 6 2.84119 6 3.00062C6 3.16006 5.93772 3.30953 5.82562 3.42288L3.42163 5.82562C3.30953 5.93772 3.16006 6 2.99938 6Z" fill="#181818"/>
</svg>
