<svg width="191" height="95" viewBox="0 0 191 95" fill="none" xmlns="http://www.w3.org/2000/svg">
<path d="M187.889 94.4064C184.96 92.3045 185.2 85.3086 185.269 83.3098L177.998 91.0646C178.636 91.9204 180.393 94.1487 187.889 94.4064Z" fill="url(#paint0_linear)"/>
<rect x="3.02307" width="185" height="88" rx="10" transform="rotate(1.96868 3.02307 0)" fill="url(#paint1_linear)"/>
<path d="M14.8466 13.2578C15.4303 13.2779 15.9454 13.4277 16.3921 13.7072C16.847 13.979 17.1943 14.3551 17.4339 14.8356C17.6738 15.3081 17.7835 15.8442 17.7629 16.4439C17.7417 17.0595 17.587 17.6025 17.2986 18.0729C17.0186 18.5355 16.6342 18.8905 16.1454 19.1379C15.6566 19.3853 15.1004 19.4982 14.4768 19.4768C13.4294 19.4408 12.6305 19.0451 12.0801 18.2897C11.5297 17.5344 11.2768 16.5091 11.3213 15.2139C11.3678 13.8627 11.6592 12.8361 12.1957 12.1341C12.7401 11.4324 13.5644 10.9724 14.6685 10.7542L17.5211 10.2039L17.6382 10.9884L14.9548 11.5085C14.0444 11.6773 13.3686 12.0103 12.9273 12.5074C12.4862 12.9966 12.2286 13.7362 12.1546 14.7262C12.4272 14.2473 12.796 13.8797 13.2611 13.6236C13.7265 13.3594 14.255 13.2375 14.8466 13.2578ZM14.5251 18.77C14.9648 18.7851 15.36 18.6987 15.7107 18.5106C16.0696 18.3148 16.3513 18.0363 16.5559 17.6751C16.7684 17.3142 16.8826 16.9019 16.8986 16.4382C16.9145 15.9745 16.8326 15.5634 16.6528 15.205C16.473 14.8466 16.2105 14.5654 15.8653 14.3615C15.5284 14.1498 15.136 14.0362 14.6883 14.0208C14.2406 14.0054 13.8374 14.0916 13.4787 14.2794C13.1283 14.4595 12.8471 14.722 12.6352 15.0669C12.4312 15.4121 12.3212 15.8166 12.3053 16.2803C12.2893 16.744 12.371 17.1631 12.5502 17.5375C12.7375 17.9121 13.0034 18.2094 13.3481 18.4294C13.693 18.6414 14.0853 18.7549 14.5251 18.77ZM24.8211 13.4446L24.6042 19.7529L23.7527 19.7236L23.9436 14.1709L20.9214 14.067L20.7839 15.6232C20.6748 16.9322 20.4883 17.9344 20.2242 18.6297C19.9602 19.3251 19.5204 19.6622 18.9047 19.641C18.7368 19.6352 18.534 19.5962 18.2964 19.524L18.3815 18.7945C18.5243 18.8314 18.6237 18.8509 18.6797 18.8528C19.0075 18.8641 19.2606 18.7207 19.4389 18.4226C19.6172 18.1246 19.7421 17.7526 19.8134 17.3068C19.8848 16.861 19.9531 16.271 20.0184 15.5368L20.2038 13.2859L24.8211 13.4446ZM27.2417 13.5278L28.0932 13.5571L27.9209 18.5701L32.3027 13.7017L33.0582 13.7277L32.8414 20.036L31.9899 20.0067L32.1622 14.9937L27.7924 19.8624L27.0248 19.8361L27.2417 13.5278ZM35.4985 13.8116L36.35 13.8409L36.1777 18.8539L40.5595 13.9856L41.3151 14.0115L41.0983 20.3198L40.2468 20.2905L40.4191 15.2775L36.0492 20.1463L35.2817 20.1199L35.4985 13.8116ZM43.7554 14.0954L44.6069 14.1247L44.4346 19.1377L48.8164 14.2694L49.5719 14.2954L49.3551 20.6036L48.5036 20.5744L48.6759 15.5613L44.3061 20.4301L43.5385 20.4037L43.7554 14.0954ZM52.0122 14.3792L52.8637 14.4085L52.6914 19.4215L57.0732 14.5532L57.8288 14.5792L57.6119 20.8874L56.7604 20.8582L56.9328 15.8451L52.5629 20.7139L51.7954 20.6875L52.0122 14.3792ZM60.2691 14.663L61.1206 14.6923L60.9482 19.7054L65.3301 14.837L66.0856 14.863L65.8688 21.1713L65.0173 21.142L65.1896 16.129L60.8198 20.9977L60.0522 20.9713L60.2691 14.663ZM68.5259 14.9469L69.3774 14.9761L69.2051 19.9892L73.5869 15.1208L74.3425 15.1468L74.1256 21.4551L73.2741 21.4258L73.4464 16.4128L69.0766 21.2815L68.3091 21.2551L68.5259 14.9469ZM76.7827 15.2307L77.6342 15.2599L77.5382 18.0543L81.5078 18.1908L81.6039 15.3964L82.4554 15.4257L82.2385 21.7339L81.3871 21.7047L81.4827 18.9223L77.513 18.7859L77.4174 21.5682L76.5659 21.539L76.7827 15.2307ZM84.7736 20.5723C84.9575 20.5787 85.1072 20.6479 85.2227 20.7799C85.3385 20.9039 85.3933 21.0579 85.387 21.2418C85.3837 21.3378 85.3641 21.4411 85.3283 21.552C85.3004 21.6631 85.2561 21.7896 85.1952 21.9316L84.6346 23.5693L84.0589 23.5496L84.5264 21.8246C84.3999 21.7802 84.2984 21.7047 84.222 21.598C84.1459 21.4833 84.1105 21.35 84.1157 21.1981C84.122 21.0142 84.1872 20.8644 84.3113 20.7486C84.4356 20.6248 84.5897 20.566 84.7736 20.5723ZM95.9167 15.8884L92.5197 22.8438C92.2436 23.4266 91.9333 23.8362 91.589 24.0725C91.2447 24.3089 90.8366 24.4189 90.3649 24.4027C90.0611 24.3922 89.7789 24.3345 89.5184 24.2295C89.2578 24.1245 89.0349 23.9727 88.8496 23.7743L89.2672 23.1522C89.576 23.483 89.9543 23.6561 90.4021 23.6715C90.6899 23.6814 90.9365 23.6099 91.1419 23.4568C91.3552 23.3041 91.5565 23.0388 91.7456 22.6611L92.0424 22.0589L89.4405 15.6658L90.328 15.6963L92.5183 21.1387L95.0772 15.8595L95.9167 15.8884ZM107.434 16.2843L107.217 22.5925L106.438 22.5657L106.609 17.5767L103.909 21.7104L103.526 21.6972L101.117 17.3759L100.945 22.3769L100.165 22.3501L100.382 16.0419L101.246 16.0716L103.764 20.7088L106.642 16.2571L107.434 16.2843ZM115.256 19.9752L109.979 19.7938C110.005 20.451 110.238 20.9914 110.68 21.4148C111.122 21.8302 111.691 22.0499 112.386 22.0738C112.778 22.0873 113.14 22.0317 113.473 21.907C113.806 21.7744 114.097 21.5763 114.346 21.3127L114.806 21.8808C114.515 22.207 114.155 22.4508 113.725 22.6121C113.303 22.7737 112.84 22.8459 112.336 22.8285C111.689 22.8063 111.118 22.6506 110.623 22.3614C110.137 22.0646 109.763 21.6675 109.5 21.1701C109.237 20.6728 109.116 20.1163 109.137 19.5007C109.158 18.885 109.309 18.3379 109.59 17.8593C109.878 17.3809 110.259 17.0137 110.732 16.7578C111.213 16.5022 111.745 16.3844 112.329 16.4045C112.913 16.4246 113.432 16.5785 113.886 16.8663C114.341 17.154 114.691 17.5463 114.938 18.0431C115.186 18.5319 115.299 19.0881 115.277 19.7117L115.256 19.9752ZM112.304 17.1361C111.696 17.1152 111.178 17.2935 110.749 17.671C110.328 18.0407 110.079 18.5364 110.001 19.1582L114.475 19.3119C114.44 18.6864 114.221 18.1746 113.819 17.7765C113.425 17.3707 112.92 17.1572 112.304 17.1361ZM117.271 16.6224L118.122 16.6517L118.026 19.446L121.996 19.5825L122.092 16.7881L122.943 16.8174L122.726 23.1256L121.875 23.0964L121.97 20.314L118.001 20.1776L117.905 22.9599L117.054 22.9307L117.271 16.6224ZM130.209 17.0671L129.992 23.3754L129.212 23.3486L129.284 21.2618L127.305 21.1938L127.065 21.1856L125.53 23.222L124.607 23.1903L126.254 21.0376C125.771 20.8849 125.403 20.6401 125.15 20.3033C124.898 19.9664 124.78 19.5461 124.798 19.0424C124.822 18.3388 125.08 17.8114 125.572 17.4601C126.065 17.1088 126.727 16.9474 127.558 16.976L130.209 17.0671ZM125.66 19.0961C125.628 20.0315 126.208 20.5197 127.399 20.5607L129.306 20.6262L129.403 17.7959L127.556 17.7324C126.325 17.6901 125.693 18.1446 125.66 19.0961ZM16.9391 28.1825L16.7223 34.4908L15.8708 34.4615L16.0617 28.9088L12.104 28.7728L11.9131 34.3255L11.0616 34.2962L11.2785 27.9879L16.9391 28.1825ZM21.7432 34.7234C21.1356 34.7025 20.5926 34.5478 20.1142 34.2592C19.6361 33.9626 19.2655 33.5656 19.0025 33.0683C18.7394 32.5709 18.6184 32.0145 18.6396 31.3988C18.6607 30.7832 18.8196 30.2363 19.1162 29.7582C19.4128 29.2801 19.8097 28.9136 20.3067 28.6585C20.8038 28.4034 21.3561 28.2863 21.9638 28.3072C22.5714 28.3281 23.1144 28.4828 23.5928 28.7714C24.0711 29.06 24.4379 29.4529 24.6929 29.9499C24.956 30.4473 25.077 31.0037 25.0558 31.6194C25.0346 32.235 24.8758 32.7819 24.5792 33.26C24.2906 33.7383 23.8976 34.1091 23.4003 34.3721C22.9032 34.6272 22.3509 34.7443 21.7432 34.7234ZM21.7692 33.9679C22.2169 33.9832 22.6201 33.897 22.9788 33.7093C23.3457 33.5137 23.6356 33.2315 23.8484 32.8626C24.0612 32.4937 24.1758 32.0694 24.1923 31.5897C24.2088 31.11 24.1236 30.6788 23.9366 30.2961C23.7496 29.9135 23.4797 29.616 23.1268 29.4038C22.7821 29.1838 22.3859 29.0661 21.9382 29.0508C21.4905 29.0354 21.0831 29.1254 20.7162 29.3209C20.3575 29.5087 20.0678 29.7869 19.847 30.1556C19.6342 30.5245 19.5196 30.9488 19.5031 31.4285C19.4866 31.9082 19.5718 32.3394 19.7588 32.7221C19.9538 33.105 20.2236 33.4064 20.5682 33.6264C20.9211 33.8386 21.3214 33.9525 21.7692 33.9679ZM32.91 34.3028L32.8321 36.5694L32.0286 36.5418L32.0809 35.0187L26.4323 34.8245L26.3799 36.3476L25.5764 36.32L25.6543 34.0534L26.0141 34.0657C26.4386 34.0563 26.7372 33.7544 26.9097 33.16C27.0822 32.5655 27.215 31.7296 27.3081 30.6522L27.4646 28.5443L32.1179 28.7043L31.9266 34.269L32.91 34.3028ZM28.086 30.7269C28.0152 31.621 27.9139 32.358 27.7819 32.9378C27.6501 33.5096 27.4367 33.8985 27.1414 34.1045L31.0751 34.2397L31.2404 29.4305L28.2062 29.3262L28.086 30.7269ZM37.1802 35.254C36.5566 35.2326 36.0016 35.0774 35.5153 34.7886C35.0369 34.5 34.6662 34.107 34.4031 33.6097C34.1403 33.1043 34.0195 32.5438 34.0406 31.9282C34.0618 31.3126 34.2207 30.7657 34.5173 30.2876C34.8139 29.8095 35.2107 29.4429 35.7078 29.1879C36.2128 28.9331 36.7772 28.8164 37.4008 28.8378C37.9445 28.8565 38.4245 28.9811 38.8408 29.2115C39.2654 29.4342 39.5946 29.7537 39.8285 30.17L39.178 30.5799C38.9808 30.2609 38.725 30.02 38.4104 29.8571C38.0961 29.6862 37.751 29.5943 37.3752 29.5814C36.9195 29.5657 36.5042 29.6555 36.1292 29.8507C35.7626 30.0382 35.4689 30.3163 35.2481 30.685C35.0353 31.0539 34.9206 31.4782 34.9041 31.9579C34.8874 32.4456 34.9725 32.8808 35.1594 33.2634C35.3547 33.6384 35.6286 33.9359 35.9813 34.1562C36.3422 34.3687 36.7505 34.4828 37.2062 34.4985C37.582 34.5114 37.9324 34.4474 38.2574 34.3065C38.5825 34.1656 38.8543 33.9428 39.0729 33.6381L39.6937 34.0917C39.4318 34.4909 39.0813 34.7911 38.6421 34.9921C38.2032 35.1851 37.7159 35.2724 37.1802 35.254ZM45.8127 29.9314L43.4261 29.8494L43.2353 35.4021L42.3838 35.3729L42.5746 29.8201L40.188 29.7381L40.214 28.9825L45.8387 29.1759L45.8127 29.9314ZM49.2422 29.2448C50.0657 29.2732 50.6902 29.5027 51.1157 29.9336C51.5414 30.3565 51.7404 30.9717 51.7126 31.7792L51.5782 35.6889L50.7627 35.6609L50.7965 34.6774C50.5933 34.9987 50.3007 35.2448 49.9186 35.4157C49.5445 35.587 49.1016 35.6638 48.5899 35.6462C47.8863 35.622 47.3324 35.4349 46.9282 35.0848C46.524 34.7347 46.3314 34.2838 46.3503 33.7322C46.3688 33.1965 46.5755 32.7713 46.9705 32.4567C47.3736 32.1424 47.9988 31.9998 48.8463 32.0289L50.8492 32.0977L50.8623 31.714C50.881 31.1703 50.7433 30.7533 50.4491 30.463C50.1551 30.1648 49.7164 30.0056 49.1327 29.9855C48.7329 29.9718 48.3468 30.0266 47.9744 30.1498C47.6022 30.2651 47.2802 30.4341 47.0084 30.6569L46.6465 30.0081C46.9756 29.7473 47.3665 29.5526 47.8192 29.4241C48.2722 29.2875 48.7465 29.2278 49.2422 29.2448ZM48.7449 34.9791C49.2246 34.9956 49.6401 34.9019 49.9913 34.6978C50.3428 34.4858 50.6097 34.1747 50.7918 33.7648L50.8273 32.7334L48.8485 32.6653C47.7691 32.6282 47.2165 32.9855 47.1907 33.737C47.178 34.1048 47.3079 34.4014 47.5803 34.6269C47.853 34.8444 48.2412 34.9618 48.7449 34.9791ZM57.9747 32.6428C58.8233 32.8721 59.2334 33.4025 59.2048 34.234C59.1858 34.7857 58.9674 35.2025 58.5495 35.4843C58.1315 35.7661 57.5188 35.8931 56.7113 35.8653L53.845 35.7668L54.0618 29.4585L56.8442 29.5542C57.5637 29.5789 58.1226 29.7382 58.5207 30.0321C58.9189 30.3259 59.109 30.7327 59.0911 31.2524C59.0793 31.5962 58.9732 31.8887 58.7728 32.13C58.5807 32.3635 58.3146 32.5345 57.9747 32.6428ZM54.7929 32.2933L56.6877 32.3585C57.1754 32.3752 57.5504 32.2961 57.8126 32.121C58.0827 31.9461 58.2239 31.6828 58.2359 31.331C58.248 30.9793 58.1252 30.7109 57.8674 30.5259C57.6176 30.3412 57.2488 30.2405 56.7611 30.2237L54.8662 30.1586L54.7929 32.2933ZM56.6984 35.1925C57.2421 35.2112 57.6528 35.1373 57.9307 34.9707C58.2086 34.8042 58.354 34.533 58.3669 34.1572C58.3798 33.7814 58.2654 33.5013 58.0236 33.3169C57.7821 33.1245 57.3935 33.0191 56.8578 33.0007L54.771 32.929L54.6956 35.1237L56.6984 35.1925ZM63.5286 33.29L62.0894 33.2405L61.9929 36.0469L61.1414 36.0176L61.3583 29.7093L62.2098 29.7386L62.1145 32.509L63.5657 32.5589L65.8796 29.8648L66.8031 29.8965L64.2154 32.8694L66.7661 36.211L65.7587 36.1763L63.5286 33.29ZM70.3821 29.9715C71.2056 29.9998 71.8301 30.2294 72.2555 30.6603C72.6812 31.0831 72.8802 31.6983 72.8525 32.5059L72.7181 36.4156L71.9026 36.3875L71.9364 35.4041C71.7332 35.7253 71.4406 35.9714 71.0585 36.1424C70.6844 36.3136 70.2415 36.3905 69.7298 36.3729C69.0262 36.3487 68.4723 36.1615 68.0681 35.8115C67.6639 35.4614 67.4712 35.0105 67.4902 34.4588C67.5086 33.9231 67.7153 33.498 68.1104 33.1834C68.5134 32.869 69.1387 32.7264 69.9862 32.7555L71.989 32.8244L72.0022 32.4406C72.0209 31.8969 71.8831 31.48 71.5889 31.1897C71.295 30.8914 70.8562 30.7322 70.2726 30.7122C69.8728 30.6984 69.4867 30.7532 69.1142 30.8765C68.742 30.9918 68.4201 31.1608 68.1482 31.3836L67.7863 30.7348C68.1155 30.4739 68.5064 30.2792 68.9591 30.1507C69.412 30.0142 69.8864 29.9545 70.3821 29.9715ZM69.8848 35.7058C70.3645 35.7223 70.78 35.6285 71.1312 35.4245C71.4827 35.2124 71.7495 34.9014 71.9317 34.4914L71.9672 33.46L69.9883 33.392C68.909 33.3549 68.3564 33.7121 68.3305 34.4637C68.3179 34.8315 68.4478 35.1281 68.7202 35.3536C68.9929 35.5711 69.3811 35.6885 69.8848 35.7058ZM84.3015 36.0693L84.2236 38.3359L83.4201 38.3083L83.4724 36.7852L77.8238 36.5911L77.7714 38.1142L76.9679 38.0865L77.0458 35.8199L77.4056 35.8322C77.8302 35.8228 78.1287 35.5209 78.3012 34.9265C78.4738 34.332 78.6066 33.4961 78.6996 32.4187L78.8561 30.3108L83.5094 30.4708L83.3181 36.0355L84.3015 36.0693ZM79.4775 32.4934C79.4068 33.3875 79.3054 34.1245 79.1734 34.7043C79.0417 35.2761 78.8282 35.665 78.5329 35.871L82.4666 36.0062L82.6319 31.197L79.5977 31.0927L79.4775 32.4934ZM91.3092 30.7389L91.0923 37.0471L90.2408 37.0179L90.4317 31.4651L87.4095 31.3613L87.272 32.9175C87.1629 34.2265 86.9764 35.2287 86.7123 35.924C86.4483 36.6193 86.0085 36.9564 85.3928 36.9353C85.2249 36.9295 85.0221 36.8905 84.7845 36.8183L84.8696 36.0888C85.0124 36.1257 85.1118 36.1452 85.1678 36.1471C85.4956 36.1583 85.7486 36.015 85.927 35.7169C86.1053 35.4189 86.2302 35.0469 86.3015 34.6011C86.3729 34.1553 86.4412 33.5653 86.5065 32.8311L86.6919 30.5802L91.3092 30.7389ZM98.5749 30.9886L98.3581 37.2969L97.5785 37.2701L97.6503 35.1833L95.6714 35.1153L95.4316 35.1071L93.8967 37.1435L92.9733 37.1118L94.6202 34.9591C94.1371 34.8064 93.7693 34.5616 93.5168 34.2248C93.2642 33.8879 93.1466 33.4676 93.1639 32.9639C93.1881 32.2603 93.4463 31.7329 93.9387 31.3816C94.431 31.0303 95.093 30.8689 95.9245 30.8975L98.5749 30.9886ZM94.0265 33.0176C93.9944 33.953 94.574 34.4412 95.7652 34.4822L97.6721 34.5477L97.7694 31.7174L95.9225 31.6539C94.6912 31.6116 94.0592 32.0661 94.0265 33.0176ZM108.553 32.088L106.166 32.006L105.976 37.5587L105.124 37.5295L105.315 31.9767L102.928 31.8947L102.954 31.1391L108.579 31.3325L108.553 32.088ZM114.917 34.9724L109.64 34.791C109.665 35.4482 109.899 35.9886 110.34 36.412C110.782 36.8274 111.351 37.0471 112.047 37.071C112.439 37.0845 112.801 37.0289 113.133 36.9042C113.466 36.7716 113.757 36.5735 114.006 36.3099L114.467 36.878C114.175 37.2042 113.815 37.448 113.385 37.6093C112.963 37.7709 112.501 37.843 111.997 37.8257C111.349 37.8035 110.778 37.6478 110.284 37.3586C109.798 37.0617 109.423 36.6646 109.16 36.1673C108.897 35.67 108.776 35.1135 108.797 34.4979C108.818 33.8822 108.969 33.3351 109.25 32.8564C109.539 32.3781 109.919 32.0109 110.392 31.755C110.874 31.4994 111.406 31.3816 111.99 31.4017C112.573 31.4218 113.092 31.5757 113.547 31.8635C114.001 32.1512 114.352 32.5435 114.599 33.0403C114.846 33.5291 114.959 34.0853 114.938 34.7089L114.917 34.9724ZM111.964 32.1333C111.357 32.1124 110.838 32.2907 110.409 32.6681C109.988 33.0379 109.739 33.5336 109.662 34.1553L114.135 34.3091C114.1 33.6836 113.882 33.1717 113.479 32.7737C113.085 32.3679 112.58 32.1544 111.964 32.1333ZM121.959 31.7924L121.742 38.1007L120.891 38.0714L121.082 32.5187L118.059 32.4148L117.922 33.971C117.813 35.28 117.626 36.2822 117.362 36.9776C117.098 37.6729 116.658 38.01 116.043 37.9888C115.875 37.983 115.672 37.9441 115.434 37.8718L115.519 37.1423C115.662 37.1793 115.762 37.1987 115.818 37.2006C116.145 37.2119 116.399 37.0685 116.577 36.7704C116.755 36.4724 116.88 36.1005 116.951 35.6547C117.023 35.2088 117.091 34.6188 117.156 33.8847L117.342 31.6337L121.959 31.7924ZM129.779 35.4832L124.502 35.3018C124.527 35.9591 124.761 36.4994 125.203 36.9229C125.645 37.3383 126.214 37.558 126.909 37.5819C127.301 37.5953 127.663 37.5397 127.995 37.4151C128.328 37.2824 128.619 37.0843 128.868 36.8207L129.329 37.3889C129.038 37.7151 128.677 37.9588 128.247 38.1202C127.826 38.2818 127.363 38.3539 126.859 38.3366C126.212 38.3143 125.641 38.1586 125.146 37.8695C124.66 37.5726 124.286 37.1755 124.022 36.6782C123.759 36.1808 123.638 35.6244 123.66 35.0087C123.681 34.3931 123.832 33.8459 124.112 33.3673C124.401 32.8889 124.782 32.5218 125.255 32.2659C125.736 32.0103 126.268 31.8925 126.852 31.9126C127.435 31.9326 127.955 32.0865 128.409 32.3743C128.863 32.6621 129.214 33.0544 129.461 33.5512C129.708 34.0399 129.821 34.5962 129.8 35.2198L129.779 35.4832ZM126.827 32.6441C126.219 32.6232 125.701 32.8015 125.271 33.179C124.85 33.5488 124.601 34.0445 124.524 34.6662L128.997 34.82C128.963 34.1944 128.744 33.6826 128.342 33.2845C127.947 32.8788 127.442 32.6653 126.827 32.6441ZM139.301 35.5344C139.267 36.5178 138.917 37.2782 138.25 37.8156C137.583 38.353 136.657 38.6254 135.472 38.6327L135.394 40.8993L134.567 40.8709L134.644 38.6162C133.47 38.5278 132.569 38.1927 131.941 37.6108C131.321 37.0211 131.028 36.2346 131.062 35.2511C131.095 34.2757 131.441 33.5232 132.1 32.9935C132.766 32.4641 133.688 32.1956 134.865 32.188L134.952 29.6455L135.78 29.6739L135.693 32.2164C136.874 32.3131 137.779 32.6484 138.408 33.2223C139.036 33.7962 139.334 34.5669 139.301 35.5344ZM131.901 35.28C131.875 36.0316 132.095 36.6275 132.56 37.0677C133.033 37.5082 133.737 37.7725 134.67 37.8607L134.839 32.9436C133.91 32.9596 133.194 33.1712 132.692 33.5782C132.19 33.9772 131.926 34.5444 131.901 35.28ZM135.498 37.8891C136.435 37.8733 137.154 37.6619 137.657 37.2549C138.167 36.8482 138.435 36.2651 138.461 35.5055C138.487 34.7619 138.259 34.1738 137.777 33.741C137.304 33.3084 136.6 33.0521 135.667 32.972L135.498 37.8891ZM143.593 38.9118C142.985 38.8909 142.442 38.7362 141.964 38.4476C141.486 38.151 141.115 37.754 140.852 37.2567C140.589 36.7593 140.468 36.2029 140.489 35.5872C140.511 34.9716 140.67 34.4247 140.966 33.9466C141.263 33.4685 141.66 33.102 142.157 32.8469C142.654 32.5918 143.206 32.4747 143.814 32.4956C144.421 32.5165 144.964 32.6712 145.443 32.9598C145.921 33.2484 146.288 33.6413 146.543 34.1383C146.806 34.6357 146.927 35.1921 146.906 35.8078C146.885 36.4234 146.726 36.9703 146.429 37.4484C146.14 37.9267 145.747 38.2975 145.25 38.5605C144.753 38.8156 144.201 38.9327 143.593 38.9118ZM143.619 38.1563C144.067 38.1716 144.47 38.0854 144.829 37.8977C145.196 37.7021 145.485 37.4199 145.698 37.051C145.911 36.6821 146.026 36.2578 146.042 35.7781C146.059 35.2984 145.973 34.8672 145.787 34.4845C145.6 34.1019 145.33 33.8044 144.977 33.5922C144.632 33.3722 144.236 33.2545 143.788 33.2392C143.34 33.2238 142.933 33.3138 142.566 33.5093C142.207 33.6971 141.918 33.9753 141.697 34.344C141.484 34.7129 141.369 35.1372 141.353 35.6169C141.336 36.0966 141.422 36.5278 141.609 36.9105C141.804 37.2934 142.073 37.5948 142.418 37.8148C142.771 38.027 143.171 38.1409 143.619 38.1563ZM148.834 32.7162L149.685 32.7455L149.589 35.5398L153.559 35.6763L153.655 32.8819L154.507 32.9112L154.29 39.2195L153.438 39.1902L153.534 36.4078L149.564 36.2714L149.469 39.0537L148.617 39.0245L148.834 32.7162ZM159.099 33.021C159.923 33.0493 160.547 33.2789 160.973 33.7098C161.398 34.1327 161.597 34.7479 161.57 35.5554L161.435 39.4651L160.62 39.437L160.653 38.4536C160.45 38.7748 160.158 39.0209 159.776 39.1919C159.402 39.3631 158.959 39.44 158.447 39.4224C157.743 39.3982 157.189 39.2111 156.785 38.861C156.381 38.5109 156.188 38.06 156.207 37.5083C156.226 36.9726 156.432 36.5475 156.828 36.2329C157.231 35.9185 157.856 35.7759 158.703 35.8051L160.706 35.8739L160.719 35.4901C160.738 34.9464 160.6 34.5295 160.306 34.2392C160.012 33.9409 159.573 33.7817 158.99 33.7617C158.59 33.7479 158.204 33.8027 157.831 33.926C157.459 34.0413 157.137 34.2103 156.865 34.4331L156.503 33.7843C156.833 33.5234 157.224 33.3288 157.676 33.2002C158.129 33.0637 158.603 33.004 159.099 33.021ZM158.602 38.7553C159.082 38.7718 159.497 38.678 159.848 38.474C160.2 38.2619 160.467 37.9509 160.649 37.5409L160.684 36.5095L158.705 36.4415C157.626 36.4044 157.074 36.7616 157.048 37.5132C157.035 37.881 157.165 38.1776 157.437 38.4031C157.71 38.6206 158.098 38.738 158.602 38.7553ZM14.0149 43.0428C14.6066 43.0632 15.1376 43.2175 15.6079 43.5058C16.0786 43.7862 16.4415 44.1749 16.6965 44.6719C16.9516 45.169 17.0684 45.7293 17.047 46.3529C17.0253 46.9846 16.8701 47.5396 16.5815 48.0179C16.2929 48.4963 15.9041 48.8632 15.415 49.1185C14.9342 49.3661 14.394 49.4796 13.7944 49.459C13.2827 49.4414 12.8225 49.3216 12.4139 49.0994C12.0136 48.8695 11.6885 48.5462 11.4387 48.1293L11.3179 51.6432L10.4664 51.614L10.7632 42.9791L11.5787 43.0071L11.5358 44.2544C11.806 43.8474 12.1528 43.5391 12.5762 43.3296C13.0077 43.1203 13.4872 43.0247 14.0149 43.0428ZM13.7604 48.7014C14.2001 48.7165 14.6033 48.6303 14.97 48.4428C15.3369 48.2473 15.6268 47.9651 15.8396 47.5962C16.0604 47.2276 16.179 46.8034 16.1955 46.3237C16.212 45.844 16.1226 45.4166 15.9274 45.0417C15.7404 44.6591 15.4706 44.3576 15.118 44.1374C14.7653 43.9171 14.3691 43.7994 13.9294 43.7843C13.4817 43.7689 13.0743 43.859 12.7074 44.0545C12.3484 44.2503 12.0586 44.5325 11.8378 44.9011C11.6253 45.262 11.5108 45.6824 11.4943 46.1621C11.4778 46.6418 11.563 47.073 11.75 47.4556C11.9449 47.8385 12.2147 48.14 12.5594 48.36C12.9123 48.5722 13.3126 48.686 13.7604 48.7014ZM21.1221 43.2871C21.9456 43.3154 22.5701 43.545 22.9956 43.9759C23.4213 44.3988 23.6203 45.014 23.5925 45.8215L23.4581 49.7312L22.6426 49.7031L22.6764 48.7197C22.4733 49.0409 22.1806 49.287 21.7985 49.458C21.4244 49.6293 20.9815 49.7061 20.4698 49.6885C19.7662 49.6643 19.2123 49.4772 18.8081 49.1271C18.4039 48.777 18.2113 48.3261 18.2303 47.7744C18.2487 47.2387 18.4554 46.8136 18.8504 46.499C19.2535 46.1846 19.8787 46.042 20.7262 46.0712L22.7291 46.14L22.7423 45.7562C22.7609 45.2126 22.6232 44.7956 22.329 44.5053C22.0351 44.207 21.5963 44.0479 21.0126 44.0278C20.6128 44.0141 20.2267 44.0688 19.8543 44.1921C19.4821 44.3074 19.1601 44.4764 18.8883 44.6992L18.5264 44.0504C18.8555 43.7896 19.2464 43.5949 19.6991 43.4663C20.1521 43.3298 20.6264 43.2701 21.1221 43.2871ZM20.6248 49.0214C21.1046 49.0379 21.52 48.9441 21.8712 48.7401C22.2227 48.528 22.4896 48.217 22.6718 47.807L22.7072 46.7756L20.7284 46.7076C19.649 46.6705 19.0964 47.0277 19.0706 47.7793C19.0579 48.1471 19.1878 48.4437 19.4602 48.6692C19.7329 48.8867 20.1211 49.0041 20.6248 49.0214ZM28.3613 49.9597C27.7376 49.9383 27.1826 49.7832 26.6963 49.4943C26.2179 49.2057 25.8472 48.8127 25.5841 48.3154C25.3213 47.81 25.2005 47.2496 25.2217 46.6339C25.2428 46.0183 25.4017 45.4714 25.6983 44.9933C25.9949 44.5152 26.3917 44.1487 26.8888 43.8936C27.3938 43.6388 27.9582 43.5221 28.5818 43.5435C29.1255 43.5622 29.6055 43.6868 30.0218 43.9172C30.4464 44.1399 30.7756 44.4594 31.0095 44.8757L30.359 45.2856C30.1619 44.9667 29.906 44.7257 29.5914 44.5628C29.2771 44.3919 28.932 44.3 28.5562 44.2871C28.1005 44.2714 27.6852 44.3612 27.3103 44.5565C26.9436 44.744 26.6499 45.022 26.4291 45.3907C26.2163 45.7596 26.1016 46.1839 26.0852 46.6636C26.0684 47.1513 26.1535 47.5865 26.3405 47.9692C26.5357 48.3441 26.8096 48.6417 27.1623 48.8619C27.5232 49.0744 27.9315 49.1885 28.3872 49.2042C28.763 49.2171 29.1134 49.1531 29.4384 49.0122C29.7635 48.8713 30.0353 48.6485 30.2539 48.3438L30.8747 48.7974C30.6128 49.1966 30.2623 49.4968 29.8231 49.6978C29.3842 49.8908 28.8969 49.9782 28.3613 49.9597ZM38.3601 43.9277L38.1433 50.236L37.2918 50.2067L37.4826 44.654L33.525 44.5179L33.3341 50.0706L32.4826 50.0414L32.6994 43.7331L38.3601 43.9277ZM45.9376 44.1881L45.7207 50.4964L44.8692 50.4671L45.0601 44.9144L42.0379 44.8105L41.9003 46.3667C41.7913 47.6758 41.6048 48.6779 41.3407 49.3733C41.0767 50.0686 40.6368 50.4057 40.0212 50.3846C39.8533 50.3788 39.6505 50.3398 39.4129 50.2676L39.498 49.5381C39.6408 49.575 39.7402 49.5944 39.7961 49.5964C40.124 49.6076 40.377 49.4642 40.5554 49.1662C40.7337 48.8681 40.8586 48.4962 40.9299 48.0504C41.0013 47.6046 41.0696 47.0146 41.1349 46.2804L41.3203 44.0294L45.9376 44.1881ZM50.5305 44.298C51.354 44.3263 51.9785 44.5559 52.404 44.9868C52.8297 45.4096 53.0287 46.0248 53.0009 46.8324L52.8665 50.742L52.051 50.714L52.0848 49.7306C51.8817 50.0518 51.589 50.2979 51.2069 50.4689C50.8328 50.6401 50.3899 50.717 49.8782 50.6994C49.1747 50.6752 48.6208 50.488 48.2165 50.1379C47.8123 49.7879 47.6197 49.337 47.6387 48.7853C47.6571 48.2496 47.8638 47.8245 48.2589 47.5098C48.6619 47.1955 49.2872 47.0529 50.1347 47.082L52.1375 47.1509L52.1507 46.7671C52.1694 46.2234 52.0316 45.8064 51.7374 45.5162C51.4435 45.2179 51.0047 45.0587 50.421 45.0387C50.0213 45.0249 49.6351 45.0797 49.2627 45.203C48.8905 45.3183 48.5685 45.4873 48.2967 45.7101L47.9348 45.0613C48.2639 44.8004 48.6549 44.6057 49.1075 44.4772C49.5605 44.3407 50.0348 44.281 50.5305 44.298ZM50.0332 50.0323C50.513 50.0488 50.9284 49.955 51.2796 49.7509C51.6311 49.5389 51.898 49.2279 52.0802 48.8179L52.1156 47.7865L50.1368 47.7185C49.0574 47.6814 48.5048 48.0386 48.479 48.7902C48.4664 49.1579 48.5962 49.4546 48.8687 49.6801C49.1413 49.8976 49.5295 50.015 50.0332 50.0323ZM59.263 47.696C60.1117 47.9253 60.5217 48.4557 60.4931 49.2872C60.4741 49.8389 60.2557 50.2556 59.8378 50.5374C59.4198 50.8192 58.8071 50.9462 57.9996 50.9185L55.1333 50.82L55.3501 44.5117L58.1325 44.6073C58.8521 44.6321 59.4109 44.7914 59.8091 45.0852C60.2072 45.3791 60.3973 45.7858 60.3795 46.3055C60.3677 46.6493 60.2615 46.9418 60.0611 47.1831C59.869 47.4166 59.603 47.5876 59.263 47.696ZM56.0812 47.3465L57.9761 47.4116C58.4638 47.4284 58.8387 47.3492 59.1009 47.1741C59.371 46.9993 59.5122 46.736 59.5243 46.3842C59.5364 46.0324 59.4135 45.764 59.1557 45.579C58.9059 45.3944 58.5371 45.2936 58.0494 45.2769L56.1546 45.2117L56.0812 47.3465ZM57.9867 50.2456C58.5304 50.2643 58.9412 50.1904 59.2191 50.0238C59.4969 49.8573 59.6423 49.5861 59.6553 49.2104C59.6682 48.8346 59.5537 48.5545 59.3119 48.3701C59.0704 48.1777 58.6818 48.0722 58.1461 48.0538L56.0593 47.9821L55.9839 50.1768L57.9867 50.2456ZM62.6466 44.7625L63.4981 44.7918L63.3258 49.8048L67.7076 44.9365L68.4632 44.9624L68.2463 51.2707L67.3948 51.2414L67.5671 46.2284L63.1973 51.0971L62.4298 51.0708L62.6466 44.7625ZM76.0604 45.2236L75.8436 51.5318L74.9921 51.5026L75.1829 45.9499L72.1607 45.846L72.0232 47.4022C71.9141 48.7112 71.7276 49.7134 71.4636 50.4087C71.1995 51.1041 70.7597 51.4411 70.144 51.42C69.9761 51.4142 69.7734 51.3752 69.5357 51.303L69.6208 50.5735C69.7636 50.6104 69.863 50.6299 69.919 50.6318C70.2468 50.6431 70.4999 50.4997 70.6782 50.2016C70.8566 49.9036 70.9814 49.5316 71.0528 49.0858C71.1241 48.64 71.1924 48.05 71.2577 47.3158L71.4431 45.0649L76.0604 45.2236ZM80.6534 45.3334C81.4769 45.3617 82.1014 45.5913 82.5268 46.0222C82.9525 46.4451 83.1515 47.0603 83.1238 47.8678L82.9894 51.7775L82.1739 51.7494L82.2077 50.766C82.0045 51.0872 81.7119 51.3333 81.3298 51.5043C80.9557 51.6755 80.5128 51.7524 80.0011 51.7348C79.2975 51.7106 78.7436 51.5235 78.3394 51.1734C77.9352 50.8233 77.7425 50.3724 77.7615 49.8207C77.7799 49.285 77.9866 48.8599 78.3817 48.5453C78.7847 48.2309 79.41 48.0883 80.2575 48.1175L82.2603 48.1863L82.2735 47.8025C82.2922 47.2589 82.1544 46.8419 81.8602 46.5516C81.5663 46.2533 81.1275 46.0942 80.5439 46.0741C80.1441 46.0604 79.758 46.1151 79.3855 46.2384C79.0133 46.3537 78.6914 46.5227 78.4195 46.7455L78.0576 46.0967C78.3868 45.8358 78.7777 45.6412 79.2304 45.5126C79.6833 45.3761 80.1577 45.3164 80.6534 45.3334ZM80.1561 51.0677C80.6358 51.0842 81.0513 50.9904 81.4025 50.7864C81.754 50.5743 82.0208 50.2633 82.203 49.8533L82.2385 48.8219L80.2596 48.7539C79.1803 48.7168 78.6277 49.074 78.6018 49.8256C78.5892 50.1934 78.7191 50.49 78.9915 50.7155C79.2642 50.933 79.6524 51.0504 80.1561 51.0677ZM87.8925 52.006C87.2689 51.9846 86.7139 51.8294 86.2275 51.5406C85.7491 51.252 85.3784 50.859 85.1154 50.3617C84.8526 49.8563 84.7317 49.2959 84.7529 48.6802C84.7741 48.0646 84.9329 47.5177 85.2295 47.0396C85.5261 46.5615 85.923 46.195 86.42 45.9399C86.9251 45.6851 87.4894 45.5684 88.1131 45.5898C88.6567 45.6085 89.1367 45.7331 89.5531 45.9635C89.9777 46.1862 90.3069 46.5057 90.5407 46.922L89.8903 47.3319C89.6931 47.013 89.4372 46.772 89.1226 46.6091C88.8083 46.4382 88.4633 46.3463 88.0875 46.3334C87.6318 46.3177 87.2164 46.4075 86.8415 46.6027C86.4748 46.7903 86.1811 47.0683 85.9603 47.437C85.7475 47.8059 85.6329 48.2302 85.6164 48.7099C85.5996 49.1976 85.6847 49.6328 85.8717 50.0154C86.0669 50.3904 86.3409 50.688 86.6935 50.9082C87.0544 51.1207 87.4627 51.2348 87.9185 51.2505C88.2943 51.2634 88.6447 51.1994 88.9697 51.0585C89.2947 50.9176 89.5665 50.6948 89.7851 50.3901L90.4059 50.8437C90.1441 51.2429 89.7935 51.5431 89.3544 51.7441C88.9155 51.9371 88.4282 52.0245 87.8925 52.006ZM94.8644 48.1032C95.6557 48.1384 96.2493 48.335 96.6452 48.6928C97.0492 49.0509 97.24 49.5537 97.2177 50.2013C97.1946 50.8729 96.953 51.3809 96.4929 51.7253C96.0408 52.07 95.3952 52.2239 94.5559 52.1871L92.0139 52.0877L92.2307 45.7794L93.0822 45.8087L93.0063 48.0154L94.8644 48.1032ZM94.5302 51.5378C95.1136 51.5659 95.5573 51.465 95.8614 51.2353C96.1737 50.9979 96.338 50.6434 96.3542 50.1716C96.3702 49.7079 96.2341 49.359 95.946 49.125C95.6578 48.891 95.2181 48.7598 94.6267 48.7315L92.9845 48.651L92.888 51.4573L94.5302 51.5378ZM106.04 49.3039C106.889 49.5332 107.299 50.0636 107.27 50.8951C107.251 51.4467 107.033 51.8635 106.615 52.1453C106.197 52.4271 105.584 52.5541 104.777 52.5264L101.91 52.4278L102.127 46.1196L104.91 46.2152C105.629 46.2399 106.188 46.3992 106.586 46.6931C106.984 46.9869 107.174 47.3937 107.157 47.9134C107.145 48.2572 107.039 48.5497 106.838 48.791C106.646 49.0245 106.38 49.1955 106.04 49.3039ZM102.858 48.9544L104.753 49.0195C105.241 49.0363 105.616 48.9571 105.878 48.782C106.148 48.6072 106.289 48.3439 106.301 47.9921C106.313 47.6403 106.191 47.3719 105.933 47.1869C105.683 47.0022 105.314 46.9015 104.826 46.8848L102.932 46.8196L102.858 48.9544ZM104.764 51.8535C105.307 51.8722 105.718 51.7983 105.996 51.6317C106.274 51.4652 106.419 51.194 106.432 50.8182C106.445 50.4425 106.331 50.1624 106.089 49.978C105.847 49.7855 105.459 49.6801 104.923 49.6617L102.836 49.59L102.761 51.7847L104.764 51.8535ZM119.614 46.7207L119.397 53.0289L118.618 53.0021L118.789 48.0131L116.09 52.1468L115.706 52.1336L113.297 47.8123L113.125 52.8133L112.346 52.7865L112.562 46.4783L113.426 46.508L115.944 51.1452L118.823 46.6935L119.614 46.7207ZM124.21 46.8306C125.033 46.8589 125.658 47.0885 126.083 47.5194C126.509 47.9422 126.708 48.5574 126.68 49.365L126.546 53.2747L125.73 53.2466L125.764 52.2632C125.561 52.5844 125.268 52.8305 124.886 53.0015C124.512 53.1727 124.069 53.2496 123.557 53.232C122.854 53.2078 122.3 53.0206 121.896 52.6706C121.491 52.3205 121.299 51.8696 121.318 51.3179C121.336 50.7822 121.543 50.3571 121.938 50.0425C122.341 49.7281 122.966 49.5855 123.814 49.6146L125.817 49.6835L125.83 49.2997C125.848 48.756 125.711 48.3391 125.417 48.0488C125.123 47.7505 124.684 47.5913 124.1 47.5713C123.7 47.5575 123.314 47.6123 122.942 47.7356C122.57 47.8509 122.248 48.0199 121.976 48.2427L121.614 47.5939C121.943 47.333 122.334 47.1383 122.787 47.0098C123.24 46.8733 123.714 46.8136 124.21 46.8306ZM123.712 52.5649C124.192 52.5814 124.608 52.4876 124.959 52.2836C125.31 52.0715 125.577 51.7605 125.759 51.3505L125.795 50.3191L123.816 50.2511C122.737 50.214 122.184 50.5712 122.158 51.3228C122.145 51.6906 122.275 51.9872 122.548 52.2127C122.82 52.4302 123.209 52.5476 123.712 52.5649ZM137.736 47.3436L137.519 53.6519L128.812 53.3526L129.029 47.0443L129.881 47.0736L129.689 52.6383L132.784 52.7446L132.975 47.1799L133.826 47.2092L133.635 52.7739L136.693 52.879L136.885 47.3143L137.736 47.3436ZM140.167 47.4271L141.019 47.4564L140.846 52.4695L145.228 47.6011L145.984 47.6271L145.767 53.9354L144.915 53.9061L145.088 48.893L140.718 53.7618L139.95 53.7354L140.167 47.4271ZM148.424 47.711L149.276 47.7402L149.18 50.5346L153.149 50.671L153.245 47.8767L154.097 47.9059L153.88 54.2142L153.028 54.185L153.124 51.4026L149.154 51.2661L149.059 54.0485L148.207 54.0192L148.424 47.711ZM161.916 51.5967L156.639 51.4154C156.665 52.0726 156.898 52.613 157.34 53.0364C157.782 53.4518 158.351 53.6715 159.046 53.6954C159.438 53.7089 159.8 53.6533 160.133 53.5286C160.466 53.396 160.757 53.1979 161.006 52.9343L161.466 53.5024C161.175 53.8286 160.815 54.0724 160.385 54.2337C159.963 54.3953 159.5 54.4674 158.996 54.4501C158.349 54.4279 157.778 54.2722 157.283 53.983C156.797 53.6861 156.423 53.289 156.16 52.7917C155.897 52.2944 155.776 51.7379 155.797 51.1223C155.818 50.5066 155.969 49.9595 156.25 49.4808C156.538 49.0025 156.919 48.6353 157.392 48.3794C157.873 48.1238 158.405 48.006 158.989 48.0261C159.573 48.0461 160.092 48.2001 160.546 48.4878C161.001 48.7756 161.351 49.1679 161.598 49.6647C161.846 50.1535 161.959 50.7097 161.937 51.3333L161.916 51.5967ZM158.964 48.7577C158.356 48.7368 157.838 48.9151 157.409 49.2925C156.988 49.6623 156.739 50.158 156.661 50.7797L161.135 50.9335C161.1 50.3079 160.881 49.7961 160.479 49.3981C160.085 48.9923 159.58 48.7788 158.964 48.7577ZM165.061 56.9279C164.638 56.177 164.324 55.3217 164.116 54.362C163.91 53.3943 163.825 52.3628 163.863 51.2674C163.9 50.1721 164.056 49.1488 164.328 48.1976C164.601 47.2384 164.974 46.4067 165.447 45.7026L166.262 45.7306C165.763 46.5219 165.385 47.3774 165.129 48.2972C164.882 49.2172 164.739 50.2169 164.702 51.2963C164.665 52.3756 164.738 53.3828 164.922 54.3176C165.114 55.2528 165.432 56.1322 165.876 56.956L165.061 56.9279ZM169.008 57.0636C168.585 56.3126 168.271 55.4573 168.063 54.4976C167.856 53.53 167.772 52.4984 167.81 51.4031C167.847 50.3077 168.002 49.2845 168.275 48.3333C168.548 47.3741 168.921 46.5424 169.394 45.8382L170.209 45.8663C169.71 46.6576 169.332 47.5131 169.076 48.4329C168.829 49.3529 168.686 50.3526 168.649 51.4319C168.612 52.5113 168.685 53.5184 168.869 54.4533C169.061 55.3884 169.379 56.2679 169.823 57.0916L169.008 57.0636ZM172.955 57.1993C172.532 56.4483 172.217 55.593 172.01 54.6333C171.803 53.6656 171.719 52.6341 171.756 51.5388C171.794 50.4434 171.949 49.4201 172.222 48.4689C172.495 47.5098 172.868 46.6781 173.341 45.9739L174.156 46.0019C173.657 46.7932 173.279 47.6488 173.023 48.5685C172.775 49.4886 172.633 50.4883 172.596 51.5676C172.559 52.647 172.632 53.6541 172.816 54.589C173.008 55.5241 173.326 56.4036 173.77 57.2273L172.955 57.1993ZM10.2479 57.9702L11.0994 57.9995L11.0033 60.7938L14.973 60.9303L15.069 58.1359L15.9205 58.1652L15.7037 64.4735L14.8522 64.4442L14.9478 61.6619L10.9782 61.5254L10.8825 64.3078L10.031 64.2785L10.2479 57.9702ZM23.74 61.856L18.4631 61.6746C18.4886 62.3319 18.7221 62.8722 19.1639 63.2957C19.6058 63.7111 20.1746 63.9308 20.8702 63.9547C21.262 63.9681 21.6241 63.9125 21.9566 63.7879C22.2893 63.6552 22.5803 63.4571 22.8295 63.1935L23.2903 63.7617C22.9989 64.0879 22.6383 64.3316 22.2085 64.493C21.7867 64.6546 21.324 64.7267 20.8203 64.7094C20.1727 64.6871 19.6017 64.5314 19.1073 64.2423C18.6212 63.9454 18.2466 63.5483 17.9836 63.051C17.7205 62.5536 17.5995 61.9972 17.6207 61.3815C17.6419 60.7659 17.7928 60.2187 18.0734 59.7401C18.362 59.2617 18.7428 58.8946 19.2159 58.6387C19.6969 58.3831 20.2293 58.2653 20.813 58.2854C21.3966 58.3054 21.9156 58.4593 22.37 58.7471C22.8244 59.0349 23.1751 59.4272 23.4222 59.924C23.6696 60.4127 23.7825 60.969 23.7611 61.5926L23.74 61.856ZM20.7878 59.0169C20.1802 58.996 19.6617 59.1743 19.2325 59.5518C18.8116 59.9216 18.5624 60.4173 18.485 61.039L22.9583 61.1928C22.9238 60.5672 22.7053 60.0554 22.3027 59.6573C21.9084 59.2516 21.4034 59.0381 20.7878 59.0169ZM31.2767 65.0688C30.669 65.0479 30.126 64.8932 29.6477 64.6046C29.1696 64.308 28.799 63.911 28.5359 63.4137C28.2729 62.9164 28.1519 62.3599 28.1731 61.7442C28.1942 61.1286 28.3531 60.5817 28.6497 60.1036C28.9463 59.6256 29.3431 59.259 29.8402 59.0039C30.3372 58.7488 30.8896 58.6317 31.4972 58.6526C32.1049 58.6735 32.6479 58.8282 33.1262 59.1168C33.6046 59.4054 33.9713 59.7983 34.2264 60.2953C34.4895 60.7927 34.6104 61.3491 34.5893 61.9648C34.5681 62.5804 34.4092 63.1273 34.1126 63.6054C33.824 64.0837 33.4311 64.4545 32.9337 64.7175C32.4367 64.9726 31.8843 65.0897 31.2767 65.0688ZM31.3027 64.3133C31.7504 64.3287 32.1536 64.2425 32.5123 64.0547C32.8792 63.8592 33.1691 63.5769 33.3819 63.208C33.5947 62.8391 33.7093 62.4148 33.7258 61.9351C33.7423 61.4554 33.657 61.0242 33.4701 60.6416C33.2831 60.2589 33.0132 59.9615 32.6602 59.7492C32.3156 59.5292 31.9194 59.4116 31.4717 59.3962C31.0239 59.3808 30.6166 59.4708 30.2497 59.6663C29.891 59.8541 29.6013 60.1324 29.3805 60.501C29.1677 60.8699 29.053 61.2942 29.0366 61.7739C29.0201 62.2536 29.1053 62.6848 29.2923 63.0675C29.4872 63.4504 29.757 63.7518 30.1017 63.9718C30.4546 64.1841 30.8549 64.2979 31.3027 64.3133ZM38.9371 65.3321C38.3134 65.3107 37.7584 65.1555 37.2721 64.8667C36.7937 64.5781 36.423 64.1851 36.1599 63.6878C35.8971 63.1824 35.7763 62.622 35.7975 62.0063C35.8186 61.3907 35.9775 60.8438 36.2741 60.3657C36.5707 59.8876 36.9675 59.521 37.4646 59.266C37.9696 59.0112 38.534 58.8945 39.1576 58.9159C39.7013 58.9346 40.1813 59.0592 40.5976 59.2896C41.0222 59.5123 41.3514 59.8318 41.5853 60.2481L40.9348 60.658C40.7377 60.339 40.4818 60.0981 40.1672 59.9352C39.8529 59.7643 39.5078 59.6724 39.1321 59.6595C38.6763 59.6438 38.261 59.7336 37.8861 59.9288C37.5194 60.1164 37.2257 60.3944 37.0049 60.7631C36.7921 61.132 36.6774 61.5563 36.661 62.036C36.6442 62.5237 36.7293 62.9589 36.9163 63.3415C37.1115 63.7165 37.3854 64.0141 37.7381 64.2343C38.099 64.4468 38.5073 64.5609 38.963 64.5766C39.3388 64.5895 39.6892 64.5255 40.0143 64.3846C40.3393 64.2437 40.6111 64.0209 40.8297 63.7162L41.4505 64.1698C41.1886 64.569 40.8381 64.8692 40.3989 65.0702C39.96 65.2632 39.4728 65.3505 38.9371 65.3321ZM47.5695 60.0095L45.183 59.9275L44.9921 65.4802L44.1406 65.451L44.3315 59.8982L41.9449 59.8162L41.9708 59.0607L47.5955 59.254L47.5695 60.0095ZM50.999 59.323C51.8225 59.3513 52.447 59.5808 52.8725 60.0117C53.2982 60.4346 53.4972 61.0498 53.4694 61.8573L53.335 65.767L52.5195 65.739L52.5533 64.7556C52.3502 65.0768 52.0575 65.3229 51.6754 65.4938C51.3013 65.6651 50.8584 65.7419 50.3467 65.7243C49.6432 65.7001 49.0893 65.513 48.685 65.1629C48.2808 64.8128 48.0882 64.3619 48.1072 63.8103C48.1256 63.2746 48.3323 62.8494 48.7274 62.5348C49.1304 62.2205 49.7557 62.0779 50.6032 62.107L52.606 62.1758L52.6192 61.7921C52.6379 61.2484 52.5001 60.8314 52.2059 60.5411C51.912 60.2429 51.4732 60.0837 50.8895 60.0636C50.4898 60.0499 50.1036 60.1047 49.7312 60.2279C49.359 60.3432 49.037 60.5123 48.7652 60.735L48.4033 60.0862C48.7324 59.8254 49.1233 59.6307 49.576 59.5022C50.029 59.3657 50.5033 59.3059 50.999 59.323ZM50.5017 65.0573C50.9815 65.0737 51.3969 64.98 51.7481 64.7759C52.0996 64.5639 52.3665 64.2528 52.5487 63.8429L52.5841 62.8115L50.6053 62.7434C49.5259 62.7063 48.9733 63.0636 48.9475 63.8151C48.9349 64.1829 49.0647 64.4795 49.3372 64.705C49.6098 64.9225 49.998 65.0399 50.5017 65.0573ZM59.7315 62.7209C60.5802 62.9502 60.9902 63.4806 60.9616 64.3121C60.9426 64.8638 60.7242 65.2806 60.3063 65.5624C59.8883 65.8442 59.2756 65.9712 58.4681 65.9434L55.6018 65.8449L55.8186 59.5366L58.601 59.6323C59.3206 59.657 59.8794 59.8163 60.2776 60.1102C60.6757 60.404 60.8658 60.8108 60.848 61.3305C60.8362 61.6743 60.73 61.9668 60.5296 62.2081C60.3375 62.4416 60.0715 62.6126 59.7315 62.7209ZM56.5497 62.3714L58.4446 62.4366C58.9323 62.4533 59.3072 62.3742 59.5694 62.1991C59.8395 62.0242 59.9807 61.7609 59.9928 61.4091C60.0049 61.0574 59.882 60.789 59.6242 60.604C59.3744 60.4193 59.0056 60.3186 58.5179 60.3018L56.6231 60.2367L56.5497 62.3714ZM58.4552 65.2706C58.9989 65.2893 59.4097 65.2154 59.6875 65.0488C59.9654 64.8823 60.1108 64.6111 60.1238 64.2353C60.1367 63.8595 60.0222 63.5794 59.7804 63.395C59.5389 63.2026 59.1503 63.0972 58.6146 63.0788L56.5278 63.0071L56.4524 65.2018L58.4552 65.2706ZM68.2721 59.9647L68.0552 66.273L67.2037 66.2437L67.3946 60.691L64.3724 60.5871L64.2348 62.1433C64.1258 63.4523 63.9393 64.4545 63.6752 65.1499C63.4112 65.8452 62.9713 66.1823 62.3557 66.1611C62.1878 66.1554 61.985 66.1164 61.7474 66.0442L61.8325 65.3147C61.9753 65.3516 62.0747 65.371 62.1306 65.3729C62.4584 65.3842 62.7115 65.2408 62.8899 64.9428C63.0682 64.6447 63.1931 64.2728 63.2644 63.827C63.3358 63.3812 63.4041 62.7912 63.4693 62.057L63.6548 59.806L68.2721 59.9647ZM75.5378 60.2145L75.321 66.5227L74.5414 66.4959L74.6131 64.4092L72.6343 64.3412L72.3945 64.3329L70.8596 66.3694L69.9361 66.3376L71.5831 64.1849C71.1 64.0323 70.7322 63.7875 70.4796 63.4506C70.2271 63.1137 70.1094 62.6934 70.1267 62.1897C70.1509 61.4862 70.4092 60.9587 70.9016 60.6074C71.3939 60.2561 72.0558 60.0948 72.8874 60.1234L75.5378 60.2145ZM70.9894 62.2434C70.9573 63.1789 71.5368 63.6671 72.7281 63.708L74.635 63.7736L74.7323 60.9432L72.8854 60.8797C71.6541 60.8374 71.0221 61.292 70.9894 62.2434ZM77.9657 60.2979L78.8172 60.3272L78.6449 65.3402L83.0267 60.4719L83.7823 60.4979L83.5654 66.8061L82.7139 66.7769L82.8862 61.7638L78.5164 66.6326L77.7489 66.6062L77.9657 60.2979ZM80.8633 59.485C80.3197 59.4663 79.8926 59.3155 79.5821 59.0327C79.2717 58.7499 79.1209 58.3605 79.13 57.8645L79.7416 57.8855C79.7389 58.1976 79.8422 58.4533 80.0515 58.6526C80.261 58.8439 80.5377 58.9455 80.8815 58.9573C81.2253 58.9691 81.5083 58.8868 81.7305 58.7103C81.9609 58.5261 82.0855 58.2783 82.1042 57.9667L82.7159 57.9877C82.6908 58.4832 82.5097 58.8612 82.1726 59.1217C81.8434 59.3826 81.407 59.5037 80.8633 59.485ZM90.634 61.4898L88.2474 61.4078L88.0565 66.9605L87.205 66.9312L87.3959 61.3785L85.0093 61.2965L85.0352 60.5409L90.6599 60.7343L90.634 61.4898ZM96.9975 64.3741L91.7206 64.1927C91.7461 64.85 91.9797 65.3903 92.4214 65.8138C92.8634 66.2292 93.4322 66.4489 94.1277 66.4728C94.5195 66.4862 94.8816 66.4307 95.2141 66.306C95.5469 66.1734 95.8378 65.9752 96.087 65.7116L96.5478 66.2798C96.2564 66.606 95.8958 66.8497 95.466 67.0111C95.0442 67.1727 94.5815 67.2448 94.0778 67.2275C93.4302 67.2052 92.8592 67.0495 92.3648 66.7604C91.8787 66.4635 91.5042 66.0664 91.2411 65.5691C90.978 65.0718 90.8571 64.5153 90.8782 63.8996C90.8994 63.284 91.0503 62.7369 91.3309 62.2582C91.6195 61.7798 92.0003 61.4127 92.4734 61.1568C92.9544 60.9012 93.4868 60.7834 94.0705 60.8035C94.6541 60.8235 95.1731 60.9775 95.6275 61.2652C96.0819 61.553 96.4326 61.9453 96.6797 62.4421C96.9271 62.9309 97.04 63.4871 97.0186 64.1107L96.9975 64.3741ZM94.0453 61.535C93.4377 61.5141 92.9192 61.6924 92.49 62.0699C92.0691 62.4397 91.8199 62.9354 91.7425 63.5571L96.2159 63.7109C96.1813 63.0853 95.9628 62.5735 95.5602 62.1755C95.1659 61.7697 94.661 61.5562 94.0453 61.535ZM102.151 61.1292L103.002 61.1585L102.906 63.9529L106.876 64.0893L106.972 61.295L107.823 61.3242L107.606 67.6325L106.755 67.6032L106.851 64.8209L102.881 64.6844L102.785 67.4668L101.934 67.4375L102.151 61.1292ZM112.416 61.4341C113.239 61.4624 113.864 61.692 114.289 62.1228C114.715 62.5457 114.914 63.1609 114.886 63.9684L114.752 67.8781L113.936 67.8501L113.97 66.8667C113.767 67.1879 113.474 67.434 113.092 67.6049C112.718 67.7762 112.275 67.853 111.764 67.8354C111.06 67.8112 110.506 67.6241 110.102 67.274C109.698 66.9239 109.505 66.473 109.524 65.9214C109.542 65.3857 109.749 64.9605 110.144 64.6459C110.547 64.3316 111.173 64.189 112.02 64.2181L114.023 64.287L114.036 63.9032C114.055 63.3595 113.917 62.9425 113.623 62.6522C113.329 62.354 112.89 62.1948 112.306 62.1747C111.907 62.161 111.52 62.2158 111.148 62.339C110.776 62.4543 110.454 62.6234 110.182 62.8462L109.82 62.1973C110.149 61.9365 110.54 61.7418 110.993 61.6133C111.446 61.4768 111.92 61.417 112.416 61.4341ZM111.919 67.1684C112.398 67.1849 112.814 67.0911 113.165 66.887C113.516 66.675 113.783 66.3639 113.966 65.954L114.001 64.9226L112.022 64.8546C110.943 64.8175 110.39 65.1747 110.364 65.9262C110.352 66.294 110.482 66.5907 110.754 66.8161C111.027 67.0336 111.415 67.1511 111.919 67.1684ZM122.794 68.2146C122.17 68.1931 121.615 68.038 121.129 67.7491C120.65 67.4605 120.28 67.0675 120.017 66.5702C119.754 66.0649 119.633 65.5044 119.654 64.8888C119.675 64.2731 119.834 63.7263 120.131 63.2482C120.427 62.7701 120.824 62.4035 121.321 62.1484C121.826 61.8936 122.391 61.7769 123.014 61.7984C123.558 61.8171 124.038 61.9416 124.454 62.1721C124.879 62.3948 125.208 62.7143 125.442 63.1306L124.792 63.5404C124.594 63.2215 124.339 62.9806 124.024 62.8177C123.71 62.6468 123.365 62.5548 122.989 62.5419C122.533 62.5263 122.118 62.616 121.743 62.8113C121.376 62.9988 121.082 63.2769 120.862 63.6455C120.649 64.0144 120.534 64.4387 120.518 64.9184C120.501 65.4062 120.586 65.8413 120.773 66.224C120.968 66.5989 121.242 66.8965 121.595 67.1167C121.956 67.3293 122.364 67.4434 122.82 67.459C123.196 67.4719 123.546 67.4079 123.871 67.267C124.196 67.1261 124.468 66.9033 124.686 66.5986L125.307 67.0522C125.045 67.4515 124.695 67.7516 124.256 67.9526C123.817 68.1457 123.329 68.233 122.794 68.2146ZM129.41 68.442C128.802 68.4211 128.259 68.2664 127.781 67.9778C127.303 67.6812 126.932 67.2842 126.669 66.7869C126.406 66.2895 126.285 65.7331 126.307 65.1174C126.328 64.5018 126.487 63.9549 126.783 63.4768C127.08 62.9987 127.477 62.6322 127.974 62.3771C128.471 62.122 129.023 62.0049 129.631 62.0258C130.238 62.0467 130.781 62.2014 131.26 62.49C131.738 62.7786 132.105 63.1715 132.36 63.6685C132.623 64.1659 132.744 64.7223 132.723 65.338C132.702 65.9536 132.543 66.5005 132.246 66.9786C131.957 67.4569 131.565 67.8277 131.067 68.0907C130.57 68.3458 130.018 68.4629 129.41 68.442ZM129.436 67.6865C129.884 67.7018 130.287 67.6156 130.646 67.4279C131.013 67.2323 131.303 66.9501 131.515 66.5812C131.728 66.2123 131.843 65.788 131.859 65.3083C131.876 64.8286 131.79 64.3974 131.604 64.0147C131.417 63.6321 131.147 63.3346 130.794 63.1224C130.449 62.9024 130.053 62.7847 129.605 62.7694C129.157 62.754 128.75 62.844 128.383 63.0395C128.024 63.2273 127.735 63.5055 127.514 63.8742C127.301 64.2431 127.186 64.6674 127.17 65.1471C127.154 65.6268 127.239 66.058 127.426 66.4407C127.621 66.8236 127.89 67.125 128.235 67.345C128.588 67.5572 128.988 67.6711 129.436 67.6865ZM139.773 62.4224L139.556 68.7307L138.704 68.7014L138.895 63.1487L135.873 63.0448L135.736 64.601C135.627 65.9101 135.44 66.9122 135.176 67.6076C134.912 68.3029 134.472 68.64 133.856 68.6189C133.689 68.6131 133.486 68.5741 133.248 68.5019L133.333 67.7724C133.476 67.8093 133.575 67.8287 133.631 67.8307C133.959 67.8419 134.212 67.6985 134.391 67.4005C134.569 67.1024 134.694 66.7305 134.765 66.2847C134.837 65.8389 134.905 65.2489 134.97 64.5147L135.156 62.2637L139.773 62.4224ZM142.193 62.5056L143.045 62.5349L142.949 65.3293L146.918 65.4657L147.015 62.6714L147.866 62.7006L147.649 69.0089L146.798 68.9796L146.893 66.1973L142.924 66.0608L142.828 68.8432L141.977 68.8139L142.193 62.5056ZM156.667 68.5744L156.587 70.9011L155.784 70.8735L155.838 69.2904L150.069 69.0921L150.286 62.7838L151.138 62.8131L150.946 68.3778L154.796 68.5101L154.987 62.9454L155.839 62.9747L155.648 68.5394L156.667 68.5744ZM163.884 66.6732L158.607 66.4919C158.632 67.1491 158.866 67.6895 159.308 68.1129C159.75 68.5283 160.318 68.748 161.014 68.7719C161.406 68.7854 161.768 68.7298 162.1 68.6051C162.433 68.4725 162.724 68.2743 162.973 68.0108L163.434 68.5789C163.143 68.9051 162.782 69.1489 162.352 69.3102C161.931 69.4718 161.468 69.5439 160.964 69.5266C160.316 69.5044 159.745 69.3487 159.251 69.0595C158.765 68.7626 158.39 68.3655 158.127 67.8682C157.864 67.3709 157.743 66.8144 157.764 66.1987C157.786 65.5831 157.937 65.036 158.217 64.5573C158.506 64.079 158.887 63.7118 159.36 63.4559C159.841 63.2003 160.373 63.0825 160.957 63.1026C161.54 63.1226 162.059 63.2766 162.514 63.5643C162.968 63.8521 163.319 64.2444 163.566 64.7412C163.813 65.23 163.926 65.7862 163.905 66.4098L163.884 66.6732ZM160.932 63.8341C160.324 63.8133 159.806 63.9916 159.376 64.369C158.955 64.7388 158.706 65.2345 158.629 65.8562L163.102 66.01C163.068 65.3844 162.849 64.8726 162.446 64.4746C162.052 64.0688 161.547 63.8553 160.932 63.8341ZM165.796 68.3839C165.98 68.3903 166.13 68.4595 166.245 68.5915C166.361 68.7155 166.416 68.8695 166.409 69.0534C166.406 69.1494 166.387 69.2527 166.351 69.3636C166.323 69.4747 166.279 69.6012 166.218 69.7432L165.657 71.3809L165.081 71.3612L165.549 69.6362C165.422 69.5918 165.321 69.5163 165.245 69.4096C165.168 69.2949 165.133 69.1616 165.138 69.0097C165.145 68.8258 165.21 68.676 165.334 68.5602C165.458 68.4364 165.612 68.3776 165.796 68.3839ZM16.7844 73.2038L16.5676 79.512L15.788 79.4852L15.9595 74.4962L13.2599 78.6299L12.8762 78.6167L10.4672 74.2954L10.2953 79.2964L9.51575 79.2696L9.73259 72.9614L10.5961 72.9911L13.1143 77.6283L15.9929 73.1766L16.7844 73.2038ZM21.591 79.7447C20.9834 79.7239 20.4404 79.5691 19.962 79.2805C19.4839 78.9839 19.1133 78.5869 18.8503 78.0896C18.5872 77.5923 18.4662 77.0358 18.4874 76.4202C18.5086 75.8045 18.6674 75.2577 18.964 74.7796C19.2606 74.3015 19.6575 73.9349 20.1545 73.6798C20.6516 73.4247 21.2039 73.3077 21.8116 73.3285C22.4192 73.3494 22.9622 73.5042 23.4406 73.7928C23.919 74.0814 24.2857 74.4742 24.5407 74.9713C24.8038 75.4686 24.9248 76.0251 24.9036 76.6407C24.8825 77.2564 24.7236 77.8032 24.427 78.2813C24.1384 78.7597 23.7454 79.1304 23.2481 79.3935C22.751 79.6485 22.1987 79.7656 21.591 79.7447ZM21.617 78.9892C22.0647 79.0046 22.4679 78.9184 22.8266 78.7306C23.1935 78.5351 23.4834 78.2529 23.6962 77.884C23.909 77.5151 24.0236 77.0908 24.0401 76.611C24.0566 76.1313 23.9714 75.7001 23.7844 75.3175C23.5974 74.9348 23.3275 74.6374 22.9746 74.4251C22.6299 74.2052 22.2337 74.0875 21.786 74.0721C21.3383 74.0567 20.9309 74.1468 20.564 74.3423C20.2053 74.5301 19.9156 74.8083 19.6948 75.1769C19.482 75.5458 19.3674 75.9701 19.3509 76.4498C19.3344 76.9296 19.4196 77.3607 19.6066 77.7434C19.8016 78.1263 20.0714 78.4278 20.416 78.6477C20.7689 78.86 21.1693 78.9738 21.617 78.9892ZM26.8319 73.5491L27.6834 73.5784L27.511 78.5914L31.8929 73.7231L32.6484 73.7491L32.4316 80.0573L31.5801 80.0281L31.7524 75.015L27.3826 79.8838L26.615 79.8574L26.8319 73.5491ZM29.7295 72.7362C29.1858 72.7175 28.7587 72.5667 28.4483 72.2839C28.1378 72.0011 27.9871 71.6117 27.9961 71.1157L28.6078 71.1367C28.6051 71.4488 28.7083 71.7045 28.9176 71.9038C29.1272 72.0951 29.4038 72.1967 29.7476 72.2085C30.0914 72.2203 30.3744 72.138 30.5966 71.9615C30.8271 71.7773 30.9517 71.5295 30.9704 71.2179L31.582 71.239C31.557 71.7344 31.3759 72.1124 31.0388 72.373C30.7096 72.6338 30.2732 72.7549 29.7295 72.7362ZM42.1404 77.1251C42.989 77.3544 43.399 77.8848 43.3705 78.7163C43.3515 79.268 43.1331 79.6848 42.7151 79.9666C42.2972 80.2484 41.6845 80.3754 40.8769 80.3476L38.0106 80.2491L38.2275 73.9408L41.0098 74.0365C41.7294 74.0612 42.2883 74.2205 42.6864 74.5144C43.0845 74.8082 43.2747 75.215 43.2568 75.7347C43.245 76.0785 43.1389 76.371 42.9385 76.6123C42.7463 76.8458 42.4803 77.0168 42.1404 77.1251ZM38.9585 76.7756L40.8534 76.8408C41.3411 76.8575 41.7161 76.7784 41.9782 76.6033C42.2484 76.4284 42.3895 76.1651 42.4016 75.8133C42.4137 75.4615 42.2909 75.1932 42.0331 75.0082C41.7833 74.8235 41.4145 74.7228 40.9268 74.706L39.0319 74.6409L38.9585 76.7756ZM40.8641 79.6748C41.4077 79.6935 41.8185 79.6196 42.0964 79.453C42.3743 79.2864 42.5197 79.0153 42.5326 78.6395C42.5455 78.2637 42.4311 77.9836 42.1893 77.7992C41.9477 77.6068 41.5591 77.5014 41.0234 77.483L38.9367 77.4112L38.8612 79.606L40.8641 79.6748ZM47.6963 74.2183C48.5198 74.2466 49.1443 74.4762 49.5698 74.9071C49.9955 75.3299 50.1945 75.9451 50.1667 76.7526L50.0323 80.6623L49.2168 80.6343L49.2506 79.6509C49.0475 79.9721 48.7548 80.2182 48.3727 80.3892C47.9986 80.5604 47.5557 80.6372 47.044 80.6197C46.3404 80.5955 45.7865 80.4083 45.3823 80.0582C44.9781 79.7081 44.7855 79.2573 44.8045 78.7056C44.8229 78.1699 45.0296 77.7448 45.4246 77.4301C45.8277 77.1158 46.4529 76.9732 47.3004 77.0023L49.3033 77.0712L49.3164 76.6874C49.3351 76.1437 49.1974 75.7267 48.9032 75.4365C48.6093 75.1382 48.1705 74.979 47.5868 74.959C47.187 74.9452 46.8009 75 46.4285 75.1233C46.0563 75.2385 45.7343 75.4076 45.4625 75.6304L45.1006 74.9816C45.4297 74.7207 45.8206 74.526 46.2733 74.3975C46.7263 74.261 47.2006 74.2012 47.6963 74.2183ZM47.199 79.9526C47.6787 79.9691 48.0942 79.8753 48.4454 79.6712C48.7969 79.4592 49.0638 79.1482 49.246 78.7382L49.2814 77.7068L47.3026 77.6388C46.2232 77.6017 45.6706 77.9589 45.6448 78.7105C45.6321 79.0782 45.762 79.3749 46.0344 79.6004C46.3071 79.8179 46.6953 79.9353 47.199 79.9526ZM59.5677 74.6744L59.3509 80.9827L58.5714 80.9559L58.7429 75.9668L56.0433 80.1005L55.6595 80.0873L53.2505 75.766L53.0786 80.7671L52.2991 80.7403L52.5159 74.432L53.3794 74.4617L55.8976 79.0989L58.7762 74.6472L59.5677 74.6744ZM67.5491 81.3245C66.9255 81.3031 66.3705 81.1479 65.8841 80.859C65.4057 80.5704 65.035 80.1774 64.772 79.6801C64.5092 79.1748 64.3883 78.6143 64.4095 77.9987C64.4307 77.383 64.5895 76.8362 64.8861 76.3581C65.1827 75.88 65.5796 75.5134 66.0766 75.2583C66.5817 75.0035 67.146 74.8868 67.7696 74.9083C68.3133 74.927 68.7933 75.0515 69.2097 75.282C69.6343 75.5047 69.9635 75.8242 70.1973 76.2405L69.5469 76.6504C69.3497 76.3314 69.0938 76.0905 68.7792 75.9276C68.4649 75.7567 68.1199 75.6648 67.7441 75.6518C67.2884 75.6362 66.873 75.726 66.4981 75.9212C66.1314 76.1087 65.8377 76.3868 65.6169 76.7554C65.4041 77.1243 65.2895 77.5486 65.273 78.0283C65.2562 78.5161 65.3413 78.9512 65.5283 79.3339C65.7235 79.7088 65.9975 80.0064 66.3501 80.2266C66.711 80.4392 67.1193 80.5533 67.5751 80.5689C67.9508 80.5818 68.3013 80.5178 68.6263 80.3769C68.9513 80.236 69.2231 80.0132 69.4417 79.7086L70.0625 80.1621C69.8006 80.5614 69.4501 80.8615 69.011 81.0626C68.5721 81.2556 68.0848 81.3429 67.5491 81.3245ZM74.1654 81.5519C73.5578 81.531 73.0148 81.3763 72.5364 81.0877C72.0583 80.7911 71.6878 80.3941 71.4247 79.8968C71.1616 79.3995 71.0407 78.843 71.0618 78.2273C71.083 77.6117 71.2419 77.0648 71.5385 76.5867C71.8351 76.1086 72.2319 75.7421 72.7289 75.487C73.226 75.2319 73.7783 75.1148 74.386 75.1357C74.9936 75.1566 75.5366 75.3113 76.015 75.5999C76.4934 75.8885 76.8601 76.2814 77.1152 76.7784C77.3782 77.2758 77.4992 77.8322 77.478 78.4479C77.4569 79.0635 77.298 79.6104 77.0014 80.0885C76.7128 80.5668 76.3198 80.9376 75.8225 81.2006C75.3254 81.4557 74.7731 81.5728 74.1654 81.5519ZM74.1914 80.7964C74.6391 80.8117 75.0423 80.7256 75.401 80.5378C75.7679 80.3423 76.0578 80.06 76.2706 79.6911C76.4834 79.3222 76.5981 78.8979 76.6145 78.4182C76.631 77.9385 76.5458 77.5073 76.3588 77.1246C76.1719 76.742 75.9019 76.4446 75.549 76.2323C75.2044 76.0123 74.8082 75.8947 74.3604 75.8793C73.9127 75.8639 73.5054 75.9539 73.1384 76.1494C72.7798 76.3372 72.49 76.6154 72.2692 76.9841C72.0564 77.353 71.9418 77.7773 71.9253 78.257C71.9088 78.7367 71.9941 79.1679 72.181 79.5506C72.376 79.9335 72.6458 80.2349 72.9904 80.4549C73.3434 80.6671 73.7437 80.781 74.1914 80.7964ZM83.3192 78.5406C84.1678 78.7699 84.5778 79.3003 84.5493 80.1318C84.5303 80.6835 84.3119 81.1002 83.8939 81.382C83.476 81.6638 82.8633 81.7909 82.0558 81.7631L79.1894 81.6646L79.4063 75.3563L82.1886 75.4519C82.9082 75.4767 83.4671 75.636 83.8652 75.9298C84.2634 76.2237 84.4535 76.6304 84.4356 77.1501C84.4238 77.4939 84.3177 77.7865 84.1173 78.0277C83.9252 78.2612 83.6591 78.4322 83.3192 78.5406ZM80.1373 78.1911L82.0322 78.2562C82.5199 78.273 82.8949 78.1938 83.157 78.0187C83.4272 77.8439 83.5683 77.5806 83.5804 77.2288C83.5925 76.877 83.4697 76.6086 83.2119 76.4237C82.9621 76.239 82.5933 76.1382 82.1056 76.1215L80.2107 76.0563L80.1373 78.1911ZM82.0429 81.0903C82.5865 81.1089 82.9973 81.035 83.2752 80.8685C83.5531 80.7019 83.6985 80.4307 83.7114 80.055C83.7243 79.6792 83.6099 79.3991 83.3681 79.2147C83.1265 79.0223 82.7379 78.9169 82.2022 78.8984L80.1155 78.8267L80.04 81.0214L82.0429 81.0903ZM92.102 79.2147L86.8251 79.0333C86.8506 79.6906 87.0841 80.2309 87.5258 80.6544C87.9678 81.0698 88.5366 81.2895 89.2322 81.3134C89.624 81.3268 89.9861 81.2712 90.3186 81.1466C90.6513 81.0139 90.9423 80.8158 91.1915 80.5522L91.6523 81.1204C91.3609 81.4466 91.0003 81.6903 90.5705 81.8517C90.1487 82.0133 89.686 82.0854 89.1823 82.0681C88.5346 82.0458 87.9637 81.8901 87.4693 81.601C86.9832 81.3041 86.6086 80.907 86.3456 80.4097C86.0825 79.9123 85.9615 79.3559 85.9827 78.7402C86.0039 78.1246 86.1547 77.5774 86.4354 77.0988C86.724 76.6204 87.1048 76.2533 87.5779 75.9974C88.0589 75.7418 88.5913 75.624 89.1749 75.644C89.7586 75.6641 90.2776 75.818 90.732 76.1058C91.1864 76.3936 91.5371 76.7859 91.7842 77.2827C92.0315 77.7714 92.1445 78.3276 92.1231 78.9513L92.102 79.2147ZM89.1498 76.3756C88.5422 76.3547 88.0237 76.533 87.5945 76.9105C87.1736 77.2803 86.9244 77.776 86.847 78.3977L91.3203 78.5515C91.2858 77.9259 91.0673 77.4141 90.6647 77.016C90.2704 76.6103 89.7654 76.3968 89.1498 76.3756ZM98.2467 76.7604L95.8601 76.6783L95.6692 82.231L94.8177 82.2018L95.0086 76.649L92.622 76.567L92.648 75.8115L98.2726 76.0048L98.2467 76.7604Z" fill="#181818"/>
<defs>
<linearGradient id="paint0_linear" x1="180.479" y1="91.6502" x2="175.121" y2="90.2528" gradientUnits="userSpaceOnUse">
<stop stop-color="#1492A1"/>
<stop offset="0.476486" stop-color="#BBB272"/>
<stop offset="1" stop-color="#F4C245"/>
</linearGradient>
<linearGradient id="paint1_linear" x1="168.523" y1="88" x2="-32.4769" y2="-21" gradientUnits="userSpaceOnUse">
<stop stop-color="#1492A1"/>
<stop offset="0.476486" stop-color="#BBB272"/>
<stop offset="1" stop-color="#F4C245"/>
</linearGradient>
</defs>
</svg>
