<svg width="229" height="135" viewBox="0 0 229 135" fill="none" xmlns="http://www.w3.org/2000/svg">
<path d="M167.323 52.98C133.579 23.7707 82.5885 27.444 53.3792 61.1884C24.1699 94.9328 27.8432 145.923 61.5876 175.132C95.332 204.341 146.36 200.624 175.531 166.924C204.702 133.224 201.067 82.1893 167.323 52.98ZM76.0965 158.37C51.6396 137.2 48.9767 100.237 70.1468 75.7798C91.3168 51.3229 128.28 48.6601 152.737 69.8301C177.194 91.0001 179.857 127.964 158.687 152.421C137.517 176.878 100.553 179.54 76.0965 158.37ZM126.001 132.714C132.988 128.396 144.286 133.844 152.512 144.987C158.607 137.498 162.203 128.696 163.211 119.667C149.816 121.378 138.353 117.103 136.583 109.227C134.813 101.352 143.383 92.5235 156.264 88.2782C153.683 84.1099 150.46 80.2368 146.568 76.868C142.897 73.6905 138.856 71.1204 134.658 69.2664C132.409 82.947 124.836 92.9474 116.661 92.2922C108.486 91.6371 102.494 80.4162 102.524 66.4393C93.5228 68.705 85.0358 73.5047 78.3509 80.8699C90.6403 87.4074 97.784 97.9233 94.5116 105.457C91.2393 112.992 78.7754 114.968 65.5943 110.443C64.8812 120.115 67.0796 129.909 72.0502 138.467C81.8987 128.966 93.7989 125.496 99.9463 130.818C106.094 136.139 104.365 148.414 96.3745 159.522C105.594 163.171 115.602 163.943 125.072 161.85C118.838 149.569 119.013 137.033 126.001 132.714ZM104.808 125.201C98.6165 119.841 97.9449 110.518 103.304 104.326C108.664 98.1348 117.987 97.4632 124.179 102.823C130.371 108.182 131.042 117.506 125.683 123.697C120.323 129.889 111 130.56 104.808 125.201Z" fill="#F8F8F8"/>
</svg>
