<svg width="67" height="135" viewBox="0 0 67 135" fill="none" xmlns="http://www.w3.org/2000/svg">
<path d="M77.7053 20.8793L83.2242 4.20208C67.9747 -0.801069 51.4906 0.0690443 36.8947 6.73992C32.5377 8.77018 28.4711 11.2355 24.695 14.2084L16.7798 7.90007L10.4622 50.9707L45.3182 30.668L39.1458 25.7374C40.816 24.6498 42.4862 23.6346 44.3016 22.7645C54.831 17.8339 66.7402 17.1813 77.7053 20.8793Z" stroke="#181818" stroke-width="2" stroke-miterlimit="10"/>
<path d="M41.76 104.555C37.984 102.525 34.4258 99.9871 31.3032 96.9417C27.2367 93.0262 24.0415 88.3856 21.7178 83.31C20.3381 80.2646 19.2488 77.0016 18.5227 73.7387L1.3125 77.3642C2.25652 81.9323 3.78146 86.4279 5.66949 90.6334C8.93725 97.6668 13.3669 104.048 18.9584 109.486C24.6951 115.142 31.5211 119.492 38.8554 122.61L37.2578 132.689L77.8506 116.809L42.9945 95.7816L41.76 104.555Z" stroke="#181818" stroke-width="2" stroke-miterlimit="10"/>
</svg>
