<svg width="126" height="114" viewBox="0 0 126 114" fill="none" xmlns="http://www.w3.org/2000/svg">
<path d="M101.323 88.5163L98.2285 87.7902C97.4238 87.6014 96.5792 87.7692 95.9087 88.256L90.8625 91.9175L91.5138 89.1424C91.8719 87.6161 90.9162 86.0743 89.3899 85.7161L85.3105 84.7588C85.0053 84.6872 84.6837 84.6849 84.3867 84.703C84.3238 84.659 84.2471 84.6117 84.181 84.5816C99.8638 84.6898 114.135 73.9701 117.866 58.0689C122.183 39.6113 110.693 21.075 92.2386 16.7444C73.7843 12.4138 55.248 23.9039 50.9174 42.3582C47.2185 58.1207 55.0705 73.944 68.9375 80.9166L66.3983 80.3207C65.5381 80.1189 64.6389 80.3324 63.952 80.8886C63.6959 81.1066 63.4782 81.3483 63.3094 81.6308L63.3053 81.5859C63.1805 80.3708 62.3018 79.3741 61.1224 79.0973L53.3522 77.2739C52.1728 76.9971 50.9424 77.4989 50.2902 78.5317L48.6546 81.1343L49.1072 79.2057C49.4654 77.6793 48.5097 76.1375 46.9834 75.7793L42.904 74.8221C42.571 74.7439 42.2356 74.7384 41.9043 74.7778C46.161 73.4197 49.0886 69.8027 50.0068 65.8898C51.3678 60.0899 48.4983 52.9166 40.5061 51.0411C37.2453 50.2759 34.3509 50.6946 31.989 51.8386C32.0046 50.5246 31.1266 49.3378 29.7945 49.0252L13.9904 45.3165C12.4641 44.9583 10.9223 45.914 10.5641 47.4403L6.47447 64.8679C6.19444 66.0611 6.70927 67.236 7.66938 67.8859C7.36597 68.1807 7.10829 68.5301 6.9486 68.9611L0.753135 85.8798C0.470409 86.6479 0.534569 87.4974 0.921824 88.2178C1.30908 88.9382 1.9802 89.447 2.78498 89.6359L6.87823 90.5964C8.27964 90.9253 9.72039 90.1508 10.2125 88.8023L10.6215 87.6832C11.0177 88.3032 11.6292 88.7541 12.3785 88.93L16.777 89.9621C17.5124 90.1347 18.2745 90.0061 18.9051 89.6271L18.7736 90.8113C18.6113 92.2518 19.5465 93.5692 20.9618 93.9013L25.055 94.8619C25.8459 95.0475 26.6905 94.8797 27.3545 94.4207C28.0218 93.9477 28.4571 93.2155 28.5456 92.4018L28.9847 88.3472C30.0315 89.2516 31.3074 89.9902 32.7979 90.501L36.0564 91.5877L35.4019 94.3767C35.0437 95.903 35.9995 97.4448 37.5258 97.803L41.6051 98.7603C41.6745 98.7766 41.7472 98.779 41.8198 98.7814C41.8753 98.7944 41.9382 98.8384 41.9937 98.8515L46.2534 99.8511C47.4328 100.128 48.646 99.6367 49.295 98.6178L50.5629 96.6462L54.9642 96.9178L55.268 99.9902C55.3928 101.205 56.2715 102.202 57.4509 102.479L61.6412 103.462L61.7106 103.478L69.6196 105.334C70.4799 105.536 71.3791 105.323 72.0659 104.767C72.0692 104.753 72.083 104.756 72.0863 104.742C72.4434 105.529 73.1334 106.144 74.0491 106.359L78.1285 107.316C78.4338 107.388 78.7553 107.39 79.0523 107.372C79.3071 107.534 79.5854 107.658 79.9046 107.733L82.9988 108.459C83.8036 108.648 84.6481 108.48 85.3186 107.994L90.3648 104.332L89.7135 107.107C89.3554 108.633 90.3111 110.175 91.8374 110.533L95.9168 111.491C97.4431 111.849 98.9849 110.893 99.3431 109.367L103.433 91.9394C103.808 90.4025 102.863 88.8778 101.323 88.5163ZM61.6431 44.8752C62.0111 43.3073 62.5219 41.8168 63.1755 40.4038C62.5219 41.8168 62.0111 43.3073 61.6431 44.8752ZM86.5193 58.8963C86.9113 59.4714 87.2422 60.12 87.4981 60.8388C87.7678 61.5609 87.9658 62.3393 88.1059 63.1773C87.9658 62.3393 87.7678 61.5609 87.4981 60.8388C87.2422 60.12 86.9113 59.4714 86.5193 58.8963ZM100.13 42.1951L101.742 41.0655L100.13 42.1951ZM93.4731 54.7162C93.4217 54.7481 93.3703 54.7799 93.3157 54.8257C93.3703 54.7799 93.4217 54.7481 93.4731 54.7162ZM93.6462 50.6724C93.8493 50.6176 94.0493 50.5767 94.2631 50.539C94.0354 50.5734 93.8355 50.6144 93.6462 50.6724ZM92.3404 47.8773C92.5069 47.9163 92.6873 47.9587 92.8677 48.001C92.7428 47.9717 92.6114 47.9701 92.4865 47.9408C92.4343 47.9139 92.3959 47.8903 92.3404 47.8773ZM92.3798 51.0779C92.1016 51.203 91.8202 51.3419 91.5632 51.5012C91.8202 51.3419 92.0984 51.2168 92.3798 51.0779ZM100.117 46.5547C99.7327 46.7573 99.3549 46.9322 98.9666 47.0899C99.3443 46.915 99.7359 46.7434 100.117 46.5547ZM98.5986 47.2231C98.3408 47.3237 98.0829 47.4242 97.8145 47.5076C98.0829 47.4242 98.3408 47.3237 98.5986 47.2231ZM98.5774 43.1337C98.694 43.0733 98.8107 43.0128 98.9306 42.9385C98.8107 43.0128 98.694 43.0733 98.5774 43.1337ZM94.3745 44.3873C94.2847 44.3955 94.1982 44.3898 94.1117 44.3842C94.1982 44.3898 94.2847 44.3955 94.3745 44.3873ZM96.4161 44.0466C96.3851 44.0539 96.3508 44.0752 96.3198 44.0825C96.337 44.0719 96.3712 44.0507 96.4161 44.0466ZM95.3031 44.2978C95.2101 44.3199 95.1236 44.3142 95.0306 44.3363C95.1203 44.3281 95.2101 44.3199 95.3031 44.2978ZM93.3396 44.3055C93.3812 44.3152 93.4261 44.3111 93.4539 44.3177C93.4261 44.3111 93.3812 44.3152 93.3396 44.3055ZM97.3928 43.6902C97.5062 43.6436 97.6196 43.597 97.7362 43.5366C97.6196 43.597 97.5062 43.6436 97.3928 43.6902ZM97.4049 47.6311C97.1536 47.7038 96.9194 47.766 96.6713 47.8249C96.9194 47.766 97.1675 47.7071 97.4049 47.6311ZM96.2854 47.91C96.0235 47.9657 95.7509 48.0042 95.4955 48.0321C95.7509 48.0042 96.0235 47.9657 96.2854 47.91ZM95.2058 48.0812C94.8606 48.1173 94.5048 48.1363 94.1694 48.1308C94.5081 48.1224 94.8467 48.1141 95.2058 48.0812ZM93.9858 48.1024C93.723 48.0992 93.4496 48.079 93.1966 48.0343C93.4496 48.079 93.7091 48.096 93.9858 48.1024ZM92.6654 44.0594C92.7315 44.0896 92.8148 44.1091 92.8809 44.1393C92.8148 44.1091 92.7315 44.0896 92.6654 44.0594ZM92.6687 50.97C92.8645 50.8842 93.0709 50.8156 93.2741 50.7608C93.0677 50.8294 92.8612 50.8981 92.6687 50.97ZM92.9554 63.8469C91.8729 64.5298 90.7193 65.0789 89.515 65.4697C90.7193 65.0789 91.8729 64.5298 92.9554 63.8469ZM93.912 54.4679C93.9773 54.4393 94.0287 54.4074 94.0907 54.3927C94.0426 54.4107 93.9773 54.4393 93.912 54.4679ZM94.8724 54.1809C94.9034 54.1735 94.9483 54.1694 94.976 54.1759C94.945 54.1833 94.9001 54.1874 94.8724 54.1809ZM95.7978 54.1052C95.9014 54.1003 96.0018 54.1092 96.1055 54.1042C96.0018 54.1092 95.8982 54.1141 95.7978 54.1052ZM96.8979 54.1584C96.9983 54.1673 97.0848 54.173 97.1852 54.1819C97.0848 54.173 96.9983 54.1673 96.8979 54.1584ZM97.9934 50.5507C98.3745 50.6108 98.7663 50.6881 99.1548 50.7793C99.1687 50.7826 99.1687 50.7826 99.1826 50.7858C98.7834 50.6775 98.3778 50.597 97.9934 50.5507ZM94.6564 50.4849C94.8669 50.4611 95.0774 50.4373 95.2986 50.4307C95.0774 50.4373 94.8702 50.4473 94.6564 50.4849ZM95.7164 50.397C95.9515 50.3936 96.1865 50.3902 96.4183 50.4006C96.1865 50.3902 95.9515 50.3936 95.7164 50.397ZM96.8369 50.4257C97.1103 50.4459 97.3805 50.48 97.6645 50.5174C97.3837 50.4662 97.1136 50.4321 96.8369 50.4257ZM100.12 46.5408C100.294 47.2988 100.408 48.0577 100.478 48.8207C100.408 48.0577 100.294 47.2988 100.12 46.5408ZM96.2897 34.6037C97.6916 35.6793 98.9058 36.9305 99.9562 38.3188C98.9026 36.9443 97.6916 35.6793 96.2897 34.6037ZM88.0456 42.785C87.9338 41.5144 88.1558 40.1318 88.723 38.7131C88.1525 40.1457 87.9306 41.5283 88.0456 42.785ZM88.2495 43.9747C87.918 43.7652 87.5768 43.5973 87.2184 43.44C87.5629 43.594 87.9148 43.7791 88.2495 43.9747ZM89.2217 37.5858C89.6048 36.8266 90.0777 36.0592 90.6477 35.3146C90.2477 35.1476 89.8445 34.9944 89.4209 34.8657C89.8412 35.0082 90.2477 35.1476 90.6477 35.3146C90.0916 36.0625 89.6081 36.8128 89.2217 37.5858ZM88.1606 34.4967C88.4381 34.5619 88.7262 34.6441 89.0005 34.7231C88.7262 34.6441 88.4381 34.5619 88.1606 34.4967ZM86.9608 34.2445C87.0889 34.2599 87.2277 34.2925 87.3526 34.3218C87.2244 34.3063 87.0996 34.277 86.9608 34.2445ZM80.912 49.353C80.8566 49.5889 80.829 49.8313 80.8153 50.077C80.7632 51.7336 81.8985 53.2591 83.5774 53.653C85.2564 54.047 86.9378 53.1826 87.642 51.679C87.7357 51.4667 87.8188 51.2373 87.8774 50.9876C87.8221 51.2235 87.739 51.4528 87.642 51.679C86.9517 53.1859 85.2564 54.047 83.5774 53.653C81.8985 53.2591 80.7771 51.7369 80.8153 50.077C80.8258 49.8452 80.8534 49.6028 80.912 49.353ZM79.8217 41.1479C79.8943 41.1503 79.9915 41.1731 80.0641 41.1755C79.9743 41.1837 79.8943 41.1503 79.8217 41.1479ZM79.3881 44.8671C79.118 44.833 78.834 44.7956 78.5565 44.7305C78.5426 44.7272 78.5148 44.7207 78.4871 44.7142C78.7956 44.772 79.0902 44.8265 79.3881 44.8671ZM79.1353 41.0161C79.2047 41.0324 79.2708 41.0626 79.3402 41.0788C79.2569 41.0593 79.1875 41.043 79.1353 41.0161ZM76.6649 39.4409C76.6191 39.3863 76.5595 39.3284 76.5105 39.2876C76.5702 39.3455 76.6159 39.4001 76.6649 39.4409ZM78.5582 40.7929C78.4782 40.7594 78.3876 40.7089 78.297 40.6584C78.3876 40.7089 78.4815 40.7456 78.5582 40.7929ZM77.7108 40.2866C77.634 40.2393 77.5712 40.1953 77.4977 40.1341C77.5712 40.1953 77.634 40.2393 77.7108 40.2866ZM73.6589 41.7073C73.4695 41.5165 73.2833 41.3118 73.1142 41.0964C73.2866 41.2979 73.4728 41.5026 73.6589 41.7073ZM74.789 37.1415C74.8633 37.2614 74.9409 37.3674 75.0291 37.4906C74.9548 37.3707 74.8633 37.2614 74.789 37.1415ZM78.1883 44.6148C77.9835 44.5521 77.7924 44.4926 77.5908 44.416C77.7786 44.4894 77.9835 44.5521 78.1883 44.6148ZM77.2186 44.2555C77.0341 44.1683 76.8464 44.0949 76.6651 43.9939C76.8602 44.0982 77.0447 44.1854 77.2186 44.2555ZM76.3027 43.7917C76.1214 43.6906 75.9435 43.5756 75.7655 43.4607C75.9435 43.5756 76.1214 43.6906 76.3027 43.7917ZM75.3851 43.2104C75.2103 43.0815 75.0356 42.9527 74.8641 42.81C75.0389 42.9388 75.2103 43.0815 75.3851 43.2104ZM74.5106 42.5074C74.3285 42.3476 74.1603 42.191 73.9954 42.0205C74.1603 42.191 74.3285 42.3476 74.5106 42.5074ZM75.5967 38.2533C75.6882 38.3626 75.7658 38.4687 75.8573 38.578C75.7658 38.4687 75.6743 38.3594 75.5967 38.2533ZM78.7585 45.5538C78.9624 45.3088 79.1769 45.081 79.402 44.8703C79.1769 45.081 78.9624 45.3088 78.7585 45.5538C78.164 46.278 77.6994 47.1352 77.4159 48.0934C77.2566 47.8365 77.0631 47.6007 76.8695 47.365C77.0631 47.6007 77.2566 47.8365 77.4159 48.0934C77.6994 47.1352 78.164 46.278 78.7585 45.5538ZM74.4345 50.3803C74.4026 50.3289 74.374 50.2636 74.3422 50.2122C74.3708 50.2775 74.4026 50.3289 74.4345 50.3803ZM75.43 46.0756C75.6047 46.2045 75.7656 46.33 75.9264 46.4556C75.7517 46.3268 75.5908 46.2012 75.43 46.0756ZM74.5005 51.5962C74.3514 52.0443 74.0399 52.4982 73.5799 52.9612C74.0506 52.5154 74.3653 52.0476 74.5005 51.5962ZM76.2065 46.697C76.3641 46.8365 76.5184 46.9898 76.6556 47.1538C76.5045 46.9865 76.3641 46.8365 76.2065 46.697ZM81.9835 34.3062C81.8796 33.8133 81.734 33.3107 81.564 32.7877L80.9312 30.8678L81.564 32.7877C81.734 33.3107 81.8796 33.8133 81.9835 34.3062C82.1758 35.1711 82.2604 35.9961 82.2747 36.7461C82.2604 35.9961 82.1726 35.185 81.9835 34.3062ZM72.8366 40.7824C72.5761 40.4577 72.3188 40.1192 72.0648 39.7668C72.3155 40.1331 72.5728 40.4716 72.8366 40.7824ZM71.0326 44.1653C71.3934 44.25 71.7509 44.3485 72.1051 44.4609C71.737 44.3453 71.3517 44.2402 70.9632 44.149C70.9771 44.1523 71.0049 44.1588 71.0326 44.1653ZM75.0879 45.8489C74.91 45.734 74.7181 45.6158 74.5369 45.5147C74.732 45.619 74.91 45.734 75.0879 45.8489ZM74.1744 45.3125C73.9654 45.2049 73.7426 45.094 73.5165 44.9971C73.7426 45.094 73.9654 45.2049 74.1744 45.3125ZM73.1858 44.8463C72.8659 44.7126 72.5426 44.5929 72.1884 44.4805C72.5255 44.6035 72.8659 44.7126 73.1858 44.8463ZM71.2243 48.0898C71.3043 48.1232 71.3843 48.1566 71.4675 48.1761C71.3843 48.1566 71.3181 48.1264 71.2243 48.0898ZM74.0457 49.7913C74 49.7366 73.9681 49.6852 73.9191 49.6445C73.9648 49.6991 73.9967 49.7505 74.0457 49.7913ZM73.31 49.1209C73.2716 49.0972 73.2332 49.0736 73.1949 49.05C73.2332 49.0736 73.2716 49.0972 73.31 49.1209ZM72.5148 48.6415C72.4242 48.591 72.3303 48.5543 72.2536 48.507C72.3303 48.5543 72.4242 48.591 72.5148 48.6415ZM73.939 62.4733C73.2915 61.9261 72.6987 61.3332 72.1605 60.6945C72.7125 61.3364 73.3054 61.9294 73.939 62.4733ZM75.8984 67.9106C77.162 68.5145 78.4966 69.0034 79.9119 69.3355C78.4827 69.0001 77.1482 68.5113 75.8984 67.9106ZM99.7424 54.8259C100.229 54.9987 100.723 55.2024 101.221 55.451C100.723 55.2024 100.229 54.9987 99.7424 54.8259ZM98.3327 54.4073C98.638 54.4789 98.9506 54.5816 99.2632 54.6842C98.9506 54.5816 98.638 54.4789 98.3327 54.4073ZM70.1101 47.7844C69.8049 47.7128 69.4792 47.6656 69.1397 47.6152C69.4653 47.6624 69.8049 47.7128 70.1101 47.7844ZM67.0006 47.4353C67.5711 47.4374 68.1179 47.4779 68.6304 47.5396C68.104 47.4747 67.5572 47.4342 67.0006 47.4353ZM65.0948 53.8101C64.8328 52.4311 64.7259 51.0152 64.7675 49.5903C64.7259 51.0152 64.8328 52.4311 65.0948 53.8101ZM67.6191 55.5297C68.6987 55.3585 69.6836 55.0919 70.5501 54.7682C69.6836 55.0919 68.6987 55.3585 67.6191 55.5297L65.584 55.8427L67.6191 55.5297ZM107.141 55.5519C107.509 53.984 107.714 52.4219 107.757 50.8656C107.7 52.4186 107.509 53.984 107.141 55.5519ZM111.456 56.5646C110.798 59.3674 109.736 61.9583 108.35 64.3119C109.736 61.9583 110.798 59.3674 111.456 56.5646ZM57.3279 43.8625C56.6701 46.6654 56.4686 49.4582 56.6636 52.183C56.4547 49.4549 56.6701 46.6654 57.3279 43.8625ZM115.077 57.4144C116.94 49.4777 115.611 41.5388 111.938 34.9233C115.615 41.5249 116.94 49.4777 115.077 57.4144ZM111.175 33.6172C110.644 32.7606 110.065 31.922 109.463 31.1218C110.065 31.922 110.644 32.7606 111.175 33.6172ZM107.507 28.7889C106.818 28.0418 106.092 27.3298 105.343 26.6562C106.106 27.3331 106.818 28.0418 107.507 28.7889ZM76.1072 19.7956C75.1224 20.0622 74.1555 20.377 73.2205 20.7431C74.1555 20.377 75.1224 20.0622 76.1072 19.7956ZM70.431 21.9624C69.5213 22.4077 68.6435 22.9044 67.7869 23.4354C68.6435 22.9044 69.5352 22.411 70.431 21.9624ZM66.5266 24.2522C60.2934 28.5428 55.5689 35.076 53.7096 42.9988C55.555 35.0727 60.2934 28.5428 66.5266 24.2522Z" fill="#F8F8F8"/>
<path d="M91.5874 19.5194C74.6733 15.5502 57.665 26.0813 53.6925 43.0093C49.7201 59.9373 60.2545 76.9318 77.1825 80.9042C94.1105 84.8767 111.105 74.3423 115.077 57.4143C119.05 40.4863 108.515 23.4918 91.5874 19.5194ZM78.0323 77.2828C63.1024 73.7792 53.8105 58.7891 57.314 43.8592C60.8176 28.9292 75.8215 19.6406 90.7376 23.1409C105.654 26.6412 114.959 41.6345 111.456 56.5645C107.952 71.4944 92.9623 80.7863 78.0323 77.2828Z" fill="url(#paint0_linear)"/>
<path d="M89.725 27.4562C77.1816 24.5127 64.576 32.3146 61.6325 44.858C58.689 57.4014 66.5048 70.0102 79.0482 72.9537C91.5916 75.8972 104.183 68.092 107.13 55.5348C110.077 42.9775 102.268 30.3997 89.725 27.4562ZM85.735 34.1032C87.4138 34.2482 89.0894 34.6561 90.6339 35.3113C88.389 38.3273 87.5291 41.4926 88.2324 43.9853C87.5801 43.5834 86.8495 43.2655 86.0586 43.0799C85.4342 42.9334 84.818 42.8766 84.2133 42.8958C85.8337 40.9191 86.4128 37.7025 85.735 34.1032ZM80.912 49.353C81.3613 47.4382 83.2972 46.2382 85.212 46.6875C87.1268 47.1369 88.3268 49.0727 87.8775 50.9876C87.4281 52.9024 85.4923 54.1023 83.5774 53.653C81.6626 53.2037 80.4594 51.2817 80.912 49.353ZM91.5632 51.5011C91.8194 50.0973 91.6644 48.6994 91.1658 47.4552C93.5054 48.5898 96.7712 48.2729 100.12 46.5408C100.47 48.043 100.604 49.5967 100.505 51.14C97.0073 50.0118 93.7357 50.1663 91.5632 51.5011ZM77.4159 48.0934C76.0298 45.9528 73.1725 44.4039 69.5455 43.8895C70.1739 42.3973 71.025 41.016 72.0754 39.7839C74.1827 42.7818 76.8712 44.6131 79.4159 44.8736C78.4844 45.7237 77.7881 46.8193 77.4159 48.0934ZM67.0006 47.4353C71.4018 47.458 74.4738 49.2768 74.5915 50.9587C74.7125 52.6267 71.9448 54.8759 67.6192 55.5297L65.584 55.8427C64.7745 53.1786 64.5255 50.3094 64.9539 47.4235L67.0006 47.4353ZM70.6756 58.6625C74.1834 57.6264 76.7823 55.6597 77.8271 53.3284C78.4048 54.5472 79.3325 55.5848 80.491 56.3251C77.9753 56.8766 75.5912 59.1133 73.9561 62.4627C72.6579 61.3821 71.5538 60.0983 70.6756 58.6625ZM88.978 55.8426C88.8318 58.3995 90.2813 61.3308 92.9555 63.8469C91.5132 64.7528 89.9361 65.4221 88.2894 65.8262C88.3321 62.0885 87.1747 59.0354 85.167 57.4224C86.5787 57.2706 87.9086 56.7189 88.978 55.8426ZM97.0832 62.4146C93.4329 59.8159 92.091 56.6756 92.9242 55.2462C93.7745 53.8061 97.3072 53.5371 101.224 55.4371L103.052 56.3198C102.134 59.1057 100.652 61.554 98.7389 63.5937L97.0832 62.4146ZM101.742 41.0655L100.13 42.1951C96.5601 44.6806 93.2306 44.8947 92.1861 43.6688C91.131 42.4257 91.8856 39.1478 94.9375 35.9992L96.2897 34.6037C98.5726 36.3545 100.426 38.5609 101.742 41.0655ZM80.9279 30.8817L81.5607 32.8015C82.9342 36.9301 82.2067 40.4046 80.6777 41.056C79.1178 41.7147 76.0963 39.8052 74.0554 35.9006L73.1346 34.1474C75.462 32.5269 78.1144 31.3926 80.9279 30.8817ZM75.8984 67.9105L76.5444 65.9687C77.939 61.7723 80.5174 59.5812 82.1131 59.9557C83.7087 60.3301 85.0432 63.4395 84.4256 67.8181L84.1404 69.8447C82.74 69.8235 81.3272 69.6676 79.9119 69.3355C78.4828 69.0001 77.1482 68.5112 75.8984 67.9105Z" fill="url(#paint1_linear)"/>
<path d="M16.5306 52.8951L24.1482 54.6827L20.9637 68.2528L25.057 69.2134L29.1466 51.7858L13.3425 48.0771L9.25286 65.5047L13.3461 66.4652L16.5306 52.8951Z" fill="url(#paint2_linear)"/>
<path d="M35.5471 72.1734C41.8049 73.6419 46.1637 69.7899 47.235 65.2248C48.3063 60.6598 46.1159 55.2709 39.8581 53.8024C33.6003 52.3339 29.2414 56.1859 28.1702 60.751C27.0989 65.316 29.2892 70.7049 35.5471 72.1734ZM38.9529 57.6597C42.1165 58.4021 43.8785 61.1872 43.1556 64.2675C42.4295 67.3618 39.6158 69.0584 36.4523 68.3161C33.2887 67.5737 31.5267 64.7886 32.2496 61.7083C32.9724 58.6279 35.7893 56.9173 38.9529 57.6597Z" fill="url(#paint3_linear)"/>
<path d="M23.5936 73.2032L16.2087 82.4644L13.7143 70.8848L9.64883 69.9308L3.43624 86.8601L7.52949 87.8207L11.2138 77.7349L13.0159 86.151L17.4144 87.1832L22.7859 80.4505L21.5992 91.1224L25.6924 92.0829L27.6591 74.1572L23.5936 73.2032Z" fill="url(#paint4_linear)"/>
<path d="M40.3187 85.8393L34.809 83.9901C33.3708 83.5062 32.7745 82.6782 33.0448 81.5265L34.4026 75.7405L30.3232 74.7832L28.9361 80.6941C28.2198 83.7467 30.1278 86.5954 33.6957 87.7986L39.4241 89.7138L38.177 95.0281L42.2564 95.9854L46.3493 78.544L42.2699 77.5867L40.3326 85.8426L40.3187 85.8393Z" fill="url(#paint5_linear)"/>
<path d="M66.0838 97.5067L63.1977 96.8294L62.3446 100.465L60.4884 81.8616L52.7181 80.0381L42.6482 96.0623L46.9079 97.0619L49.0783 93.6771L57.566 94.1903L58.1087 99.6757L62.299 100.659L62.3684 100.675L70.2774 102.531L69.9546 88.1235L77.8914 89.986L74.7037 103.57L78.783 104.527L82.8694 87.1136L65.761 83.0989L66.0838 97.5067ZM56.6032 85.005L57.1262 90.3247L51.3579 89.952L54.7823 84.5923L56.6 85.0189L56.6032 85.005Z" fill="url(#paint6_linear)"/>
<path d="M97.5774 90.565L86.3218 98.7276L88.7248 88.4876L84.6455 87.5303L80.5558 104.958L83.6639 105.687L94.9056 97.5212L92.5026 107.761L96.5819 108.719L100.672 91.2911L97.5774 90.565Z" fill="url(#paint7_linear)"/>
<defs>
<linearGradient id="paint0_linear" x1="109.495" y1="26.7175" x2="39.623" y2="92.111" gradientUnits="userSpaceOnUse">
<stop stop-color="#EFBD4C"/>
<stop offset="1" stop-color="#1492A1"/>
</linearGradient>
<linearGradient id="paint1_linear" x1="109.495" y1="26.7176" x2="39.623" y2="92.1111" gradientUnits="userSpaceOnUse">
<stop stop-color="#EFBD4C"/>
<stop offset="1" stop-color="#1492A1"/>
</linearGradient>
<linearGradient id="paint2_linear" x1="80.8928" y1="126.529" x2="-37.7872" y2="-4.05286" gradientUnits="userSpaceOnUse">
<stop stop-color="#EFBD4C"/>
<stop offset="1" stop-color="#1492A1"/>
</linearGradient>
<linearGradient id="paint3_linear" x1="88.8642" y1="119.284" x2="-29.8158" y2="-11.2972" gradientUnits="userSpaceOnUse">
<stop stop-color="#EFBD4C"/>
<stop offset="1" stop-color="#1492A1"/>
</linearGradient>
<linearGradient id="paint4_linear" x1="68.0114" y1="138.236" x2="-50.6686" y2="7.65433" gradientUnits="userSpaceOnUse">
<stop stop-color="#EFBD4C"/>
<stop offset="1" stop-color="#1492A1"/>
</linearGradient>
<linearGradient id="paint5_linear" x1="79.5162" y1="127.78" x2="-39.1638" y2="-2.80115" gradientUnits="userSpaceOnUse">
<stop stop-color="#EFBD4C"/>
<stop offset="1" stop-color="#1492A1"/>
</linearGradient>
<linearGradient id="paint6_linear" x1="88.3517" y1="119.75" x2="-30.3283" y2="-10.8316" gradientUnits="userSpaceOnUse">
<stop stop-color="#EFBD4C"/>
<stop offset="1" stop-color="#1492A1"/>
</linearGradient>
<linearGradient id="paint7_linear" x1="100.354" y1="108.841" x2="-18.3262" y2="-21.74" gradientUnits="userSpaceOnUse">
<stop stop-color="#EFBD4C"/>
<stop offset="1" stop-color="#1492A1"/>
</linearGradient>
</defs>
</svg>
