<svg width="77" height="69" viewBox="0 0 77 69" fill="none" xmlns="http://www.w3.org/2000/svg">
<path d="M66.6075 68.2988L10.1172 68.2988C6.6287 68.2988 3.53661 66.5149 1.79236 63.5021C0.0480931 60.4893 0.0480932 56.9215 1.79236 53.9086L30.0177 4.99007C31.7619 1.97726 34.854 0.193358 38.3425 0.193358C41.8311 0.193358 44.9232 1.97726 46.6674 4.99007L74.8927 53.9086C76.637 56.9215 76.637 60.4893 74.8927 63.5021C73.1881 66.5149 70.0564 68.2988 66.6075 68.2988ZM38.3425 1.62047C35.409 1.62047 32.753 3.16653 31.2862 5.70363L3.0609 54.6222C1.59414 57.1593 1.59414 60.2118 3.0609 62.7885C4.52767 65.3653 7.1837 66.8717 10.1172 66.8717L66.6075 66.8717C69.541 66.8717 72.197 65.3256 73.6638 62.7885C75.1306 60.2118 75.1306 57.1593 73.6638 54.6222L45.4385 5.70363C43.9718 3.16653 41.3157 1.62047 38.3425 1.62047Z" fill="#F8F8F8"/>
<path d="M48.0153 29.5273L38.3426 43.6004L28.7095 29.5273L22.1289 29.5273L35.092 48.4367L27.0049 60.2501L33.6252 60.2501L35.4884 57.5148L41.1969 49.1899L54.5959 29.5273L48.0153 29.5273Z" fill="#F8F8F8"/>
</svg>
