<svg width="77" height="77" viewBox="0 0 77 77" fill="none" xmlns="http://www.w3.org/2000/svg">
<path d="M63.6871 49.3099L64.2018 49.6937L64.4478 49.1006C69.6164 36.6377 65.2622 21.8139 53.4456 14.3629C41.7009 6.83887 26.4161 9.20162 17.3342 19.2309L16.9034 19.7066L17.4701 20.008L34.227 28.9194L34.433 29.0289L34.6492 28.9415C37.5512 27.7684 40.8633 27.975 43.6971 29.7698C46.5269 31.5621 48.1182 34.5273 48.326 37.6401L48.3413 37.8699L48.5261 38.0076L63.6871 49.3099ZM12.2072 28.6877L11.6917 28.4161L11.5015 28.9667C7.88335 39.4389 10.6885 51.2398 18.9607 58.9116L19.4017 59.3205L19.7232 58.8124L29.4437 43.4528L29.6006 43.205L29.4607 42.9471C28.5628 41.2914 28.1485 39.4302 28.2867 37.4975L28.31 37.1717L28.0211 37.0195L12.2072 28.6877ZM27.6557 63.8563L27.3331 64.3661L27.8938 64.5885C38.3071 68.7191 50.1964 66.2848 58.1716 58.3933L58.5849 57.9843L58.1187 57.6369L43.8282 46.9867L43.5632 46.7892L43.2777 46.9556C41.6269 47.9173 39.7636 48.3339 37.8165 48.2645L37.5297 48.2542L37.3762 48.4968L27.6557 63.8563ZM6.37532 18.0233C17.5435 0.433843 40.9555 -4.78677 58.568 6.36822C76.1795 17.5226 81.4059 40.9047 70.2376 58.4943C59.0694 76.0837 35.6574 81.3044 18.0449 70.1494C0.433418 58.995 -4.79299 35.6129 6.37532 18.0233Z" stroke="#181818"/>
</svg>
