<svg width="90" height="75" viewBox="0 0 90 75" fill="none" xmlns="http://www.w3.org/2000/svg">
<path d="M31.3488 36.0457L23.3884 24.3997H17.9365L28.6396 40.1068L21.9502 49.9069H27.4355L28.9741 47.6247L33.6902 40.7109L44.7946 24.3997H39.3427L31.3488 36.0457Z" fill="url(#paint0_linear)"/>
<path d="M78.2413 41.2479C77.2044 40.2074 75.7996 39.6369 74.3614 39.6369H60.2467C59.7784 39.6369 59.3102 39.704 58.8419 39.8383L38.2385 3.9939C36.8002 1.5103 34.2248 0 31.3483 0C28.4719 0 25.8965 1.47674 24.4582 3.9939L1.07867 44.6041C-0.359557 47.0877 -0.359557 50.0747 1.07867 52.5583C2.5169 55.0419 5.09233 56.5522 7.96878 56.5522H44.7607V69.2723C44.7607 70.749 45.3293 72.125 46.3661 73.1655L47.3026 74.1052H87.2385L88.1751 73.1655C89.2119 72.125 89.7805 70.749 89.7805 69.2723V55.109C89.7805 53.6659 89.2119 52.2562 88.1751 51.2158L78.2413 41.2479ZM8.00223 55.3775C5.56059 55.3775 3.38652 54.1022 2.14898 51.9878C0.911434 49.8733 0.911434 47.3226 2.14898 45.2082L25.5285 4.59802C26.7661 2.4836 28.9402 1.20824 31.3818 1.20824C33.8234 1.20824 36.0309 2.4836 37.235 4.59802L57.7716 40.2746C57.2699 40.5431 56.8016 40.8451 56.4003 41.2479L46.3996 51.2494C45.3627 52.2898 44.7941 53.6994 44.7941 55.1426V55.3775H8.00223Z" fill="url(#paint1_linear)"/>
<defs>
<linearGradient id="paint0_linear" x1="-8.94164" y1="-40.4787" x2="89.6893" y2="139.229" gradientUnits="userSpaceOnUse">
<stop stop-color="#F4C245"/>
<stop offset="0.1137" stop-color="#F0C14A"/>
<stop offset="0.2624" stop-color="#E3BD55"/>
<stop offset="0.4306" stop-color="#CEB766"/>
<stop offset="0.613" stop-color="#ADAE7A"/>
<stop offset="0.8064" stop-color="#7BA18F"/>
<stop offset="1" stop-color="#1492A1"/>
</linearGradient>
<linearGradient id="paint1_linear" x1="-6.35764" y1="-41.897" x2="92.2735" y2="137.81" gradientUnits="userSpaceOnUse">
<stop stop-color="#F4C245"/>
<stop offset="0.1137" stop-color="#F0C14A"/>
<stop offset="0.2624" stop-color="#E3BD55"/>
<stop offset="0.4306" stop-color="#CEB766"/>
<stop offset="0.613" stop-color="#ADAE7A"/>
<stop offset="0.8064" stop-color="#7BA18F"/>
<stop offset="1" stop-color="#1492A1"/>
</linearGradient>
</defs>
</svg>
