<svg width="80" height="80" viewBox="0 0 80 80" fill="none" xmlns="http://www.w3.org/2000/svg">
<path d="M40 0L44.2165 3.92558L49.2246 1.07821L52.4222 5.87037L57.952 4.2547L59.9582 9.65508L65.7115 9.35822L66.4182 15.0757L72.0849 16.1137L71.454 21.84L76.7286 24.1568L74.7942 29.5833L79.3923 33.0541L76.2586 37.8882L79.9323 42.3258L75.7682 46.3069L78.3196 51.4721L73.3496 54.3856L74.641 60L69.1331 61.6888L69.0949 67.4497L63.346 67.8227L61.9804 73.4195L56.3004 72.4567L53.6808 77.5877L48.376 75.341L44.6437 79.7295L40 76.32L35.3563 79.7295L31.624 75.341L26.3192 77.5877L23.6996 72.4567L18.0196 73.4195L16.654 67.8227L10.9051 67.4497L10.8669 61.6888L5.35898 60L6.65039 54.3856L1.68042 51.4721L4.23178 46.3069L0.0676727 42.3258L3.74145 37.8882L0.607689 33.0541L5.20582 29.5833L3.27135 24.1568L8.54596 21.84L7.91507 16.1137L13.5818 15.0757L14.2885 9.35822L20.0418 9.65508L22.048 4.2547L27.5778 5.87037L30.7754 1.07821L35.7835 3.92558L40 0Z" fill="url(#paint0_linear)"/>
<path d="M24.9353 32.7216C25.7543 32.3998 26.4588 32.3552 27.0486 32.5876C27.6459 32.8171 28.101 33.3302 28.414 34.1269L29.8182 37.701L28.8018 38.1003L28.4946 37.3185C28.4242 37.6642 28.2506 37.9773 27.9741 38.2579C27.702 38.528 27.3389 38.7523 26.8847 38.9308C26.222 39.1911 25.6267 39.2402 25.0988 39.078C24.5784 38.9128 24.2158 38.5697 24.0111 38.0484C23.8063 37.5272 23.8324 37.0356 24.0892 36.5737C24.3432 36.1044 24.8834 35.7073 25.7099 35.3826L27.4076 34.7157L27.3243 34.5035C27.1429 34.0418 26.8699 33.7408 26.5053 33.6004C26.1407 33.46 25.6978 33.4921 25.1766 33.6969C24.8267 33.8344 24.5075 34.0285 24.2193 34.2793C23.9281 34.5226 23.7051 34.7864 23.5503 35.0707L22.7876 34.442C22.9964 34.0764 23.2881 33.7469 23.6628 33.4536C24.0346 33.1528 24.4587 32.9088 24.9353 32.7216ZM26.7387 38.0341C27.1482 37.8732 27.4668 37.6449 27.6944 37.3492C27.9192 37.046 28.0327 36.7006 28.0351 36.3128L27.7104 35.4863L26.0574 36.1357C25.149 36.4926 24.8147 36.9763 25.0546 37.5869C25.1716 37.8848 25.3791 38.074 25.6772 38.1545C25.9753 38.2351 26.3292 38.195 26.7387 38.0341ZM34.5743 32.287C35.4173 32.1793 35.9894 32.5089 36.2907 33.2758C36.4955 33.7971 36.4561 34.2767 36.1726 34.7146C35.8966 35.1497 35.3714 35.5194 34.597 35.8236L31.7489 36.9425L29.4233 31.0229L32.1709 29.9435C32.8708 29.6685 33.4708 29.5875 33.9707 29.7006C34.4678 29.8061 34.8113 30.1009 35.0015 30.5849C35.1243 30.8976 35.1455 31.2031 35.0649 31.5012C34.9888 31.7889 34.8253 32.0508 34.5743 32.287ZM31.4737 33.157L33.082 32.5251C33.4915 32.3642 33.7713 32.1684 33.9213 31.9376C34.0787 31.7038 34.1018 31.4455 33.9907 31.1625C33.7684 30.5966 33.2402 30.4775 32.4063 30.8051L30.7979 31.437L31.4737 33.157ZM34.1941 35.0278C34.6409 34.8523 34.9482 34.6499 35.116 34.4207C35.2838 34.1914 35.3092 33.9279 35.1921 33.6301C35.0722 33.3248 34.8788 33.1386 34.6118 33.0716C34.3522 33.0017 34.0028 33.053 33.5635 33.2256L31.7764 33.9276L32.4741 35.7035L34.1941 35.0278ZM41.0643 27.5326L38.8975 28.3839L40.8545 33.3653L39.7823 33.7865L37.8253 28.8051L35.6585 29.6563L35.29 28.7182L40.6958 26.5944L41.0643 27.5326ZM46.4176 31.2571C45.8294 31.4882 45.2495 31.5656 44.6781 31.4893C44.1066 31.4129 43.5976 31.2003 43.1511 30.8514C42.7091 30.4922 42.374 30.0221 42.1459 29.4413C41.9177 28.8605 41.8447 28.2919 41.9269 27.7353C42.0136 27.1683 42.2417 26.6661 42.6114 26.2286C42.9781 25.7837 43.4556 25.4457 44.0438 25.2147C44.632 24.9836 45.2082 24.9076 45.7722 24.9869C46.3408 25.0558 46.846 25.2698 47.288 25.6291C47.7345 25.978 48.0718 26.4428 48.3 27.0236C48.5282 27.6044 48.5989 28.1783 48.5122 28.7453C48.43 29.3018 48.2056 29.8026 47.8389 30.2475C47.4796 30.6895 47.0059 31.026 46.4176 31.2571ZM46.0491 30.3189C46.4288 30.1697 46.734 29.951 46.9645 29.6627C47.1996 29.3641 47.3413 29.0247 47.3897 28.6447C47.4352 28.2573 47.3775 27.8588 47.2166 27.4493C47.0557 27.0397 46.8282 26.7122 46.5341 26.4668C46.2371 26.2139 45.9023 26.0618 45.5297 26.0104C45.1646 25.9562 44.7921 26.0037 44.4124 26.1529C44.0326 26.302 43.7238 26.5222 43.4858 26.8134C43.2552 27.1017 43.1135 27.441 43.0605 27.8314C43.0121 28.2114 43.0684 28.6062 43.2293 29.0157C43.3902 29.4252 43.6191 29.7565 43.9162 30.0094C44.2177 30.2519 44.5525 30.404 44.9206 30.4657C45.2931 30.517 45.6693 30.4681 46.0491 30.3189ZM21.7068 57.081C21.1037 57.3179 20.5127 57.3997 19.9337 57.3263C19.3622 57.25 18.8533 57.0374 18.4068 56.6885C17.9573 56.3321 17.6185 55.8636 17.3904 55.2828C17.1622 54.702 17.0929 54.1318 17.1825 53.5723C17.2692 53.0054 17.4974 52.5032 17.867 52.0657C18.2412 51.6179 18.7299 51.2755 19.333 51.0386C19.8691 50.8279 20.3881 50.7487 20.8899 50.8008C21.3991 50.85 21.8496 51.034 22.2413 51.3529L21.6322 52.1981C21.3349 51.9883 21.0207 51.8668 20.6896 51.8335C20.3585 51.8003 20.0255 51.8495 19.6904 51.9811C19.3032 52.1333 18.9869 52.3564 18.7414 52.6505C18.5034 52.9417 18.358 53.2825 18.305 53.6728C18.2566 54.0529 18.3129 54.4476 18.4738 54.8572C18.6376 55.2741 18.868 55.6091 19.1651 55.862C19.4666 56.1045 19.8037 56.2514 20.1762 56.3028C20.5563 56.3511 20.9399 56.2993 21.3271 56.1472C21.6621 56.0155 21.9396 55.8249 22.1595 55.5752C22.3795 55.3255 22.5269 55.0226 22.6019 54.6665L23.6191 54.8599C23.5492 55.3602 23.3459 55.8053 23.0092 56.1954C22.677 56.5752 22.2429 56.8704 21.7068 57.081ZM29.5943 50.5271C29.6264 50.609 29.6614 50.7199 29.6992 50.8597L24.8965 52.7465C25.1683 53.2414 25.5606 53.5729 26.0736 53.7409C26.5911 53.8986 27.1403 53.8634 27.7211 53.6352C28.4284 53.3573 28.9044 52.8953 29.1491 52.2491L30.0131 52.709C29.8679 53.127 29.6264 53.497 29.2887 53.8187C28.9584 54.1376 28.5476 54.3935 28.0561 54.5866C27.4307 54.8323 26.8262 54.9237 26.2428 54.8606C25.6564 54.7902 25.1385 54.5768 24.6891 54.2204C24.2471 53.8612 23.912 53.3911 23.6839 52.8103C23.4586 52.237 23.3819 51.6698 23.4537 51.1087C23.5329 50.5446 23.7462 50.0483 24.0935 49.6196C24.4453 49.1805 24.9042 48.8499 25.4701 48.6275C26.036 48.4052 26.5898 48.3381 27.1315 48.4261C27.6777 48.5037 28.1643 48.7251 28.5914 49.0902C29.026 49.4524 29.3602 49.9314 29.5943 50.5271ZM25.8255 49.5322C25.3117 49.7341 24.9413 50.0601 24.7142 50.5103C24.4945 50.9576 24.4544 51.4461 24.5937 51.9758L28.3912 50.484C28.1356 50.0085 27.7714 49.6831 27.2986 49.5079C26.8303 49.3223 26.3393 49.3304 25.8255 49.5322ZM33.7252 49.3941L32.4966 49.8768L33.4795 52.3786L32.4073 52.7999L30.0817 46.8803L31.1539 46.459L32.1368 48.9609L33.3877 48.4695L34.3259 45.2129L35.4763 44.761L34.3503 48.491L37.9583 50.6191L36.6962 51.1149L33.7252 49.3941ZM39.8735 42.969C40.4468 42.7438 41.0103 42.6685 41.564 42.7432C42.1177 42.818 42.6103 43.0327 43.0419 43.3875C43.4809 43.7393 43.8175 44.213 44.0515 44.8087C44.2855 45.4044 44.3629 45.9843 44.2837 46.5483C44.2089 47.102 43.9942 47.5946 43.6394 48.0262C43.2847 48.4578 42.8207 48.7862 42.2473 49.0115C41.8229 49.1782 41.3998 49.2499 40.978 49.2265C40.5637 49.2001 40.1723 49.0789 39.8037 48.8627L41.006 51.923L39.9337 52.3442L36.7569 44.2579L37.7845 43.8542L38.1531 44.7924C38.2626 44.3711 38.4677 44.0069 38.7682 43.6998C39.0657 43.3852 39.4342 43.1416 39.8735 42.969ZM41.7894 48.1084C42.1691 47.9592 42.4743 47.7405 42.7048 47.4522C42.9399 47.1535 43.0817 46.8142 43.1301 46.4342C43.183 46.0438 43.129 45.6439 42.9681 45.2343C42.8072 44.8248 42.576 44.4988 42.2744 44.2563C41.9774 44.0034 41.6426 43.8512 41.27 43.7999C40.9049 43.7457 40.5325 43.7931 40.1527 43.9423C39.7804 44.0886 39.4767 44.311 39.2416 44.6097C39.0111 44.8979 38.8679 45.2335 38.812 45.6165C38.7636 45.9965 38.8199 46.3913 38.9808 46.8008C39.1417 47.2103 39.3706 47.5415 39.6677 47.7944C39.9618 48.0399 40.2966 48.192 40.6721 48.2508C41.0446 48.3021 41.4171 48.2546 41.7894 48.1084ZM50.9724 42.1284C51.0046 42.2103 51.0396 42.3212 51.0773 42.4611L46.2747 44.3479C46.5465 44.8428 46.9388 45.1743 47.4518 45.3423C47.9693 45.5 48.5184 45.4648 49.0992 45.2366C49.8066 44.9587 50.2826 44.4967 50.5273 43.8505L51.3913 44.3104C51.2461 44.7284 51.0046 45.0983 50.6669 45.4201C50.3366 45.739 49.9257 45.9949 49.4343 46.188C48.8088 46.4337 48.2044 46.525 47.6209 46.462C47.0346 46.3916 46.5167 46.1781 46.0672 45.8218C45.6253 45.4625 45.2902 44.9925 45.062 44.4117C44.8368 43.8384 44.7601 43.2711 44.8319 42.71C44.9111 42.146 45.1244 41.6496 45.4717 41.221C45.8235 40.7819 46.2824 40.4512 46.8483 40.2289C47.4142 40.0066 47.968 39.9395 48.5097 40.0275C49.0559 40.1051 49.5425 40.3265 49.9696 40.6916C50.4041 41.0538 50.7384 41.5328 50.9724 42.1284ZM47.2037 41.1336C46.6899 41.3354 46.3195 41.6615 46.0924 42.1117C45.8727 42.559 45.8326 43.0475 45.9719 43.5772L49.7694 42.0854C49.5138 41.6099 49.1496 41.2845 48.6768 41.1093C48.2085 40.9237 47.7175 40.9318 47.2037 41.1336ZM55.9894 37.7852L53.8226 38.6365L55.7796 43.6178L54.7073 44.0391L52.7503 39.0577L50.5836 39.9089L50.215 38.9707L55.6208 36.847L55.9894 37.7852ZM60.1764 37.378C60.9239 37.0929 61.5608 37.0404 62.0871 37.2204C62.6134 37.4005 62.9964 37.7958 63.2363 38.4064C63.4879 39.0467 63.4665 39.6267 63.1721 40.1463C62.8822 40.6556 62.3375 41.063 61.5378 41.3685L59.0427 42.3359L56.7172 36.4163L57.7894 35.9951L58.5748 37.9943L60.1764 37.378ZM62.5697 34.1171L63.642 33.6958L65.9675 39.6154L64.8953 40.0366L62.5697 34.1171ZM61.1393 40.5839C61.6262 40.4012 61.9531 40.1611 62.1198 39.8635C62.294 39.563 62.3036 39.2154 62.1485 38.8208C61.9964 38.4336 61.7624 38.1989 61.4465 38.1168C61.1305 38.0346 60.7254 38.0863 60.231 38.2719L58.882 38.7761L59.7946 41.0993L61.1393 40.5839Z" fill="white"/>
<defs>
<linearGradient id="paint0_linear" x1="72" y1="91.4286" x2="14.4762" y2="7.33204e-07" gradientUnits="userSpaceOnUse">
<stop stop-color="#1492A1"/>
<stop offset="0.476486" stop-color="#BBB272"/>
<stop offset="1" stop-color="#F4C245"/>
</linearGradient>
</defs>
</svg>
