<svg width="16" height="16" viewBox="0 0 16 16" fill="none" xmlns="http://www.w3.org/2000/svg">
<path fill-rule="evenodd" clip-rule="evenodd" d="M8 16C12.4183 16 16 12.4182 16 8C16 3.58179 12.4183 0 8 0C3.58173 0 0 3.58179 0 8C0 12.4182 3.58173 16 8 16ZM7.35999 8.39404C7.14532 8.71143 7.03802 9.11255 7.03802 9.5979H9.15198C9.15198 9.29932 9.23132 9.04736 9.39001 8.84204C9.48822 8.70923 9.62231 8.55835 9.79211 8.38965C9.89655 8.28589 10.0145 8.17529 10.146 8.05811C10.2848 7.93262 10.4107 7.8147 10.5237 7.70459C10.6464 7.58496 10.7537 7.47412 10.846 7.37207C11.0327 7.16675 11.1866 6.91943 11.308 6.62988C11.4387 6.34058 11.504 6.00464 11.504 5.62207C11.504 4.81006 11.1773 4.17529 10.524 3.71802C9.88 3.26074 9.02136 3.03198 7.948 3.03198C7.03333 3.03198 6.23999 3.19531 5.56799 3.52197C4.90533 3.84863 4.37799 4.31055 3.98602 4.90796L5.67999 5.9021C5.91333 5.57544 6.198 5.32324 6.534 5.146C6.87933 4.95923 7.27136 4.86597 7.71002 4.86597C8.16736 4.86597 8.53131 4.96875 8.802 5.17407C9.08197 5.37012 9.22198 5.64062 9.22198 5.98608C9.22198 6.22876 9.14734 6.448 8.99799 6.64404C8.85797 6.83057 8.63397 7.06396 8.32599 7.34399C8.15216 7.5022 7.99518 7.65503 7.85492 7.80225C7.65625 8.01074 7.49127 8.20801 7.35999 8.39404ZM7.13599 12.748C7.39734 12.9907 7.71936 13.1121 8.10199 13.1121C8.48468 13.1121 8.802 12.9907 9.05402 12.748C9.31531 12.4961 9.44598 12.1926 9.44598 11.8379C9.44598 11.4834 9.32001 11.1895 9.06799 10.9561C8.81598 10.7134 8.49402 10.592 8.10199 10.592C7.71002 10.592 7.388 10.7134 7.13599 10.9561C6.88397 11.1895 6.758 11.4834 6.758 11.8379C6.758 12.1926 6.88397 12.4961 7.13599 12.748Z" fill="#181818"/>
</svg>
