<svg width="42" height="52" viewBox="0 0 42 52" fill="none" xmlns="http://www.w3.org/2000/svg">
<path fill-rule="evenodd" clip-rule="evenodd" d="M3.41026 1.32463H12.4744V0.5677C12.4744 0.28385 12.7436 0 13.1026 0H28.9872C29.3462 0 29.5256 0.28385 29.5256 0.5677V1.32463H38.5897C39.5769 1.32463 40.3846 1.7031 41.0128 2.36542C41.641 3.02773 42 3.9739 42 4.92007V48.31C42 49.3507 41.641 50.2023 41.0128 50.8646C40.3846 51.5269 39.5769 52 38.5897 52H3.41026C2.42308 52 1.61538 51.6215 0.987179 50.9592C0.358974 50.2023 0 49.3507 0 48.31V4.92007C0 3.87928 0.358974 3.02773 0.987179 2.36542C1.61538 1.7031 2.51282 1.32463 3.41026 1.32463ZM10.7692 29.9935H8.97436C8.61538 29.9935 8.4359 30.2773 8.4359 30.5612C8.4359 30.9396 8.70513 31.1289 8.97436 31.1289H10.7692C11.1282 31.1289 11.3077 30.845 11.3077 30.5612C11.3077 30.2773 11.0385 29.9935 10.7692 29.9935ZM10.7692 23.4649H8.97436C8.61538 23.4649 8.4359 23.7488 8.4359 24.0326C8.4359 24.4111 8.70513 24.6003 8.97436 24.6003H10.7692C11.1282 24.6003 11.3077 24.3165 11.3077 24.0326C11.3077 23.7488 11.0385 23.4649 10.7692 23.4649ZM10.7692 16.9364H8.97436C8.61538 16.9364 8.4359 17.2202 8.4359 17.5041C8.4359 17.8825 8.70513 18.0718 8.97436 18.0718H10.7692C11.1282 18.0718 11.3077 17.7879 11.3077 17.5041C11.3077 17.1256 11.0385 16.9364 10.7692 16.9364ZM32.6667 16.9364H14.7179C14.359 16.9364 14.1795 17.2202 14.1795 17.5041C14.1795 17.7879 14.359 18.0718 14.7179 18.0718H32.6667C33.0256 18.0718 33.2051 17.7879 33.2051 17.5041C33.2051 17.2202 33.0256 16.9364 32.6667 16.9364ZM32.6667 23.4649H14.7179C14.359 23.4649 14.1795 23.7488 14.1795 24.0326C14.1795 24.4111 14.4487 24.6003 14.7179 24.6003H32.6667C33.0256 24.6003 33.2051 24.3165 33.2051 24.0326C33.2051 23.7488 33.0256 23.4649 32.6667 23.4649ZM32.6667 29.9935H14.7179C14.359 29.9935 14.1795 30.2773 14.1795 30.5612C14.1795 30.9396 14.4487 31.1289 14.7179 31.1289H32.6667C33.0256 31.1289 33.2051 30.845 33.2051 30.5612C33.2051 30.2773 33.0256 29.9935 32.6667 29.9935ZM13.641 1.89233V5.96085V8.04241H28.359V5.96085V1.89233V1.23002H13.641V1.89233ZM4.84615 5.39315H12.4744V2.55465H3.41026C2.78205 2.55465 2.24359 2.8385 1.79487 3.31158C1.4359 3.69005 1.16667 4.25775 1.16667 4.92007V48.31C1.16667 48.9723 1.4359 49.54 1.79487 50.0131C2.24359 50.4861 2.78205 50.77 3.41026 50.77H38.5897C39.2179 50.77 39.7564 50.4861 40.2051 50.0131C40.6538 49.54 40.9231 48.9723 40.9231 48.31V4.92007C40.9231 4.25775 40.6538 3.69005 40.2051 3.21697C39.8462 2.8385 39.2179 2.55465 38.5897 2.55465H29.5256V5.39315H37.1538C37.5128 5.39315 37.6923 5.677 37.6923 5.96085V47.3638C37.6923 47.7423 37.4231 47.9315 37.1538 47.9315H4.84615C4.48718 47.9315 4.30769 47.6476 4.30769 47.3638V5.96085C4.30769 5.58238 4.57692 5.39315 4.84615 5.39315ZM12.4744 6.52855H5.47436V46.7015H36.6154V6.52855H29.5256V8.61012C29.5256 8.98858 29.2564 9.17781 28.9872 9.17781H13.1026C12.7436 9.17781 12.5641 8.89396 12.5641 8.61012V6.52855H12.4744Z" fill="#F4C245"/>
</svg>
