<svg width="80" height="80" viewBox="0 0 80 80" fill="none" xmlns="http://www.w3.org/2000/svg">
<path d="M40 0L44.2165 3.92558L49.2246 1.07821L52.4222 5.87037L57.952 4.2547L59.9582 9.65508L65.7115 9.35822L66.4182 15.0757L72.0849 16.1137L71.454 21.84L76.7286 24.1568L74.7942 29.5833L79.3923 33.0541L76.2586 37.8882L79.9323 42.3258L75.7682 46.3069L78.3196 51.4721L73.3496 54.3856L74.641 60L69.1331 61.6888L69.0949 67.4497L63.346 67.8227L61.9804 73.4195L56.3004 72.4567L53.6808 77.5877L48.376 75.341L44.6437 79.7295L40 76.32L35.3563 79.7295L31.624 75.341L26.3192 77.5877L23.6996 72.4567L18.0196 73.4195L16.654 67.8227L10.9051 67.4497L10.8669 61.6888L5.35898 60L6.65039 54.3856L1.68042 51.4721L4.23178 46.3069L0.0676727 42.3258L3.74145 37.8882L0.607689 33.0541L5.20582 29.5833L3.27135 24.1568L8.54596 21.84L7.91507 16.1137L13.5818 15.0757L14.2885 9.35822L20.0418 9.65508L22.048 4.2547L27.5778 5.87037L30.7754 1.07821L35.7835 3.92558L40 0Z" fill="url(#paint0_linear)"/>
<path d="M28.0421 25.9313L27.7297 33.5705C27.7135 34.2731 27.5824 34.8145 27.3364 35.1948C27.0979 35.5721 26.7403 35.8544 26.2638 36.0416C25.9734 36.1557 25.6714 36.2185 25.3579 36.2299C25.0548 36.2459 24.7787 36.1996 24.5298 36.0911L24.6718 35.107C25.0912 35.2775 25.5019 35.2837 25.904 35.1258C26.1646 35.0234 26.3528 34.8678 26.4684 34.6591C26.5945 34.4548 26.6624 34.1574 26.6723 33.7667L26.6998 33.2789L21.7651 28.3972L22.882 27.9584L26.8087 31.8824L26.9922 26.3437L28.0421 25.9313ZM29.1398 25.5L30.2121 25.0787L31.1993 27.5918L34.5724 26.2666L33.5851 23.7536L34.6573 23.3324L36.9829 29.252L35.9107 29.6732L34.9366 27.1937L31.5635 28.5188L32.5376 30.9983L31.4654 31.4196L29.1398 25.5ZM36.7422 22.5133L37.8144 22.0921L39.5081 26.4033L41.4443 20.666L42.416 20.2843L44.7416 26.2039L43.6694 26.6251L41.9757 22.3139L40.0506 28.0468L39.0677 28.4329L36.7422 22.5133ZM45.0341 22.0148L48.0386 20.8345L48.4028 21.7615L45.3983 22.9418L45.0341 22.0148ZM19.7204 49.2617L18.4918 49.7444L19.4747 52.2462L18.4025 52.6675L16.0769 46.7479L17.1491 46.3267L18.132 48.8285L19.3829 48.3371L20.3211 45.0805L21.4715 44.6286L20.3455 48.3586L23.9535 50.4867L22.6914 50.9825L19.7204 49.2617ZM24.7321 43.2832C25.5511 42.9614 26.2556 42.9167 26.8454 43.1491C27.4427 43.3786 27.8978 43.8918 28.2108 44.6885L29.6149 48.2626L28.5985 48.6619L28.2914 47.88C28.2209 48.2257 28.0474 48.5389 27.7708 48.8194C27.4988 49.0896 27.1357 49.3139 26.6815 49.4924C26.0188 49.7527 25.4235 49.8018 24.8956 49.6395C24.3752 49.4744 24.0126 49.1312 23.8078 48.61C23.6031 48.0888 23.6291 47.5972 23.886 47.1353C24.14 46.6659 24.6802 46.2689 25.5067 45.9442L27.2044 45.2772L27.121 45.065C26.9397 44.6034 26.6667 44.3023 26.3021 44.1619C25.9375 44.0215 25.4946 44.0537 24.9734 44.2585C24.6234 44.396 24.3043 44.5901 24.016 44.8409C23.7249 45.0842 23.5019 45.348 23.3471 45.6323L22.5844 45.0036C22.7932 44.638 23.0849 44.3085 23.4596 44.0152C23.8314 43.7144 24.2555 43.4704 24.7321 43.2832ZM26.5355 48.5956C26.945 48.4348 27.2636 48.2065 27.4912 47.9107C27.7159 47.6076 27.8295 47.2621 27.8319 46.8744L27.5072 46.0479L25.8542 46.6973C24.9457 47.0542 24.6115 47.5379 24.8513 48.1485C24.9683 48.4463 25.1759 48.6355 25.474 48.7161C25.7721 48.7967 26.1259 48.7565 26.5355 48.5956ZM34.302 39.588L36.6276 45.5076L35.5554 45.9288L33.5984 40.9474L31.0518 41.9479L31.5026 43.2921C31.7784 44.1035 31.9694 44.7977 32.0758 45.3747C32.1793 45.9444 32.1747 46.4361 32.0622 46.8499C31.9498 47.2636 31.6813 47.5539 31.2569 47.7206C31.0633 47.7967 30.8305 47.8495 30.5584 47.879L30.27 46.948C30.3756 46.9323 30.4693 46.9084 30.5512 46.8762C30.8491 46.7592 31.0213 46.5411 31.0678 46.222C31.1143 45.9029 31.0897 45.5558 30.994 45.1809C30.8983 44.8059 30.7388 44.2798 30.5157 43.6025L29.7562 41.3738L34.302 39.588ZM39.9015 39.7089C40.6565 39.4209 41.2971 39.3669 41.8234 39.5469C42.3496 39.727 42.7327 40.1223 42.9726 40.7329C43.2241 41.3732 43.2027 41.9532 42.9084 42.4728C42.6185 42.9821 42.0737 43.3895 41.2741 43.695L38.7008 44.6931L36.3753 38.7735L37.4475 38.3523L38.2329 40.3515L39.9015 39.7089ZM40.8644 42.9148C41.3513 42.7321 41.6782 42.492 41.8449 42.1944C42.0191 41.8939 42.0287 41.5463 41.8736 41.1517C41.7215 40.7645 41.4875 40.5298 41.1716 40.4476C40.8631 40.3626 40.4579 40.4143 39.9561 40.6028L38.5401 41.1334L39.4527 43.4565L40.8644 42.9148ZM42.7996 36.2496L43.8719 35.8284L44.8591 38.3414L48.2322 37.0163L47.2449 34.5033L48.3171 34.082L50.6427 40.0016L49.5705 40.4228L48.5964 37.9433L45.2233 39.2685L46.1974 41.748L45.1252 42.1692L42.7996 36.2496ZM53.8612 34.2247C54.6087 33.9396 55.2456 33.8871 55.7719 34.0671C56.2982 34.2472 56.6812 34.6425 56.9211 35.253C57.1727 35.8934 57.1513 36.4734 56.8569 36.993C56.567 37.5023 56.0223 37.9097 55.2226 38.2152L52.7275 39.1826L50.402 33.263L51.4742 32.8417L52.2596 34.841L53.8612 34.2247ZM56.2545 30.9637L57.3268 30.5425L59.6523 36.4621L58.5801 36.8833L56.2545 30.9637ZM54.8241 37.4306C55.311 37.2479 55.6379 37.0078 55.8046 36.7102C55.9788 36.4097 55.9883 36.0621 55.8333 35.6675C55.6812 35.2803 55.4472 35.0456 55.1313 34.9635C54.8153 34.8813 54.4102 34.933 53.9158 35.1186L52.5668 35.6228L53.4794 37.946L54.8241 37.4306ZM65.9373 30.6151C65.9694 30.697 66.0044 30.8079 66.0422 30.9478L61.2395 32.8345C61.5113 33.3294 61.9036 33.6609 62.4166 33.829C62.9341 33.9867 63.4833 33.9514 64.0641 33.7233C64.7714 33.4454 65.2474 32.9833 65.4921 32.3371L66.3561 32.797C66.2109 33.2151 65.9694 33.585 65.6317 33.9067C65.3014 34.2256 64.8906 34.4816 64.3991 34.6746C63.7737 34.9203 63.1692 35.0117 62.5858 34.9487C61.9994 34.8782 61.4815 34.6648 61.0321 34.3084C60.5901 33.9492 60.255 33.4791 60.0268 32.8984C59.8016 32.325 59.7249 31.7578 59.7967 31.1967C59.8759 30.6326 60.0892 30.1363 60.4365 29.7076C60.7883 29.2686 61.2472 28.9379 61.8131 28.7156C62.379 28.4932 62.9328 28.4261 63.4745 28.5141C64.0207 28.5918 64.5073 28.8131 64.9344 29.1783C65.369 29.5405 65.7032 30.0194 65.9373 30.6151ZM62.1685 29.6202C61.6547 29.8221 61.2843 30.1481 61.0572 30.5983C60.8375 31.0456 60.7974 31.5341 60.9367 32.0639L64.7342 30.572C64.4786 30.0965 64.1144 29.7712 63.6416 29.5959C63.1733 29.4103 62.6823 29.4184 62.1685 29.6202ZM32.4803 60.3649L31.2517 60.8475L32.2346 63.3494L31.1624 63.7706L28.8368 57.8511L29.9091 57.4298L30.8919 59.9317L32.1429 59.4402L33.0811 56.1837L34.2315 55.7317L33.1054 59.4618L36.7134 61.5899L35.4513 62.0857L32.4803 60.3649ZM40.4569 53.286L40.1446 60.9252C40.1283 61.6278 39.9972 62.1692 39.7513 62.5495C39.5127 62.9269 39.1552 63.2092 38.6786 63.3964C38.3882 63.5105 38.0863 63.5732 37.7727 63.5847C37.4696 63.6006 37.1936 63.5543 36.9446 63.4458L37.0867 62.4618C37.506 62.6322 37.9167 62.6385 38.3188 62.4805C38.5794 62.3781 38.7676 62.2226 38.8833 62.0138C39.0093 61.8096 39.0773 61.5121 39.0871 61.1215L39.1146 60.6336L34.1799 55.752L35.2968 55.3132L39.2235 59.2371L39.407 53.6985L40.4569 53.286ZM44.6712 51.5659C45.2446 51.3407 45.8081 51.2654 46.3617 51.3401C46.9154 51.4149 47.408 51.6296 47.8396 51.9843C48.2787 52.3362 48.6152 52.8099 48.8492 53.4056C49.0833 54.0013 49.1606 54.5811 49.0814 55.1452C49.0067 55.6988 48.7919 56.1915 48.4372 56.6231C48.0824 57.0547 47.6184 57.3831 47.0451 57.6083C46.6206 57.7751 46.1975 57.8468 45.7758 57.8234C45.3615 57.797 44.97 57.6758 44.6014 57.4596L45.8037 60.5199L44.7315 60.9411L41.5547 52.8547L42.5822 52.4511L42.9508 53.3893C43.0604 52.968 43.2654 52.6038 43.5659 52.2967C43.8635 51.9821 44.2319 51.7385 44.6712 51.5659ZM46.5871 56.7053C46.9669 56.5561 47.272 56.3373 47.5026 56.0491C47.7377 55.7504 47.8794 55.4111 47.9278 55.0311C47.9807 54.6407 47.9267 54.2408 47.7658 53.8312C47.605 53.4217 47.3737 53.0957 47.0722 52.8531C46.7751 52.6002 46.4403 52.4481 46.0678 52.3968C45.7026 52.3426 45.3302 52.39 44.9505 52.5392C44.5782 52.6855 44.2745 52.9079 44.0394 53.2066C43.8088 53.4948 43.6656 53.8304 43.6098 54.2134C43.5614 54.5934 43.6176 54.9882 43.7785 55.3977C43.9394 55.8072 44.1684 56.1384 44.4654 56.3913C44.7595 56.6368 45.0943 56.7889 45.4698 56.8477C45.8424 56.899 46.2148 56.8515 46.5871 56.7053ZM54.1762 54.8068C53.5731 55.0438 52.9821 55.1255 52.4031 55.0521C51.8316 54.9758 51.3227 54.7632 50.8762 54.4143C50.4267 54.058 50.0879 53.5894 49.8598 53.0086C49.6316 52.4278 49.5623 51.8577 49.6519 51.2982C49.7386 50.7312 49.9668 50.229 50.3364 49.7915C50.7106 49.3437 51.1993 49.0013 51.8024 48.7644C52.3385 48.5538 52.8575 48.4745 53.3593 48.5266C53.8685 48.5758 54.319 48.7598 54.7107 49.0787L54.1016 49.924C53.8043 49.7141 53.4901 49.5926 53.159 49.5594C52.8279 49.5261 52.4949 49.5753 52.1598 49.707C51.7726 49.8591 51.4563 50.0822 51.2108 50.3763C50.9728 50.6675 50.8274 51.0083 50.7744 51.3987C50.726 51.7787 50.7823 52.1735 50.9432 52.583C51.107 53 51.3374 53.3349 51.6345 53.5878C51.936 53.8303 52.2731 53.9772 52.6457 54.0286C53.0257 54.077 53.4093 54.0251 53.7965 53.873C54.1315 53.7414 54.409 53.5507 54.6289 53.301C54.8489 53.0513 54.9963 52.7484 55.0713 52.3923L56.0885 52.5858C56.0186 53.086 55.8153 53.5311 55.4786 53.9213C55.1464 54.301 54.7123 54.5962 54.1762 54.8068ZM59.0842 48.2888C59.8317 48.0037 60.4686 47.9512 60.9949 48.1312C61.5212 48.3113 61.9043 48.7066 62.1441 49.3172C62.3957 49.9575 62.3743 50.5375 62.0799 51.0571C61.7901 51.5664 61.2453 51.9738 60.4456 52.2793L57.9506 53.2467L55.625 47.3271L56.6972 46.9058L57.4827 48.9051L59.0842 48.2888ZM61.4776 45.0278L62.5498 44.6066L64.8754 50.5262L63.8031 50.9474L61.4776 45.0278ZM60.0472 51.4947C60.5341 51.312 60.8609 51.0719 61.0276 50.7743C61.2018 50.4738 61.2114 50.1262 61.0563 49.7316C60.9042 49.3444 60.6702 49.1097 60.3543 49.0276C60.0384 48.9454 59.6332 48.9971 59.1389 49.1827L57.7898 49.6869L58.7025 52.0101L60.0472 51.4947Z" fill="white"/>
<defs>
<linearGradient id="paint0_linear" x1="72" y1="91.4286" x2="14.4762" y2="7.33204e-07" gradientUnits="userSpaceOnUse">
<stop stop-color="#1492A1"/>
<stop offset="0.476486" stop-color="#BBB272"/>
<stop offset="1" stop-color="#F4C245"/>
</linearGradient>
</defs>
</svg>
