<svg width="9" height="11" viewBox="0 0 9 11" fill="none" xmlns="http://www.w3.org/2000/svg">
<path d="M4.038 6.598C4.038 6.11267 4.14533 5.71133 4.36 5.394C4.584 5.07667 4.906 4.72667 5.326 4.344C5.634 4.064 5.858 3.83067 5.998 3.644C6.14733 3.448 6.222 3.22867 6.222 2.986C6.222 2.64067 6.082 2.37 5.802 2.174C5.53133 1.96867 5.16733 1.866 4.71 1.866C4.27133 1.866 3.87933 1.95933 3.534 2.146C3.198 2.32333 2.91333 2.57533 2.68 2.902L0.986 1.908C1.378 1.31067 1.90533 0.848666 2.568 0.521999C3.24 0.195333 4.03333 0.0319998 4.948 0.0319998C6.02133 0.0319998 6.88 0.260666 7.524 0.717999C8.17733 1.17533 8.504 1.81 8.504 2.622C8.504 3.00467 8.43867 3.34067 8.308 3.63C8.18667 3.91933 8.03267 4.16667 7.846 4.372C7.66867 4.568 7.43533 4.79667 7.146 5.058C6.80067 5.366 6.54867 5.62733 6.39 5.842C6.23133 6.04733 6.152 6.29933 6.152 6.598H4.038ZM5.102 10.112C4.71933 10.112 4.39733 9.99067 4.136 9.748C3.884 9.496 3.758 9.19267 3.758 8.838C3.758 8.48333 3.884 8.18933 4.136 7.956C4.388 7.71333 4.71 7.592 5.102 7.592C5.494 7.592 5.816 7.71333 6.068 7.956C6.32 8.18933 6.446 8.48333 6.446 8.838C6.446 9.19267 6.31533 9.496 6.054 9.748C5.802 9.99067 5.48467 10.112 5.102 10.112Z" fill="#181818"/>
</svg>
