<svg width="110" height="98" viewBox="0 0 110 98" fill="none" xmlns="http://www.w3.org/2000/svg">
<mask id="mask0" mask-type="alpha" maskUnits="userSpaceOnUse" x="0" y="0" width="110" height="98">
<path d="M95.2707 97.9745H13.8996C8.92865 97.9745 4.41652 95.3781 1.8928 91.1018C-0.630932 86.749 -0.630932 81.6327 1.8928 77.2799L42.5783 6.87272C45.1021 2.52 49.5377 0 54.5852 0C59.5561 0 64.0683 2.59636 66.592 6.87272L107.278 77.2799C109.801 81.6327 109.801 86.749 107.278 91.1018C104.754 95.3781 100.242 97.9745 95.2707 97.9745ZM54.5852 1.98544C50.3025 1.98544 46.5551 4.19999 44.4138 7.86544L3.72823 78.2727C1.58689 81.9381 1.58689 86.3672 3.72823 90.0327C5.86958 93.6981 9.69341 95.9127 13.8996 95.9127H95.2707C99.5534 95.9127 103.301 93.6981 105.442 90.0327C107.583 86.3672 107.583 81.9381 105.442 78.2727L64.7565 7.86544C62.6152 4.19999 58.7914 1.98544 54.5852 1.98544Z" fill="#181818"/>
<path d="M68.5039 42.1526L54.5852 62.389L40.6664 42.1526H31.1833L49.8436 69.4144L38.2192 86.3672H47.7788L50.4555 82.4726L58.6384 70.4072L77.987 42.1526H68.5039Z" fill="#181818"/>
</mask>
<g mask="url(#mask0)">
<rect x="-7" width="123" height="103" fill="#181818"/>
</g>
</svg>
