<svg width="1366" height="44" viewBox="0 0 1366 44" fill="none" xmlns="http://www.w3.org/2000/svg">
<path d="M123.917 42.8723H90.9448C88.5088 42.8723 86.525 40.8917 86.525 38.4849V5.56634C86.525 3.13444 88.5088 1.15381 90.9448 1.15381H123.917C126.353 1.15381 128.337 3.13444 128.337 5.56634V38.4347C128.312 40.8666 126.353 42.8723 123.917 42.8723ZM90.9196 2.40737C89.1869 2.40737 87.7555 3.81136 87.7555 5.56634V38.4598C87.7555 40.1897 89.1618 41.5937 90.9196 41.5937H123.892C125.625 41.5937 127.056 40.1646 127.056 38.4096V5.56634C127.056 3.83643 125.65 2.40737 123.892 2.40737H90.9196Z" fill="#F4C245"/>
<path d="M111.763 42.8723H102.999V34.1225H111.763V42.8723ZM104.279 41.6188H110.532V35.376H104.279V41.6188ZM111.763 29.5846H102.999V1.15381H111.763V29.5846ZM104.279 28.331H110.532V2.40737H104.279V28.331Z" fill="#F8F8F8"/>
<path d="M19.4247 42.8725H-0.338806V1.2041H39.7406V19.7067C39.7406 31.7409 37.2796 42.8725 19.4247 42.8725ZM0.941932 41.6189H19.4498C35.2706 41.6189 38.5101 32.8691 38.5101 19.7317V2.45766H0.941932V41.6189ZM19.4247 35.9277H7.22003V8.09869H32.232V19.7067C32.2069 30.6879 30.2983 35.9277 19.4247 35.9277ZM8.47565 34.6742H19.4247C29.3441 34.6742 30.9513 30.2617 30.9513 19.7067V9.35225H8.45053V34.6742H8.47565Z" fill="#F8F8F8"/>
<path d="M84.8676 42.8725H74.697L66.0835 28.7574L54.2556 29.8354V42.8725H45.4662V1.2041H84.3904V15.1186C84.3904 20.5842 80.95 25.1722 75.3751 27.228L84.8676 42.8725ZM75.4002 41.6189H82.6577L73.5168 26.526L74.2701 26.2753C79.82 24.4953 83.1599 20.3334 83.1599 15.0936V2.45766H46.7469V41.6189H53.025V28.6822L66.7866 27.4286L75.4002 41.6189ZM52.9999 22.991V8.09869H76.8567V14.7927C76.8567 18.6787 74.2952 21.0605 69.6243 21.4867L52.9999 22.991ZM54.2556 9.35225V21.6371L69.5239 20.2582C72.3114 20.0075 75.6262 18.8292 75.6262 14.8178V9.35225H54.2556Z" fill="#F8F8F8"/>
<path d="M160.355 42.8725H143.254L128.262 1.2041H137.428L149.331 34.0975H154.228L166.131 1.2041H175.297L160.355 42.8725ZM144.158 41.6189H159.477L173.539 2.45766H167.035L155.132 35.3511H148.452L136.549 2.45766H130.045L144.158 41.6189Z" fill="#F8F8F8"/>
<path d="M215 42.8725H178.989V1.2041H215V9.40239H187.778V14.7426H208.345V22.9409H187.778V34.6742H215V42.8725ZM180.244 41.6189H213.744V35.9277H186.523V21.6873H207.09V15.9961H186.523V8.14883H213.744V2.45766H180.244V41.6189Z" fill="#F8F8F8"/>
<path d="M547.917 42.8723H514.945C512.509 42.8723 510.525 40.8917 510.525 38.4849V5.56634C510.525 3.13444 512.509 1.15381 514.945 1.15381H547.917C550.353 1.15381 552.337 3.13444 552.337 5.56634V38.4347C552.312 40.8666 550.353 42.8723 547.917 42.8723ZM514.92 2.40737C513.187 2.40737 511.755 3.81136 511.755 5.56634V38.4598C511.755 40.1897 513.162 41.5937 514.92 41.5937H547.892C549.625 41.5937 551.056 40.1646 551.056 38.4096V5.56634C551.056 3.83643 549.65 2.40737 547.892 2.40737H514.92Z" fill="#F4C245"/>
<path d="M535.763 42.8723H526.999V34.1225H535.763V42.8723ZM528.279 41.6188H534.532V35.376H528.279V41.6188ZM535.763 29.5846H526.999V1.15381H535.763V29.5846ZM528.279 28.331H534.532V2.40737H528.279V28.331Z" fill="#F8F8F8"/>
<path d="M443.425 42.8725H423.661V1.2041H463.741V19.7067C463.741 31.7409 461.28 42.8725 443.425 42.8725ZM424.942 41.6189H443.45C459.271 41.6189 462.51 32.8691 462.51 19.7317V2.45766H424.942V41.6189ZM443.425 35.9277H431.22V8.09869H456.232V19.7067C456.207 30.6879 454.298 35.9277 443.425 35.9277ZM432.476 34.6742H443.425C453.344 34.6742 454.951 30.2617 454.951 19.7067V9.35225H432.451V34.6742H432.476Z" fill="#F8F8F8"/>
<path d="M508.868 42.8725H498.697L490.083 28.7574L478.256 29.8354V42.8725H469.466V1.2041H508.39V15.1186C508.39 20.5842 504.95 25.1722 499.375 27.228L508.868 42.8725ZM499.4 41.6189H506.658L497.517 26.526L498.27 26.2753C503.82 24.4953 507.16 20.3334 507.16 15.0936V2.45766H470.747V41.6189H477.025V28.6822L490.787 27.4286L499.4 41.6189ZM477 22.991V8.09869H500.857V14.7927C500.857 18.6787 498.295 21.0605 493.624 21.4867L477 22.991ZM478.256 9.35225V21.6371L493.524 20.2582C496.311 20.0075 499.626 18.8292 499.626 14.8178V9.35225H478.256Z" fill="#F8F8F8"/>
<path d="M584.355 42.8725H567.254L552.262 1.2041H561.428L573.331 34.0975H578.228L590.131 1.2041H599.297L584.355 42.8725ZM568.158 41.6189H583.477L597.539 2.45766H591.035L579.132 35.3511H572.452L560.549 2.45766H554.045L568.158 41.6189Z" fill="#F8F8F8"/>
<path d="M639 42.8725H602.989V1.2041H639V9.40239H611.778V14.7426H632.345V22.9409H611.778V34.6742H639V42.8725ZM604.244 41.6189H637.744V35.9277H610.523V21.6873H631.09V15.9961H610.523V8.14883H637.744V2.45766H604.244V41.6189Z" fill="#F8F8F8"/>
<path d="M284.011 42.8725H248V1.2041H284.011V9.40239H256.789V14.7426H277.356V22.9409H256.789V34.6742H284.011V42.8725ZM249.256 41.6189H282.756V35.9277H255.534V21.6873H276.101V15.9961H255.534V8.14883H282.756V2.45766H249.256V41.6189Z" fill="#F8F8F8"/>
<path d="M333.533 42.8725H324.367L320.047 30.2366L298.903 33.8218L295.688 42.8223H286.522L300.937 1.2041H319.219L319.369 1.63031L333.533 42.8725ZM325.271 41.6189H331.775L318.315 2.45766H301.841L288.305 41.5688H294.809L297.974 32.6936L320.901 28.8075L325.271 41.6189ZM299.857 26.8269L306.462 8.09869H313.719L319.018 23.6679L299.857 26.8269ZM307.366 9.35225L301.766 25.2474L317.36 22.6651L312.815 9.32718H307.366V9.35225Z" fill="#F8F8F8"/>
<path d="M354.728 44C342.247 44 336.823 37.5567 334.763 35.1248L334.035 34.2724L341.468 29.559L341.82 29.9852C343.678 32.1664 347.847 35.8268 354.677 35.8268C356.837 35.8268 363.894 35.5009 363.894 31.2387C363.894 28.3305 359.047 27.3276 353.422 26.1744C345.436 24.5447 335.492 22.4889 335.492 13.3379C335.492 6.69402 341.493 0 352.945 0C363.467 0 369.569 5.86667 371.779 11.3823L372.055 12.0843L363.341 13.739L363.14 13.3128C361.91 10.8308 358.52 8.19829 352.694 8.19829C346.968 8.19829 344.356 10.8558 344.356 13.3379C344.356 16.0707 349.027 16.9732 354.451 18.0262C362.613 19.6057 372.758 21.5863 372.758 31.2387C372.758 39.4621 366.355 44 354.728 44ZM335.944 34.5732C338.028 37.0302 343.226 42.7464 354.728 42.7464C360.981 42.7464 371.478 41.2422 371.478 31.2638C371.478 22.6644 362.287 20.8593 354.175 19.2798C348.224 18.1265 343.076 17.1236 343.076 13.363C343.076 10.2792 346.089 6.9698 352.668 6.9698C358.771 6.9698 362.462 9.67749 364.019 12.3601L370.297 11.1567C367.46 4.93903 361.031 1.27863 352.92 1.27863C342.297 1.27863 336.722 7.37094 336.722 13.363C336.722 21.486 345.712 23.3413 353.673 24.9709C359.826 26.2245 365.124 27.3276 365.124 31.2638C365.124 34.9744 361.307 37.1054 354.652 37.1054C347.721 37.1054 343.352 33.5954 341.217 31.2137L335.944 34.5732Z" fill="#F8F8F8"/>
<path d="M419.141 42.8719H410.352V34.1221H419.141V42.8719ZM411.607 41.6184H417.885V35.3756H411.607V41.6184Z" fill="#F8F8F8"/>
<path d="M390.588 42.8723H380.317L391.417 26.7014L373.888 1.15381H384.109L396.464 19.1549L408.895 1.15381H419.116L390.588 42.8723ZM382.703 41.6188H389.935L399.754 27.278L416.755 2.40737H409.573L396.49 21.3863L383.481 2.40737H376.299L392.974 26.6763L382.703 41.6188Z" fill="#F8F8F8"/>
<path d="M971.917 42.8723H938.945C936.509 42.8723 934.525 40.8917 934.525 38.4849V5.56634C934.525 3.13444 936.509 1.15381 938.945 1.15381H971.917C974.353 1.15381 976.337 3.13444 976.337 5.56634V38.4347C976.312 40.8666 974.353 42.8723 971.917 42.8723ZM938.92 2.40737C937.187 2.40737 935.755 3.81136 935.755 5.56634V38.4598C935.755 40.1897 937.162 41.5937 938.92 41.5937H971.892C973.625 41.5937 975.056 40.1646 975.056 38.4096V5.56634C975.056 3.83643 973.65 2.40737 971.892 2.40737H938.92Z" fill="#F4C245"/>
<path d="M959.763 42.8723H950.999V34.1225H959.763V42.8723ZM952.279 41.6188H958.532V35.376H952.279V41.6188ZM959.763 29.5846H950.999V1.15381H959.763V29.5846ZM952.279 28.331H958.532V2.40737H952.279V28.331Z" fill="#F8F8F8"/>
<path d="M867.425 42.8725H847.661V1.2041H887.741V19.7067C887.741 31.7409 885.28 42.8725 867.425 42.8725ZM848.942 41.6189H867.45C883.271 41.6189 886.51 32.8691 886.51 19.7317V2.45766H848.942V41.6189ZM867.425 35.9277H855.22V8.09869H880.232V19.7067C880.207 30.6879 878.298 35.9277 867.425 35.9277ZM856.476 34.6742H867.425C877.344 34.6742 878.951 30.2617 878.951 19.7067V9.35225H856.451V34.6742H856.476Z" fill="#F8F8F8"/>
<path d="M932.868 42.8725H922.697L914.083 28.7574L902.256 29.8354V42.8725H893.466V1.2041H932.39V15.1186C932.39 20.5842 928.95 25.1722 923.375 27.228L932.868 42.8725ZM923.4 41.6189H930.658L921.517 26.526L922.27 26.2753C927.82 24.4953 931.16 20.3334 931.16 15.0936V2.45766H894.747V41.6189H901.025V28.6822L914.787 27.4286L923.4 41.6189ZM901 22.991V8.09869H924.857V14.7927C924.857 18.6787 922.295 21.0605 917.624 21.4867L901 22.991ZM902.256 9.35225V21.6371L917.524 20.2582C920.311 20.0075 923.626 18.8292 923.626 14.8178V9.35225H902.256Z" fill="#F8F8F8"/>
<path d="M1008.36 42.8725H991.254L976.262 1.2041H985.428L997.331 34.0975H1002.23L1014.13 1.2041H1023.3L1008.36 42.8725ZM992.158 41.6189H1007.48L1021.54 2.45766H1015.04L1003.13 35.3511H996.452L984.549 2.45766H978.045L992.158 41.6189Z" fill="#F8F8F8"/>
<path d="M1063 42.8725H1026.99V1.2041H1063V9.40239H1035.78V14.7426H1056.35V22.9409H1035.78V34.6742H1063V42.8725ZM1028.24 41.6189H1061.74V35.9277H1034.52V21.6873H1055.09V15.9961H1034.52V8.14883H1061.74V2.45766H1028.24V41.6189Z" fill="#F8F8F8"/>
<path d="M708.011 42.8725H672V1.2041H708.011V9.40239H680.789V14.7426H701.356V22.9409H680.789V34.6742H708.011V42.8725ZM673.256 41.6189H706.756V35.9277H679.534V21.6873H700.101V15.9961H679.534V8.14883H706.756V2.45766H673.256V41.6189Z" fill="#F8F8F8"/>
<path d="M757.533 42.8725H748.367L744.047 30.2366L722.903 33.8218L719.688 42.8223H710.522L724.937 1.2041H743.219L743.369 1.63031L757.533 42.8725ZM749.271 41.6189H755.775L742.315 2.45766H725.841L712.305 41.5688H718.809L721.974 32.6936L744.901 28.8075L749.271 41.6189ZM723.857 26.8269L730.462 8.09869H737.719L743.018 23.6679L723.857 26.8269ZM731.366 9.35225L725.766 25.2474L741.36 22.6651L736.815 9.32718H731.366V9.35225Z" fill="#F8F8F8"/>
<path d="M778.728 44C766.247 44 760.823 37.5567 758.763 35.1248L758.035 34.2724L765.468 29.559L765.82 29.9852C767.678 32.1664 771.847 35.8268 778.677 35.8268C780.837 35.8268 787.894 35.5009 787.894 31.2387C787.894 28.3305 783.047 27.3276 777.422 26.1744C769.436 24.5447 759.492 22.4889 759.492 13.3379C759.492 6.69402 765.493 0 776.945 0C787.467 0 793.569 5.86667 795.779 11.3823L796.055 12.0843L787.341 13.739L787.14 13.3128C785.91 10.8308 782.52 8.19829 776.694 8.19829C770.968 8.19829 768.356 10.8558 768.356 13.3379C768.356 16.0707 773.027 16.9732 778.451 18.0262C786.613 19.6057 796.758 21.5863 796.758 31.2387C796.758 39.4621 790.355 44 778.728 44ZM759.944 34.5732C762.028 37.0302 767.226 42.7464 778.728 42.7464C784.981 42.7464 795.478 41.2422 795.478 31.2638C795.478 22.6644 786.287 20.8593 778.175 19.2798C772.224 18.1265 767.076 17.1236 767.076 13.363C767.076 10.2792 770.089 6.9698 776.669 6.9698C782.771 6.9698 786.462 9.67749 788.019 12.3601L794.297 11.1567C791.46 4.93903 785.031 1.27863 776.92 1.27863C766.297 1.27863 760.722 7.37094 760.722 13.363C760.722 21.486 769.712 23.3413 777.673 24.9709C783.826 26.2245 789.124 27.3276 789.124 31.2638C789.124 34.9744 785.307 37.1054 778.652 37.1054C771.721 37.1054 767.352 33.5954 765.217 31.2137L759.944 34.5732Z" fill="#F8F8F8"/>
<path d="M843.141 42.8719H834.352V34.1221H843.141V42.8719ZM835.607 41.6184H841.885V35.3756H835.607V41.6184Z" fill="#F8F8F8"/>
<path d="M814.588 42.8723H804.317L815.417 26.7014L797.888 1.15381H808.109L820.464 19.1549L832.895 1.15381H843.116L814.588 42.8723ZM806.703 41.6188H813.935L823.754 27.278L840.755 2.40737H833.573L820.49 21.3863L807.481 2.40737H800.299L816.974 26.6763L806.703 41.6188Z" fill="#F8F8F8"/>
<path d="M1395.92 42.8723H1362.94C1360.51 42.8723 1358.52 40.8917 1358.52 38.4849V5.56634C1358.52 3.13444 1360.51 1.15381 1362.94 1.15381H1395.92C1398.35 1.15381 1400.34 3.13444 1400.34 5.56634V38.4347C1400.31 40.8666 1398.35 42.8723 1395.92 42.8723ZM1362.92 2.40737C1361.19 2.40737 1359.76 3.81136 1359.76 5.56634V38.4598C1359.76 40.1897 1361.16 41.5937 1362.92 41.5937H1395.89C1397.62 41.5937 1399.06 40.1646 1399.06 38.4096V5.56634C1399.06 3.83643 1397.65 2.40737 1395.89 2.40737H1362.92Z" fill="#F4C245"/>
<path d="M1291.42 42.8725H1271.66V1.2041H1311.74V19.7067C1311.74 31.7409 1309.28 42.8725 1291.42 42.8725ZM1272.94 41.6189H1291.45C1307.27 41.6189 1310.51 32.8691 1310.51 19.7317V2.45766H1272.94V41.6189ZM1291.42 35.9277H1279.22V8.09869H1304.23V19.7067C1304.21 30.6879 1302.3 35.9277 1291.42 35.9277ZM1280.48 34.6742H1291.42C1301.34 34.6742 1302.95 30.2617 1302.95 19.7067V9.35225H1280.45V34.6742H1280.48Z" fill="#F8F8F8"/>
<path d="M1356.87 42.8725H1346.7L1338.08 28.7574L1326.26 29.8354V42.8725H1317.47V1.2041H1356.39V15.1186C1356.39 20.5842 1352.95 25.1722 1347.38 27.228L1356.87 42.8725ZM1347.4 41.6189H1354.66L1345.52 26.526L1346.27 26.2753C1351.82 24.4953 1355.16 20.3334 1355.16 15.0936V2.45766H1318.75V41.6189H1325.03V28.6822L1338.79 27.4286L1347.4 41.6189ZM1325 22.991V8.09869H1348.86V14.7927C1348.86 18.6787 1346.3 21.0605 1341.62 21.4867L1325 22.991ZM1326.26 9.35225V21.6371L1341.52 20.2582C1344.31 20.0075 1347.63 18.8292 1347.63 14.8178V9.35225H1326.26Z" fill="#F8F8F8"/>
<path d="M1132.01 42.8725H1096V1.2041H1132.01V9.40239H1104.79V14.7426H1125.36V22.9409H1104.79V34.6742H1132.01V42.8725ZM1097.26 41.6189H1130.76V35.9277H1103.53V21.6873H1124.1V15.9961H1103.53V8.14883H1130.76V2.45766H1097.26V41.6189Z" fill="#F8F8F8"/>
<path d="M1181.53 42.8725H1172.37L1168.05 30.2366L1146.9 33.8218L1143.69 42.8223H1134.52L1148.94 1.2041H1167.22L1167.37 1.63031L1181.53 42.8725ZM1173.27 41.6189H1179.77L1166.31 2.45766H1149.84L1136.31 41.5688H1142.81L1145.97 32.6936L1168.9 28.8075L1173.27 41.6189ZM1147.86 26.8269L1154.46 8.09869H1161.72L1167.02 23.6679L1147.86 26.8269ZM1155.37 9.35225L1149.77 25.2474L1165.36 22.6651L1160.82 9.32718H1155.37V9.35225Z" fill="#F8F8F8"/>
<path d="M1202.73 44C1190.25 44 1184.82 37.5567 1182.76 35.1248L1182.04 34.2724L1189.47 29.559L1189.82 29.9852C1191.68 32.1664 1195.85 35.8268 1202.68 35.8268C1204.84 35.8268 1211.89 35.5009 1211.89 31.2387C1211.89 28.3305 1207.05 27.3276 1201.42 26.1744C1193.44 24.5447 1183.49 22.4889 1183.49 13.3379C1183.49 6.69402 1189.49 0 1200.94 0C1211.47 0 1217.57 5.86667 1219.78 11.3823L1220.06 12.0843L1211.34 13.739L1211.14 13.3128C1209.91 10.8308 1206.52 8.19829 1200.69 8.19829C1194.97 8.19829 1192.36 10.8558 1192.36 13.3379C1192.36 16.0707 1197.03 16.9732 1202.45 18.0262C1210.61 19.6057 1220.76 21.5863 1220.76 31.2387C1220.76 39.4621 1214.35 44 1202.73 44ZM1183.94 34.5732C1186.03 37.0302 1191.23 42.7464 1202.73 42.7464C1208.98 42.7464 1219.48 41.2422 1219.48 31.2638C1219.48 22.6644 1210.29 20.8593 1202.18 19.2798C1196.22 18.1265 1191.08 17.1236 1191.08 13.363C1191.08 10.2792 1194.09 6.9698 1200.67 6.9698C1206.77 6.9698 1210.46 9.67749 1212.02 12.3601L1218.3 11.1567C1215.46 4.93903 1209.03 1.27863 1200.92 1.27863C1190.3 1.27863 1184.72 7.37094 1184.72 13.363C1184.72 21.486 1193.71 23.3413 1201.67 24.9709C1207.83 26.2245 1213.12 27.3276 1213.12 31.2638C1213.12 34.9744 1209.31 37.1054 1202.65 37.1054C1195.72 37.1054 1191.35 33.5954 1189.22 31.2137L1183.94 34.5732Z" fill="#F8F8F8"/>
<path d="M1267.14 42.8719H1258.35V34.1221H1267.14V42.8719ZM1259.61 41.6184H1265.89V35.3756H1259.61V41.6184Z" fill="#F8F8F8"/>
<path d="M1238.59 42.8723H1228.32L1239.42 26.7014L1221.89 1.15381H1232.11L1244.46 19.1549L1256.9 1.15381H1267.12L1238.59 42.8723ZM1230.7 41.6188H1237.94L1247.75 27.278L1264.76 2.40737H1257.57L1244.49 21.3863L1231.48 2.40737H1224.3L1240.97 26.6763L1230.7 41.6188Z" fill="#F8F8F8"/>
</svg>
