<svg width="35" height="35" viewBox="0 0 35 35" fill="none" xmlns="http://www.w3.org/2000/svg">
<path d="M17.5 0C7.83618 0 0 7.83619 0 17.5C0 27.1638 7.83618 35 17.5 35C27.1638 35 34.9999 27.1638 34.9999 17.5C35.025 7.83619 27.1888 0 17.5 0ZM17.5 30.1931C10.49 30.1931 4.80686 24.51 4.80686 17.5C4.80686 10.49 10.49 4.80687 17.5 4.80687C24.51 4.80687 30.1931 10.49 30.1931 17.5C30.1931 24.51 24.51 30.1931 17.5 30.1931ZM22.0565 18.927C22.5822 17.2246 25.211 16.5236 28.1402 17.1745C28.0901 15.0715 27.4141 13.1438 26.3125 11.5165C24.3598 13.6946 21.8812 14.6209 20.4792 13.5944C19.0772 12.568 19.2274 9.88913 20.7296 7.36051C19.7282 7.03505 18.6516 6.8598 17.525 6.8598C16.4735 6.8598 15.447 7.01001 14.4957 7.31044C16.0729 9.86409 16.2482 12.593 14.8211 13.6195C13.3941 14.671 10.8154 13.6695 8.83761 11.3913C7.68597 13.0436 6.98497 15.0215 6.90986 17.1745C9.86408 16.4986 12.5179 17.2246 13.0436 18.927C13.5694 20.6295 11.8169 22.7074 9.01286 23.834C10.2646 25.5114 12.0171 26.8133 14.045 27.5143C14.3204 24.5601 15.7725 22.3069 17.525 22.3069C19.2775 22.3069 20.7296 24.5601 21.005 27.5143C23.0329 26.8133 24.7854 25.5114 26.0372 23.809C23.2582 22.6824 21.5057 20.6044 22.0565 18.927ZM17.5 20.6795C15.7224 20.6795 14.2954 19.2525 14.2954 17.475C14.2954 15.6974 15.7224 14.2704 17.5 14.2704C19.2775 14.2704 20.7045 15.6974 20.7045 17.475C20.7296 19.2525 19.2775 20.6795 17.5 20.6795Z" fill="#F8F8F8"/>
</svg>
