<svg width="44" height="44" viewBox="0 0 44 44" fill="none" xmlns="http://www.w3.org/2000/svg">
<path fill-rule="evenodd" clip-rule="evenodd" d="M25.0769 1.30769C27.3846 2.69231 29.3846 4.84615 30.9231 7.76923C31.3077 8.53846 31.6923 9.38462 32.0769 10.2308C34.9231 10.5385 37.6154 11 40.0769 11.4615C39.1538 10 38.0769 8.53846 36.7692 7.23077C33.6923 4.15385 29.6154 2 25.0769 1.30769ZM40.7692 12.8462C42.0769 15.4615 42.7692 18.3846 42.8462 21.4615H34.0769C34 17.6923 33.4615 14.3077 32.4615 11.4615C35.4615 11.7692 38.2308 12.2308 40.7692 12.8462ZM42.8462 22.5385H34.0769C34 26.3077 33.4615 29.6923 32.4615 32.5385C35.4615 32.2308 38.2308 31.7692 40.7692 31.1538C42 28.5385 42.7692 25.6154 42.8462 22.5385ZM40.0769 32.4615C39.1538 34 38.0769 35.4615 36.7692 36.7692C33.6923 39.8462 29.6154 42 25.0769 42.6923C27.3846 41.3077 29.3846 39.1538 30.9231 36.2308C31.3077 35.4615 31.6923 34.6154 32.0769 33.7692C34.9231 33.3846 37.6154 33 40.0769 32.4615ZM22 44C15.9231 44 10.3846 41.5385 6.46154 37.5385C2.46154 33.5385 0 28.0769 0 22C0 15.9231 2.46154 10.4615 6.46154 6.46154C10.3846 2.46154 15.9231 0 22 0C28.0769 0 33.5385 2.46154 37.5385 6.46154C41.5385 10.3846 44 15.9231 44 22C44 28.0769 41.5385 33.5385 37.5385 37.5385C33.5385 41.5385 28.0769 44 22 44ZM18.9231 42.6154C16.6923 41.2308 14.6154 39.0769 13.0769 36.2308C12.6923 35.3846 12.3077 34.6154 11.9231 33.6923C9.07692 33.3846 6.38462 32.9231 3.92308 32.4615C4.84615 34.0769 5.92308 35.4615 7.23077 36.7692C10.3077 39.8462 14.3846 42 18.9231 42.6154ZM3.23077 31.1538C5.76923 31.7692 8.53846 32.2308 11.5385 32.5385C10.5385 29.6923 10 26.3077 9.92308 22.5385H1.15385C1.23077 25.6154 1.92308 28.5385 3.23077 31.1538ZM1.15385 21.4615H9.92308C10 17.6923 10.5385 14.3077 11.5385 11.4615C8.53846 11.7692 5.76923 12.2308 3.23077 12.8462C1.92308 15.4615 1.23077 18.3846 1.15385 21.4615ZM3.92308 11.5385C6.38462 11 9.07692 10.5385 11.9231 10.3077C12.3077 9.38462 12.6923 8.53846 13.0769 7.76923C14.6154 4.92308 16.6154 2.69231 18.9231 1.30769C14.3846 2 10.3077 4.15385 7.23077 7.23077C5.92308 8.53846 4.84615 10 3.92308 11.5385ZM12.7692 32.6923C15.4615 32.9231 18.3846 33.0769 21.4615 33.1538V22.5385H11C11.0769 26.3846 11.6923 29.8462 12.7692 32.6923ZM22.5385 33.1538V22.5385H32.9231C32.9231 26.3846 32.3077 29.8462 31.2308 32.6923C28.4615 32.9231 25.5385 33.0769 22.5385 33.1538ZM30.7692 33.8462C28.1538 34.0769 25.3846 34.2308 22.5385 34.2308V42.6923C25.4615 41.5385 28.0769 39.1538 29.9231 35.6923C30.2308 35.0769 30.5385 34.4615 30.7692 33.8462ZM21.4615 34.2308C18.6154 34.2308 15.8462 34.0769 13.2308 33.8462C13.5385 34.4615 13.7692 35.0769 14.0769 35.6923C15.9231 39.1538 18.5385 41.5385 21.4615 42.6923V34.2308ZM31.2308 11.3077C32.3077 14.1538 32.9231 17.5385 32.9231 21.4615H22.5385V10.8462C25.5385 10.8462 28.4615 11 31.2308 11.3077ZM21.4615 10.8462C18.4615 10.8462 15.5385 11 12.7692 11.3077C11.6923 14.1538 11.0769 17.5385 11 21.4615H21.3846V10.8462H21.4615ZM13.1538 10.1538C15.7692 9.92308 18.5385 9.76923 21.3846 9.76923V1.30769C18.5385 2.46154 15.9231 4.84615 14.0769 8.30769C13.7692 8.92308 13.4615 9.53846 13.1538 10.1538ZM22.5385 9.76923V1.30769C25.4615 2.38462 28 4.76923 29.9231 8.30769C30.2308 8.92308 30.5385 9.53846 30.7692 10.1538C28.1538 9.92308 25.3846 9.76923 22.5385 9.76923Z" fill="#F4C245"/>
</svg>
