<svg width="27" height="27" viewBox="0 0 27 27" fill="none" xmlns="http://www.w3.org/2000/svg">
  <path fill-rule="evenodd" clip-rule="evenodd" d="M23.0671 3.93257C20.5244 1.40189 17.1585 0 13.5549 0C6.14634 0 0.109756 6.00809 0.109756 13.3817C0.109756 15.7485 0.731707 18.0425 1.90244 20.0634L0 27L7.13415 25.143C9.09146 26.2171 11.3049 26.7633 13.5549 26.7633C20.9634 26.7633 27 20.7552 27 13.3817C27 9.81322 25.6098 6.44504 23.0671 3.93257ZM13.5549 24.5057C11.5427 24.5057 9.58537 23.9777 7.86585 22.9582L7.46341 22.7215L3.2378 23.8321L4.37195 19.7357L4.09756 19.3169C2.96341 17.5327 2.37805 15.4754 2.37805 13.3817C2.37805 7.24612 7.39024 2.25759 13.5549 2.25759C16.5366 2.25759 19.3537 3.42279 21.4573 5.51652C23.561 7.61025 24.7317 10.414 24.7317 13.3817C24.7317 19.5172 19.7195 24.5057 13.5549 24.5057ZM19.6829 16.1854C19.3537 16.0216 17.689 15.2023 17.3963 15.0931C17.0854 14.9838 16.8659 14.9292 16.6463 15.2569C16.4268 15.5846 15.7866 16.3493 15.5854 16.5678C15.3841 16.7862 15.2012 16.8227 14.8537 16.6588C14.5244 16.4949 13.4268 16.1308 12.1463 15.002C11.1402 14.1099 10.4817 13.0175 10.2805 12.6898C10.0793 12.3621 10.2622 12.18 10.4268 12.0162C10.5732 11.8705 10.7561 11.6339 10.939 11.4336C11.1037 11.2333 11.1585 11.1059 11.2683 10.8692C11.378 10.6507 11.3232 10.4504 11.2317 10.2866C11.1402 10.1227 10.4817 8.46595 10.189 7.81052C9.91463 7.15509 9.64024 7.24612 9.43902 7.22792C9.2378 7.20971 9.01829 7.20971 8.79878 7.20971C8.57927 7.20971 8.21341 7.30074 7.90244 7.62846C7.59146 7.95617 6.73171 8.77546 6.73171 10.414C6.73171 12.0526 7.93902 13.6548 8.10366 13.8732C8.26829 14.0917 10.4634 17.4781 13.8476 18.9164C14.6524 19.2623 15.2744 19.4626 15.7683 19.6264C16.5732 19.8813 17.3049 19.8449 17.8902 19.7539C18.5305 19.6628 19.8841 18.9528 20.1585 18.1699C20.4329 17.3871 20.4329 16.7134 20.3598 16.586C20.25 16.4403 20.0305 16.3493 19.6829 16.1854Z" fill="#F8F8F8"/>
</svg>
