<svg width="184" height="39" viewBox="0 0 184 39" fill="none" xmlns="http://www.w3.org/2000/svg">
<path d="M0.362502 25.8082C3.49107 24.016 3.96515 17.0321 4.10061 15.0367L10.5427 23.4924C9.82116 24.2786 7.84526 26.3162 0.362502 25.8082Z" fill="#F8F8F8"/>
<rect width="179" height="25" rx="10" transform="matrix(-0.997704 -0.0677266 -0.0677266 0.997704 183.638 13.1919)" fill="#F8F8F8"/>
<path d="M21.1318 11.5499L16.6661 11.2468L16.1612 18.8621L15.2872 18.8027L15.8561 10.422L21.1838 10.7837L21.1318 11.5499ZM26.2449 18.8009L26.0913 21.0636L25.2892 21.0092L25.3924 19.4887L19.7534 19.1059L19.6501 20.6264L18.848 20.5719L19.0016 18.3092L19.3608 18.3335C19.7854 18.3383 20.0939 18.0465 20.2862 17.4582C20.4785 16.8699 20.6391 16.0388 20.7681 14.9651L20.995 12.8637L25.6403 13.179L25.2632 18.7342L26.2449 18.8009ZM21.5431 15.0658C21.4425 15.9571 21.3165 16.6902 21.1653 17.2653C21.0145 17.8324 20.7881 18.2139 20.4862 18.4099L24.4131 18.6765L24.739 13.8756L21.71 13.6699L21.5431 15.0658ZM33.5543 17.1441L28.2864 16.7865C28.2899 17.4442 28.5053 17.9921 28.9326 18.43C29.3605 18.86 29.9216 19.0985 30.616 19.1457C31.0071 19.1722 31.3709 19.1288 31.7073 19.0153C32.0443 18.8938 32.3418 18.7056 32.5996 18.4504L33.0412 19.0337C32.739 19.3499 32.3705 19.5815 31.9356 19.7284C31.5086 19.8758 31.0437 19.9325 30.5409 19.8983C29.8943 19.8544 29.3289 19.6797 28.8445 19.3742C28.3686 19.0613 28.0075 18.6519 27.7612 18.146C27.5148 17.6402 27.4126 17.08 27.4543 16.4654C27.496 15.8508 27.6651 15.309 27.9615 14.84C28.2659 14.3716 28.6588 14.0174 29.1402 13.7774C29.6295 13.538 30.1655 13.4381 30.7482 13.4776C31.3308 13.5172 31.8444 13.6883 32.2889 13.9911C32.7335 14.2939 33.0709 14.6977 33.3012 15.2025C33.5321 15.6993 33.6264 16.2589 33.5842 16.8815L33.5543 17.1441ZM30.6986 14.2079C30.092 14.1668 29.5679 14.3276 29.1263 14.6906C28.6932 15.046 28.4276 15.5332 28.3295 16.152L32.7952 16.4551C32.7816 15.8287 32.5803 15.3099 32.1913 14.8986C31.8107 14.4799 31.3132 14.2497 30.6986 14.2079ZM43.9611 14.4227L43.5336 20.7202L42.6836 20.6625L43.0599 15.1192L40.0428 14.9144L39.8534 16.4651C39.7006 17.7698 39.4807 18.7652 39.1936 19.4513C38.9065 20.1374 38.4556 20.4596 37.841 20.4179C37.6734 20.4066 37.472 20.3608 37.2369 20.2807L37.3464 19.5544C37.4879 19.5961 37.5866 19.6189 37.6424 19.6227C37.9697 19.6449 38.2274 19.51 38.4156 19.2181C38.6038 18.9262 38.741 18.5586 38.8272 18.1154C38.9134 17.6723 39.0014 17.0849 39.0912 16.3533L39.3517 14.1098L43.9611 14.4227ZM51.7293 14.95L48.1018 21.788C47.8063 22.3613 47.4826 22.7603 47.1305 22.985C46.7785 23.2096 46.367 23.306 45.8961 23.274C45.5928 23.2534 45.3127 23.1863 45.0558 23.0727C44.7989 22.959 44.5812 22.7999 44.4027 22.5953L44.8408 21.9876C45.1384 22.3285 45.5107 22.5142 45.9577 22.5445C46.245 22.564 46.4939 22.5007 46.7042 22.3547C46.9226 22.2091 47.1326 21.9507 47.3342 21.5795L47.651 20.9876L45.2641 14.5111L46.1501 14.5713L48.1574 20.0839L50.8912 14.8931L51.7293 14.95ZM57.8067 15.3625L57.3792 21.66L56.5292 21.6023L56.7071 18.9804C55.9591 19.2503 55.2339 19.3615 54.5316 19.3138C53.7733 19.2623 53.1943 19.0506 52.7946 18.6787C52.3954 18.2988 52.2194 17.7616 52.2665 17.0672L52.4071 14.996L53.2572 15.0537L53.1198 17.077C53.0878 17.548 53.2151 17.9174 53.5016 18.1854C53.7887 18.4455 54.1996 18.5936 54.7343 18.63C55.325 18.67 55.998 18.5594 56.7535 18.2979L56.9566 15.3048L57.8067 15.3625ZM68.9127 16.1164L68.4852 22.4139L59.7932 21.8239L60.2207 15.5264L61.0708 15.5841L60.6937 21.1393L63.7826 21.349L64.1597 15.7938L65.0097 15.8515L64.6326 21.4067L67.6856 21.6139L68.0627 16.0587L68.9127 16.1164ZM76.6154 20.0672L71.3475 19.7096C71.351 20.3673 71.5663 20.9152 71.9937 21.3531C72.4215 21.7831 72.9827 22.0216 73.6771 22.0688C74.0682 22.0953 74.4319 22.0519 74.7684 21.9384C75.1054 21.8169 75.4028 21.6286 75.6607 21.3735L76.1022 21.9568C75.8001 22.273 75.4316 22.5046 74.9966 22.6515C74.5697 22.7989 74.1048 22.8555 73.6019 22.8214C72.9554 22.7775 72.3899 22.6028 71.9055 22.2973C71.4296 21.9844 71.0685 21.575 70.8222 21.0691C70.5759 20.5633 70.4736 20.0031 70.5153 19.3885C70.5571 18.7739 70.7261 18.2321 71.0226 17.7631C71.327 17.2947 71.7199 16.9404 72.2013 16.7005C72.6906 16.4611 73.2266 16.3612 73.8092 16.4007C74.3919 16.4403 74.9055 16.6114 75.35 16.9142C75.7945 17.217 76.1319 17.6208 76.3623 18.1256C76.5932 18.6224 76.6875 19.182 76.6452 19.8046L76.6154 20.0672ZM73.7597 17.131C73.1531 17.0899 72.629 17.2507 72.1874 17.6137C71.7543 17.9691 71.4887 18.4563 71.3906 19.075L75.8563 19.3782C75.8427 18.7518 75.6414 18.233 75.2523 17.8217C74.8718 17.403 74.3743 17.1728 73.7597 17.131ZM84.7342 20.2214C85.1741 20.3555 85.5051 20.5584 85.7272 20.83C85.9573 21.1023 86.0599 21.4219 86.035 21.7891C86.0101 22.1562 85.8601 22.4748 85.5852 22.7448C85.3183 23.0154 84.9639 23.2158 84.522 23.3462C84.0807 23.4686 83.6007 23.5122 83.0819 23.477C82.6269 23.4461 82.1843 23.3519 81.754 23.1944C81.3242 23.0289 80.9543 22.8073 80.6444 22.5297L80.9748 21.9147C81.2476 22.1497 81.5714 22.3401 81.9464 22.4858C82.3214 22.6315 82.7044 22.7177 83.0955 22.7442C83.6782 22.7838 84.1604 22.7082 84.5422 22.5177C84.9325 22.3196 85.1404 22.0331 85.1659 21.6579C85.1886 21.3227 85.0546 21.053 84.7637 20.8488C84.4734 20.6367 84.0649 20.5127 83.5381 20.477L82.4606 20.4038L82.5028 19.7813L83.5325 19.8512C84.0034 19.8831 84.3885 19.8211 84.6877 19.665C84.9875 19.5009 85.1477 19.2672 85.1683 18.9639C85.1911 18.6287 85.0453 18.3542 84.7311 18.1404C84.4248 17.9272 84.0123 17.8029 83.4935 17.7677C82.8151 17.7217 82.1329 17.8478 81.4472 18.146L81.2524 17.4713C82.0292 17.1311 82.8207 16.9884 83.6269 17.0431C84.1058 17.0756 84.5319 17.1767 84.9053 17.3464C85.2872 17.5086 85.5772 17.7248 85.7754 17.9948C85.9815 18.2654 86.0732 18.5683 86.0504 18.9035C86.0288 19.2228 85.8978 19.4985 85.6575 19.7308C85.4252 19.9636 85.1174 20.1271 84.7342 20.2214ZM90.4397 17.5296C91.2618 17.5854 91.8783 17.8358 92.2891 18.2806C92.7005 18.7175 92.8788 19.339 92.8241 20.1451L92.5591 24.0481L91.745 23.9929L91.8116 23.0111C91.5979 23.3254 91.2972 23.5616 90.9096 23.7197C90.53 23.8783 90.0847 23.9403 89.5739 23.9056C88.8715 23.858 88.3242 23.6524 87.9319 23.289C87.5396 22.9256 87.3622 22.4685 87.3995 21.9178C87.4358 21.383 87.6567 20.965 88.062 20.6638C88.4753 20.3631 89.105 20.2415 89.951 20.2989L91.9504 20.4346L91.9765 20.0515C92.0133 19.5087 91.8895 19.0874 91.6052 18.7875C91.3214 18.4795 90.8882 18.3058 90.3055 18.2662C89.9064 18.2391 89.5187 18.281 89.1424 18.3917C88.7665 18.4945 88.4391 18.6527 88.16 18.8663L87.8199 18.2058C88.1576 17.956 88.5548 17.7745 89.0115 17.6612C89.4688 17.5399 89.9449 17.496 90.4397 17.5296ZM89.7511 23.2441C90.23 23.2766 90.6484 23.1968 91.0062 23.0046C91.3646 22.8044 91.6417 22.5025 91.8375 22.0988L91.9074 21.0692L89.9319 20.9351C88.8544 20.8619 88.2902 21.2005 88.2392 21.9508C88.2143 22.3179 88.3342 22.6187 88.5989 22.8532C88.8642 23.0797 89.2483 23.21 89.7511 23.2441ZM100.9 18.2878L100.473 24.5854L99.623 24.5276L99.9992 18.9844L96.0483 18.7162L95.672 24.2594L94.822 24.2017L95.2495 17.9042L100.9 18.2878ZM106.565 18.6242C107.155 18.6643 107.681 18.8363 108.141 19.1402C108.602 19.4361 108.952 19.8367 109.19 20.342C109.429 20.8473 109.527 21.4112 109.484 22.0338C109.442 22.6644 109.268 23.2139 108.964 23.6823C108.659 24.1508 108.258 24.5044 107.761 24.7433C107.272 24.9747 106.728 25.0701 106.13 25.0295C105.619 24.9948 105.163 24.8596 104.762 24.6239C104.37 24.3808 104.056 24.0468 103.82 23.6218L103.582 27.1297L102.732 27.072L103.317 18.4519L104.131 18.5071L104.046 19.7523C104.33 19.3546 104.687 19.0581 105.117 18.8627C105.555 18.668 106.038 18.5885 106.565 18.6242ZM106.121 24.2712C106.56 24.301 106.966 24.2283 107.339 24.0531C107.712 23.87 108.011 23.5976 108.236 23.236C108.469 22.875 108.602 22.455 108.634 21.9761C108.667 21.4972 108.592 21.0671 108.409 20.6859C108.235 20.2972 107.976 19.9869 107.631 19.755C107.285 19.5231 106.893 19.3923 106.454 19.3625C106.007 19.3321 105.597 19.4085 105.224 19.5917C104.859 19.7753 104.56 20.0477 104.327 20.4088C104.102 20.7624 103.974 21.1786 103.941 21.6575C103.909 22.1364 103.979 22.5702 104.154 22.9589C104.336 23.3481 104.595 23.6584 104.932 23.8898C105.278 24.1137 105.674 24.2408 106.121 24.2712ZM113.66 19.1059C114.482 19.1617 115.098 19.412 115.509 19.8568C115.92 20.2937 116.099 20.9152 116.044 21.7214L115.779 25.6244L114.965 25.5691L115.032 24.5874C114.818 24.9016 114.517 25.1378 114.13 25.2959C113.75 25.4546 113.305 25.5165 112.794 25.4819C112.092 25.4342 111.544 25.2286 111.152 24.8652C110.76 24.5018 110.582 24.0448 110.62 23.494C110.656 22.9593 110.877 22.5413 111.282 22.24C111.695 21.9393 112.325 21.8177 113.171 21.8751L115.17 22.0108L115.196 21.6277C115.233 21.085 115.11 20.6636 114.825 20.3637C114.541 20.0558 114.108 19.882 113.526 19.8425C113.126 19.8154 112.739 19.8572 112.362 19.968C111.987 20.0708 111.659 20.2289 111.38 20.4425L111.04 19.782C111.378 19.5323 111.775 19.3508 112.232 19.2374C112.689 19.1161 113.165 19.0723 113.66 19.1059ZM112.971 24.8203C113.45 24.8529 113.868 24.773 114.226 24.5808C114.585 24.3806 114.862 24.0787 115.057 23.675L115.127 22.6454L113.152 22.5113C112.074 22.4381 111.51 22.7767 111.459 23.527C111.434 23.8941 111.554 24.1949 111.819 24.4294C112.084 24.6559 112.468 24.7862 112.971 24.8203ZM122.274 22.7937C123.114 23.0512 123.506 23.5951 123.45 24.4251C123.413 24.9759 123.18 25.3851 122.753 25.6528C122.326 25.9205 121.71 26.0269 120.903 25.9722L118.042 25.778L118.469 19.4805L121.247 19.669C121.965 19.7178 122.519 19.8957 122.907 20.2027C123.295 20.5096 123.471 20.9225 123.436 21.4413C123.413 21.7846 123.297 22.0734 123.089 22.3078C122.889 22.5348 122.617 22.6968 122.274 22.7937ZM119.105 22.3381L120.997 22.4665C121.484 22.4996 121.861 22.433 122.129 22.2667C122.405 22.101 122.555 21.8426 122.579 21.4914C122.603 21.1402 122.489 20.8679 122.237 20.6744C121.994 20.4815 121.629 20.3685 121.142 20.3354L119.25 20.207L119.105 22.3381ZM120.913 25.2993C121.456 25.3362 121.869 25.276 122.152 25.1188C122.435 24.9617 122.59 24.6955 122.615 24.3204C122.641 23.9452 122.536 23.6615 122.3 23.4691C122.065 23.2687 121.68 23.1504 121.146 23.1141L119.062 22.9726L118.914 25.1636L120.913 25.2993ZM130.902 20.3244L130.474 26.6219L129.624 26.5642L130 21.021L126.983 20.8162L126.794 22.3669C126.641 23.6715 126.421 24.6669 126.134 25.3531C125.847 26.0392 125.396 26.3614 124.782 26.3197C124.614 26.3083 124.413 26.2625 124.177 26.1824L124.287 25.4562C124.428 25.4979 124.527 25.5206 124.583 25.5244C124.91 25.5466 125.168 25.4118 125.356 25.1198C125.544 24.8279 125.682 24.4604 125.768 24.0172C125.854 23.574 125.942 22.9866 126.032 22.255L126.292 20.0115L130.902 20.3244ZM138.155 20.8168L137.728 27.1143L136.949 27.0615L137.091 24.9782L135.115 24.8441L134.876 24.8279L133.274 26.8119L132.352 26.7494L134.07 24.6529C133.592 24.4842 133.233 24.2272 132.992 23.8821C132.75 23.537 132.647 23.113 132.681 22.6102C132.729 21.9078 133.004 21.3893 133.508 21.0546C134.012 20.72 134.679 20.5808 135.509 20.6372L138.155 20.8168ZM133.541 22.6926C133.478 23.6265 134.041 24.1338 135.23 24.2145L137.134 24.3437L137.326 21.5182L135.482 21.3931C134.253 21.3096 133.606 21.7428 133.541 22.6926ZM144.957 22.0363L142.575 21.8745L142.199 27.4178L141.349 27.3601L141.725 21.8168L139.342 21.6551L139.393 20.9008L145.009 21.282L144.957 22.0363ZM148.792 23.776C149.582 23.8376 150.169 24.0538 150.552 24.4247C150.944 24.7961 151.118 25.305 151.074 25.9515C151.029 26.622 150.77 27.1216 150.299 27.4505C149.835 27.7798 149.185 27.9121 148.347 27.8472L145.81 27.6629L146.238 21.3654L147.088 21.4231L146.938 23.6261L148.792 23.776ZM148.343 27.1975C148.926 27.245 149.372 27.1591 149.684 26.9397C150.004 26.7128 150.18 26.3639 150.212 25.893C150.244 25.4301 150.119 25.0768 149.839 24.8333C149.559 24.5898 149.124 24.444 148.534 24.3959L146.895 24.2606L146.705 27.0622L148.343 27.1975ZM155.186 28.3596C154.564 28.3173 154.014 28.1437 153.538 27.8387C153.069 27.5343 152.712 27.1292 152.466 26.6233C152.22 26.1095 152.118 25.5453 152.159 24.9307C152.201 24.3161 152.378 23.7749 152.691 23.3069C153.003 22.839 153.412 22.4859 153.917 22.2476C154.431 22.0098 154.998 21.912 155.621 21.9543C156.164 21.9911 156.639 22.1317 157.048 22.3759C157.465 22.6127 157.783 22.943 158.003 23.3669L157.339 23.7548C157.153 23.4294 156.905 23.1801 156.596 23.0067C156.288 22.8254 155.946 22.7221 155.571 22.6966C155.116 22.6657 154.698 22.7416 154.316 22.9242C153.944 23.0993 153.641 23.3674 153.408 23.7285C153.183 24.0901 153.054 24.5103 153.021 24.9892C152.988 25.4761 153.059 25.9139 153.233 26.3026C153.416 26.6838 153.679 26.9904 154.025 27.2223C154.378 27.4467 154.782 27.5744 155.237 27.6053C155.613 27.6308 155.965 27.5785 156.294 27.4485C156.624 27.3185 156.903 27.105 157.132 26.8078L157.737 27.2818C157.462 27.6721 157.102 27.9604 156.656 28.1466C156.211 28.3249 155.721 28.3959 155.186 28.3596ZM164.356 22.5954L163.929 28.8929L163.151 28.8401L163.292 26.7569L161.317 26.6228L161.077 26.6065L159.475 28.5906L158.553 28.528L160.271 26.4315C159.794 26.2628 159.434 26.0059 159.193 25.6607C158.952 25.3156 158.848 24.8916 158.882 24.3888C158.93 23.6864 159.206 23.1679 159.71 22.8332C160.213 22.4986 160.88 22.3594 161.711 22.4158L164.356 22.5954ZM159.743 24.4712C159.679 25.4051 160.242 25.9124 161.432 25.9931L163.335 26.1223L163.527 23.2968L161.683 23.1717C160.454 23.0882 159.807 23.5214 159.743 24.4712ZM168.245 26.6601C168.267 26.3328 168.338 26.049 168.459 25.8086C168.587 25.5688 168.737 25.3665 168.909 25.2017C169.08 25.0369 169.302 24.8515 169.572 24.6453C169.936 24.3653 170.205 24.119 170.38 23.9064C170.563 23.6863 170.666 23.4126 170.688 23.0854C170.718 22.6464 170.57 22.2835 170.245 21.9968C169.92 21.7022 169.459 21.5345 168.86 21.4939C167.87 21.4267 167.086 21.6982 166.507 22.3084L165.905 21.7864C166.64 21.0024 167.662 20.6548 168.971 20.7437C169.809 20.8006 170.463 21.0334 170.932 21.4421C171.41 21.8514 171.627 22.3753 171.583 23.0138C171.561 23.341 171.485 23.6286 171.356 23.8764C171.236 24.1168 171.09 24.3194 170.918 24.4841C170.755 24.6494 170.537 24.8391 170.266 25.0533C169.902 25.3413 169.627 25.6033 169.443 25.8393C169.259 26.0674 169.155 26.361 169.131 26.7202L168.245 26.6601ZM168.513 29.2642C168.337 29.2523 168.194 29.1824 168.082 29.0545C167.971 28.9187 167.921 28.767 167.933 28.5994C167.944 28.4238 168.014 28.2842 168.141 28.1806C168.269 28.069 168.421 28.0191 168.597 28.031C168.78 28.0435 168.928 28.1137 169.039 28.2415C169.151 28.3614 169.202 28.5091 169.19 28.6847C169.178 28.8523 169.104 28.9957 168.968 29.1147C168.84 29.2263 168.688 29.2761 168.513 29.2642Z" fill="#181818"/>
</svg>
