<svg width="27" height="27" viewBox="0 0 27 27" fill="none" xmlns="http://www.w3.org/2000/svg">
  <path d="M13.5 27C6.05299 27 0 20.947 0 13.5C0 6.05299 6.05299 0 13.5 0C20.947 0 27 6.05299 27 13.5C27 20.947 20.947 27 13.5 27ZM13.5 2.1644C7.24524 2.1644 2.1644 7.24524 2.1644 13.5C2.1644 19.7548 7.24524 24.8356 13.5 24.8356C19.7548 24.8356 24.8356 19.7548 24.8356 13.5C24.8356 7.24524 19.7548 2.1644 13.5 2.1644Z" fill="#F8F8F8"/>
  <path fill-rule="evenodd" clip-rule="evenodd" d="M6.69534 13.3707C10.3088 11.7933 12.73 10.7478 13.9406 10.2525C17.389 8.82183 18.1043 8.56503 18.5812 8.56503C18.6913 8.56503 18.9114 8.58338 19.0581 8.71177C19.1865 8.82183 19.2232 8.95022 19.2415 9.04193C19.2599 9.13365 19.2782 9.35376 19.2599 9.53718C19.0765 11.4998 18.2694 16.2688 17.8475 18.4699C17.6824 19.4054 17.3339 19.7172 17.0038 19.7355C16.2884 19.8089 15.7381 19.2586 15.0411 18.8001C13.9406 18.0847 13.3353 17.6445 12.2714 16.9475C11.0425 16.1404 11.8312 15.7002 12.5466 14.9665C12.73 14.7831 15.9032 11.885 15.9766 11.6282C15.9766 11.5915 15.9949 11.4815 15.9216 11.4081C15.8482 11.3347 15.7381 11.3714 15.6648 11.3898C15.5547 11.4081 13.8122 12.5637 10.4188 14.8565C9.9236 15.205 9.48338 15.3701 9.07985 15.3517C8.63963 15.3334 7.77754 15.0949 7.1539 14.8932C6.38352 14.6364 5.75988 14.508 5.81491 14.0861C5.81491 13.8293 6.10838 13.6092 6.69534 13.3707Z" fill="#F8F8F8"/>
</svg>
