<svg width="224" height="25" viewBox="0 0 224 25" fill="none" xmlns="http://www.w3.org/2000/svg">
<path d="M171.331 23.8439H152.448C151.256 23.8439 150.28 22.8702 150.28 21.6802V2.81285C150.28 1.62283 151.256 0.64917 152.448 0.64917H171.331C172.523 0.64917 173.499 1.62283 173.499 2.81285V21.6586C173.499 22.8702 172.523 23.8439 171.331 23.8439Z" fill="#FDC843"/>
<path d="M159.732 0.64917V16.2277H164.025V0.64917H159.732ZM159.732 19.5381V23.8439H164.025V19.5381H159.732Z" fill="#FAFBFF"/>
<path d="M100.57 23.8437V0.670654H122.791V10.9265C122.791 18.5427 120.797 23.8437 111.518 23.8437H100.57ZM118.477 10.9265V4.6302H104.884V19.8625H111.518C117.328 19.8625 118.477 17.3743 118.477 10.9265Z" fill="#FAFBFF"/>
<path d="M126.78 0.670654H148.351V8.28682C148.351 11.3593 146.4 13.9557 143.018 15.0375L148.351 23.8437H143.365L138.422 15.7299L131.094 16.4006V23.8437H126.78V0.670654ZM140.221 11.5973C142.042 11.4242 144.037 10.602 144.037 8.11373V4.6302H131.094V12.4195L140.221 11.5973Z" fill="#FAFBFF"/>
<path d="M174.345 0.670654H178.832L185.64 19.538H188.957L195.764 0.670654H200.251L191.948 23.8437H182.67L174.345 0.670654Z" fill="#FAFBFF"/>
<path d="M203.221 0.670654H223.123V4.65183H207.535V8.43828H219.307V12.4195H207.535V19.8625H223.123V23.8437H203.221V0.670654Z" fill="#FAFBFF"/>
<path d="M0 0.670654H19.9015V4.65183H4.31417V8.43828H16.086V12.4195H4.31417V19.8625H19.9015V23.8437H0V0.670654Z" fill="#FAFBFF"/>
<path d="M30.1989 0.670654H40.1496L48.1059 23.8437H43.6183L41.1252 16.5521L28.5079 18.6941L26.6868 23.8221H22.1992L30.1989 0.670654ZM39.8244 12.9171L37.0061 4.6302H33.364L29.8737 14.5615L39.8244 12.9171Z" fill="#FAFBFF"/>
<path d="M49.4502 19.365L53.0923 17.0498C54.0896 18.2182 56.5827 20.5334 60.7234 20.5334C63.7151 20.5334 66.36 19.7112 66.36 17.5475C66.36 12.9172 50.1006 15.8814 50.1006 7.29162C50.1006 3.65663 53.4175 0 59.7262 0C65.3628 0 68.8531 2.98589 70.1755 6.29632L65.8831 7.11852C65.0592 5.45249 62.8913 3.98118 59.5744 3.98118C56.084 3.98118 54.4364 5.64722 54.4364 7.29162C54.4364 11.7704 70.6958 8.61147 70.6958 17.5475C70.6958 22.524 66.3817 24.4929 60.7451 24.4929C53.4392 24.4929 50.4474 20.5334 49.4502 19.365Z" fill="#FAFBFF"/>
<path d="M92.939 19.5382H97.2531V23.8439H92.939V19.5382Z" fill="#FAFBFF"/>
<path d="M91.9419 0.64917L84.636 11.2512L77.3734 0.64917H72.3872L82.1862 14.9295L76.0727 23.8439H81.0806L82.4897 21.7667L86.8039 15.4704L96.9281 0.64917H91.9419Z" fill="#FAFBFF"/>
</svg>
