<svg width="27" height="27" viewBox="0 0 27 27" fill="none" xmlns="http://www.w3.org/2000/svg">
  <path d="M-5.90104e-07 13.5C-2.64585e-07 6.05299 6.05299 -9.15623e-07 13.5 -5.90104e-07C20.947 -2.64585e-07 27 6.05299 27 13.5C27 20.947 20.947 27 13.5 27C6.05299 27 -9.15623e-07 20.947 -5.90104e-07 13.5ZM24.8356 13.5C24.8356 7.24524 19.7548 2.1644 13.5 2.1644C7.24524 2.1644 2.1644 7.24524 2.1644 13.5C2.1644 19.7548 7.24524 24.8356 13.5 24.8356C19.7548 24.8356 24.8356 19.7548 24.8356 13.5Z" fill="#F8F8F8"/>
  <path fill-rule="evenodd" clip-rule="evenodd" d="M10.4182 20.5797C10.5649 20.488 10.6383 20.2679 10.8034 19.9377C10.9685 19.6076 11.7939 17.9384 11.9039 17.6449C12.014 17.3331 12.069 17.113 11.7389 16.8929C11.4087 16.6728 10.6383 16.0308 10.4182 15.829C10.1981 15.6273 10.1614 15.4438 10.3265 15.0953C10.4916 14.7652 10.8584 13.6646 11.9956 12.3807C12.8944 11.3718 13.995 10.6932 14.3435 10.4914C14.6736 10.2896 14.8571 10.473 15.0221 10.6381C15.1689 10.7849 15.4073 10.9683 15.6091 11.1517C15.8109 11.3168 15.9393 11.3718 16.1777 11.4819C16.3978 11.5919 16.5996 11.5369 16.7647 11.4452C16.9298 11.3535 18.5989 10.6932 19.2592 10.3997C19.9196 10.1245 19.8278 9.84941 19.8462 9.64764C19.8462 9.46422 19.8462 9.24411 19.8462 9.024C19.8462 8.80389 19.7545 8.43704 19.4243 8.12522C19.0942 7.8134 18.2687 6.95131 16.6179 6.95131C14.9671 6.95131 13.353 8.16191 13.1329 8.32699C12.9128 8.49207 9.50108 10.6932 8.05203 14.0865C7.70353 14.8936 7.50176 15.5172 7.33668 16.0125C7.07989 16.8195 7.11657 17.5532 7.20828 18.1402C7.3 18.7822 8.01535 20.1395 8.80407 20.4146C9.59279 20.6714 10.2715 20.6714 10.4182 20.5797Z" fill="#F8F8F8"/>
</svg>
