<svg width="68" height="68" viewBox="0 0 68 68" fill="none" xmlns="http://www.w3.org/2000/svg">
<path d="M67.6684 26.7252L50.4636 13.1279L49.2744 35.169L54.2297 32.8698C54.19 38.7765 51.9304 44.5246 47.6887 48.8853C47.3319 49.242 46.9751 49.5988 46.5787 49.9556L52.4854 56.5362C53.0008 56.0605 53.5161 55.5848 53.9918 55.0695C60.8103 48.0924 63.942 38.4593 62.7924 28.9452L67.6684 26.7252Z" fill="#F8F8F8"/>
<path d="M38.4917 10.8681L41.2667 2.46391C33.5761 -0.0731944 25.2909 0.402512 17.957 3.77211C15.7767 4.76316 13.7153 6.07136 11.8125 7.53812L7.80861 4.3271L4.63723 26.0114L22.1988 15.7837L19.067 13.2863C19.8995 12.7709 20.732 12.2159 21.6438 11.7798C26.9558 9.36167 32.9418 9.04453 38.4917 10.8681Z" fill="#F8F8F8"/>
<path d="M20.3751 53.0486C18.4722 52.0179 16.6883 50.7493 15.1423 49.2033C13.1205 47.2211 11.4952 44.9219 10.3059 42.3451C9.59236 40.7991 9.077 39.1738 8.72022 37.5088L0.0385665 39.3323C0.514274 41.6316 1.26747 43.8912 2.25853 46.0319C3.88386 49.5997 6.14348 52.7711 8.95808 55.5064C11.852 58.3606 15.2612 60.5409 18.9876 62.087L18.1947 67.1612L38.6105 59.1535L21.0886 48.569L20.3751 53.0486Z" fill="#F8F8F8"/>
</svg>
