<svg width="35" height="35" viewBox="0 0 35 35" fill="none" xmlns="http://www.w3.org/2000/svg">
<path d="M26.8729 2.73056C18.7071 -2.45294 7.91407 -0.0387039 2.73056 8.12709C-2.45294 16.2929 -0.0387039 27.0859 8.12709 32.2694C16.2929 37.4529 27.0859 35.0387 32.2694 26.8729C37.4529 18.7071 35.0387 7.84306 26.8729 2.73056ZM24.3167 6.70695C29.6422 10.0443 31.5594 16.7189 29.2871 22.3285L22.3285 17.145C22.2575 15.6538 21.4764 14.2337 20.1272 13.3816C18.7781 12.5295 17.145 12.4585 15.7958 12.9556L8.12709 8.90816C12.2455 4.43472 19.0621 3.36962 24.3167 6.70695ZM5.49983 13.3106L12.6715 17.145C12.6005 18.068 12.8135 18.9911 13.2396 19.7722L8.76615 26.8019C5.1448 23.3226 3.86667 17.997 5.49983 13.3106ZM12.8846 29.2871L17.358 22.2575C18.2811 22.3285 19.2042 22.1154 19.9852 21.6184L26.5179 26.5179C22.8965 30.0682 17.5 31.1333 12.8846 29.2871Z" fill="#F8F8F8"/>
</svg>
