<svg width="120" height="120" viewBox="0 0 120 120" fill="none" xmlns="http://www.w3.org/2000/svg">
<path d="M52.3179 115.803L52.3173 115.803L4.20524 67.8098C2.1645 65.6888 1 62.9578 1 60C1 57.1172 2.17145 54.3076 4.19869 52.2818L52.3179 4.19672C54.3452 2.17089 57.1571 1 60.0426 1C62.928 1 65.74 2.17089 67.7672 4.19672L115.801 52.2812L115.808 52.2882L115.815 52.295C117.903 54.3043 119 57.1005 119 60C119 62.8827 117.829 65.6923 115.801 67.7182L67.6821 115.803L67.6751 115.81L67.6683 115.817C65.7344 117.827 62.9317 119 60.0426 119C57.0758 119 54.3479 117.832 52.3179 115.803ZM14.9638 59.2926L14.256 60L14.9638 60.7074L59.2506 104.963L59.9574 105.669L60.6643 104.963L104.951 60.7074L105.659 60L104.951 59.2926L60.6643 15.0373L59.9574 14.331L59.2506 15.0373L14.9638 59.2926Z" stroke="#181818" stroke-width="2"/>
</svg>
