<svg width="163" height="23" viewBox="0 0 163 23" fill="none" xmlns="http://www.w3.org/2000/svg">
<path d="M10.7384 8.168C12.2131 8.168 13.4917 8.45733 14.5744 9.036C15.6571 9.596 16.4784 10.408 17.0384 11.472C17.6171 12.5173 17.9064 13.74 17.9064 15.14C17.9064 16.5773 17.5331 17.8467 16.7864 18.948C16.0584 20.0307 15.0411 20.88 13.7344 21.496C12.4464 22.0933 10.9904 22.392 9.36641 22.392C6.69707 22.392 4.56907 21.5613 2.98241 19.9C1.39574 18.2387 0.602406 15.7467 0.602406 12.424C0.602406 6.18933 3.36507 2.54933 8.89041 1.504L16.2544 0.103998L16.9824 4.556L10.5984 5.76C8.97441 6.05867 7.77974 6.544 7.01441 7.216C6.26774 7.86933 5.81974 8.82133 5.67041 10.072C7.03307 8.80267 8.72241 8.168 10.7384 8.168ZM9.39441 18.36C10.3464 18.36 11.0931 18.052 11.6344 17.436C12.1944 16.82 12.4744 16.0547 12.4744 15.14C12.4744 14.1693 12.1944 13.4133 11.6344 12.872C11.0744 12.312 10.3277 12.032 9.39441 12.032C8.44241 12.032 7.67707 12.312 7.09841 12.872C6.53841 13.432 6.25841 14.1973 6.25841 15.168C6.25841 16.1013 6.54774 16.8667 7.12641 17.464C7.70507 18.0613 8.46107 18.36 9.39441 18.36ZM35.7343 14.44C35.7343 14.4773 35.7063 14.916 35.6503 15.756H24.6183C24.8423 16.54 25.2716 17.1467 25.9063 17.576C26.5596 17.9867 27.3716 18.192 28.3423 18.192C29.0703 18.192 29.6956 18.0893 30.2183 17.884C30.7596 17.6787 31.301 17.3427 31.8423 16.876L34.6423 19.788C33.1676 21.4307 31.0116 22.252 28.1743 22.252C26.401 22.252 24.8423 21.916 23.4983 21.244C22.1543 20.572 21.109 19.6387 20.3623 18.444C19.6343 17.2493 19.2703 15.896 19.2703 14.384C19.2703 12.8907 19.625 11.556 20.3343 10.38C21.0623 9.18533 22.061 8.252 23.3303 7.58C24.5996 6.908 26.0276 6.572 27.6143 6.572C29.1263 6.572 30.4983 6.88933 31.7303 7.524C32.9623 8.14 33.933 9.04533 34.6423 10.24C35.3703 11.416 35.7343 12.816 35.7343 14.44ZM27.6423 10.352C26.821 10.352 26.1303 10.5853 25.5703 11.052C25.029 11.5187 24.6836 12.1533 24.5343 12.956H30.7503C30.601 12.1533 30.2463 11.5187 29.6863 11.052C29.145 10.5853 28.4636 10.352 27.6423 10.352ZM46.1619 22.252C44.4819 22.252 42.9792 21.916 41.6539 21.244C40.3286 20.572 39.2926 19.6387 38.5459 18.444C37.8179 17.2493 37.4539 15.896 37.4539 14.384C37.4539 12.872 37.8179 11.528 38.5459 10.352C39.2926 9.15733 40.3286 8.23333 41.6539 7.58C42.9792 6.908 44.4819 6.572 46.1619 6.572C47.8792 6.572 49.3632 6.94533 50.6139 7.692C51.8646 8.42 52.7512 9.43733 53.2739 10.744L49.1579 12.844C48.4672 11.4813 47.4592 10.8 46.1339 10.8C45.1819 10.8 44.3886 11.1173 43.7539 11.752C43.1379 12.3867 42.8299 13.264 42.8299 14.384C42.8299 15.5227 43.1379 16.4187 43.7539 17.072C44.3886 17.7067 45.1819 18.024 46.1339 18.024C47.4592 18.024 48.4672 17.3427 49.1579 15.98L53.2739 18.08C52.7512 19.3867 51.8646 20.4133 50.6139 21.16C49.3632 21.888 47.8792 22.252 46.1619 22.252ZM71.179 6.824V22H65.887V11.052H60.791V22H55.499V6.824H71.179ZM90.2597 6.824V22H84.9397V11.052H81.1037L80.9917 13.376C80.9171 15.3547 80.7211 16.988 80.4037 18.276C80.0864 19.564 79.5637 20.572 78.8357 21.3C78.1077 22.0093 77.1091 22.364 75.8397 22.364C75.1864 22.364 74.3277 22.2427 73.2637 22L73.4877 17.66C73.8237 17.6973 74.0477 17.716 74.1597 17.716C74.7384 17.716 75.1771 17.5293 75.4757 17.156C75.7744 16.7827 75.9797 16.288 76.0917 15.672C76.2037 15.0373 76.2784 14.1973 76.3157 13.152L76.5397 6.824H90.2597ZM100.023 6.572C102.543 6.572 104.466 7.15067 105.791 8.308C107.116 9.44667 107.779 11.2013 107.779 13.572V22H102.823V20.04C102.058 21.5147 100.564 22.252 98.343 22.252C97.167 22.252 96.1496 22.0467 95.291 21.636C94.4323 21.2253 93.779 20.6747 93.331 19.984C92.9016 19.2747 92.687 18.472 92.687 17.576C92.687 16.1387 93.2376 15.028 94.339 14.244C95.4403 13.4413 97.139 13.04 99.435 13.04H102.459C102.366 11.4347 101.292 10.632 99.239 10.632C98.511 10.632 97.7736 10.7533 97.027 10.996C96.2803 11.22 95.6456 11.5373 95.123 11.948L93.331 8.336C94.171 7.776 95.1883 7.34667 96.383 7.048C97.5963 6.73067 98.8096 6.572 100.023 6.572ZM99.827 18.892C100.443 18.892 100.984 18.7427 101.451 18.444C101.918 18.1453 102.254 17.7067 102.459 17.128V15.812H100.163C98.6136 15.812 97.839 16.3253 97.839 17.352C97.839 17.8187 98.0163 18.192 98.371 18.472C98.7256 18.752 99.211 18.892 99.827 18.892ZM124.532 11.052H119.66V22H114.368V11.052H109.468V6.824H124.532V11.052ZM126.593 6.824H131.885V12.452H137.345V6.824H142.665V22H137.345V16.68H131.885V22H126.593V6.824ZM153.729 22.252C152.105 22.252 150.64 21.916 149.333 21.244C148.026 20.572 147 19.6387 146.253 18.444C145.525 17.2493 145.161 15.896 145.161 14.384C145.161 12.8907 145.525 11.5467 146.253 10.352C147 9.15733 148.017 8.23333 149.305 7.58C150.612 6.908 152.086 6.572 153.729 6.572C155.372 6.572 156.846 6.908 158.153 7.58C159.46 8.23333 160.477 9.15733 161.205 10.352C161.933 11.528 162.297 12.872 162.297 14.384C162.297 15.896 161.933 17.2493 161.205 18.444C160.477 19.6387 159.46 20.572 158.153 21.244C156.846 21.916 155.372 22.252 153.729 22.252ZM153.729 18.024C154.662 18.024 155.428 17.7067 156.025 17.072C156.622 16.4187 156.921 15.5227 156.921 14.384C156.921 13.264 156.622 12.3867 156.025 11.752C155.428 11.1173 154.662 10.8 153.729 10.8C152.796 10.8 152.03 11.1173 151.433 11.752C150.836 12.3867 150.537 13.264 150.537 14.384C150.537 15.5227 150.836 16.4187 151.433 17.072C152.03 17.7067 152.796 18.024 153.729 18.024Z" fill="url(#paint0_linear)"/>
<defs>
<linearGradient id="paint0_linear" x1="163" y1="22.0256" x2="22.5153" y2="-2.09163" gradientUnits="userSpaceOnUse">
<stop stop-color="#1492A1"/>
<stop offset="0.421757" stop-color="#BBB272"/>
<stop offset="1" stop-color="#F4C245"/>
</linearGradient>
</defs>
</svg>
