<svg width="80" height="80" viewBox="0 0 80 80" fill="none" xmlns="http://www.w3.org/2000/svg">
<path d="M40 0L44.2165 3.92558L49.2246 1.07821L52.4222 5.87037L57.952 4.2547L59.9582 9.65508L65.7115 9.35822L66.4182 15.0757L72.0849 16.1137L71.454 21.84L76.7286 24.1568L74.7942 29.5833L79.3923 33.0541L76.2586 37.8882L79.9323 42.3258L75.7682 46.3069L78.3196 51.4721L73.3496 54.3856L74.641 60L69.1331 61.6888L69.0949 67.4497L63.346 67.8227L61.9804 73.4195L56.3004 72.4567L53.6808 77.5877L48.376 75.341L44.6437 79.7295L40 76.32L35.3563 79.7295L31.624 75.341L26.3192 77.5877L23.6996 72.4567L18.0196 73.4195L16.654 67.8227L10.9051 67.4497L10.8669 61.6888L5.35898 60L6.65039 54.3856L1.68042 51.4721L4.23178 46.3069L0.0676727 42.3258L3.74145 37.8882L0.607689 33.0541L5.20582 29.5833L3.27135 24.1568L8.54596 21.84L7.91507 16.1137L13.5818 15.0757L14.2885 9.35822L20.0418 9.65508L22.048 4.2547L27.5778 5.87037L30.7754 1.07821L35.7835 3.92558L40 0Z" fill="url(#paint0_linear)"/>
<path d="M33.1569 30.0613L35.4824 35.9809L34.5107 36.3626L32.8126 32.0402L32.036 36.5613L31.5669 36.7456L27.9386 33.9422L29.6411 38.2757L28.6582 38.6619L26.3326 32.7423L27.4384 32.3079L31.3324 35.3937L32.1517 30.4562L33.1569 30.0613ZM41.7697 30.133C41.8019 30.2149 41.8369 30.3258 41.8746 30.4656L37.072 32.3524C37.3437 32.8473 37.7361 33.1788 38.2491 33.3469C38.7666 33.5045 39.3157 33.4693 39.8965 33.2411C40.6039 32.9632 41.0799 32.5012 41.3246 31.855L42.1886 32.3149C42.0434 32.7329 41.8019 33.1029 41.4642 33.4246C41.1339 33.7435 40.723 33.9994 40.2316 34.1925C39.6061 34.4382 39.0017 34.5296 38.4182 34.4665C37.8319 34.3961 37.314 34.1827 36.8645 33.8263C36.4226 33.4671 36.0875 32.997 35.8593 32.4162C35.6341 31.8429 35.5574 31.2757 35.6292 30.7146C35.7084 30.1505 35.9217 29.6542 36.269 29.2255C36.6208 28.7864 37.0797 28.4558 37.6456 28.2334C38.2115 28.0111 38.7653 27.944 39.307 28.032C39.8532 28.1096 40.3398 28.331 40.7669 28.6961C41.2014 29.0583 41.5357 29.5373 41.7697 30.133ZM38.001 29.1381C37.4872 29.34 37.1168 29.666 36.8897 30.1162C36.67 30.5635 36.6299 31.052 36.7692 31.5818L40.5667 30.0899C40.3111 29.6144 39.9469 29.289 39.4741 29.1138C39.0058 28.9282 38.5148 28.9363 38.001 29.1381ZM50.1361 29.1411L51.0444 31.4531L50.0392 31.848L49.4995 30.4742L44.5516 32.418L45.0913 33.7918L44.0749 34.1911L43.1666 31.8791L43.4794 31.7562C43.8503 31.5847 44.0056 31.2143 43.9453 30.6449C43.8849 30.0756 43.6965 29.3115 43.38 28.3529L42.684 26.3185L47.2744 24.5151L49.2314 29.4965L50.1361 29.1411ZM44.3936 28.0449C44.6564 28.8012 44.8359 29.4441 44.9321 29.9736C45.0329 30.4927 45.0029 30.9085 44.842 31.2209L48.1592 29.9177L46.5708 25.8745L44.0019 26.8838L44.3936 28.0449ZM18.2984 55.9598L17.0698 56.4425L18.0527 58.9444L16.9805 59.3656L14.6549 53.446L15.7271 53.0248L16.71 55.5266L17.9609 55.0352L18.8991 51.7786L20.0495 51.3267L18.9235 55.0567L22.5315 57.1848L21.2694 57.6807L18.2984 55.9598ZM26.021 55.8913C25.4328 56.1224 24.853 56.1998 24.2815 56.1234C23.71 56.0471 23.201 55.8345 22.7545 55.4856C22.3125 55.1263 21.9775 54.6563 21.7493 54.0755C21.5211 53.4947 21.4481 52.926 21.5303 52.3695C21.617 51.8025 21.8452 51.3003 22.2148 50.8628C22.5815 50.4179 23.059 50.0799 23.6472 49.8488C24.2355 49.6177 24.8116 49.5418 25.3756 49.6211C25.9442 49.6899 26.4494 49.904 26.8914 50.2633C27.3379 50.6122 27.6753 51.077 27.9034 51.6578C28.1316 52.2386 28.2023 52.8125 28.1156 53.3794C28.0335 53.936 27.809 54.4368 27.4423 54.8817C27.083 55.3236 26.6093 55.6602 26.021 55.8913ZM25.6525 54.9531C26.0322 54.8039 26.3374 54.5852 26.5679 54.2969C26.803 53.9983 26.9447 53.6589 26.9931 53.2789C27.0386 52.8915 26.9809 52.493 26.82 52.0834C26.6591 51.6739 26.4316 51.3464 26.1375 51.101C25.8405 50.8481 25.5057 50.696 25.1331 50.6446C24.768 50.5904 24.3955 50.6378 24.0158 50.787C23.6361 50.9362 23.3272 51.1564 23.0892 51.4476C22.8586 51.7359 22.7169 52.0752 22.664 52.4656C22.6156 52.8456 22.6718 53.2404 22.8327 53.6499C22.9936 54.0594 23.2225 54.3906 23.5196 54.6435C23.8211 54.8861 24.156 55.0382 24.524 55.0999C24.8966 55.1512 25.2727 55.1023 25.6525 54.9531ZM35.1132 45.4088L37.4388 51.3284L36.4671 51.7101L34.769 47.3877L33.9923 51.9088L33.5232 52.093L29.8949 49.2896L31.5974 53.6232L30.6145 54.0093L28.2889 48.0898L29.3947 47.6554L33.2887 50.7412L34.108 45.8037L35.1132 45.4088ZM37.2002 44.5889L38.2724 44.1677L39.9661 48.4789L41.9023 42.7416L42.874 42.3599L45.1996 48.2795L44.1273 48.7007L42.4336 44.3895L40.5086 50.1224L39.5257 50.5085L37.2002 44.5889ZM49.8871 46.5153C49.284 46.7522 48.693 46.834 48.114 46.7606C47.5426 46.6843 47.0336 46.4717 46.5871 46.1228C46.1377 45.7664 45.7989 45.2978 45.5707 44.7171C45.3425 44.1363 45.2733 43.5661 45.3629 43.0066C45.4496 42.4396 45.6777 41.9374 46.0474 41.5C46.4215 41.0522 46.9102 40.7098 47.5133 40.4728C48.0494 40.2622 48.5684 40.183 49.0702 40.2351C49.5794 40.2843 50.0299 40.4683 50.4216 40.7872L49.8125 41.6324C49.5152 41.4226 49.201 41.3011 48.8699 41.2678C48.5389 41.2346 48.2058 41.2838 47.8707 41.4154C47.4835 41.5675 47.1672 41.7906 46.9217 42.0848C46.6837 42.376 46.5383 42.7167 46.4854 43.1071C46.437 43.4871 46.4932 43.8819 46.6541 44.2914C46.8179 44.7084 47.0483 45.0434 47.3454 45.2962C47.6469 45.5388 47.984 45.6857 48.3566 45.737C48.7366 45.7854 49.1202 45.7336 49.5074 45.5815C49.8425 45.4498 50.1199 45.2591 50.3399 45.0094C50.5598 44.7597 50.7073 44.4568 50.7822 44.1008L51.7994 44.2942C51.7295 44.7944 51.5262 45.2396 51.1895 45.6297C50.8574 46.0095 50.4232 46.3046 49.8871 46.5153ZM56.1806 44.0428C55.5775 44.2798 54.9865 44.3615 54.4075 44.2881C53.836 44.2118 53.3271 43.9992 52.8806 43.6503C52.4311 43.294 52.0923 42.8254 51.8642 42.2446C51.636 41.6638 51.5667 41.0937 51.6563 40.5342C51.743 39.9672 51.9712 39.465 52.3408 39.0275C52.715 38.5797 53.2037 38.2373 53.8068 38.0004C54.3429 37.7898 54.8619 37.7105 55.3637 37.7626C55.8729 37.8118 56.3234 37.9959 56.7151 38.3147L56.106 39.16C55.8087 38.9501 55.4945 38.8286 55.1634 38.7954C54.8323 38.7621 54.4993 38.8113 54.1642 38.943C53.777 39.0951 53.4607 39.3182 53.2152 39.6123C52.9772 39.9035 52.8318 40.2443 52.7788 40.6347C52.7304 41.0147 52.7867 41.4095 52.9476 41.819C53.1114 42.236 53.3418 42.5709 53.6389 42.8238C53.9404 43.0663 54.2775 43.2133 54.65 43.2646C55.0301 43.313 55.4137 43.2611 55.8009 43.109C56.1359 42.9774 56.4134 42.7867 56.6333 42.537C56.8533 42.2873 57.0007 41.9844 57.0757 41.6283L58.0929 41.8218C58.023 42.322 57.8197 42.7671 57.483 43.1573C57.1508 43.537 56.7167 43.8322 56.1806 44.0428ZM57.6294 36.5631L58.7016 36.1419L60.3953 40.4531L62.3316 34.7158L63.3033 34.3341L65.6288 40.2536L64.5566 40.6749L62.8629 36.3636L60.9378 42.0965L59.955 42.4827L57.6294 36.5631ZM70.1313 31.6516L72.4568 37.5712L71.4963 37.9485L70.7592 36.0721L69.0391 36.7479L68.9163 36.7961L68.3578 39.1815L67.2074 39.6335L67.854 37.0459C67.3546 37.0873 66.9258 37.0022 66.5676 36.7906C66.2064 36.5714 65.9352 36.231 65.7538 35.7694C65.4876 35.0918 65.5166 34.4874 65.8408 33.956C66.162 33.4173 66.7285 32.9884 67.5401 32.6696L70.1313 31.6516ZM66.8616 35.3729C67.0166 35.7675 67.255 36.0134 67.5768 36.1104C67.9031 36.1971 68.3157 36.1425 68.8145 35.9465L70.4564 35.3015L69.5393 32.9672L67.9422 33.5946C66.9146 33.9983 66.5544 34.5911 66.8616 35.3729Z" fill="white"/>
<defs>
<linearGradient id="paint0_linear" x1="72" y1="91.4286" x2="14.4762" y2="7.33204e-07" gradientUnits="userSpaceOnUse">
<stop stop-color="#1492A1"/>
<stop offset="0.476486" stop-color="#BBB272"/>
<stop offset="1" stop-color="#F4C245"/>
</linearGradient>
</defs>
</svg>
