<svg width="174" height="63" viewBox="0 0 174 63" fill="none" xmlns="http://www.w3.org/2000/svg">
<path d="M173.504 53.9313C170.407 52.0851 170.054 45.0939 169.953 43.0965L163.365 51.4391C164.073 52.2377 166.013 54.3093 173.504 53.9313Z" fill="url(#paint0_linear)"/>
<rect y="8.6167" width="168" height="54" rx="10" transform="rotate(-2.88835 0 8.6167)" fill="url(#paint1_linear)"/>
<path d="M12.8219 20.634L10.9043 20.7308L11.0984 24.5779L10.2355 24.6214L9.81222 16.2321L10.6751 16.1885L10.865 19.9518L12.7826 19.855L15.4331 15.9485L16.3918 15.9001L13.4814 20.1321L16.9949 24.2804L15.9762 24.3318L12.8219 20.634ZM22.0043 18.4646L19.6194 18.5849L19.8993 24.1338L19.0484 24.1768L18.7684 18.6278L16.3835 18.7482L16.3454 17.9931L21.9662 17.7095L22.0043 18.4646ZM25.8257 23.8949C25.2185 23.9255 24.6643 23.8173 24.1633 23.5703C23.6618 23.3152 23.2589 22.951 22.9547 22.4778C22.6504 22.0045 22.4828 21.4603 22.4518 20.845C22.4207 20.2298 22.5327 19.6715 22.7878 19.17C23.0428 18.6685 23.4072 18.2696 23.8809 17.9734C24.3545 17.6771 24.895 17.5137 25.5022 17.4831C26.1094 17.4524 26.6636 17.5606 27.1647 17.8077C27.6658 18.0548 28.0644 18.4151 28.3607 18.8888C28.6649 19.3621 28.8326 19.9063 28.8636 20.5215C28.8946 21.1368 28.7826 21.6951 28.5276 22.1966C28.2805 22.6977 27.9203 23.1003 27.4471 23.4046C26.9734 23.7008 26.4329 23.8643 25.8257 23.8949ZM25.7876 23.1399C26.2351 23.1173 26.6295 22.9973 26.971 22.7798C27.32 22.5539 27.585 22.2482 27.7658 21.8626C27.9466 21.477 28.0249 21.0445 28.0007 20.5651C27.9765 20.0857 27.8551 19.6633 27.6364 19.2978C27.4177 18.9324 27.1235 18.6589 26.7539 18.4772C26.3919 18.2872 25.9871 18.2035 25.5397 18.2261C25.0923 18.2487 24.694 18.3729 24.345 18.5988C24.0035 18.8163 23.7384 19.118 23.5496 19.504C23.3688 19.8896 23.2905 20.3221 23.3147 20.8015C23.3388 21.2809 23.4603 21.7033 23.679 22.0688C23.9057 22.4338 24.2 22.7113 24.562 22.9013C24.9317 23.0829 25.3402 23.1624 25.7876 23.1399ZM36.8803 19.9849C37.3329 20.0662 37.6856 20.2286 37.9382 20.4722C38.1988 20.7154 38.3383 21.0207 38.3569 21.3883C38.3754 21.7558 38.2641 22.0898 38.0229 22.3904C37.7898 22.6905 37.4615 22.9314 37.0381 23.1129C36.6143 23.2865 36.1427 23.3864 35.6234 23.4126C35.168 23.4356 34.7173 23.3942 34.2714 23.2886C33.8251 23.1749 33.4317 22.9985 33.0913 22.7593L33.3468 22.1096C33.6454 22.3109 33.9894 22.4617 34.379 22.5622C34.7685 22.6627 35.1591 22.7031 35.5506 22.6833C36.1338 22.6539 36.6038 22.5221 36.9604 22.2878C37.3247 22.0451 37.4973 21.736 37.4783 21.3605C37.4614 21.0249 37.2965 20.7729 36.9836 20.6045C36.6703 20.428 36.25 20.3531 35.7227 20.3797L34.6441 20.4341L34.6126 19.8109L35.6433 19.7589C36.1147 19.7352 36.4898 19.6281 36.7686 19.4378C37.0469 19.2396 37.1784 18.9886 37.1631 18.685C37.1462 18.3494 36.9691 18.094 36.6318 17.9188C36.3026 17.7432 35.8783 17.6684 35.3589 17.6946C34.6798 17.7289 34.0173 17.9346 33.3715 18.3116L33.0985 17.6645C33.8298 17.2351 34.599 17.0001 35.4059 16.9593C35.8853 16.9352 36.3204 16.9853 36.7112 17.1098C37.1095 17.2258 37.423 17.4063 37.6517 17.6511C37.8883 17.8954 38.015 18.1854 38.032 18.521C38.0481 18.8406 37.9505 19.1299 37.7393 19.3889C37.5361 19.6474 37.2497 19.8461 36.8803 19.9849ZM40.0618 16.7965L40.9127 16.7536L41.0536 19.546L45.0206 19.3459L44.8797 16.5534L45.7306 16.5105L46.0487 22.8145L45.1977 22.8574L45.0575 20.077L41.0905 20.2771L41.2308 23.0576L40.3799 23.1005L40.0618 16.7965ZM50.316 16.2311C51.139 16.1896 51.7806 16.3655 52.241 16.7588C52.701 17.1441 52.9514 17.7402 52.9921 18.5472L53.1892 22.4542L52.3743 22.4953L52.3247 21.5126C52.1495 21.8499 51.8787 22.1198 51.5125 22.3226C51.1542 22.5249 50.7194 22.6389 50.2081 22.6647C49.5049 22.7002 48.9372 22.5606 48.5048 22.246C48.0724 21.9314 47.8423 21.4984 47.8145 20.9471C47.7875 20.4118 47.9574 19.9707 48.3244 19.6238C48.6994 19.2764 49.3103 19.0814 50.1573 19.0387L52.1587 18.9377L52.1394 18.5542C52.112 18.0109 51.9394 17.607 51.6217 17.3427C51.3035 17.0704 50.8529 16.949 50.2696 16.9784C49.8701 16.9985 49.49 17.0858 49.1293 17.2402C48.7683 17.3866 48.4617 17.5823 48.2098 17.8273L47.7942 17.2114C48.1001 16.9236 48.4731 16.6966 48.9133 16.5302C49.3531 16.3558 49.8206 16.2561 50.316 16.2311ZM50.306 21.9869C50.7854 21.9627 51.1914 21.8341 51.5241 21.601C51.8564 21.36 52.096 21.0275 52.2428 20.6036L52.1908 19.5729L50.2133 19.6727C49.1347 19.7271 48.6143 20.1298 48.6522 20.8808C48.6707 21.2484 48.8253 21.533 49.1158 21.7346C49.4059 21.9282 49.8027 22.0123 50.306 21.9869ZM60.8217 19.1735L55.5484 19.4395C55.6294 20.0923 55.9079 20.6109 56.3839 20.9954C56.8595 21.3719 57.4448 21.5426 58.1399 21.5076C58.5314 21.4878 58.8875 21.4018 59.2083 21.2494C59.5286 21.0891 59.8017 20.867 60.0277 20.5833L60.5349 21.1104C60.2722 21.4601 59.9336 21.7335 59.519 21.9306C59.1124 22.1273 58.6574 22.2384 58.154 22.2638C57.5069 22.2965 56.9247 22.1897 56.4077 21.9434C55.8982 21.6888 55.4913 21.3248 55.1871 20.8515C54.8829 20.3782 54.7152 19.834 54.6842 19.2188C54.6532 18.6036 54.7572 18.0456 54.9962 17.5449C55.2433 17.0438 55.5917 16.6458 56.0414 16.3508C56.4991 16.0553 57.0196 15.8929 57.6028 15.8635C58.1861 15.834 58.7163 15.9434 59.1934 16.1917C59.6705 16.44 60.0532 16.8012 60.3414 17.2752C60.6293 17.7413 60.7889 18.286 60.8204 18.9092L60.8217 19.1735ZM57.6397 16.5945C57.0325 16.6252 56.531 16.8467 56.1353 17.2592C55.7472 17.6632 55.5408 18.1783 55.5164 18.8043L59.9867 18.5788C59.8993 17.9584 59.6382 17.4669 59.2034 17.1044C58.7762 16.7334 58.2549 16.5635 57.6397 16.5945ZM66.7365 16.2076L64.3515 16.328L64.6315 21.8769L63.7806 21.9199L63.5006 16.3709L61.1156 16.4912L61.0775 15.7362L66.6984 15.4526L66.7365 16.2076ZM67.7174 20.4716C67.9012 20.4624 68.0562 20.5186 68.1825 20.6404C68.3084 20.7542 68.376 20.903 68.3853 21.0868C68.3901 21.1826 68.3794 21.2873 68.353 21.4008C68.3347 21.5139 68.3012 21.6437 68.2525 21.7903L67.8326 23.4696L67.2574 23.4987L67.5772 21.7403C67.4473 21.7068 67.3398 21.6401 67.2547 21.5403C67.1691 21.4325 67.1225 21.3027 67.1149 21.1509C67.1056 20.9671 67.1579 20.8123 67.2717 20.6864C67.3851 20.5525 67.5336 20.4809 67.7174 20.4716ZM77.5631 15.6614L73.9557 15.8434L74.2357 21.3924L73.3848 21.4353L73.0667 15.1313L77.525 14.9064L77.5631 15.6614ZM84.7973 20.1145L84.9116 22.3796L84.1086 22.4202L84.0318 20.8981L78.387 21.1829L78.4638 22.705L77.6608 22.7455L77.5465 20.4804L77.9061 20.4622C78.3283 20.4169 78.6002 20.0908 78.7218 19.4839C78.8434 18.877 78.9049 18.0328 78.9064 16.9514L78.8839 14.8378L83.534 14.6032L83.8146 20.1641L84.7973 20.1145ZM79.6879 16.96C79.6931 17.8569 79.6544 18.5998 79.572 19.1887C79.4892 19.7696 79.3094 20.1751 79.0326 20.4054L82.9636 20.207L82.7212 15.4012L79.689 15.5541L79.6879 16.96ZM91.8604 17.6074L86.5871 17.8735C86.6681 18.5262 86.9465 19.0449 87.4225 19.4294C87.8981 19.8059 88.4834 19.9766 89.1786 19.9415C89.5701 19.9218 89.9262 19.8357 90.2469 19.6834C90.5672 19.523 90.8404 19.301 91.0664 19.0172L91.5736 19.5444C91.3109 19.894 90.9722 20.1674 90.5576 20.3646C90.151 20.5613 89.696 20.6724 89.1927 20.6978C88.5455 20.7304 87.9634 20.6236 87.4463 20.3774C86.9368 20.1227 86.53 19.7588 86.2257 19.2855C85.9215 18.8122 85.7539 18.268 85.7228 17.6528C85.6918 17.0375 85.7958 16.4796 86.0349 15.9789C86.282 15.4778 86.6303 15.0798 87.08 14.7847C87.5377 14.4893 88.0582 14.3269 88.6415 14.2974C89.2247 14.268 89.7549 14.3774 90.232 14.6257C90.7091 14.874 91.0918 15.2352 91.3801 15.7092C91.6679 16.1753 91.8276 16.72 91.859 17.3432L91.8604 17.6074ZM88.6784 15.0285C88.0711 15.0591 87.5697 15.2807 87.1739 15.6932C86.7858 16.0972 86.5795 16.6123 86.555 17.2383L91.0253 17.0128C90.938 16.3924 90.6769 15.9009 90.242 15.5384C89.8148 15.1674 89.2936 14.9975 88.6784 15.0285ZM99.6779 20.1688C99.0547 20.2002 98.4886 20.0926 97.9795 19.8459C97.4784 19.5989 97.0758 19.2387 96.7715 18.7654C96.4669 18.2842 96.2991 17.7359 96.268 17.1207C96.237 16.5055 96.349 15.9471 96.604 15.4457C96.8591 14.9442 97.2235 14.5453 97.6971 14.2491C98.1788 13.9524 98.7312 13.7884 99.3544 13.7569C99.8977 13.7295 100.387 13.813 100.821 14.0073C101.263 14.1933 101.618 14.4838 101.886 14.8788L101.273 15.3423C101.049 15.0411 100.774 14.8227 100.447 14.6871C100.119 14.5434 99.7674 14.481 99.3919 14.5C98.9365 14.523 98.5303 14.6476 98.1732 14.8739C97.8238 15.0917 97.5546 15.3937 97.3658 15.7797C97.185 16.1653 97.1067 16.5978 97.1309 17.0772C97.1555 17.5646 97.2772 17.991 97.4958 18.3564C97.7221 18.7135 98.0203 18.9868 98.3903 19.1764C98.7679 19.3576 99.1844 19.4367 99.6398 19.4137C100.015 19.3948 100.359 19.3013 100.671 19.1334C100.983 18.9655 101.235 18.7205 101.427 18.3984L102.084 18.7978C101.857 19.2178 101.533 19.5465 101.112 19.784C100.691 20.0135 100.213 20.1418 99.6779 20.1688ZM107.829 14.1344L105.444 14.2547L105.724 19.8037L104.873 19.8466L104.593 14.2976L102.208 14.418L102.17 13.6629L107.791 13.3793L107.829 14.1344ZM112.266 13.1055C112.858 13.0756 113.4 13.1844 113.893 13.4319C114.386 13.6714 114.78 14.028 115.076 14.5016C115.373 14.9753 115.536 15.5238 115.568 16.147C115.6 16.7782 115.492 17.3443 115.245 17.8454C114.998 18.3465 114.642 18.7449 114.176 19.0408C113.718 19.3282 113.189 19.4871 112.59 19.5173C112.079 19.5431 111.61 19.4626 111.184 19.2758C110.766 19.0807 110.414 18.786 110.13 18.3918L110.307 21.9034L109.456 21.9463L109.021 13.3173L109.836 13.2762L109.899 14.5226C110.134 14.0942 110.453 13.7577 110.857 13.513C111.269 13.2679 111.739 13.1321 112.266 13.1055ZM112.492 18.7653C112.931 18.7431 113.326 18.6231 113.675 18.4052C114.024 18.1793 114.289 17.8736 114.47 17.488C114.659 17.102 114.741 16.6693 114.717 16.1899C114.693 15.7105 114.568 15.2923 114.341 14.9352C114.123 14.5698 113.828 14.2923 113.458 14.1027C113.088 13.9131 112.683 13.8294 112.244 13.8515C111.797 13.8741 111.398 13.9983 111.049 14.2242C110.708 14.4497 110.443 14.7554 110.254 15.1414C110.073 15.519 109.995 15.9475 110.019 16.4269C110.043 16.9063 110.165 17.3287 110.383 17.6942C110.61 18.0592 110.904 18.3367 111.266 18.5267C111.636 18.7083 112.044 18.7879 112.492 18.7653ZM119.369 12.7471C120.192 12.7056 120.833 12.8815 121.294 13.2748C121.754 13.6601 122.004 14.2562 122.045 15.0632L122.242 18.9702L121.427 19.0114L121.377 18.0286C121.202 18.3659 120.932 18.6359 120.565 18.8386C120.207 19.0409 119.772 19.1549 119.261 19.1807C118.558 19.2162 117.99 19.0766 117.558 18.762C117.125 18.4474 116.895 18.0145 116.867 17.4632C116.84 16.9278 117.01 16.4867 117.377 16.1398C117.752 15.7924 118.363 15.5974 119.21 15.5547L121.212 15.4537L121.192 15.0702C121.165 14.5269 120.992 14.1231 120.674 13.8587C120.356 13.5864 119.906 13.465 119.322 13.4944C118.923 13.5146 118.543 13.6018 118.182 13.7562C117.821 13.9026 117.515 14.0983 117.263 14.3433L116.847 13.7274C117.153 13.4397 117.526 13.2126 117.966 13.0462C118.406 12.8718 118.873 12.7721 119.369 12.7471ZM119.359 18.5029C119.838 18.4787 120.244 18.3501 120.577 18.1171C120.909 17.876 121.149 17.5435 121.296 17.1196L121.244 16.0889L119.266 16.1887C118.187 16.2431 117.667 16.6458 117.705 17.3969C117.724 17.7644 117.878 18.049 118.169 18.2506C118.459 18.4442 118.855 18.5283 119.359 18.5029ZM128.45 18.657L126.316 16.1214L124.435 18.8596L123.477 18.908L125.806 15.5463L123.278 12.5979L124.237 12.5496L126.255 14.9229L128.024 12.3585L128.959 12.3113L126.741 15.4991L129.421 18.608L128.45 18.657ZM133.197 18.4776C132.59 18.5082 132.036 18.4 131.534 18.153C131.033 17.8979 130.63 17.5337 130.326 17.0605C130.022 16.5872 129.854 16.043 129.823 15.4277C129.792 14.8125 129.904 14.2542 130.159 13.7527C130.414 13.2512 130.778 12.8523 131.252 12.5561C131.726 12.2598 132.266 12.0964 132.873 12.0658C133.481 12.0351 134.035 12.1433 134.536 12.3904C135.037 12.6375 135.436 12.9978 135.732 13.4715C136.036 13.9448 136.204 14.489 136.235 15.1042C136.266 15.7195 136.154 16.2778 135.899 16.7793C135.652 17.2804 135.292 17.683 134.818 17.9873C134.345 18.2835 133.804 18.447 133.197 18.4776ZM133.159 17.7226C133.606 17.7 134.001 17.58 134.342 17.3625C134.691 17.1366 134.956 16.8309 135.137 16.4453C135.318 16.0597 135.396 15.6272 135.372 15.1478C135.348 14.6684 135.226 14.246 135.008 13.8805C134.789 13.5151 134.495 13.2416 134.125 13.0599C133.763 12.8699 133.358 12.7862 132.911 12.8088C132.464 12.8314 132.065 12.9556 131.716 13.1815C131.375 13.399 131.11 13.7007 130.921 14.0867C130.74 14.4723 130.662 14.9048 130.686 15.3842C130.71 15.8636 130.832 16.286 131.05 16.6515C131.277 17.0165 131.571 17.294 131.933 17.484C132.303 17.6656 132.711 17.7451 133.159 17.7226ZM142.063 14.7021C142.928 14.8587 143.381 15.3524 143.423 16.1834C143.451 16.7347 143.269 17.1684 142.876 17.4846C142.484 17.8008 141.884 17.9792 141.077 18.02L138.212 18.1645L137.894 11.8605L140.675 11.7202C141.394 11.6839 141.964 11.7953 142.386 12.0544C142.807 12.3135 143.031 12.7027 143.058 13.222C143.075 13.5656 142.994 13.8661 142.815 14.1234C142.643 14.3724 142.392 14.5653 142.063 14.7021ZM138.863 14.6232L140.756 14.5277C141.244 14.5031 141.611 14.3924 141.857 14.1958C142.112 13.9987 142.23 13.7244 142.212 13.3728C142.194 13.0213 142.049 12.7643 141.777 12.6018C141.512 12.4389 141.136 12.3698 140.649 12.3944L138.755 12.4899L138.863 14.6232ZM141.007 17.3506C141.55 17.3232 141.953 17.2148 142.216 17.0253C142.479 16.8358 142.601 16.5533 142.582 16.1778C142.563 15.8023 142.425 15.5329 142.169 15.3696C141.912 15.1983 141.516 15.1262 140.98 15.1532L138.895 15.2584L139.006 17.4516L141.007 17.3506ZM147.652 14.8767L146.213 14.9492L146.355 17.7537L145.504 17.7966L145.186 11.4926L146.037 11.4497L146.177 14.2182L147.627 14.145L149.704 11.2646L150.627 11.2181L148.3 14.3994L151.125 17.513L150.118 17.5638L147.652 14.8767ZM157.144 10.8893L154.348 18.1073C154.122 18.7115 153.848 19.1459 153.525 19.4105C153.202 19.6751 152.805 19.8193 152.333 19.8431C152.03 19.8584 151.743 19.8248 151.475 19.7422C151.206 19.6596 150.971 19.5273 150.77 19.3452L151.134 18.6901C151.469 18.9935 151.861 19.134 152.308 19.1114C152.596 19.0969 152.836 19.0047 153.027 18.8348C153.227 18.6645 153.405 18.3832 153.561 17.9908L153.806 17.3657L150.672 11.2158L151.559 11.1711L154.202 16.4085L156.305 10.9316L157.144 10.8893ZM16.1263 33.0232L16.4444 39.3272L15.5935 39.3702L15.3135 33.8212L11.3586 34.0208L11.6385 39.5697L10.7876 39.6126L10.4695 33.3087L16.1263 33.0232ZM21.467 39.1339C20.8598 39.1645 20.3056 39.0563 19.8045 38.8093C19.303 38.5542 18.9002 38.19 18.5959 37.7168C18.2917 37.2435 18.1241 36.6993 18.093 36.084C18.062 35.4688 18.174 34.9105 18.429 34.409C18.6841 33.9075 19.0485 33.5086 19.5221 33.2124C19.9958 32.9161 20.5362 32.7527 21.1435 32.7221C21.7507 32.6914 22.3049 32.7996 22.8059 33.0467C23.307 33.2938 23.7057 33.6541 24.0019 34.1278C24.3062 34.6011 24.4738 35.1453 24.5049 35.7605C24.5359 36.3757 24.4239 36.9341 24.1688 37.4356C23.9218 37.9367 23.5616 38.3393 23.0883 38.6436C22.6147 38.9398 22.0742 39.1033 21.467 39.1339ZM21.4289 38.3789C21.8763 38.3563 22.2708 38.2363 22.6122 38.0188C22.9613 37.7929 23.2262 37.4872 23.407 37.1016C23.5878 36.716 23.6661 36.2835 23.642 35.8041C23.6178 35.3247 23.4963 34.9023 23.2776 34.5368C23.0589 34.1714 22.7648 33.8978 22.3952 33.7162C22.0331 33.5262 21.6284 33.4425 21.181 33.4651C20.7335 33.4877 20.3353 33.6119 19.9862 33.8378C19.6448 34.0553 19.3796 34.357 19.1908 34.743C19.01 35.1286 18.9317 35.5611 18.9559 36.0405C18.9801 36.5199 19.1015 36.9423 19.3202 37.3077C19.5469 37.6728 19.8413 37.9503 20.2033 38.1403C20.5729 38.3219 20.9815 38.4014 21.4289 38.3789ZM32.5581 37.7693L32.6723 40.0344L31.8694 40.0749L31.7926 38.5529L26.1477 38.8377L26.2245 40.3597L25.4216 40.4002L25.3073 38.1351L25.6668 38.117C26.0891 38.0716 26.361 37.7455 26.4826 37.1386C26.6041 36.5317 26.6657 35.6876 26.6672 34.6061L26.6447 32.4926L31.2947 32.2579L31.5753 37.8189L32.5581 37.7693ZM27.4486 34.6147C27.4538 35.5116 27.4152 36.2545 27.3328 36.8434C27.2499 37.4243 27.0701 37.8299 26.7934 38.0601L30.7244 37.8618L30.4819 33.0559L27.4498 33.2089L27.4486 34.6147ZM39.6211 35.2622L34.3478 35.5283C34.4288 36.181 34.7073 36.6996 35.1833 37.0841C35.6589 37.4606 36.2442 37.6314 36.9393 37.5963C37.3308 37.5765 37.6869 37.4905 38.0077 37.3381C38.328 37.1778 38.6011 36.9557 38.8271 36.672L39.3343 37.1991C39.0716 37.5488 38.733 37.8222 38.3184 38.0193C37.9118 38.2161 37.4568 38.3271 36.9534 38.3525C36.3063 38.3852 35.7241 38.2784 35.2071 38.0321C34.6976 37.7775 34.2907 37.4135 33.9865 36.9403C33.6823 36.467 33.5146 35.9227 33.4836 35.3075C33.4526 34.6923 33.5566 34.1344 33.7956 33.6337C34.0427 33.1326 34.3911 32.7345 34.8408 32.4395C35.2985 32.144 35.819 31.9816 36.4022 31.9522C36.9855 31.9228 37.5157 32.0322 37.9928 32.2805C38.4699 32.5287 38.8526 32.8899 39.1408 33.364C39.4287 33.8301 39.5883 34.3747 39.6198 34.9979L39.6211 35.2622ZM36.4391 32.6833C35.8319 32.7139 35.3304 32.9354 34.9347 33.3479C34.5466 33.752 34.3403 34.267 34.3158 34.8931L38.7861 34.6675C38.6987 34.0471 38.4376 33.5557 38.0028 33.1931C37.5756 32.8222 37.0543 32.6522 36.4391 32.6833ZM50.0453 31.3119L50.3633 37.6159L41.6624 38.0549L41.3443 31.7509L42.1952 31.708L42.4758 37.2689L45.5679 37.1129L45.2873 31.552L46.1382 31.509L46.4188 37.07L49.4749 36.9158L49.1943 31.3548L50.0453 31.3119ZM58.16 34.3268L52.8867 34.5929C52.9677 35.2456 53.2462 35.7643 53.7222 36.1488C54.1978 36.5253 54.7831 36.696 55.4782 36.6609C55.8697 36.6412 56.2259 36.5551 56.5466 36.4028C56.8669 36.2424 57.1401 36.0204 57.3661 35.7366L57.8733 36.2637C57.6105 36.6134 57.2719 36.8868 56.8573 37.084C56.4507 37.2807 55.9957 37.3918 55.4924 37.4172C54.8452 37.4498 54.2631 37.343 53.746 37.0968C53.2365 36.8421 52.8297 36.4782 52.5254 36.0049C52.2212 35.5316 52.0536 34.9874 52.0225 34.3722C51.9915 33.7569 52.0955 33.199 52.3346 32.6983C52.5816 32.1972 52.93 31.7992 53.3797 31.5041C53.8374 31.2087 54.3579 31.0463 54.9411 31.0168C55.5244 30.9874 56.0546 31.0968 56.5317 31.3451C57.0088 31.5934 57.3915 31.9545 57.6798 32.4286C57.9676 32.8947 58.1273 33.4394 58.1587 34.0626L58.16 34.3268ZM54.978 31.7479C54.3708 31.7785 53.8693 32.0001 53.4736 32.4125C53.0855 32.8166 52.8792 33.3317 52.8547 33.9577L57.325 33.7322C57.2376 33.1118 56.9765 32.6203 56.5417 32.2578C56.1145 31.8868 55.5932 31.7169 54.978 31.7479ZM64.0517 33.6571C64.9167 33.8137 65.3702 34.3075 65.4121 35.1384C65.4399 35.6897 65.2575 36.1235 64.865 36.4397C64.4724 36.7558 63.8726 36.9343 63.0657 36.975L60.2013 37.1195L59.8832 30.8155L62.6637 30.6753C63.3828 30.639 63.9531 30.7504 64.3747 31.0095C64.7963 31.2685 65.0202 31.6578 65.0464 32.1771C65.0638 32.5207 64.9828 32.8211 64.8035 33.0785C64.6319 33.3274 64.3813 33.5203 64.0517 33.6571ZM60.8517 33.5782L62.7453 33.4827C63.2327 33.4581 63.5996 33.3475 63.846 33.1508C64.1004 32.9538 64.2187 32.6794 64.2009 32.3279C64.1832 31.9763 64.0381 31.7193 63.7655 31.5569C63.501 31.394 63.125 31.3248 62.6376 31.3494L60.7441 31.445L60.8517 33.5782ZM62.9958 36.3057C63.5392 36.2783 63.9422 36.1698 64.205 35.9803C64.4678 35.7908 64.5897 35.5083 64.5708 35.1328C64.5518 34.7573 64.4141 34.4879 64.1575 34.3246C63.9005 34.1533 63.5044 34.0812 62.9691 34.1082L60.8837 34.2134L60.9944 36.4067L62.9958 36.3057ZM72.3282 30.1876L72.6463 36.4916L71.7953 36.5346L71.5154 30.9856L68.4952 31.138L68.4899 32.7002C68.4921 34.0138 68.3911 35.0282 68.1869 35.7434C67.9827 36.4586 67.573 36.8317 66.9577 36.8627C66.7899 36.8712 66.5846 36.8495 66.3417 36.7977L66.3647 36.0636C66.5101 36.0883 66.6108 36.0993 66.6668 36.0964C66.9943 36.0799 67.2344 35.9156 67.3868 35.6035C67.5393 35.2914 67.6322 34.9103 67.6656 34.46C67.6989 34.0098 67.717 33.4161 67.7199 32.679L67.7141 30.4204L72.3282 30.1876ZM80.4325 33.2031L75.1592 33.4692C75.2402 34.1219 75.5187 34.6405 75.9946 35.025C76.4702 35.4016 77.0556 35.5723 77.7507 35.5372C78.1422 35.5174 78.4983 35.4314 78.819 35.279C79.1394 35.1187 79.4125 34.8966 79.6385 34.6129L80.1457 35.14C79.883 35.4897 79.5443 35.7631 79.1298 35.9602C78.7231 36.157 78.2682 36.2681 77.7648 36.2935C77.1176 36.3261 76.5355 36.2193 76.0184 35.973C75.509 35.7184 75.1021 35.3544 74.7979 34.8812C74.4936 34.4079 74.326 33.8636 74.295 33.2484C74.2639 32.6332 74.3679 32.0753 74.607 31.5746C74.8541 31.0735 75.2025 30.6754 75.6522 30.3804C76.1099 30.085 76.6303 29.9225 77.2136 29.8931C77.7969 29.8637 78.327 29.9731 78.8042 30.2214C79.2813 30.4696 79.664 30.8308 79.9522 31.3049C80.2401 31.771 80.3997 32.3156 80.4312 32.9388L80.4325 33.2031ZM77.2505 30.6242C76.6433 30.6548 76.1418 30.8764 75.7461 31.2888C75.3579 31.6929 75.1516 32.2079 75.1271 32.834L79.5974 32.6084C79.5101 31.988 79.249 31.4966 78.8142 31.134C78.3869 30.7631 77.8657 30.5931 77.2505 30.6242ZM92.3394 29.178L92.6574 35.482L91.8784 35.5213L91.6269 30.5356L89.287 34.8831L88.9035 34.9024L86.1373 30.8006L86.3894 35.7982L85.6104 35.8375L85.2923 29.5336L86.1552 29.49L89.057 33.8974L91.5484 29.2179L92.3394 29.178ZM97.6825 35.2885C97.0753 35.3192 96.5212 35.2109 96.0201 34.9639C95.5186 34.7088 95.1157 34.3447 94.8115 33.8714C94.5072 33.3981 94.3396 32.8539 94.3086 32.2387C94.2775 31.6234 94.3895 31.0651 94.6446 30.5636C94.8996 30.0621 95.264 29.6632 95.7377 29.367C96.2114 29.0708 96.7518 28.9073 97.359 28.8767C97.9663 28.846 98.5204 28.9543 99.0215 29.2013C99.5226 29.4484 99.9213 29.8088 100.218 30.2824C100.522 30.7557 100.689 31.2999 100.72 31.9152C100.751 32.5304 100.639 33.0887 100.384 33.5902C100.137 34.0913 99.7772 34.494 99.3039 34.7982C98.8302 35.0944 98.2898 35.2579 97.6825 35.2885ZM97.6444 34.5335C98.0919 34.5109 98.4863 34.3909 98.8278 34.1734C99.1769 33.9475 99.4418 33.6418 99.6226 33.2562C99.8034 32.8706 99.8817 32.4381 99.8575 31.9587C99.8333 31.4793 99.7119 31.0569 99.4932 30.6914C99.2745 30.326 98.9803 30.0525 98.6107 29.8709C98.2487 29.6809 97.844 29.5972 97.3965 29.6197C96.9491 29.6423 96.5508 29.7665 96.2018 29.9924C95.8603 30.2099 95.5952 30.5116 95.4064 30.8976C95.2256 31.2832 95.1473 31.7157 95.1715 32.1951C95.1957 32.6745 95.3171 33.0969 95.5358 33.4624C95.7625 33.8274 96.0568 34.1049 96.4189 34.2949C96.7885 34.4765 97.197 34.5561 97.6444 34.5335ZM107.859 31.9034L106.493 31.9724L106.634 34.7768L105.783 34.8197L105.642 32.0153L104.276 32.0842L102.488 34.986L101.469 35.0374L103.57 31.6753L101.331 28.7244L102.253 28.6778L104.239 31.3532L105.605 31.2842L105.465 28.5157L106.316 28.4728L106.456 31.2413L107.822 31.1724L109.54 28.3102L110.463 28.2636L108.532 31.4369L110.961 34.5585L109.942 34.6099L107.859 31.9034ZM112.059 28.1831L112.91 28.1401L113.051 30.9326L117.018 30.7324L116.877 27.94L117.728 27.8971L118.046 34.201L117.195 34.244L117.055 31.4635L113.088 31.6637L113.228 34.4441L112.377 34.487L112.059 28.1831ZM123.068 34.0077C122.461 34.0384 121.907 33.9301 121.406 33.6831C120.904 33.428 120.501 33.0639 120.197 32.5906C119.893 32.1173 119.725 31.5731 119.694 30.9579C119.663 30.3426 119.775 29.7843 120.03 29.2828C120.285 28.7813 120.65 28.3824 121.123 28.0862C121.597 27.7899 122.137 27.6265 122.745 27.5959C123.352 27.5652 123.906 27.6734 124.407 27.9205C124.908 28.1676 125.307 28.5279 125.603 29.0016C125.907 29.4749 126.075 30.0191 126.106 30.6344C126.137 31.2496 126.025 31.8079 125.77 32.3094C125.523 32.8105 125.163 33.2132 124.69 33.5174C124.216 33.8136 123.675 33.9771 123.068 34.0077ZM123.03 33.2527C123.478 33.2301 123.872 33.1101 124.213 32.8926C124.563 32.6667 124.827 32.361 125.008 31.9754C125.189 31.5898 125.267 31.1573 125.243 30.6779C125.219 30.1985 125.098 29.7761 124.879 29.4106C124.66 29.0452 124.366 28.7717 123.996 28.5901C123.634 28.4001 123.23 28.3164 122.782 28.3389C122.335 28.3615 121.937 28.4857 121.587 28.7116C121.246 28.9291 120.981 29.2308 120.792 29.6168C120.611 30.0024 120.533 30.4349 120.557 30.9143C120.581 31.3937 120.703 31.8161 120.921 32.1816C121.148 32.5466 121.443 32.8241 121.805 33.0141C122.174 33.1957 122.583 33.2753 123.03 33.2527ZM14.1831 54.5205C13.5599 54.5519 12.9938 54.4443 12.4847 54.1976C11.9836 53.9506 11.5809 53.5904 11.2767 53.1171C10.9721 52.6359 10.8042 52.0876 10.7732 51.4724C10.7422 50.8572 10.8542 50.2989 11.1092 49.7974C11.3643 49.2959 11.7286 48.897 12.2023 48.6008C12.684 48.3041 13.2364 48.1401 13.8596 48.1086C14.4029 48.0812 14.8917 48.1647 15.3261 48.3591C15.768 48.545 16.1231 48.8355 16.3914 49.2305L15.7779 49.694C15.5545 49.3929 15.2791 49.1745 14.9519 49.0388C14.6242 48.8951 14.2726 48.8327 13.8971 48.8517C13.4417 48.8747 13.0354 48.9993 12.6784 49.2256C12.3289 49.4435 12.0598 49.7454 11.871 50.1314C11.6902 50.517 11.6119 50.9495 11.6361 51.4289C11.6607 51.9163 11.7823 52.3427 12.001 52.7081C12.2273 53.0652 12.5255 53.3385 12.8955 53.5281C13.2731 53.7093 13.6896 53.7884 14.145 53.7654C14.5205 53.7465 14.8643 53.653 15.1762 53.4851C15.4881 53.3172 15.7401 53.0722 15.9321 52.7501L16.5891 53.1495C16.362 53.5695 16.0381 53.8982 15.6176 54.1357C15.1966 54.3652 14.7184 54.4935 14.1831 54.5205ZM24.1966 53.2102L24.3109 55.4754L23.5079 55.5159L23.4311 53.9938L17.7863 54.2786L17.8631 55.8007L17.0601 55.8412L16.9458 53.5761L17.3054 53.5579C17.7276 53.5126 17.9995 53.1865 18.1211 52.5796C18.2427 51.9727 18.3042 51.1285 18.3057 50.0471L18.2832 47.9335L22.9333 47.6989L23.2138 53.2598L24.1966 53.2102ZM19.0871 50.0557C19.0923 50.9526 19.0537 51.6955 18.9713 52.2844C18.8885 52.8653 18.7087 53.2708 18.4319 53.5011L22.3629 53.3027L22.1205 48.4969L19.0883 48.6498L19.0871 50.0557ZM31.2596 50.7031L25.9864 50.9692C26.0673 51.6219 26.3458 52.1406 26.8218 52.5251C27.2974 52.9016 27.8827 53.0723 28.5779 53.0372C28.9694 53.0175 29.3255 52.9314 29.6462 52.7791C29.9665 52.6187 30.2397 52.3967 30.4657 52.1129L30.9729 52.6401C30.7102 52.9897 30.3715 53.2631 29.9569 53.4603C29.5503 53.657 29.0953 53.7681 28.592 53.7935C27.9448 53.8261 27.3627 53.7193 26.8456 53.4731C26.3361 53.2184 25.9293 52.8545 25.625 52.3812C25.3208 51.9079 25.1532 51.3637 25.1221 50.7485C25.0911 50.1333 25.1951 49.5753 25.4342 49.0746C25.6812 48.5735 26.0296 48.1755 26.4793 47.8804C26.937 47.585 27.4575 47.4226 28.0408 47.3931C28.624 47.3637 29.1542 47.4731 29.6313 47.7214C30.1084 47.9697 30.4911 48.3309 30.7794 48.8049C31.0672 49.271 31.2269 49.8157 31.2583 50.4389L31.2596 50.7031ZM28.0776 48.1242C27.4704 48.1548 26.9689 48.3764 26.5732 48.7889C26.1851 49.1929 25.9788 49.708 25.9543 50.334L30.4246 50.1085C30.3372 49.4881 30.0761 48.9966 29.6413 48.6341C29.2141 48.2631 28.6929 48.0932 28.0776 48.1242ZM38.0076 46.9383L38.3256 53.2423L37.4747 53.2852L37.1947 47.7363L34.1746 47.8887L34.1693 49.4509C34.1715 50.7645 34.0705 51.7789 33.8663 52.4941C33.662 53.2093 33.2523 53.5824 32.6371 53.6134C32.4693 53.6219 32.264 53.6002 32.021 53.5484L32.0441 52.8143C32.1895 52.839 32.2902 52.8499 32.3461 52.8471C32.6737 52.8306 32.9137 52.6663 33.0662 52.3542C33.2187 52.0421 33.3116 51.661 33.3449 51.2107C33.3783 50.7605 33.3964 50.1668 33.3993 49.4297L33.3934 47.1711L38.0076 46.9383ZM42.5933 46.6589C43.4163 46.6174 44.058 46.7933 44.5184 47.1866C44.9784 47.5719 45.2287 48.168 45.2695 48.975L45.4666 52.882L44.6516 52.9231L44.602 51.9404C44.4268 52.2777 44.1561 52.5476 43.7898 52.7504C43.4316 52.9527 42.9967 53.0667 42.4854 53.0925C41.7823 53.128 41.2145 52.9884 40.7821 52.6738C40.3497 52.3592 40.1196 51.9262 40.0918 51.3749C40.0648 50.8396 40.2348 50.3985 40.6018 50.0516C40.9767 49.7042 41.5877 49.5092 42.4346 49.4665L44.4361 49.3655L44.4167 48.982C44.3893 48.4387 44.2167 48.0348 43.899 47.7705C43.5809 47.4982 43.1302 47.3768 42.5469 47.4062C42.1475 47.4263 41.7674 47.5136 41.4067 47.668C41.0456 47.8144 40.7391 48.0101 40.4871 48.2551L40.0715 47.6392C40.3774 47.3514 40.7505 47.1244 41.1906 46.958C41.6304 46.7836 42.098 46.6839 42.5933 46.6589ZM42.5834 52.4147C43.0628 52.3905 43.4688 52.2619 43.8015 52.0288C44.1337 51.7878 44.3733 51.4553 44.5201 51.0314L44.4681 50.0007L42.4906 50.1004C41.412 50.1549 40.8916 50.5576 40.9295 51.3086C40.9481 51.6762 41.1026 51.9608 41.3931 52.1624C41.6833 52.356 42.08 52.4401 42.5834 52.4147ZM51.8862 46.9951L49.5012 47.1154L49.7812 52.6643L48.9303 52.7073L48.6503 47.1583L46.2653 47.2787L46.2272 46.5236L51.8481 46.24L51.8862 46.9951ZM55.8994 48.2705C56.6908 48.2385 57.2989 48.3841 57.7237 48.7071C58.1566 49.0297 58.3893 49.5146 58.4219 50.1618C58.4558 50.8329 58.2581 51.3595 57.8288 51.7416C57.4075 52.1234 56.7772 52.3314 55.9378 52.3657L53.3965 52.4819L53.0784 46.178L53.9293 46.135L54.0406 48.3402L55.8994 48.2705ZM55.8572 51.721C56.4409 51.6995 56.8745 51.5615 57.158 51.3069C57.4491 51.0439 57.5828 50.6767 57.559 50.2053C57.5356 49.7419 57.3705 49.4058 57.0636 49.197C56.7567 48.9882 56.3074 48.8947 55.7157 48.9165L54.0726 48.9754L54.2141 51.7798L55.8572 51.721ZM61.1253 49.5688C61.1088 49.2412 61.1462 48.9509 61.2376 48.698C61.3369 48.4447 61.4621 48.2261 61.613 48.0423C61.7639 47.8584 61.9616 47.6482 62.206 47.4116C62.5342 47.0906 62.7726 46.8143 62.9211 46.5825C63.0772 46.3423 63.147 46.0584 63.1305 45.7309C63.1083 45.2914 62.9188 44.9485 62.5619 44.7022C62.2046 44.4479 61.7264 44.3358 61.1271 44.3661C60.1364 44.4161 59.3897 44.7781 58.887 45.4523L58.2276 45.005C58.8649 44.1398 59.8386 43.6741 61.149 43.608C61.9879 43.5657 62.6645 43.7198 63.1788 44.0703C63.7011 44.4204 63.9784 44.9151 64.0107 45.5543C64.0272 45.8819 63.986 46.1763 63.887 46.4376C63.7957 46.6906 63.6745 46.9089 63.5236 47.0928C63.3806 47.2762 63.1872 47.4902 62.9432 47.7348C62.6154 48.0638 62.3738 48.3563 62.2185 48.6125C62.0628 48.8606 61.994 49.1645 62.0122 49.524L61.1253 49.5688ZM61.6987 52.1231C61.523 52.132 61.3721 52.0795 61.2462 51.9657C61.1199 51.8439 61.0526 51.6991 61.0441 51.5314C61.0352 51.3556 61.0879 51.2087 61.2021 51.0908C61.3159 50.9649 61.4607 50.8976 61.6365 50.8887C61.8202 50.8794 61.9751 50.9317 62.1009 51.0455C62.2264 51.1513 62.2936 51.2921 62.3025 51.4679C62.311 51.6357 62.2545 51.7867 62.1331 51.921C62.0193 52.0469 61.8745 52.1143 61.6987 52.1231Z" fill="#181818"/>
<defs>
<linearGradient id="paint0_linear" x1="165.015" y1="54.3597" x2="158.81" y2="52.788" gradientUnits="userSpaceOnUse">
<stop stop-color="#1492A1"/>
<stop offset="0.476486" stop-color="#BBB272"/>
<stop offset="1" stop-color="#F4C245"/>
</linearGradient>
<linearGradient id="paint1_linear" x1="158.5" y1="73.1167" x2="9.49999" y2="1.1167" gradientUnits="userSpaceOnUse">
<stop stop-color="#1492A1"/>
<stop offset="0.476486" stop-color="#BBB272"/>
<stop offset="1" stop-color="#F4C245"/>
</linearGradient>
</defs>
</svg>
