<svg width="166" height="47" viewBox="0 0 166 47" fill="none" xmlns="http://www.w3.org/2000/svg">
<path d="M0 47C3 45 3 38 3 36L10 44C9.33335 44.8333 7.49998 47 0 47Z" fill="#F8F8F8"/>
<rect width="163" height="47" rx="10" transform="matrix(-1 0 0 1 166 0)" fill="#F8F8F8"/>
<path d="M14.5 12.1L16.888 15.424L19.264 12.1H20.308L17.44 16.132L20.536 20.5H19.492L16.888 16.888L14.284 20.5H13.264L16.348 16.168L13.48 12.1H14.5ZM27.8677 19.732V20.5H21.9277V12.1H27.6877V12.868H22.8157V15.856H27.1597V16.612H22.8157V19.732H27.8677ZM36.4259 12.1V20.5H35.5499V12.868H31.4939L31.3979 15.676C31.3579 16.836 31.2619 17.772 31.1099 18.484C30.9659 19.188 30.7419 19.716 30.4379 20.068C30.1339 20.412 29.7299 20.584 29.2259 20.584C29.0099 20.584 28.7859 20.556 28.5539 20.5L28.6259 19.708C28.7619 19.74 28.8939 19.756 29.0219 19.756C29.3739 19.756 29.6579 19.616 29.8739 19.336C30.0979 19.056 30.2659 18.624 30.3779 18.04C30.4899 17.448 30.5659 16.668 30.6059 15.7L30.7259 12.1H36.4259ZM46.3278 12.1V20.5H45.4518V12.868H40.1358V20.5H39.2598V12.1H46.3278ZM48.8021 12.1H49.8101L49.6301 17.98H48.9701L48.8021 12.1ZM49.3061 20.56C49.1301 20.56 48.9781 20.5 48.8501 20.38C48.7301 20.252 48.6701 20.104 48.6701 19.936C48.6701 19.76 48.7301 19.616 48.8501 19.504C48.9701 19.384 49.1221 19.324 49.3061 19.324C49.4821 19.324 49.6301 19.384 49.7501 19.504C49.8701 19.616 49.9301 19.76 49.9301 19.936C49.9301 20.104 49.8701 20.252 49.7501 20.38C49.6301 20.5 49.4821 20.56 49.3061 20.56ZM51.9193 12.1H52.9273L52.7473 17.98H52.0873L51.9193 12.1ZM52.4233 20.56C52.2473 20.56 52.0953 20.5 51.9673 20.38C51.8473 20.252 51.7873 20.104 51.7873 19.936C51.7873 19.76 51.8473 19.616 51.9673 19.504C52.0873 19.384 52.2393 19.324 52.4233 19.324C52.5993 19.324 52.7473 19.384 52.8673 19.504C52.9873 19.616 53.0473 19.76 53.0473 19.936C53.0473 20.104 52.9873 20.252 52.8673 20.38C52.7473 20.5 52.5993 20.56 52.4233 20.56ZM55.0365 12.1H56.0445L55.8645 17.98H55.2045L55.0365 12.1ZM55.5405 20.56C55.3645 20.56 55.2125 20.5 55.0845 20.38C54.9645 20.252 54.9045 20.104 54.9045 19.936C54.9045 19.76 54.9645 19.616 55.0845 19.504C55.2045 19.384 55.3565 19.324 55.5405 19.324C55.7165 19.324 55.8645 19.384 55.9845 19.504C56.1045 19.616 56.1645 19.76 56.1645 19.936C56.1645 20.104 56.1045 20.252 55.9845 20.38C55.8645 20.5 55.7165 20.56 55.5405 20.56ZM64.4383 16.648H62.5183V20.5H61.6543V12.1H62.5183V15.868H64.4383L67.2823 12.1H68.2423L65.1223 16.18L68.4223 20.5H67.4023L64.4383 16.648ZM73.7184 14.944H71.3304V20.5H70.4784V14.944H68.0904V14.188H73.7184V14.944ZM77.2613 20.56C76.6533 20.56 76.1053 20.424 75.6173 20.152C75.1293 19.872 74.7453 19.488 74.4653 19C74.1853 18.512 74.0453 17.96 74.0453 17.344C74.0453 16.728 74.1853 16.176 74.4653 15.688C74.7453 15.2 75.1293 14.82 75.6173 14.548C76.1053 14.276 76.6533 14.14 77.2613 14.14C77.8693 14.14 78.4173 14.276 78.9053 14.548C79.3933 14.82 79.7733 15.2 80.0453 15.688C80.3253 16.176 80.4653 16.728 80.4653 17.344C80.4653 17.96 80.3253 18.512 80.0453 19C79.7733 19.488 79.3933 19.872 78.9053 20.152C78.4173 20.424 77.8693 20.56 77.2613 20.56ZM77.2613 19.804C77.7093 19.804 78.1093 19.704 78.4613 19.504C78.8213 19.296 79.1013 19.004 79.3013 18.628C79.5013 18.252 79.6013 17.824 79.6013 17.344C79.6013 16.864 79.5013 16.436 79.3013 16.06C79.1013 15.684 78.8213 15.396 78.4613 15.196C78.1093 14.988 77.7093 14.884 77.2613 14.884C76.8133 14.884 76.4093 14.988 76.0493 15.196C75.6973 15.396 75.4173 15.684 75.2093 16.06C75.0093 16.436 74.9093 16.864 74.9093 17.344C74.9093 17.824 75.0093 18.252 75.2093 18.628C75.4173 19.004 75.6973 19.296 76.0493 19.504C76.4093 19.704 76.8133 19.804 77.2613 19.804ZM89.4468 17.236C90.3028 17.436 90.7308 17.952 90.7308 18.784C90.7308 19.336 90.5268 19.76 90.1188 20.056C89.7108 20.352 89.1028 20.5 88.2948 20.5H85.4268V14.188H88.2108C88.9308 14.188 89.4948 14.328 89.9028 14.608C90.3108 14.888 90.5148 15.288 90.5148 15.808C90.5148 16.152 90.4188 16.448 90.2268 16.696C90.0428 16.936 89.7828 17.116 89.4468 17.236ZM86.2548 16.996H88.1508C88.6388 16.996 89.0108 16.904 89.2668 16.72C89.5308 16.536 89.6628 16.268 89.6628 15.916C89.6628 15.564 89.5308 15.3 89.2668 15.124C89.0108 14.948 88.6388 14.86 88.1508 14.86H86.2548V16.996ZM88.2588 19.828C88.8028 19.828 89.2108 19.74 89.4828 19.564C89.7548 19.388 89.8908 19.112 89.8908 18.736C89.8908 18.36 89.7668 18.084 89.5188 17.908C89.2708 17.724 88.8788 17.632 88.3428 17.632H86.2548V19.828H88.2588ZM99.7443 20.572C98.9123 20.572 98.1603 20.388 97.4883 20.02C96.8243 19.652 96.3003 19.144 95.9163 18.496C95.5403 17.84 95.3523 17.108 95.3523 16.3C95.3523 15.492 95.5403 14.764 95.9163 14.116C96.3003 13.46 96.8283 12.948 97.5003 12.58C98.1723 12.212 98.9243 12.028 99.7563 12.028C100.38 12.028 100.956 12.132 101.484 12.34C102.012 12.548 102.46 12.852 102.828 13.252L102.264 13.816C101.608 13.152 100.78 12.82 99.7803 12.82C99.1163 12.82 98.5123 12.972 97.9683 13.276C97.4243 13.58 96.9963 13.996 96.6843 14.524C96.3803 15.052 96.2283 15.644 96.2283 16.3C96.2283 16.956 96.3803 17.548 96.6843 18.076C96.9963 18.604 97.4243 19.02 97.9683 19.324C98.5123 19.628 99.1163 19.78 99.7803 19.78C100.788 19.78 101.616 19.444 102.264 18.772L102.828 19.336C102.46 19.736 102.008 20.044 101.472 20.26C100.944 20.468 100.368 20.572 99.7443 20.572ZM106.781 20.56C106.173 20.56 105.625 20.424 105.137 20.152C104.649 19.872 104.265 19.488 103.985 19C103.705 18.512 103.565 17.96 103.565 17.344C103.565 16.728 103.705 16.176 103.985 15.688C104.265 15.2 104.649 14.82 105.137 14.548C105.625 14.276 106.173 14.14 106.781 14.14C107.389 14.14 107.937 14.276 108.425 14.548C108.913 14.82 109.293 15.2 109.565 15.688C109.845 16.176 109.985 16.728 109.985 17.344C109.985 17.96 109.845 18.512 109.565 19C109.293 19.488 108.913 19.872 108.425 20.152C107.937 20.424 107.389 20.56 106.781 20.56ZM106.781 19.804C107.229 19.804 107.629 19.704 107.981 19.504C108.341 19.296 108.621 19.004 108.821 18.628C109.021 18.252 109.121 17.824 109.121 17.344C109.121 16.864 109.021 16.436 108.821 16.06C108.621 15.684 108.341 15.396 107.981 15.196C107.629 14.988 107.229 14.884 106.781 14.884C106.333 14.884 105.929 14.988 105.569 15.196C105.217 15.396 104.937 15.684 104.729 16.06C104.529 16.436 104.429 16.864 104.429 17.344C104.429 17.824 104.529 18.252 104.729 18.628C104.937 19.004 105.217 19.296 105.569 19.504C105.929 19.704 106.333 19.804 106.781 19.804ZM116.931 14.188V20.5H116.079V14.944H113.055L112.971 16.504C112.907 17.816 112.755 18.824 112.515 19.528C112.275 20.232 111.847 20.584 111.231 20.584C111.063 20.584 110.859 20.552 110.619 20.488L110.679 19.756C110.823 19.788 110.923 19.804 110.979 19.804C111.307 19.804 111.555 19.652 111.723 19.348C111.891 19.044 112.003 18.668 112.059 18.22C112.115 17.772 112.163 17.18 112.203 16.444L112.311 14.188H116.931ZM119.353 14.188H120.205V16.984H124.177V14.188H125.029V20.5H124.177V17.716H120.205V20.5H119.353V14.188ZM134.026 19.756V22.084H133.222V20.5H127.45V14.188H128.302V19.756H132.154V14.188H133.006V19.756H134.026ZM141.173 17.608H135.893C135.941 18.264 136.193 18.796 136.649 19.204C137.105 19.604 137.681 19.804 138.377 19.804C138.769 19.804 139.129 19.736 139.457 19.6C139.785 19.456 140.069 19.248 140.309 18.976L140.789 19.528C140.509 19.864 140.157 20.12 139.733 20.296C139.317 20.472 138.857 20.56 138.353 20.56C137.705 20.56 137.129 20.424 136.625 20.152C136.129 19.872 135.741 19.488 135.461 19C135.181 18.512 135.041 17.96 135.041 17.344C135.041 16.728 135.173 16.176 135.437 15.688C135.709 15.2 136.077 14.82 136.541 14.548C137.013 14.276 137.541 14.14 138.125 14.14C138.709 14.14 139.233 14.276 139.697 14.548C140.161 14.82 140.525 15.2 140.789 15.688C141.053 16.168 141.185 16.72 141.185 17.344L141.173 17.608ZM138.125 14.872C137.517 14.872 137.005 15.068 136.589 15.46C136.181 15.844 135.949 16.348 135.893 16.972H140.369C140.313 16.348 140.077 15.844 139.661 15.46C139.253 15.068 138.741 14.872 138.125 14.872ZM147.091 17.236C147.947 17.436 148.375 17.952 148.375 18.784C148.375 19.336 148.171 19.76 147.763 20.056C147.355 20.352 146.747 20.5 145.939 20.5H143.071V14.188H145.855C146.575 14.188 147.139 14.328 147.547 14.608C147.955 14.888 148.159 15.288 148.159 15.808C148.159 16.152 148.063 16.448 147.871 16.696C147.687 16.936 147.427 17.116 147.091 17.236ZM143.899 16.996H145.795C146.283 16.996 146.655 16.904 146.911 16.72C147.175 16.536 147.307 16.268 147.307 15.916C147.307 15.564 147.175 15.3 146.911 15.124C146.655 14.948 146.283 14.86 145.795 14.86H143.899V16.996ZM145.903 19.828C146.447 19.828 146.855 19.74 147.127 19.564C147.399 19.388 147.535 19.112 147.535 18.736C147.535 18.36 147.411 18.084 147.163 17.908C146.915 17.724 146.523 17.632 145.987 17.632H143.899V19.828H145.903ZM152.976 20.56C152.368 20.56 151.82 20.424 151.332 20.152C150.844 19.872 150.46 19.488 150.18 19C149.9 18.512 149.76 17.96 149.76 17.344C149.76 16.728 149.9 16.176 150.18 15.688C150.46 15.2 150.844 14.82 151.332 14.548C151.82 14.276 152.368 14.14 152.976 14.14C153.584 14.14 154.132 14.276 154.62 14.548C155.108 14.82 155.488 15.2 155.76 15.688C156.04 16.176 156.18 16.728 156.18 17.344C156.18 17.96 156.04 18.512 155.76 19C155.488 19.488 155.108 19.872 154.62 20.152C154.132 20.424 153.584 20.56 152.976 20.56ZM152.976 19.804C153.424 19.804 153.824 19.704 154.176 19.504C154.536 19.296 154.816 19.004 155.016 18.628C155.216 18.252 155.316 17.824 155.316 17.344C155.316 16.864 155.216 16.436 155.016 16.06C154.816 15.684 154.536 15.396 154.176 15.196C153.824 14.988 153.424 14.884 152.976 14.884C152.528 14.884 152.124 14.988 151.764 15.196C151.412 15.396 151.132 15.684 150.924 16.06C150.724 16.436 150.624 16.864 150.624 17.344C150.624 17.824 150.724 18.252 150.924 18.628C151.132 19.004 151.412 19.296 151.764 19.504C152.124 19.704 152.528 19.804 152.976 19.804ZM21.268 29.188V35.5H20.488V30.508L17.932 34.732H17.548L14.992 30.496V35.5H14.212V29.188H15.076L17.752 33.736L20.476 29.188H21.268ZM26.2965 35.56C25.6885 35.56 25.1405 35.424 24.6525 35.152C24.1645 34.872 23.7805 34.488 23.5005 34C23.2205 33.512 23.0805 32.96 23.0805 32.344C23.0805 31.728 23.2205 31.176 23.5005 30.688C23.7805 30.2 24.1645 29.82 24.6525 29.548C25.1405 29.276 25.6885 29.14 26.2965 29.14C26.9045 29.14 27.4525 29.276 27.9405 29.548C28.4285 29.82 28.8085 30.2 29.0805 30.688C29.3605 31.176 29.5005 31.728 29.5005 32.344C29.5005 32.96 29.3605 33.512 29.0805 34C28.8085 34.488 28.4285 34.872 27.9405 35.152C27.4525 35.424 26.9045 35.56 26.2965 35.56ZM26.2965 34.804C26.7445 34.804 27.1445 34.704 27.4965 34.504C27.8565 34.296 28.1279 34.004 28.3365 33.628C28.5365 33.252 28.6365 32.824 28.6365 32.344C28.6365 31.864 28.5365 31.436 28.3365 31.06C28.1279 30.684 27.8565 30.396 27.4965 30.196C27.1445 29.988 26.7445 29.884 26.2965 29.884C25.8485 29.884 25.4445 29.988 25.0845 30.196C24.7325 30.396 24.4525 30.684 24.2445 31.06C24.0445 31.436 23.9445 31.864 23.9445 32.344C23.9445 32.824 24.0445 33.252 24.2445 33.628C24.4525 34.004 24.7325 34.296 25.0845 34.504C25.4445 34.704 25.8485 34.804 26.2965 34.804ZM36.6307 32.692H35.2627V35.5H34.4107V32.692H33.0427L31.1107 35.5H30.0907L32.3587 32.248L30.2707 29.188H31.1947L33.0427 31.96H34.4107V29.188H35.2627V31.96H36.6307L38.4907 29.188H39.4147L37.3267 32.26L39.5947 35.5H38.5747L36.6307 32.692ZM46.3101 32.608H41.0301C41.0781 33.264 41.3301 33.796 41.7861 34.204C42.2421 34.604 42.8181 34.804 43.5141 34.804C43.9061 34.804 44.2661 34.736 44.5941 34.6C44.9221 34.456 45.2061 34.248 45.4461 33.976L45.9261 34.528C45.6461 34.864 45.2941 35.12 44.8701 35.296C44.4541 35.472 43.9941 35.56 43.4901 35.56C42.8421 35.56 42.2661 35.424 41.7621 35.152C41.2661 34.872 40.8781 34.488 40.5981 34C40.3181 33.512 40.1781 32.96 40.1781 32.344C40.1781 31.728 40.3101 31.176 40.5741 30.688C40.8461 30.2 41.2141 29.82 41.6781 29.548C42.1501 29.276 42.6781 29.14 43.2621 29.14C43.8461 29.14 44.3701 29.276 44.8341 29.548C45.2981 29.82 45.6621 30.2 45.9261 30.688C46.1901 31.168 46.3221 31.72 46.3221 32.344L46.3101 32.608ZM43.2621 29.872C42.6541 29.872 42.1421 30.068 41.7261 30.46C41.3181 30.844 41.0861 31.348 41.0301 31.972H45.5061C45.4501 31.348 45.2141 30.844 44.7981 30.46C44.3901 30.068 43.8781 29.872 43.2621 29.872ZM52.3668 29.944H49.9788V35.5H49.1268V29.944H46.7388V29.188H52.3668V29.944ZM61.1793 29.944H58.7913V35.5H57.9393V29.944H55.5513V29.188H61.1793V29.944ZM64.7223 35.56C64.1143 35.56 63.5663 35.424 63.0783 35.152C62.5903 34.872 62.2063 34.488 61.9263 34C61.6463 33.512 61.5063 32.96 61.5063 32.344C61.5063 31.728 61.6463 31.176 61.9263 30.688C62.2063 30.2 62.5903 29.82 63.0783 29.548C63.5663 29.276 64.1143 29.14 64.7223 29.14C65.3303 29.14 65.8783 29.276 66.3663 29.548C66.8543 29.82 67.2343 30.2 67.5063 30.688C67.7863 31.176 67.9263 31.728 67.9263 32.344C67.9263 32.96 67.7863 33.512 67.5063 34C67.2343 34.488 66.8543 34.872 66.3663 35.152C65.8783 35.424 65.3303 35.56 64.7223 35.56ZM64.7223 34.804C65.1703 34.804 65.5703 34.704 65.9223 34.504C66.2823 34.296 66.5623 34.004 66.7623 33.628C66.9623 33.252 67.0623 32.824 67.0623 32.344C67.0623 31.864 66.9623 31.436 66.7623 31.06C66.5623 30.684 66.2823 30.396 65.9223 30.196C65.5703 29.988 65.1703 29.884 64.7223 29.884C64.2743 29.884 63.8703 29.988 63.5103 30.196C63.1583 30.396 62.8783 30.684 62.6702 31.06C62.4703 31.436 62.3703 31.864 62.3703 32.344C62.3703 32.824 62.4703 33.252 62.6702 33.628C62.8783 34.004 63.1583 34.296 63.5103 34.504C63.8703 34.704 64.2743 34.804 64.7223 34.804ZM74.872 29.188V35.5H74.02V29.944H70.996L70.912 31.504C70.848 32.816 70.696 33.824 70.456 34.528C70.216 35.232 69.788 35.584 69.172 35.584C69.004 35.584 68.8 35.552 68.56 35.488L68.62 34.756C68.764 34.788 68.864 34.804 68.92 34.804C69.248 34.804 69.496 34.652 69.664 34.348C69.832 34.044 69.944 33.668 70 33.22C70.056 32.772 70.104 32.18 70.144 31.444L70.252 29.188H74.872ZM79.586 32.692H78.146V35.5H77.294V29.188H78.146V31.96H79.598L81.818 29.188H82.742L80.258 32.248L82.922 35.5H81.914L79.586 32.692ZM84.2667 29.188H85.1187V31.984H89.0907V29.188H89.9427V35.5H89.0907V32.716H85.1187V35.5H84.2667V29.188ZM97.7283 29.188L94.5723 36.256C94.3163 36.848 94.0203 37.268 93.6843 37.516C93.3483 37.764 92.9443 37.888 92.4723 37.888C92.1683 37.888 91.8843 37.84 91.6203 37.744C91.3563 37.648 91.1283 37.504 90.9363 37.312L91.3323 36.676C91.6523 36.996 92.0363 37.156 92.4843 37.156C92.7723 37.156 93.0163 37.076 93.2163 36.916C93.4243 36.756 93.6163 36.484 93.7923 36.1L94.0683 35.488L91.2483 29.188H92.1363L94.5123 34.552L96.8883 29.188H97.7283ZM103.519 29.944H101.131V35.5H100.279V29.944H97.8912V29.188H103.519V29.944ZM107.463 31.42C108.255 31.428 108.855 31.604 109.263 31.948C109.679 32.292 109.887 32.788 109.887 33.436C109.887 34.108 109.663 34.624 109.215 34.984C108.775 35.344 108.135 35.52 107.295 35.512L104.751 35.5V29.188H105.603V31.396L107.463 31.42ZM107.247 34.864C107.831 34.872 108.271 34.756 108.567 34.516C108.871 34.268 109.023 33.908 109.023 33.436C109.023 32.972 108.875 32.628 108.579 32.404C108.283 32.18 107.839 32.064 107.247 32.056L105.603 32.032V34.84L107.247 34.864ZM112.617 32.98C112.617 32.652 112.669 32.364 112.773 32.116C112.885 31.868 113.021 31.656 113.181 31.48C113.341 31.304 113.549 31.104 113.805 30.88C114.149 30.576 114.401 30.312 114.561 30.088C114.729 29.856 114.813 29.576 114.813 29.248C114.813 28.808 114.641 28.456 114.297 28.192C113.953 27.92 113.481 27.784 112.881 27.784C111.889 27.784 111.125 28.108 110.589 28.756L109.953 28.276C110.633 27.444 111.629 27.028 112.941 27.028C113.781 27.028 114.449 27.216 114.945 27.592C115.449 27.968 115.701 28.476 115.701 29.116C115.701 29.444 115.645 29.736 115.533 29.992C115.429 30.24 115.297 30.452 115.137 30.628C114.985 30.804 114.781 31.008 114.525 31.24C114.181 31.552 113.925 31.832 113.757 32.08C113.589 32.32 113.505 32.62 113.505 32.98H112.617ZM113.061 35.56C112.885 35.56 112.737 35.5 112.617 35.38C112.497 35.252 112.437 35.104 112.437 34.936C112.437 34.76 112.497 34.616 112.617 34.504C112.737 34.384 112.885 34.324 113.061 34.324C113.245 34.324 113.397 34.384 113.517 34.504C113.637 34.616 113.697 34.76 113.697 34.936C113.697 35.104 113.633 35.252 113.505 35.38C113.385 35.5 113.237 35.56 113.061 35.56Z" fill="#181818"/>
</svg>
